<svg xmlns="http://www.w3.org/2000/svg" xmlns:xlink="http://www.w3.org/1999/xlink" width="500" zoomAndPan="magnify" viewBox="0 0 375 374.999991" height="500" preserveAspectRatio="xMidYMid meet" version="1.0"><defs><g/><clipPath id="d16048a44b"><path d="M 24.386719 44.59375 L 350.636719 44.59375 L 350.636719 267.34375 L 24.386719 267.34375 Z M 24.386719 44.59375 " clip-rule="nonzero"/></clipPath><clipPath id="2dcb996723"><path d="M 173 51.4375 L 188 51.4375 L 188 65 L 173 65 Z M 173 51.4375 " clip-rule="nonzero"/></clipPath><clipPath id="59d6ce8e74"><path d="M 328.421875 191.710938 L 341.832031 191.710938 L 341.832031 205.652344 L 328.421875 205.652344 Z M 328.421875 191.710938 " clip-rule="nonzero"/></clipPath><clipPath id="71a83dc6f5"><path d="M 51 270 L 66 270 L 66 271.9375 L 51 271.9375 Z M 51 270 " clip-rule="nonzero"/></clipPath><clipPath id="febaa0a2ca"><path d="M 32.851562 207 L 47 207 L 47 222 L 32.851562 222 Z M 32.851562 207 " clip-rule="nonzero"/></clipPath><clipPath id="426c8dd9ea"><path d="M 133 126 L 242.4375 126 L 242.4375 269.882812 L 133 269.882812 Z M 133 126 " clip-rule="nonzero"/></clipPath></defs><g clip-path="url(#d16048a44b)"><path fill="#5a270a" d="M 187.511719 370.84375 C 97.589844 370.84375 24.386719 297.640625 24.386719 207.71875 C 24.386719 117.800781 97.589844 44.59375 187.511719 44.59375 C 277.429688 44.59375 350.636719 117.800781 350.636719 207.71875 C 350.636719 297.640625 277.429688 370.84375 187.511719 370.84375 Z M 187.511719 47.007812 C 98.878906 47.007812 26.796875 119.085938 26.796875 207.71875 C 26.796875 296.355469 98.878906 368.433594 187.511719 368.433594 C 276.144531 368.433594 348.226562 296.355469 348.226562 207.71875 C 348.226562 119.085938 276.144531 47.007812 187.511719 47.007812 Z M 187.511719 47.007812 " fill-opacity="1" fill-rule="nonzero"/></g><path fill="#e08d3b" d="M 146.023438 56.847656 L 149 61.253906 L 154.082031 59.859375 L 150.765625 63.96875 L 153.621094 68.390625 L 148.691406 66.5625 L 145.453125 70.636719 L 145.652344 65.375 L 140.734375 63.542969 L 145.675781 62.183594 L 146.023438 56.847656 " fill-opacity="1" fill-rule="nonzero"/><path fill="#e08d3b" d="M 164.972656 58.023438 C 165.066406 58.632812 164.550781 59.101562 164.136719 59.167969 C 163.675781 59.238281 163.089844 58.925781 162.996094 58.332031 C 162.894531 57.691406 163.285156 57.277344 163.828125 57.191406 C 164.191406 57.132812 164.859375 57.316406 164.972656 58.023438 " fill-opacity="1" fill-rule="nonzero"/><g clip-path="url(#2dcb996723)"><path fill="#e08d3b" d="M 180.1875 51.4375 L 182.109375 56.394531 L 187.371094 56.160156 L 183.226562 59.429688 L 185.03125 64.375 L 180.632812 61.496094 L 176.566406 64.746094 L 177.929688 59.664062 L 173.550781 56.785156 L 178.664062 56.558594 L 180.1875 51.4375 " fill-opacity="1" fill-rule="nonzero"/></g><path fill="#e08d3b" d="M 198.417969 56.769531 C 198.375 57.382812 197.769531 57.726562 197.351562 57.699219 C 196.886719 57.667969 196.378906 57.230469 196.421875 56.632812 C 196.464844 55.988281 196.9375 55.667969 197.484375 55.703125 C 197.851562 55.730469 198.464844 56.050781 198.417969 56.769531 " fill-opacity="1" fill-rule="nonzero"/><path fill="#e08d3b" d="M 214.703125 53.691406 L 215.480469 58.949219 L 220.664062 59.882812 L 215.902344 62.15625 L 216.574219 67.375 L 212.917969 63.597656 L 208.242188 65.871094 L 210.6875 61.214844 L 207.050781 57.445312 L 212.085938 58.351562 L 214.703125 53.691406 " fill-opacity="1" fill-rule="nonzero"/><path fill="#e08d3b" d="M 231.230469 62.902344 C 231.054688 63.496094 230.386719 63.695312 229.988281 63.574219 C 229.539062 63.441406 229.144531 62.90625 229.320312 62.332031 C 229.503906 61.710938 230.035156 61.503906 230.558594 61.660156 C 230.910156 61.765625 231.4375 62.21875 231.230469 62.902344 " fill-opacity="1" fill-rule="nonzero"/><path fill="#e08d3b" d="M 247.808594 63.554688 L 247.394531 68.847656 L 252.234375 70.914062 L 247.085938 72.066406 L 246.570312 77.300781 L 243.851562 72.804688 L 238.785156 73.976562 L 242.214844 69.984375 L 239.511719 65.496094 L 244.214844 67.507812 L 247.808594 63.554688 " fill-opacity="1" fill-rule="nonzero"/><path fill="#e08d3b" d="M 261.9375 76.261719 C 261.632812 76.796875 260.933594 76.84375 260.570312 76.636719 C 260.167969 76.40625 259.902344 75.792969 260.195312 75.273438 C 260.519531 74.710938 261.082031 74.625 261.5625 74.898438 C 261.878906 75.078125 262.289062 75.636719 261.9375 76.261719 " fill-opacity="1" fill-rule="nonzero"/><path fill="#e08d3b" d="M 277.902344 80.5625 L 276.324219 85.632812 L 280.582031 88.726562 L 275.304688 88.703125 L 273.640625 93.6875 L 271.992188 88.703125 L 266.796875 88.714844 L 271.023438 85.589844 L 269.386719 80.613281 L 273.523438 83.617188 L 277.902344 80.5625 " fill-opacity="1" fill-rule="nonzero"/><path fill="#e08d3b" d="M 288.859375 96.085938 C 288.445312 96.539062 287.757812 96.433594 287.449219 96.152344 C 287.105469 95.835938 286.980469 95.183594 287.382812 94.738281 C 287.820312 94.261719 288.386719 94.304688 288.796875 94.675781 C 289.066406 94.921875 289.34375 95.554688 288.859375 96.085938 " fill-opacity="1" fill-rule="nonzero"/><path fill="#e08d3b" d="M 303.519531 103.828125 L 300.863281 108.429688 L 304.335938 112.382812 L 299.191406 111.199219 L 296.46875 115.699219 L 295.957031 110.472656 L 290.882812 109.339844 L 295.695312 107.21875 L 295.195312 102 L 298.570312 105.847656 L 303.519531 103.828125 " fill-opacity="1" fill-rule="nonzero"/><path fill="#e08d3b" d="M 310.75 121.363281 C 310.246094 121.71875 309.59375 121.460938 309.355469 121.117188 C 309.089844 120.734375 309.113281 120.070312 309.605469 119.726562 C 310.140625 119.351562 310.683594 119.523438 310.996094 119.972656 C 311.203125 120.273438 311.335938 120.957031 310.75 121.363281 " fill-opacity="1" fill-rule="nonzero"/><path fill="#e08d3b" d="M 323.3125 132.152344 L 319.695312 136.046875 L 322.207031 140.675781 L 317.453125 138.378906 L 313.800781 142.164062 L 314.460938 136.953125 L 309.761719 134.71875 L 314.925781 133.722656 L 315.597656 128.523438 L 318.035156 133.019531 L 323.3125 132.152344 " fill-opacity="1" fill-rule="nonzero"/><path fill="#e08d3b" d="M 326.457031 150.871094 C 325.886719 151.101562 325.3125 150.703125 325.15625 150.316406 C 324.984375 149.886719 325.15625 149.242188 325.710938 149.015625 C 326.3125 148.769531 326.804688 149.058594 327.011719 149.570312 C 327.148438 149.910156 327.125 150.601562 326.457031 150.871094 " fill-opacity="1" fill-rule="nonzero"/><path fill="#e08d3b" d="M 336.292969 164.191406 L 331.902344 167.171875 L 333.308594 172.242188 L 329.195312 168.941406 L 324.789062 171.804688 L 326.601562 166.878906 L 322.527344 163.652344 L 327.78125 163.835938 L 329.597656 158.925781 L 330.964844 163.851562 L 336.292969 164.191406 " fill-opacity="1" fill-rule="nonzero"/><path fill="#e08d3b" d="M 335.222656 183.179688 C 334.613281 183.277344 334.144531 182.761719 334.074219 182.351562 C 334.003906 181.890625 334.316406 181.300781 334.90625 181.203125 C 335.546875 181.101562 335.964844 181.492188 336.054688 182.035156 C 336.109375 182.398438 335.929688 183.066406 335.222656 183.179688 " fill-opacity="1" fill-rule="nonzero"/><g clip-path="url(#59d6ce8e74)"><path fill="#e08d3b" d="M 341.832031 198.386719 L 336.878906 200.316406 L 337.121094 205.582031 L 333.847656 201.441406 L 328.90625 203.253906 L 331.773438 198.847656 L 328.515625 194.792969 L 333.601562 196.144531 L 336.472656 191.757812 L 336.707031 196.871094 L 341.832031 198.386719 " fill-opacity="1" fill-rule="nonzero"/></g><path fill="#e08d3b" d="M 336.570312 216.554688 C 335.953125 216.515625 335.609375 215.910156 335.636719 215.492188 C 335.660156 215.027344 336.097656 214.519531 336.695312 214.558594 C 337.34375 214.601562 337.664062 215.070312 337.628906 215.617188 C 337.605469 215.984375 337.285156 216.597656 336.570312 216.554688 " fill-opacity="1" fill-rule="nonzero"/><path fill="#e08d3b" d="M 339.6875 232.832031 L 334.4375 233.632812 L 333.527344 238.8125 L 331.234375 234.0625 L 326.023438 234.75 L 329.78125 231.085938 L 327.492188 226.417969 L 332.15625 228.847656 L 335.910156 225.195312 L 335.019531 230.230469 L 339.6875 232.832031 " fill-opacity="1" fill-rule="nonzero"/><path fill="#e08d3b" d="M 330.511719 249.480469 C 329.917969 249.300781 329.71875 248.632812 329.835938 248.234375 C 329.96875 247.785156 330.503906 247.390625 331.078125 247.558594 C 331.703125 247.746094 331.910156 248.273438 331.753906 248.804688 C 331.648438 249.15625 331.199219 249.683594 330.511719 249.480469 " fill-opacity="1" fill-rule="nonzero"/><path fill="#e08d3b" d="M 329.910156 266.058594 L 324.609375 265.65625 L 322.550781 270.507812 L 321.386719 265.359375 L 316.144531 264.851562 L 320.636719 262.125 L 319.457031 257.054688 L 323.457031 260.476562 L 327.945312 257.761719 L 325.945312 262.472656 L 329.910156 266.058594 " fill-opacity="1" fill-rule="nonzero"/><g clip-path="url(#71a83dc6f5)"><path fill="#e08d3b" d="M 51.785156 280.507812 L 55.382812 276.597656 L 52.851562 271.980469 L 57.613281 274.253906 L 61.253906 270.457031 L 60.613281 275.671875 L 65.324219 277.882812 L 60.160156 278.902344 L 59.511719 284.105469 L 57.054688 279.617188 L 51.785156 280.507812 " fill-opacity="1" fill-rule="nonzero"/></g><path fill="#e08d3b" d="M 48.53125 261.839844 C 49.101562 261.605469 49.675781 261.996094 49.835938 262.382812 C 50.011719 262.816406 49.84375 263.460938 49.289062 263.6875 C 48.6875 263.933594 48.195312 263.652344 47.984375 263.144531 C 47.84375 262.800781 47.867188 262.109375 48.53125 261.839844 " fill-opacity="1" fill-rule="nonzero"/><path fill="#e08d3b" d="M 38.628906 248.589844 L 43.003906 245.582031 L 41.566406 240.519531 L 45.699219 243.796875 L 50.085938 240.90625 L 48.304688 245.84375 L 52.394531 249.042969 L 47.140625 248.890625 L 45.355469 253.8125 L 43.957031 248.894531 L 38.628906 248.589844 " fill-opacity="1" fill-rule="nonzero"/><path fill="#e08d3b" d="M 39.59375 229.609375 C 40.203125 229.507812 40.675781 230.019531 40.746094 230.429688 C 40.820312 230.890625 40.515625 231.484375 39.921875 231.582031 C 39.28125 231.6875 38.863281 231.300781 38.773438 230.757812 C 38.714844 230.398438 38.886719 229.726562 39.59375 229.609375 " fill-opacity="1" fill-rule="nonzero"/><g clip-path="url(#febaa0a2ca)"><path fill="#e08d3b" d="M 32.871094 214.476562 L 37.8125 212.507812 L 37.53125 207.246094 L 40.839844 211.359375 L 45.769531 209.511719 L 42.933594 213.9375 L 46.21875 217.96875 L 41.121094 216.65625 L 38.285156 221.070312 L 38.011719 215.953125 L 32.871094 214.476562 " fill-opacity="1" fill-rule="nonzero"/></g><path fill="#e08d3b" d="M 38.054688 196.199219 C 38.667969 196.234375 39.015625 196.835938 38.992188 197.253906 C 38.964844 197.71875 38.539062 198.226562 37.9375 198.191406 C 37.289062 198.15625 36.96875 197.6875 37 197.140625 C 37.019531 196.773438 37.339844 196.160156 38.054688 196.199219 " fill-opacity="1" fill-rule="nonzero"/><path fill="#e08d3b" d="M 34.824219 179.96875 L 40.074219 179.136719 L 40.957031 173.945312 L 43.277344 178.6875 L 48.488281 177.964844 L 44.75 181.65625 L 47.070312 186.3125 L 42.390625 183.910156 L 38.652344 187.585938 L 39.511719 182.542969 L 34.824219 179.96875 " fill-opacity="1" fill-rule="nonzero"/><path fill="#e08d3b" d="M 43.914062 163.261719 C 44.507812 163.433594 44.710938 164.101562 44.597656 164.503906 C 44.464844 164.949219 43.933594 165.351562 43.355469 165.183594 C 42.730469 165.003906 42.519531 164.472656 42.671875 163.945312 C 42.777344 163.59375 43.226562 163.0625 43.914062 163.261719 " fill-opacity="1" fill-rule="nonzero"/><path fill="#e08d3b" d="M 44.40625 146.726562 L 49.707031 147.097656 L 51.734375 142.238281 L 52.933594 147.378906 L 58.171875 147.851562 L 53.699219 150.605469 L 54.910156 155.664062 L 50.890625 152.269531 L 46.421875 155.011719 L 48.394531 150.289062 L 44.40625 146.726562 " fill-opacity="1" fill-rule="nonzero"/><path fill="#e08d3b" d="M 57 132.488281 C 57.539062 132.789062 57.589844 133.484375 57.386719 133.851562 C 57.160156 134.257812 56.550781 134.527344 56.027344 134.238281 C 55.460938 133.921875 55.371094 133.359375 55.640625 132.875 C 55.816406 132.558594 56.375 132.140625 57 132.488281 " fill-opacity="1" fill-rule="nonzero"/><path fill="#e08d3b" d="M 61.148438 116.480469 L 66.234375 118.015625 L 69.289062 113.726562 L 69.316406 119 L 74.316406 120.621094 L 69.347656 122.316406 L 69.410156 127.515625 L 66.242188 123.316406 L 61.28125 125 L 64.246094 120.832031 L 61.148438 116.480469 " fill-opacity="1" fill-rule="nonzero"/><path fill="#e08d3b" d="M 76.566406 105.425781 C 77.023438 105.835938 76.921875 106.527344 76.644531 106.835938 C 76.332031 107.183594 75.675781 107.3125 75.230469 106.910156 C 74.75 106.480469 74.789062 105.910156 75.15625 105.5 C 75.398438 105.230469 76.035156 104.945312 76.566406 105.425781 " fill-opacity="1" fill-rule="nonzero"/><path fill="#e08d3b" d="M 84.183594 90.703125 L 88.800781 93.324219 L 92.726562 89.820312 L 91.585938 94.96875 L 96.105469 97.65625 L 90.882812 98.210938 L 89.792969 103.292969 L 87.632812 98.496094 L 82.425781 99.039062 L 86.238281 95.632812 L 84.183594 90.703125 " fill-opacity="1" fill-rule="nonzero"/><path fill="#e08d3b" d="M 101.628906 83.316406 C 101.988281 83.820312 101.734375 84.46875 101.394531 84.710938 C 101.015625 84.980469 100.351562 84.964844 100.003906 84.476562 C 99.625 83.945312 99.789062 83.402344 100.234375 83.082031 C 100.535156 82.871094 101.214844 82.734375 101.628906 83.316406 " fill-opacity="1" fill-rule="nonzero"/><path fill="#e08d3b" d="M 112.355469 70.625 L 116.28125 74.207031 L 120.894531 71.65625 L 118.636719 76.429688 L 122.453125 80.054688 L 117.234375 79.4375 L 115.042969 84.15625 L 114 78.996094 L 108.792969 78.371094 L 113.269531 75.894531 L 112.355469 70.625 " fill-opacity="1" fill-rule="nonzero"/><path fill="#e08d3b" d="M 131.019531 67.316406 C 131.257812 67.886719 130.867188 68.464844 130.480469 68.625 C 130.050781 68.800781 129.40625 68.636719 129.175781 68.085938 C 128.925781 67.484375 129.207031 66.988281 129.714844 66.777344 C 130.054688 66.636719 130.746094 66.65625 131.019531 67.316406 " fill-opacity="1" fill-rule="nonzero"/><g clip-path="url(#426c8dd9ea)"><path fill="#5a270a" d="M 166.917969 128.328125 C 166.917969 128.328125 166.289062 136.09375 166.5625 138.773438 C 166.839844 141.457031 167.632812 143.425781 166.917969 145.003906 C 166.207031 146.578125 161.742188 155.171875 161.191406 158.167969 C 160.636719 161.164062 162.769531 173.859375 163.480469 175.789062 C 164.191406 177.722656 165.0625 179.375 165.0625 179.652344 C 165.0625 179.929688 156.050781 181.582031 151.785156 182.53125 C 147.515625 183.476562 136.453125 184.421875 135.226562 180.597656 C 134.003906 176.773438 136.53125 173.542969 136.414062 172.792969 C 136.292969 172.042969 134.042969 172.28125 134.238281 170.152344 C 134.4375 168.023438 136.53125 166.921875 136.53125 166.921875 C 136.53125 166.921875 133.6875 163.175781 133.921875 161.203125 C 134.160156 159.273438 135.226562 159.746094 136.925781 158.484375 C 138.625 157.261719 138.507812 156.710938 138.507812 156.710938 C 138.507812 156.710938 134.554688 154.304688 134.515625 152.730469 C 134.476562 151.152344 136.453125 149.417969 139.21875 147.328125 C 141.984375 145.238281 144.394531 143.503906 145.542969 141.457031 C 146.648438 139.40625 146.964844 138.105469 147.320312 135.699219 C 147.675781 133.296875 148.425781 129.945312 149.019531 129.117188 C 149.609375 128.289062 150.953125 126.121094 150.953125 126.121094 C 150.953125 126.121094 148.859375 131.246094 148.625 133.335938 C 148.386719 135.425781 149.253906 138.734375 149.253906 138.734375 C 149.253906 138.734375 150.71875 137.515625 152.023438 136.09375 C 153.324219 134.675781 156.367188 131.285156 156.367188 131.285156 C 156.367188 131.285156 155.023438 135.699219 155.378906 137.710938 C 155.738281 139.722656 156.960938 141.890625 156.960938 141.890625 C 156.960938 141.890625 158.621094 139.484375 159.925781 137.554688 C 161.230469 135.621094 163.917969 131.957031 164.945312 130.773438 C 165.972656 129.628906 166.917969 128.328125 166.917969 128.328125 Z M 170.316406 177.878906 C 170.476562 177.839844 174.824219 175.355469 175.691406 174.410156 C 176.5625 173.464844 176.363281 167.789062 176.363281 167.789062 C 176.363281 167.789062 177.273438 168.929688 180.433594 168.261719 C 183.554688 167.589844 188.417969 164.949219 189.761719 163.332031 C 191.105469 161.71875 191.183594 156.867188 189.761719 155.410156 C 188.335938 153.953125 185.414062 152.730469 183.871094 152.570312 C 182.332031 152.453125 181.34375 149.8125 180.828125 149.695312 C 180.316406 149.617188 177.550781 150.917969 176.007812 152.375 C 174.46875 153.832031 172.175781 155.449219 171.070312 156.238281 C 169.960938 157.027344 168.816406 158.246094 168.617188 159.273438 C 168.460938 160.296875 167 165.105469 167.195312 166.328125 C 167.394531 167.550781 168.300781 169.128906 169.25 171.375 C 170.199219 173.621094 170.316406 177.878906 170.316406 177.878906 Z M 196.875 178.667969 C 196.875 178.667969 192.171875 172.714844 191.933594 170.863281 C 191.695312 169.007812 191.933594 168.101562 191.933594 165.933594 C 191.933594 163.765625 191.417969 158.128906 191.417969 158.128906 C 191.417969 158.128906 192.40625 161.636719 190.3125 163.804688 C 188.21875 165.933594 186.203125 167.039062 183.953125 168.0625 C 181.699219 169.089844 177.3125 168.574219 177.195312 168.65625 C 177.074219 168.734375 177.511719 173.464844 176.878906 174.292969 C 176.246094 175.078125 170.832031 178.3125 170.671875 178.429688 C 170.554688 178.546875 170.4375 181.464844 169.6875 182.410156 C 168.933594 183.316406 165.339844 187.695312 165.261719 187.851562 C 165.179688 187.96875 167.15625 191.242188 167.15625 191.242188 C 167.15625 191.242188 179.566406 183.832031 181.539062 182.765625 C 183.515625 181.703125 188.574219 179.847656 190.75 179.652344 C 192.960938 179.375 196.875 178.667969 196.875 178.667969 Z M 174.742188 203.105469 C 174.742188 203.105469 179.683594 209.414062 181.066406 211.226562 C 182.488281 213.039062 182.566406 224.472656 182.566406 224.707031 C 182.566406 224.984375 185.136719 219.230469 187.429688 216.3125 C 189.71875 213.394531 191.0625 211.542969 191.777344 207.757812 C 192.488281 203.972656 192.40625 198.496094 192.40625 198.496094 C 192.40625 198.496094 192.449219 208.585938 191.894531 210.476562 C 191.300781 212.371094 186.164062 219.1875 185.847656 219.9375 C 185.53125 220.6875 180.867188 229.121094 180.039062 230.976562 C 179.210938 232.867188 176.917969 249.265625 176.917969 253.839844 C 176.917969 258.410156 177.15625 268.542969 177.15625 268.542969 C 177.15625 268.542969 208.964844 269.882812 208.964844 269.289062 C 208.964844 268.660156 210.742188 251.15625 210.863281 251.628906 C 210.980469 252.105469 210.269531 269.289062 210.269531 269.289062 L 241.726562 269.289062 C 241.726562 269.289062 242.316406 249.976562 242.199219 244.457031 C 242.082031 238.9375 236.074219 223.878906 231.609375 217.535156 C 227.144531 211.1875 204.421875 189.152344 204.421875 189.152344 C 204.421875 189.152344 194.1875 191.636719 192.722656 192.03125 C 191.261719 192.425781 185.492188 195.222656 185.492188 195.222656 Z M 181.777344 215.328125 C 181.777344 215.328125 173.636719 232.039062 173.042969 237.558594 C 172.453125 243.078125 174.507812 259.476562 174.742188 261.605469 C 174.980469 263.730469 175.851562 268.421875 175.851562 268.421875 C 175.851562 268.421875 176.484375 243.90625 176.917969 240.832031 C 177.351562 237.753906 179.40625 229.359375 180.117188 228.136719 C 180.828125 226.914062 181.894531 224.351562 181.816406 222.222656 C 181.699219 220.097656 181.777344 215.328125 181.777344 215.328125 Z M 181.777344 215.328125 " fill-opacity="1" fill-rule="nonzero"/></g><path fill="#111111" d="M 167.90625 126.199219 C 167.117188 126.714844 160.558594 134.398438 159.410156 136.605469 C 158.265625 138.816406 157.277344 140.824219 157.277344 140.824219 C 157.277344 140.824219 155.578125 137.632812 156.132812 135.1875 C 156.644531 132.703125 158.699219 129 158.699219 129 C 158.699219 129 155.066406 131.363281 153.5625 132.863281 C 152.0625 134.359375 149.769531 137.988281 149.769531 137.988281 C 149.769531 137.988281 148.980469 133.769531 149.769531 131.007812 C 150.558594 128.25 153.128906 123.875 153.128906 123.875 C 153.128906 123.875 147.554688 129.511719 146.925781 131.640625 C 146.292969 133.769531 145.855469 135.503906 145.855469 135.503906 C 145.855469 135.503906 145.582031 129.789062 146.648438 124.664062 C 147.714844 119.539062 151.941406 112.601562 158.066406 108.976562 C 164.191406 105.347656 180.15625 105.347656 181.5 106.253906 C 182.84375 107.160156 187.074219 110.472656 195.214844 112.246094 C 203.355469 114.019531 213.707031 113.3125 215.367188 113.113281 C 217.066406 112.957031 219.714844 113.546875 220.148438 114.453125 C 220.582031 115.320312 220.859375 121.234375 219.714844 124.9375 C 218.566406 128.644531 216.867188 131.917969 213.273438 134.28125 C 209.636719 136.648438 199.402344 138.421875 196.636719 137.988281 C 193.910156 137.554688 188.457031 134.476562 188.457031 134.476562 C 188.457031 134.476562 192.132812 138.183594 194.699219 138.695312 C 197.269531 139.207031 206.910156 138.855469 209.914062 138.066406 C 212.917969 137.277344 220.03125 130.65625 220.542969 128.644531 C 221.058594 126.632812 221.648438 116.304688 221.648438 116.304688 C 221.648438 116.304688 229.355469 126.082031 230.859375 129.789062 C 232.359375 133.492188 233.585938 144.175781 229.433594 152.53125 C 225.285156 160.890625 219.515625 167.628906 215.722656 169.71875 C 211.929688 171.847656 206.515625 173.9375 202.917969 175.988281 C 199.285156 177.996094 197.503906 178.746094 197.503906 178.746094 C 197.503906 178.746094 193.277344 172.992188 192.761719 170.269531 C 192.25 167.550781 193.117188 160.375 192.132812 157.855469 C 191.144531 155.332031 187.902344 152.925781 185.136719 151.785156 C 182.410156 150.640625 182.410156 148.707031 179.921875 149.0625 C 177.429688 149.417969 177.707031 150.757812 174.625 152.570312 C 171.542969 154.425781 168.699219 156.199219 168.066406 159.273438 C 167.433594 162.347656 165.140625 165.460938 167.355469 169.757812 C 169.566406 174.054688 170.871094 178.15625 169.132812 181.308594 C 167.355469 184.5 166.050781 185.09375 163.285156 189.230469 C 160.558594 193.371094 159.054688 198.574219 160.28125 202.476562 C 161.503906 206.339844 161.863281 209.609375 161.863281 209.609375 C 161.863281 209.609375 156.722656 200.898438 157.355469 197.628906 C 157.988281 194.355469 163.917969 186.511719 165.21875 183.359375 C 166.523438 180.203125 165.734375 177.722656 164.074219 172.082031 C 162.375 166.445312 160.992188 161.164062 162.730469 156.90625 C 164.46875 152.652344 167.789062 148.273438 167.589844 142.875 C 167.433594 137.515625 166.960938 135.976562 167.078125 133.257812 C 167.195312 130.496094 167.90625 126.199219 167.90625 126.199219 Z M 181.976562 104.402344 C 182.332031 104.796875 184.621094 107.121094 187.707031 108.5 C 190.789062 109.921875 193.117188 110.90625 198.296875 111.8125 C 203.472656 112.71875 211.453125 111.929688 215.921875 111.8125 C 220.386719 111.695312 220.265625 112.5625 220.386719 111.695312 C 220.503906 110.828125 219.160156 108.976562 220.386719 106.097656 C 221.609375 103.21875 220.898438 100.933594 220.898438 100.933594 L 215.367188 103.296875 C 215.367188 103.296875 210.070312 105.113281 202.917969 104.246094 C 195.765625 103.378906 195.570312 103.96875 192.84375 102.667969 C 190.117188 101.367188 189.050781 100.617188 189.050781 100.617188 C 189.050781 100.617188 193.632812 102.3125 196.515625 102.746094 C 199.402344 103.140625 204.066406 104.085938 209.441406 103.257812 C 214.8125 102.429688 219.121094 100.894531 220.386719 100.066406 C 221.648438 99.238281 222.875 96.636719 222.875 94.664062 C 222.875 92.695312 221.175781 92.890625 220.859375 91.710938 C 220.582031 90.527344 216.078125 91.433594 211.730469 91.234375 C 207.382812 91.078125 200.429688 89.660156 200.429688 89.660156 C 200.429688 89.660156 205.605469 90.367188 209.082031 90.410156 C 212.5625 90.449219 219.792969 90.761719 220.976562 90.132812 C 222.164062 89.5 224.179688 85.835938 223.746094 84.851562 C 223.308594 83.863281 210.109375 77.875 210.109375 77.875 C 210.109375 77.875 202.40625 74.796875 201.101562 73.65625 C 199.796875 72.472656 196.558594 71.882812 195.253906 73.023438 C 193.949219 74.128906 193.238281 77.480469 195.09375 79.214844 C 196.914062 80.910156 199.996094 82.644531 199.996094 82.644531 C 199.996094 82.644531 195.054688 80.476562 194.265625 79.921875 C 193.515625 79.410156 192.921875 78.9375 192.566406 79.175781 C 192.210938 79.410156 189.800781 83.628906 189.050781 85.164062 C 188.296875 86.703125 187.269531 88.242188 187.941406 89.265625 C 188.652344 90.328125 191.0625 92.457031 193.671875 93.5625 C 196.28125 94.664062 202.523438 95.492188 202.523438 95.492188 C 202.523438 95.492188 196.515625 95.53125 194.503906 95.019531 C 192.488281 94.507812 186.480469 89.066406 186.320312 89.148438 C 186.164062 89.1875 184.621094 93.5625 184.03125 94.785156 C 183.4375 95.925781 181.144531 103.535156 181.976562 104.402344 Z M 181.976562 104.402344 " fill-opacity="1" fill-rule="nonzero"/><path fill="#381207" d="M 139.414062 166.367188 C 139.414062 166.367188 137.519531 163.292969 136.925781 161.675781 C 136.332031 160.0625 135.9375 158.5625 135.1875 158.5625 C 134.4375 158.5625 133.054688 160.21875 133.210938 161.875 C 133.371094 163.570312 134.238281 165.144531 135.03125 165.699219 C 135.820312 166.25 139.414062 166.367188 139.414062 166.367188 Z M 139.414062 166.367188 " fill-opacity="1" fill-rule="nonzero"/><path fill="#381207" d="M 139.730469 167.550781 C 139.730469 167.550781 138.269531 169.402344 137.359375 170.390625 C 136.453125 171.375 134.632812 172.636719 133.84375 172.164062 C 133.054688 171.691406 133.171875 169.285156 133.648438 168.300781 C 134.121094 167.3125 134.554688 166.722656 135.464844 166.683594 C 136.332031 166.605469 139.730469 167.550781 139.730469 167.550781 Z M 139.730469 167.550781 " fill-opacity="1" fill-rule="nonzero"/><path fill="#e08d3b" d="M 167.234375 192.070312 C 167.234375 192.070312 173.320312 202.398438 174.113281 202.476562 C 174.902344 202.554688 183.121094 195.578125 187.46875 193.210938 C 191.816406 190.847656 203.828125 188.285156 204.34375 188.285156 C 204.855469 188.285156 201.972656 179.808594 201.734375 179.652344 C 201.496094 179.496094 198.296875 179.179688 195.292969 179.652344 C 192.289062 180.125 182.882812 182.332031 180.238281 183.75 C 177.589844 185.171875 167.828125 191.320312 167.234375 192.070312 Z M 167.234375 192.070312 " fill-opacity="1" fill-rule="nonzero"/><path fill="#5a270a" d="M 154.234375 182.492188 C 154.234375 182.492188 157.59375 182.410156 159.09375 182.84375 C 160.597656 183.277344 163.441406 185.839844 163.441406 185.839844 C 163.441406 185.839844 164.984375 182.6875 165.140625 181.976562 C 165.300781 181.269531 165.417969 180.203125 165.417969 180.203125 C 165.417969 180.203125 162.019531 180.953125 160.597656 181.308594 C 159.214844 181.664062 154.234375 182.492188 154.234375 182.492188 Z M 154.234375 182.492188 " fill-opacity="1" fill-rule="nonzero"/><g fill="#381207" fill-opacity="1"><g transform="translate(88.196454, 303.859082)"><g><path d="M 23.714844 0 L 23.714844 -29.238281 L 17.867188 -29.238281 L 17.867188 -17.542969 L 9.117188 -17.542969 L 9.117188 -29.238281 L 3.269531 -29.238281 L 3.269531 0 L 9.117188 0 L 9.117188 -11.695312 L 17.867188 -11.695312 L 17.867188 0 Z M 23.714844 0 "/></g></g></g><g fill="#381207" fill-opacity="1"><g transform="translate(115.222556, 303.859082)"><g><path d="M 0.652344 0 L 7.277344 0 L 8.421875 -3.148438 L 18.113281 -3.148438 L 19.300781 0 L 25.882812 0 L 13.574219 -30.300781 L 12.960938 -30.300781 Z M 10.550781 -8.628906 L 13.289062 -16.234375 L 15.945312 -8.628906 Z M 10.550781 -8.628906 "/></g></g></g><g fill="#381207" fill-opacity="1"><g transform="translate(141.921574, 303.859082)"><g><path d="M 9.117188 0 L 9.117188 -29.238281 L 3.269531 -29.238281 L 3.269531 0 Z M 9.117188 0 "/></g></g></g><g fill="#381207" fill-opacity="1"><g transform="translate(154.351128, 303.859082)"><g><path d="M 17.828125 0 L 24.453125 0 L 17.664062 -12.0625 C 26.25 -14.558594 25.230469 -29.238281 14.800781 -29.238281 L 3.269531 -29.238281 L 3.269531 0 L 9.117188 0 L 9.117188 -11.164062 L 11.941406 -11.164062 Z M 9.117188 -16.847656 L 9.117188 -23.390625 L 14.269531 -23.390625 C 18.238281 -23.390625 18.238281 -16.847656 14.269531 -16.847656 Z M 9.117188 -16.847656 "/></g></g></g><g fill="#381207" fill-opacity="1"><g transform="translate(179.414671, 303.859082)"><g/></g></g><g fill="#381207" fill-opacity="1"><g transform="translate(191.026498, 303.859082)"><g><path d="M 1.921875 -1.882812 C 5.886719 0.164062 9.527344 0.367188 11.164062 0.246094 C 16.640625 -0.0390625 19.996094 -3.761719 19.996094 -8.628906 C 19.996094 -13.289062 16.070312 -15.90625 11.53125 -17.582031 C 9.855469 -18.15625 8.421875 -18.890625 8.261719 -20.527344 C 8.136719 -22.164062 9.078125 -23.675781 11.164062 -23.796875 C 12.0625 -23.839844 13.902344 -23.878906 17.132812 -22.570312 L 17.867188 -28.214844 C 14.105469 -29.523438 12.101562 -29.523438 10.589844 -29.441406 C 5.722656 -29.195312 2.332031 -25.433594 2.332031 -20.527344 C 2.332031 -15.621094 6.417969 -13.289062 11 -11.613281 C 12.636719 -11.039062 13.902344 -10.304688 14.023438 -8.628906 C 14.1875 -7.03125 12.714844 -5.804688 11 -5.683594 C 9.648438 -5.5625 6.011719 -5.644531 2.65625 -8.015625 Z M 1.921875 -1.882812 "/></g></g></g><g fill="#381207" fill-opacity="1"><g transform="translate(212.655555, 303.859082)"><g><path d="M 13.945312 0 L 13.945312 -23.390625 L 21.222656 -23.390625 L 21.222656 -29.195312 L 0.816406 -29.195312 L 0.816406 -23.390625 L 8.097656 -23.390625 L 8.097656 0 Z M 13.945312 0 "/></g></g></g><g fill="#381207" fill-opacity="1"><g transform="translate(235.020582, 303.859082)"><g><path d="M 0.652344 0 L 7.277344 0 L 8.421875 -3.148438 L 18.113281 -3.148438 L 19.300781 0 L 25.882812 0 L 13.574219 -30.300781 L 12.960938 -30.300781 Z M 10.550781 -8.628906 L 13.289062 -16.234375 L 15.945312 -8.628906 Z M 10.550781 -8.628906 "/></g></g></g><g fill="#381207" fill-opacity="1"><g transform="translate(261.719601, 303.859082)"><g><path d="M 17.828125 0 L 24.453125 0 L 17.664062 -12.0625 C 26.25 -14.558594 25.230469 -29.238281 14.800781 -29.238281 L 3.269531 -29.238281 L 3.269531 0 L 9.117188 0 L 9.117188 -11.164062 L 11.941406 -11.164062 Z M 9.117188 -16.847656 L 9.117188 -23.390625 L 14.269531 -23.390625 C 18.238281 -23.390625 18.238281 -16.847656 14.269531 -16.847656 Z M 9.117188 -16.847656 "/></g></g></g><g fill="#e08d3b" fill-opacity="1"><g transform="translate(133.06245, 321.433565)"><g><path d="M 15.824219 -21.019531 C 14.296875 -21.019531 4.679688 -9.257812 -1.421875 -0.0273438 C -1.9375 0.75 -0.542969 2.199219 -0.179688 1.601562 C 1.1875 -0.621094 2.222656 -1.863281 4.164062 -3.699219 C 6.023438 -5.507812 10.988281 -9.488281 11.6875 -8.609375 C 12.125 -8.066406 10.988281 -6.230469 9.488281 -4.5 C 5.738281 -3.230469 2.171875 -1.34375 2.171875 0 C 2.171875 0.515625 2.6875 1.320312 3.363281 1.320312 C 5.144531 1.320312 8.378906 -1.292969 10.679688 -4.007812 C 11.765625 -4.421875 12.953125 -4.785156 14.195312 -5.121094 C 14.917969 -5.328125 13.523438 -5.585938 12.386719 -5.328125 C 12.101562 -5.273438 11.84375 -5.195312 11.558594 -5.121094 C 12.617188 -6.542969 13.34375 -7.910156 13.34375 -8.816406 C 13.34375 -9.386719 12.953125 -10.316406 12.179688 -10.316406 C 10.472656 -10.316406 6.929688 -7.679688 3.566406 -4.757812 C 6.28125 -8.453125 10.652344 -13.960938 11.917969 -15.460938 C 13.367188 -17.195312 15.746094 -19.574219 16.574219 -19.574219 C 16.882812 -19.574219 16.808594 -21.019531 15.824219 -21.019531 Z M 3.851562 -0.207031 C 3.644531 -0.542969 5.328125 -1.707031 7.988281 -2.921875 C 6.101562 -1.085938 4.136719 0.285156 3.851562 -0.207031 Z M 3.851562 -0.207031 "/></g></g></g><g fill="#e08d3b" fill-opacity="1"><g transform="translate(145.623427, 321.433565)"><g><path d="M 13.417969 -10.238281 C 12.539062 -10.238281 12.074219 -9.203125 10.808594 -8.429688 C 9.410156 -7.292969 1.679688 -1.34375 1.292969 -1.65625 C 0.957031 -1.9375 2.972656 -4.421875 3.980469 -5.609375 C 4.992188 -6.824219 6.722656 -8.84375 7.238281 -8.921875 C 7.910156 -9.023438 6.671875 -10.316406 6.152344 -9.800781 C 3.699219 -7.394531 -0.0507812 -3.179688 -0.0507812 -1.5 C -0.0507812 -1.113281 0.15625 -0.308594 0.90625 -0.308594 C 2.25 -0.308594 6.464844 -3.699219 9.179688 -5.738281 C 8.171875 -4.394531 6.980469 -2.792969 5.429688 -0.777344 L 5.273438 -0.59375 C 3.59375 -0.308594 1.964844 0.542969 0.335938 1.707031 C -3.386719 4.34375 -6.980469 9.257812 -6.980469 10.910156 C -6.980469 11.324219 -6.773438 12.695312 -5.765625 12.695312 C -3.566406 12.695312 3.363281 4.035156 6.128906 0.386719 L 6.28125 0.386719 C 7.03125 0.386719 7.859375 0.492188 8.480469 1.214844 C 8.714844 1.5 8.972656 1.730469 8.84375 0.957031 C 8.738281 0.335938 8.144531 -0.464844 6.902344 -0.644531 C 8.195312 -2.328125 11.480469 -6.359375 13.417969 -8.402344 C 13.703125 -8.714844 14.117188 -8.945312 14.296875 -9.074219 C 14.582031 -9.28125 14.039062 -10.238281 13.417969 -10.238281 Z M -5.273438 10.679688 C -5.816406 10.136719 -3.308594 5.921875 0.492188 2.972656 C 1.730469 1.992188 3 1.214844 4.214844 0.777344 C 1.058594 4.757812 -4.578125 11.351562 -5.273438 10.679688 Z M -5.273438 10.679688 "/></g></g></g><g fill="#e08d3b" fill-opacity="1"><g transform="translate(157.279804, 321.433565)"><g/></g></g><g fill="#e08d3b" fill-opacity="1"><g transform="translate(163.741218, 321.433565)"><g><path d="M 2.816406 9.539062 C 11.789062 9.539062 37.984375 -13.417969 37.984375 -18.589844 C 37.984375 -19.960938 36.484375 -21.046875 34.648438 -21.046875 C 30.253906 -21.046875 20.195312 -16.210938 16.003906 -16.210938 C 14.816406 -16.210938 14.453125 -16.78125 14.167969 -17.425781 C 13.886719 -18.074219 13.523438 -18.203125 13.160156 -18.152344 C 12.695312 -18.074219 12.203125 -17.738281 12.359375 -16.960938 C 12.617188 -15.773438 13.808594 -14.738281 15.4375 -14.738281 C 20.167969 -14.738281 29.011719 -19.726562 34.621094 -19.726562 C 35.835938 -19.726562 36.636719 -19.238281 36.636719 -18.589844 C 36.636719 -14.222656 11.507812 8.066406 3.078125 8.066406 C 1.835938 8.066406 1.527344 7.238281 1.527344 6.621094 C 1.527344 0.101562 17.21875 -9.746094 23.476562 -9.746094 C 24.019531 -9.746094 24.820312 -9.566406 25.339844 -9.335938 C 26.011719 -9.023438 25.082031 -10.703125 22.597656 -10.703125 C 16.859375 -10.703125 0 -0.957031 0 6.800781 C 0 7.988281 0.800781 9.539062 2.816406 9.539062 Z M 2.816406 9.539062 "/></g></g></g><g fill="#e08d3b" fill-opacity="1"><g transform="translate(192.74002, 321.433565)"><g><path d="M 10.160156 -6.335938 C 7.316406 -3.621094 2.535156 0.699219 1.449219 -0.570312 C 1.058594 -1.007812 1.421875 -2.042969 2.144531 -3.207031 C 5.457031 -4.523438 9.359375 -7.164062 9.4375 -8.738281 C 9.464844 -9.488281 8.765625 -10.085938 8.09375 -10.109375 C 5.921875 -10.1875 0.101562 -4.085938 0 -1.085938 C -0.0273438 -0.101562 0.699219 0.957031 1.628906 0.984375 C 2.949219 1.035156 4.785156 -0.101562 8.972656 -3.851562 C 10.394531 -5.121094 10.652344 -6.824219 10.160156 -6.335938 Z M 7.628906 -8.402344 C 8.144531 -7.859375 5.457031 -6.152344 3.464844 -5.09375 C 5.09375 -7.136719 7.109375 -8.921875 7.628906 -8.402344 Z M 7.628906 -8.402344 "/></g></g></g><g fill="#e08d3b" fill-opacity="1"><g transform="translate(199.976798, 321.433565)"><g><path d="M 9.644531 -5.871094 C 9.023438 -5.765625 8.351562 -5.585938 7.679688 -5.351562 C 8.53125 -7.007812 9.074219 -8.402344 9.074219 -9.101562 C 9.074219 -9.695312 8.453125 -10.574219 7.835938 -10.574219 C 6.800781 -10.574219 3.722656 -6.902344 -0.59375 -3.023438 C -1.320312 -2.378906 -0.15625 -2.742188 0.363281 -3.023438 C 1.371094 -3.59375 2.015625 -4.058594 2.636719 -4.652344 C 4.859375 -6.824219 7.007812 -8.792969 7.316406 -8.558594 C 7.601562 -8.351562 6.671875 -6.257812 5.714844 -4.5 C 2.042969 -2.6875 -1.472656 0.335938 -1.472656 1.421875 C -1.472656 2.273438 -0.59375 2.949219 0.15625 2.949219 C 1.679688 2.949219 3.957031 0.800781 5.871094 -2.222656 C 6.308594 -2.921875 6.722656 -3.621094 7.085938 -4.265625 C 7.652344 -4.578125 8.195312 -4.808594 8.636719 -4.992188 C 10.058594 -5.535156 10.628906 -6.023438 9.644531 -5.871094 Z M 4.601562 -2.664062 C 3.75 -1.5 0.75 2.378906 0.128906 1.472656 C -0.285156 0.878906 2.171875 -1.1875 4.757812 -2.894531 Z M 4.601562 -2.664062 "/></g></g></g><g fill="#e08d3b" fill-opacity="1"><g transform="translate(209.022765, 321.433565)"><g><path d="M 9.644531 -5.871094 C 9.023438 -5.765625 8.351562 -5.585938 7.679688 -5.351562 C 8.53125 -7.007812 9.074219 -8.402344 9.074219 -9.101562 C 9.074219 -9.695312 8.453125 -10.574219 7.835938 -10.574219 C 6.800781 -10.574219 3.722656 -6.902344 -0.59375 -3.023438 C -1.320312 -2.378906 -0.15625 -2.742188 0.363281 -3.023438 C 1.371094 -3.59375 2.015625 -4.058594 2.636719 -4.652344 C 4.859375 -6.824219 7.007812 -8.792969 7.316406 -8.558594 C 7.601562 -8.351562 6.671875 -6.257812 5.714844 -4.5 C 2.042969 -2.6875 -1.472656 0.335938 -1.472656 1.421875 C -1.472656 2.273438 -0.59375 2.949219 0.15625 2.949219 C 1.679688 2.949219 3.957031 0.800781 5.871094 -2.222656 C 6.308594 -2.921875 6.722656 -3.621094 7.085938 -4.265625 C 7.652344 -4.578125 8.195312 -4.808594 8.636719 -4.992188 C 10.058594 -5.535156 10.628906 -6.023438 9.644531 -5.871094 Z M 4.601562 -2.664062 C 3.75 -1.5 0.75 2.378906 0.128906 1.472656 C -0.285156 0.878906 2.171875 -1.1875 4.757812 -2.894531 Z M 4.601562 -2.664062 "/></g></g></g><g fill="#e08d3b" fill-opacity="1"><g transform="translate(218.068731, 321.433565)"><g><path d="M 8.351562 -11.324219 C 8.507812 -11.324219 11.972656 -13.910156 11.945312 -14.296875 C 11.894531 -14.789062 11.480469 -15.125 11.015625 -15.101562 C 10.34375 -15.046875 8.378906 -12.980469 7.988281 -12.050781 C 7.859375 -11.738281 8.042969 -11.300781 8.351562 -11.324219 Z M 1.527344 0.414062 C 3.050781 0.414062 5.6875 -2.378906 8.042969 -4.652344 C 8.53125 -5.144531 9.074219 -7.058594 8.324219 -6.308594 C 5.457031 -3.414062 2.199219 -0.570312 1.65625 -1.136719 C 0.777344 -2.042969 5.945312 -8.402344 6.59375 -8.402344 C 6.980469 -8.402344 6.773438 -9.695312 6.023438 -9.695312 C 5.558594 -9.695312 4.679688 -8.585938 2.742188 -6.257812 C 1.578125 -4.835938 0.285156 -2.6875 0.285156 -1.242188 C 0.285156 -0.515625 0.90625 0.414062 1.527344 0.414062 Z M 1.527344 0.414062 "/></g></g></g><g fill="#e08d3b" fill-opacity="1"><g transform="translate(223.44462, 321.433565)"><g><path d="M 0.644531 1.421875 C 2.09375 1.421875 5.222656 -1.058594 6.695312 -2.714844 C 6.902344 -2.949219 7.265625 -3.335938 6.878906 -3.15625 C 6.671875 -3.050781 6.128906 -2.714844 5.144531 -2.070312 C 3.90625 -1.242188 1.785156 -0.0507812 1.164062 -0.0507812 C 1.007812 -0.0507812 0.929688 -0.15625 0.929688 -0.386719 C 0.929688 -1.1875 2.171875 -3.257812 3.773438 -5.066406 C 5.585938 -7.109375 7.523438 -8.996094 8.042969 -8.636719 C 8.402344 -8.402344 7.601562 -7.214844 7.214844 -6.957031 C 6.851562 -6.722656 7.164062 -6.308594 7.910156 -6.308594 C 8.6875 -6.308594 9.722656 -7.679688 9.722656 -8.6875 C 9.722656 -9.566406 8.972656 -10.058594 8.066406 -10.007812 C 6.542969 -9.902344 4.34375 -7.9375 2.429688 -5.6875 C 0.699219 -3.671875 -0.515625 -1.265625 -0.515625 -0.0273438 C -0.515625 0.492188 0 1.421875 0.644531 1.421875 Z M 0.644531 1.421875 "/></g></g></g><g fill="#e08d3b" fill-opacity="1"><g transform="translate(231.06908, 321.433565)"><g><path d="M 13.753906 -6.308594 C 12.851562 -5.402344 6.515625 0.699219 5.894531 0.0507812 C 5.015625 -0.851562 11.480469 -8.972656 12.386719 -9.101562 C 13.003906 -9.179688 11.917969 -10.496094 11.375 -10.160156 C 10.9375 -9.902344 10.394531 -9.308594 9.953125 -8.792969 C 9.644531 -9.386719 8.6875 -10.03125 7.652344 -10.03125 C 5.6875 -10.03125 -0.257812 -3.90625 -0.257812 -1.628906 C -0.257812 -0.699219 0.441406 0 1.035156 0 C 1.886719 0 4.242188 -2.070312 6.207031 -3.90625 C 5.121094 -2.273438 4.523438 -0.984375 4.523438 0.128906 C 4.523438 0.722656 5.144531 1.601562 5.765625 1.601562 C 7.34375 1.601562 13.03125 -4.265625 13.523438 -4.730469 C 14.246094 -5.378906 14.222656 -6.773438 13.753906 -6.308594 Z M 1.035156 -1.550781 C 0.441406 -2.351562 5.765625 -8.636719 7.628906 -8.636719 C 8.222656 -8.636719 8.738281 -8.042969 8.84375 -7.78125 C 7.730469 -6.464844 1.5 -0.929688 1.035156 -1.550781 Z M 1.035156 -1.550781 "/></g></g></g></svg>