<?xml version="1.0" encoding="utf-8"?>
<!-- Generator: Adobe Illustrator 27.5.0, SVG Export Plug-In . SVG Version: 6.00 Build 0)  -->
<svg version="1.1" id="Layer_1" xmlns="http://www.w3.org/2000/svg" xmlns:xlink="http://www.w3.org/1999/xlink" x="0px" y="0px"
	 viewBox="0 0 450 450" style="enable-background:new 0 0 450 450;" xml:space="preserve">
<g>
	<g>
		<g>
			<g style="enable-background:new    ;">
				<g>
					<polygon style="fill:#858688;" points="244.257,272.758 238.356,269.328 271.907,249.957 277.809,253.387 					"/>
				</g>
				<g>
					<polygon style="fill:#808183;" points="277.809,253.387 271.907,249.957 271.78,205.124 277.682,208.553 					"/>
				</g>
				<g>
					<polygon style="fill:#808183;" points="237.217,276.822 231.316,273.393 231.227,241.934 237.128,245.364 					"/>
				</g>
				<g>
					<polygon style="fill:#858688;" points="244.113,222.001 238.212,218.572 271.764,199.201 277.665,202.631 					"/>
				</g>
				<g>
					<polygon style="fill:#808183;" points="277.665,202.631 271.764,199.201 271.636,154.367 277.538,157.797 					"/>
				</g>
				<g>
					<polygon style="fill:#858688;" points="172.331,314.284 166.429,310.855 231.316,273.393 237.217,276.822 					"/>
				</g>
				<g>
					<polygon style="fill:#808183;" points="277.493,142.202 271.592,138.773 271.483,100.379 277.385,103.808 					"/>
				</g>
				<g>
					<polygon style="fill:#858688;" points="277.385,103.808 271.483,100.379 289.575,89.934 295.477,93.363 					"/>
				</g>
				<g>
					<polygon style="fill:#929292;" points="101.3,205.47 95.399,202.04 271.483,100.378 277.384,103.808 					"/>
				</g>
				<g>
					<polygon style="fill:#FEFEFE;" points="277.352,92.433 277.367,97.723 264.302,105.265 264.287,99.976 					"/>
				</g>
				<g>
					<polygon style="fill:#FEFEFE;" points="260.84,101.967 260.854,107.256 247.79,114.799 247.775,109.509 					"/>
				</g>
				<g>
					<polygon style="fill:#D2D5DA;" points="167.567,233.393 167.581,238.418 153.628,246.474 153.613,241.449 					"/>
				</g>
				<g>
					<polygon style="fill:#FEFEFE;" points="166.944,285.885 167.033,317.343 102.145,354.806 102.056,323.348 					"/>
				</g>
				<g style="enable-background:new    ;">
					<defs>
						<path id="SVGID_206_" style="enable-background:new    ;" d="M106.181,297.84l-5.901-3.429
							c4.525,2.629,10.79,2.259,17.706-1.734c13.741-7.933,24.845-27.169,24.8-42.958c-0.022-7.845-2.792-13.365-7.259-15.961
							l5.901,3.429c4.467,2.596,7.237,8.116,7.259,15.961c0.045,15.79-11.059,35.025-24.8,42.958
							C116.971,300.099,110.706,300.469,106.181,297.84z"/>
					</defs>
					<clipPath id="SVGID_00000160886179065080143040000007633906560251393181_">
						<use xlink:href="#SVGID_206_"  style="overflow:visible;"/>
					</clipPath>
					<g style="clip-path:url(#SVGID_00000160886179065080143040000007633906560251393181_);enable-background:new    ;">
						<path style="fill:#AFB0B3;" d="M106.181,297.84l-5.901-3.429c4.525,2.629,10.79,2.259,17.706-1.734
							c13.741-7.933,24.845-27.169,24.8-42.958c-0.022-7.845-2.792-13.365-7.259-15.961l5.901,3.429
							c4.467,2.596,7.237,8.116,7.259,15.961c0.045,15.79-11.059,35.025-24.8,42.958
							C116.971,300.099,110.706,300.469,106.181,297.84z"/>
					</g>
				</g>
				<g>
					<polygon style="fill:#858688;" points="101.409,243.864 95.508,240.435 271.592,138.773 277.493,142.202 					"/>
				</g>
				<g>
					<polygon style="fill:#8C8C8C;" points="101.409,243.864 95.508,240.435 95.399,202.04 101.3,205.47 					"/>
				</g>
				<g>
					<path style="fill:#E8EAED;" d="M277.385,103.808l18.092-10.445l0.451,159.124L83.662,375.038l-0.451-159.123l18.09-10.444
						l0.109,38.394l176.084-101.662L277.385,103.808z M123.725,238.92c-13.743,7.935-24.847,27.17-24.803,42.96
						c0.045,15.789,11.221,22.161,24.965,14.226c13.741-7.933,24.845-27.169,24.8-42.958
						C148.642,237.358,137.466,230.987,123.725,238.92z M167.033,317.344l-0.089-31.458l-64.887,37.463l0.089,31.458
						L167.033,317.344z M237.217,276.822l-0.089-31.458l-64.887,37.462l0.089,31.458L237.217,276.822z M277.665,202.631
						l-0.127-44.834l-33.551,19.371l0.127,44.834L277.665,202.631z M277.809,253.387l-0.127-44.834l-33.552,19.371l0.127,44.834
						L277.809,253.387z M153.58,229.364l0.014,5.023l48.013-27.721l-0.014-5.022L153.58,229.364z M172.092,230.78l0.015,5.025
						l29.535-17.052l-0.014-5.025L172.092,230.78z M167.582,238.418l-0.014-5.025l-13.954,8.056l0.014,5.025L167.582,238.418z"/>
				</g>
				<g>
					<polygon style="fill:#D2D5DA;" points="201.627,213.729 201.641,218.753 172.106,235.805 172.092,230.781 					"/>
				</g>
				<g>
					<polygon style="fill:#FEFEFE;" points="244.327,111.5 244.342,116.789 231.275,124.333 231.26,119.044 					"/>
				</g>
				<g>
					<polygon style="fill:#D2D5DA;" points="201.592,201.643 201.607,206.665 153.593,234.386 153.579,229.363 					"/>
				</g>
				<g>
					<polygon style="fill:#FEFEFE;" points="277.384,103.808 277.493,142.202 101.409,243.864 101.3,205.47 					"/>
				</g>
				<g>
					<polygon style="fill:#FEFEFE;" points="131.686,176.533 131.701,181.823 101.285,199.383 101.27,194.094 					"/>
				</g>
				<g>
					<polygon style="fill:#808183;" points="83.662,375.038 77.76,371.609 77.31,212.485 83.211,215.915 					"/>
				</g>
				<g>
					<polygon style="fill:#858688;" points="83.211,215.915 77.31,212.485 95.399,202.041 101.3,205.471 					"/>
				</g>
				<g>
					<polygon style="fill:#2B4075;" points="83.148,194.871 77.247,191.442 289.515,68.888 295.417,72.318 					"/>
				</g>
				<g>
					<path style="fill:#4C6FCB;" d="M83.148,194.871L295.417,72.318l0.06,21.045l-18.092,10.445L101.3,205.47l-18.09,10.444
						L83.148,194.871z M131.701,181.823l-0.015-5.289l-30.416,17.56l0.015,5.289L131.701,181.823z M244.342,116.789l-0.015-5.289
						l-13.067,7.544l0.015,5.289L244.342,116.789z M277.367,97.723l-0.015-5.29l-13.065,7.543l0.015,5.29L277.367,97.723z
						 M260.854,107.256l-0.015-5.289l-13.064,7.543l0.015,5.289L260.854,107.256z"/>
				</g>
				<g>
					<polygon style="fill:#2A3D70;" points="83.21,215.914 77.309,212.485 77.247,191.442 83.148,194.871 					"/>
				</g>
			</g>
			<g style="enable-background:new    ;">
				<g>
					<path style="fill:#72B526;" d="M119.978,156.886c2.282-1.318,4.14-0.261,4.148,2.364c0.007,2.623-1.839,5.818-4.121,7.136
						c-2.283,1.318-4.14,0.262-4.148-2.361C115.85,161.399,117.696,158.204,119.978,156.886z"/>
				</g>
				<g>
					<path style="fill:#F2B21D;" d="M106.869,164.454c2.285-1.319,4.141-0.261,4.148,2.364c0.007,2.623-1.837,5.817-4.121,7.136
						c-2.283,1.318-4.139,0.26-4.146-2.363C102.743,168.966,104.587,165.772,106.869,164.454z"/>
				</g>
				<g>
					<path style="fill:#C2CACC;" d="M83.081,170.983L295.349,48.43l0.068,23.888L83.148,194.871L83.081,170.983z M120.005,166.386
						c2.283-1.318,4.129-4.513,4.121-7.136c-0.007-2.625-1.865-3.682-4.148-2.364c-2.283,1.318-4.129,4.513-4.121,7.138
						C115.864,166.647,117.723,167.703,120.005,166.386z M106.896,173.954c2.285-1.319,4.129-4.513,4.121-7.136
						c-0.007-2.625-1.863-3.683-4.148-2.364c-2.283,1.318-4.127,4.512-4.119,7.137C102.758,174.214,104.614,175.272,106.896,173.954
						z M93.79,181.521c2.283-1.318,4.127-4.512,4.119-7.135c-0.007-2.625-1.863-3.683-4.146-2.365
						c-2.285,1.319-4.129,4.513-4.121,7.138C89.649,181.782,91.505,182.84,93.79,181.521z"/>
				</g>
				<g>
					<path style="fill:#FE2E3C;" d="M93.763,172.021c2.283-1.318,4.139-0.26,4.146,2.365c0.007,2.623-1.837,5.817-4.119,7.135
						c-2.285,1.319-4.141,0.262-4.148-2.361C89.634,176.534,91.478,173.34,93.763,172.021z"/>
				</g>
				<g>
					<polygon style="fill:#E8EAED;" points="83.081,170.983 77.179,167.553 289.448,45 295.349,48.43 					"/>
				</g>
				<g>
					<polygon style="fill:#686868;" points="83.148,194.871 77.247,191.441 77.179,167.553 83.081,170.983 					"/>
				</g>
			</g>
		</g>
		<g>
			<g>
				<g>
					<polygon style="fill:#EFCDB3;" points="157.227,381.678 135.829,360.703 136.436,360.352 157.751,380.567 					"/>
					<polygon style="fill:#C3886B;" points="156.62,382.029 157.227,381.678 157.751,380.567 157.144,380.918 					"/>
					<polygon style="fill:#CC9372;" points="156.62,382.029 135.304,361.814 135.829,360.703 157.144,380.918 					"/>
				</g>
				<polygon style="fill:#E0AD8F;" points="146.197,346.599 143.292,343.881 131.756,376.567 132.97,375.866 				"/>
				<polygon style="fill:#EFCDB3;" points="144.983,347.3 142.079,344.582 143.292,343.881 146.197,346.599 				"/>
				<polygon style="fill:#C3886B;" points="144.983,347.3 142.079,344.582 128.852,373.85 131.756,376.567 				"/>
				<polygon style="fill:#E0AD8F;" points="139.576,334.388 136.814,334.168 160.916,393.437 162.13,392.736 				"/>
				<polygon style="fill:#CC9372;" points="138.362,335.089 135.6,334.869 158.154,393.216 160.916,393.437 				"/>
			</g>
			<g>
				<polygon style="fill:#686868;" points="132.475,395.579 140.666,400.308 140.666,398.297 132.475,393.568 				"/>
				<polygon style="fill:#686868;" points="127.795,382.823 135.986,387.552 135.986,385.541 127.795,380.812 				"/>
				<polygon style="fill:#686868;" points="157.228,375.287 135.986,387.552 135.986,385.541 157.228,373.276 				"/>
				<polygon style="fill:#686868;" points="116.281,368.938 129.012,376.289 129.012,374.277 116.281,366.927 				"/>
			</g>
			<g>
				<polygon style="fill:#959595;" points="116.281,366.927 129.012,374.277 150.254,362.013 137.523,354.663 				"/>
				<polygon style="fill:#686868;" points="150.254,364.024 129.012,376.289 129.012,374.277 150.254,362.013 				"/>
				<polygon style="fill:#959595;" points="127.795,380.812 135.986,385.541 157.228,373.276 149.037,368.548 				"/>
				<polygon style="fill:#686868;" points="161.908,388.044 140.666,400.308 140.666,398.297 161.908,386.033 				"/>
				<polygon style="fill:#959595;" points="132.475,393.568 140.666,398.297 161.908,386.033 153.717,381.304 				"/>
			</g>
			<polygon style="fill:#E0AD8F;" points="119.547,345.952 116.785,345.732 140.887,405 142.101,404.299 			"/>
			<polygon style="fill:#CC9372;" points="118.334,346.652 115.572,346.432 138.126,404.78 140.887,405 			"/>
			<polygon style="fill:#E0AD8F;" points="123.74,359.564 120.836,356.846 109.3,389.532 110.514,388.832 			"/>
			<polygon style="fill:#C3886B;" points="122.527,360.265 119.623,357.547 106.396,386.815 109.3,389.532 			"/>
			<polygon style="fill:#EFCDB3;" points="122.527,360.265 119.623,357.547 120.836,356.846 123.74,359.564 			"/>
			<polygon style="fill:#EFCDB3;" points="135.378,394.293 113.979,373.317 114.586,372.967 135.902,393.182 			"/>
			<polygon style="fill:#CC9372;" points="134.771,394.643 113.455,374.428 113.979,373.317 135.295,393.532 			"/>
			<polygon style="fill:#C3886B;" points="134.771,394.643 135.378,394.293 135.902,393.182 135.295,393.532 			"/>
			<polygon style="fill:#EFCDB3;" points="139.576,334.388 136.814,334.168 115.572,346.432 118.334,346.652 			"/>
			<polygon style="fill:#E0AD8F;" points="139.576,334.388 140.066,337.14 119.381,349.083 118.334,346.652 			"/>
		</g>
		<g>
			<g style="enable-background:new    ;">
				<g style="enable-background:new    ;">
					<defs>
						<path id="SVGID_208_" style="enable-background:new    ;" d="M151.364,255.091c1.242-5.108,0.539-8.732-1.642-10.628
							l2.576,2.238c2.181,1.896,2.885,5.52,1.642,10.628c-2.862,11.765-14.96,26.948-27.023,33.913l-2.575-2.238
							C136.404,282.039,148.503,266.857,151.364,255.091z"/>
					</defs>
					<clipPath id="SVGID_00000073679967171223914680000007546506940545546411_">
						<use xlink:href="#SVGID_208_"  style="overflow:visible;"/>
					</clipPath>
					<g style="clip-path:url(#SVGID_00000073679967171223914680000007546506940545546411_);enable-background:new    ;">
						<path style="fill:#BFBFBF;" d="M126.916,291.242l-2.575-2.238c12.063-6.965,24.162-22.148,27.023-33.913
							c1.242-5.109,0.539-8.733-1.643-10.628l2.576,2.238c2.182,1.895,2.885,5.52,1.643,10.628
							C151.078,269.094,138.98,284.277,126.916,291.242z"/>
					</g>
				</g>
				<g style="enable-background:new    ;">
					<defs>
						<path id="SVGID_210_" style="enable-background:new    ;" d="M109.321,290.94c2.842,2.47,8.194,2.005,15.02-1.936l2.575,2.238
							c-6.825,3.941-12.177,4.406-15.019,1.936C111.124,292.507,110.094,291.612,109.321,290.94z"/>
					</defs>
					<clipPath id="SVGID_00000082351365124094480640000000261243948846378136_">
						<use xlink:href="#SVGID_210_"  style="overflow:visible;"/>
					</clipPath>
					<g style="clip-path:url(#SVGID_00000082351365124094480640000000261243948846378136_);enable-background:new    ;">
						<path style="fill:#BFBFBF;" d="M111.898,293.178l-2.576-2.238c2.842,2.469,8.194,2.004,15.019-1.937l2.575,2.238
							C120.091,295.182,114.74,295.648,111.898,293.178z"/>
					</g>
				</g>
				<g style="enable-background:new    ;">
					<defs>
						<path id="SVGID_212_" style="enable-background:new    ;" d="M149.721,244.463l2.576,2.238
							c-2.842-2.469-8.194-2.004-15.019,1.937l-2.576-2.238C141.528,242.459,146.879,241.994,149.721,244.463z"/>
					</defs>
					<clipPath id="SVGID_00000177455545773456942300000009938501021456767901_">
						<use xlink:href="#SVGID_212_"  style="overflow:visible;"/>
					</clipPath>
					<g style="clip-path:url(#SVGID_00000177455545773456942300000009938501021456767901_);enable-background:new    ;">
						<path style="fill:#9EA1A4;" d="M137.278,248.638l-2.576-2.238c6.825-3.94,12.177-4.406,15.019-1.936l2.576,2.238
							C149.455,244.232,144.103,244.697,137.278,248.638z"/>
					</g>
				</g>
				<g style="enable-background:new    ;">
					<defs>
						<path id="SVGID_214_" style="enable-background:new    ;" d="M152.532,241.228l2.576,2.238
							c-3.238-2.813-9.334-2.283-17.108,2.206l-2.576-2.238C143.198,238.945,149.294,238.415,152.532,241.228z"/>
					</defs>
					<clipPath id="SVGID_00000083067599004376287900000006678205053069830292_">
						<use xlink:href="#SVGID_214_"  style="overflow:visible;"/>
					</clipPath>
					<g style="clip-path:url(#SVGID_00000083067599004376287900000006678205053069830292_);enable-background:new    ;">
						<path style="fill:#BFBFBF;" d="M137.999,245.672l-2.576-2.238c7.774-4.488,13.87-5.019,17.109-2.205l2.576,2.238
							C151.87,240.653,145.774,241.183,137.999,245.672z"/>
					</g>
				</g>
				<g style="enable-background:new    ;">
					<defs>
						<path id="SVGID_216_" style="enable-background:new    ;" d="M111.898,293.178l-2.576-2.238
							c-2.182-1.895-2.885-5.519-1.643-10.628c2.861-11.765,14.96-26.948,27.023-33.913l2.576,2.238
							c-12.063,6.965-24.162,22.148-27.023,33.913C109.013,287.659,109.716,291.283,111.898,293.178z"/>
					</defs>
					<clipPath id="SVGID_00000071517329825241529530000017710146007861780406_">
						<use xlink:href="#SVGID_216_"  style="overflow:visible;"/>
					</clipPath>
					<g style="clip-path:url(#SVGID_00000071517329825241529530000017710146007861780406_);enable-background:new    ;">
						<path style="fill:#9EA1A4;" d="M111.898,293.178l-2.576-2.238c-2.182-1.895-2.885-5.519-1.643-10.628
							c2.861-11.765,14.96-26.948,27.023-33.913l2.576,2.238c-12.063,6.965-24.162,22.148-27.023,33.913
							C109.013,287.659,109.716,291.283,111.898,293.178z"/>
					</g>
				</g>
				<g style="enable-background:new    ;">
					<defs>
						<path id="SVGID_218_" style="enable-background:new    ;" d="M109.085,296.414l-2.576-2.238
							c-2.485-2.159-3.287-6.288-1.872-12.108c3.26-13.403,17.042-30.7,30.786-38.635l2.576,2.238
							c-13.743,7.934-27.526,25.231-30.786,38.635C105.798,290.126,106.6,294.254,109.085,296.414z"/>
					</defs>
					<clipPath id="SVGID_00000057827488835420797240000008782943440954264981_">
						<use xlink:href="#SVGID_218_"  style="overflow:visible;"/>
					</clipPath>
					<g style="clip-path:url(#SVGID_00000057827488835420797240000008782943440954264981_);enable-background:new    ;">
						<path style="fill:#BFBFBF;" d="M109.085,296.414l-2.576-2.238c-2.485-2.159-3.287-6.288-1.872-12.108
							c3.26-13.403,17.042-30.7,30.786-38.635l2.576,2.238c-13.743,7.934-27.526,25.231-30.786,38.635
							C105.798,290.126,106.6,294.254,109.085,296.414z"/>
					</g>
				</g>
				<g>
					<path style="fill:#F0F0F0;" d="M137.999,245.672c13.741-7.934,22.239-3.501,18.979,9.902
						c-3.259,13.402-17.043,30.701-30.784,38.634c-13.743,7.935-22.241,3.5-18.981-9.902
						C110.473,270.903,124.256,253.606,137.999,245.672z M126.916,291.242c12.063-6.965,24.162-22.148,27.023-33.913
						c2.861-11.765-4.598-15.656-16.662-8.691c-12.063,6.965-24.162,22.148-27.023,33.913
						C107.394,294.315,114.853,298.207,126.916,291.242z"/>
				</g>
				<g>
					<path style="fill:#C6C9CE;" d="M137.278,248.638c12.064-6.965,19.523-3.074,16.662,8.691
						c-2.862,11.765-14.96,26.948-27.023,33.913c-12.063,6.965-19.523,3.074-16.662-8.691
						C113.116,270.785,125.215,255.602,137.278,248.638z"/>
				</g>
				<g>
					<g style="enable-background:new    ;">
						<g>
							<path style="fill:#A2A4A8;" d="M137.644,253.988c-4.453,2.571-9.1,8.013-10.38,12.154c-0.935,3.028,0.194,4.514,2.61,4.093
								c-5.591,4.082-10.887,10.712-12.497,15.922l-2.248,7.276l25.138-14.514l2.248-7.275c1.61-5.211-0.999-7.277-5.946-5.275
								c3.145-2.789,5.884-6.509,6.819-9.537C144.668,252.691,142.098,251.417,137.644,253.988z"/>
						</g>
					</g>
				</g>
			</g>
		</g>
		<g>
			<path style="fill:#6B505C;" d="M143.326,372.093c0.744,0.951,2.719,2.241,2.719,2.241l1.606,0.835l0.97,1.679
				c0,0,0.42,1.414,2.339,1.788c1.919,0.371,3.149-0.694,3.149-0.694s0.042-0.485-0.012-1.118c-0.024-0.303-0.072-0.641-0.156-0.975
				c-0.259-1.033-1.147-1.598-1.467-2.385c0,0-2.216-2.983-4.049-3.934c-1.833-0.949-4.265-1.148-4.751-0.67
				c-0.245,0.24-0.487,0.511-0.667,0.725c-0.18,0.212-0.299,0.364-0.299,0.364S142.582,371.144,143.326,372.093z"/>
			<path style="fill:#9BBBE0;" d="M139.979,330.168c0.287,1.381,4.589,16.05,5.317,19.637c0.728,3.585,1.381,21.797,1.381,21.797
				s-0.014,0.163,0.026,0.434c0.075,0.529,0.352,1.477,1.33,2.442c1.479,1.462,4.31,1.191,4.639,0.373
				c0.331-0.817,0.695-9.364,1.055-12.599c0.361-3.233,0.45-6.842-0.963-12.918c-0.968-6.553-0.182-15.309-0.182-15.309
				s0.408-1.483,0.534-5.357c0.128-3.874-1.089-10.231-2.134-14.494c0,0-2.938,1.159-7.299,3.708
				c-2.64,1.542-3.547,5.214-3.789,8.179C139.739,327.992,139.865,329.622,139.979,330.168z"/>
			<path style="fill:#F2D5D5;" d="M139.979,330.168c0.287,1.381,4.589,16.05,5.317,19.637c0.728,3.585,1.381,21.797,1.381,21.797
				s-0.014,0.163,0.026,0.434c0.094-0.345,0.21-0.688,0.266-0.988c0.153-0.823,0.042-1.637,0.126-2.454
				c0.135-1.31,0.094-2.638,0.077-3.962c-0.01-0.767,0.15-1.511,0.103-2.274c-0.054-0.87-0.126-1.733-0.157-2.603
				c-0.023-0.667-0.072-1.332-0.126-1.999c-0.026-0.301-0.03-0.594-0.039-0.895c-0.005-0.165-0.117-1.476-0.093-0.9l-0.058-0.431
				c-0.236-1.799-0.467-3.599-0.693-5.401c-0.215-1.73-0.508-3.33-0.949-5.014c-0.895-3.426-1.966-6.801-2.995-10.189
				c-0.056-0.178-0.11-0.368-0.067-0.55c0.051-0.214,0.226-0.373,0.404-0.499c0.489-0.341,1.073-0.534,1.541-0.903
				c0.882-0.699,1.19-1.88,1.448-2.976c0.196-0.839,0.394-1.686,0.378-2.547c-1.71-1.196-3.876-1.443-5.973-1.392
				C139.739,327.992,139.865,329.622,139.979,330.168z"/>
			<path style="fill:#A7C6EB;" d="M146.598,332.214c0.18-0.173,0.37-0.352,0.609-0.421c0.277-0.08,0.571-0.002,0.852,0.063
				c1.092,0.254,2.232,0.303,3.342,0.145c0.915-0.13,0.049,8.45,0.03,9.07c-0.102,3.228,0.288,6.473,1.165,9.581
				c-0.406,0.072-0.802-0.148-1.156-0.36c-2.183-1.305-4.527-2.803-5.338-5.214c-0.454-1.348-0.36-2.821-0.702-4.201
				c-0.385-1.548-1.315-2.961-1.496-4.56C143.683,334.365,145.316,333.447,146.598,332.214z"/>
			<path style="fill:#A7C6EB;" d="M147.782,347.928c0.263-0.412,0.628-0.787,1.098-0.922c0.572-0.165,1.204,0.063,1.651,0.457
				c0.448,0.393,0.741,0.931,0.992,1.471c0.879,1.895,1.688,4.331,1.613,6.418c-0.144,4.066-0.853,8.081-1.022,12.175
				c-0.068,1.645-0.136,3.29-0.204,4.936c-0.956,0.361-3.195,0.179-3.764-0.803c-0.698-1.204-0.106-2.892,0.078-4.158
				c0.21-1.441-0.215-2.859-0.286-4.316c-0.131-2.694-0.263-5.387-0.394-8.081C147.446,353.07,146.625,349.762,147.782,347.928z"/>
			<path style="fill:#F5F5F5;" d="M143.326,372.093c0.744,0.951,2.719,2.241,2.719,2.241l1.606,0.835l0.97,1.679
				c0,0,0.42,1.414,2.339,1.788c1.919,0.371,3.149-0.694,3.149-0.694s0.042-0.485-0.012-1.118c-0.002,0.004-0.005,0.005-0.005,0.005
				c-1.315,1.185-3.582,1.073-4.772-0.234c-0.665-0.732-0.991-1.731-1.686-2.435c-1.105-1.117-2.924-1.283-4.011-2.416
				c-0.573-0.599-0.614-1.385-0.616-2.159c-0.18,0.212-0.299,0.364-0.299,0.364S142.582,371.144,143.326,372.093z"/>
			<g>
				<path style="fill:#BCD7F7;" d="M146.602,372.835c-0.003-0.044-0.218-4.298-0.35-8.758c-0.137-4.571-0.676-12.923-1.296-16.068
					c-0.623-3.154-3.103-11.767-3.128-11.855l-0.019-0.066l0.032-0.059c0.02-0.041,0.507-0.987,1-1.561
					c0.54-0.628,2.265-3.232,2.747-5.635l0.342,0.069c-0.495,2.469-2.268,5.149-2.824,5.793c-0.397,0.465-0.807,1.216-0.923,1.432
					c0.236,0.82,2.521,8.796,3.116,11.815c0.625,3.167,1.167,11.544,1.302,16.124c0.132,4.457,0.349,8.711,0.35,8.752
					L146.602,372.835z"/>
			</g>
			<path style="fill:#6B505C;" d="M128.671,367.963c0.294,0.942,0.706,2.227,1.446,2.694c0.74,0.466,2.011,0.452,2.011,0.452
				s0.712,0.117,0.86,0.853c0.761,0.728,1.724,0.695,3.085,0.674c1.358-0.023,2.764-1.101,2.671-1.709
				c-0.016-0.096-0.058-0.255-0.119-0.458c-0.329-1.078-1.197-3.344-1.197-3.344s-1.182-1.341-2.542-2.122c0,0-3.8-0.308-5.085,0.63
				c-0.511,0.373-0.84,0.667-1.035,0.947C128.472,367.005,128.493,367.394,128.671,367.963z"/>
			<path style="fill:#9BBBE0;" d="M130.546,366.188c0.352,0.541,0.762,0.728,2.227,0.917c0.672,0.087,1.52-0.091,2.218-0.392
				c0.821-0.353,1.439-0.877,1.33-1.343c-0.201-0.863-0.851-4.543-1.358-8.673c-0.51-4.13-1.201-10.528-0.534-13.13
				c0.38-2.962,2.404-5.322,7.692-10.056c0.333-0.297,0.679-0.606,1.038-0.922c6.066-5.364,4.76-10.66,3.822-14.14
				c0,0-10.159-2.913-12.773,0.065c-2.614,2.978-7.137,17.657-7.71,22.533C125.926,345.922,130.196,365.645,130.546,366.188z"/>
			<g>
				<path style="fill:#BCD7F7;" d="M144.435,332.633l-0.195-0.289c2.161-1.455,2.954-3.148,3.139-6.707
					c0.176-3.377-0.097-5.218-0.1-5.236l0.345-0.051c0.012,0.076,0.283,1.888,0.104,5.306
					C147.541,329.3,146.678,331.125,144.435,332.633z"/>
			</g>
			<path style="fill:#8A536A;" d="M132.606,321.216c0.889,0.429,1.846,1.405,5.701,1.841c3.855,0.435,9.187-0.961,10.843-1.665
				c1.656-0.704,3.006-1.753,3.006-1.753l-0.524-2.628l-17.69,1.837L132.606,321.216z"/>
			<path style="fill:#A7C6EB;" d="M152.087,325.161c0.02,2.317-0.205,4.635-0.671,6.904c-0.196,0.951-0.441,1.912-0.961,2.733
				c-0.52,0.82-1.36,1.489-2.326,1.582c-0.583,0.056-1.243-0.15-1.514-0.669c-0.153-0.292-0.162-0.635-0.168-0.965
				c-0.021-1.214-0.041-2.435,0.159-3.633c0.259-1.549,0.746-2.975,0.688-4.563c-0.038-1.052-0.098-1.803,0.703-2.579
				c0.675-0.654,1.792-1.478,2.603-1.918c0.749-0.406,0.862-0.381,1.192,0.508C152.087,323.359,152.08,324.323,152.087,325.161z"/>
			<path style="fill:#A7C6EB;" d="M145.714,325.569c-0.137,0.88-0.57,1.686-1.045,2.439c-2.331,3.698-5.895,6.604-9.987,8.142
				c-0.174,0.066-0.358,0.13-0.543,0.109c-0.386-0.044-0.629-0.426-0.808-0.771c-0.452-0.873-0.855-1.771-1.206-2.69
				c-0.261-0.683-0.497-1.39-0.516-2.121c-0.012-0.484,0.07-0.965,0.161-1.441c0.195-1.021,0.423-4.101,1.27-4.754
				c0.745-0.574,2.961,0.929,3.868,1.198c1.444,0.428,2.952,0.636,4.458,0.615C141.85,326.29,145.628,326.116,145.714,325.569z"/>
			<path style="fill:#A7C6EB;" d="M132.046,325.451c0.09-0.148,0.204-0.311,0.375-0.333c0.212-0.027,0.377,0.171,0.498,0.348
				c1.166,1.711,2.332,3.423,3.499,5.134c0.244,0.359,0.501,0.762,0.441,1.192c-0.044,0.32-0.257,0.589-0.462,0.838
				c-1.543,1.876-3.201,3.83-3.623,6.222c-0.106,0.603-0.137,1.243-0.454,1.766c-0.404,0.666-1.207,1.007-1.985,1.051
				c-0.778,0.045-1.546-0.161-2.297-0.365c-0.451-0.123-0.957-0.29-1.151-0.715c-0.146-0.319-0.067-0.691,0.014-1.033
				C128.084,334.555,129.256,329.871,132.046,325.451z"/>
			<path style="fill:#A7C6EB;" d="M130.839,342.186c0.204,0.479,0.219,1.014,0.232,1.535c0.061,2.482,0.121,4.964,0.181,7.445
				c0.12,4.938,0.284,10.061,2.499,14.476c-0.687-0.235-1.433,0.63-2.09,0.322c-0.268-0.126-0.417-0.412-0.547-0.678
				c-1.14-2.337-1.786-4.354-2.231-6.915c-0.456-2.615-0.817-5.248-1.083-7.889c-0.195-1.928-0.338-3.862-0.432-5.797
				c-0.068-1.41-0.487-2.654,0.396-3.911C128.646,339.513,130.398,341.147,130.839,342.186z"/>
			<path style="fill:#F2D5D5;" d="M128.685,343.505c0.014,0.052,0.026,0.107,0.039,0.159c1.189,0.961,2.848,1.308,4.321,0.9
				c-0.422,1.246-0.098,2.742-0.133,4.032c-0.04,1.529-0.207,3.055-0.095,4.583c0.194,2.622,0.665,5.215,1.135,7.799
				c0.346,1.914,0.693,3.823,1.04,5.735c0.821-0.353,1.439-0.877,1.33-1.343c-0.201-0.863-0.851-4.543-1.358-8.673
				c-0.51-4.13-1.201-10.528-0.534-13.13c0.38-2.962,2.404-5.322,7.692-10.056c0.002-0.023,0.003-0.044,0.005-0.066
				c-0.709,0.074-1.313,0.588-1.852,1.031c-2.64,2.167-5.401,4.503-6.52,7.731c-0.376,1.089-0.889,1.788-2.13,1.691
				C131.423,343.884,128.605,343.17,128.685,343.505z"/>
			<path style="fill:#F5F5F5;" d="M128.671,367.963c0.294,0.942,0.706,2.227,1.446,2.694c0.74,0.466,2.011,0.452,2.011,0.452
				s0.712,0.117,0.86,0.853c0.761,0.728,1.724,0.695,3.085,0.674c1.358-0.023,2.764-1.101,2.671-1.709
				c-0.016-0.096-0.058-0.255-0.119-0.458c-0.026,0.01-0.051,0.023-0.075,0.037c-0.735,0.396-0.826,0.77-1.677,0.884
				c-0.768,0.103-1.778,0.219-2.545,0.084c-0.664-0.116-0.998-0.578-1.641-0.814c-0.67-0.249-1.437,0.012-2.123-0.186
				c-1.88-0.537-1.166-2.689-1.798-3.893C128.472,367.005,128.493,367.394,128.671,367.963z"/>
			<g>
				<path style="fill:#BCD7F7;" d="M130.962,366.769c-0.025-0.104-2.434-10.351-2.748-12.634c-0.101-0.72-0.281-1.822-0.49-3.101
					c-0.46-2.796-1.03-6.276-1.104-7.941c-0.094-2.143,0.583-5.422,1.811-8.774c0.619-1.69,2.035-4.904,3.287-7.74
					c0.872-1.976,1.697-3.845,2.146-4.957l0.324,0.132c-0.451,1.118-1.275,2.987-2.149,4.966c-1.249,2.83-2.665,6.041-3.278,7.718
					c-1.214,3.311-1.883,6.54-1.792,8.642c0.074,1.639,0.643,5.107,1.101,7.897c0.209,1.279,0.391,2.384,0.49,3.107
					c0.312,2.268,2.719,12.499,2.742,12.603L130.962,366.769z"/>
			</g>
			<g>
				<path style="fill:#BCD7F7;" d="M136.276,335.479l-0.061-0.038l-3.394-2.174l0.031-0.123l1.686-6.729l0.203,0.126
					c0.041,0.022,4.146,2.506,9.146,1.25l0.08-0.019l0.558,0.411l-0.065,0.129c-0.095,0.201-2.386,4.916-3.397,5.62
					c-1.004,0.691-4.563,1.498-4.715,1.53L136.276,335.479z M133.223,333.11l3.119,1.995c0.512-0.116,3.647-0.858,4.52-1.461
					c0.754-0.522,2.519-3.921,3.218-5.353l-0.19-0.141c-4.448,1.106-8.224-0.71-9.127-1.197L133.223,333.11z"/>
			</g>
			<g>
				<path style="fill:#BCD7F7;" d="M151.483,333.855l-1.638-1.533l0.567-5.899l0.099-0.041c0.016-0.006,1.505-0.603,2.317-1.504
					l0.256-0.286l0.049,0.38c0.207,1.662,0.016,6.279-0.053,7.008c-0.075,0.788-1.337,1.693-1.479,1.794L151.483,333.855z
					 M150.209,332.184l1.304,1.219c0.407-0.308,1.172-0.974,1.217-1.455c0.065-0.675,0.234-4.702,0.09-6.568
					c-0.748,0.688-1.759,1.15-2.079,1.288L150.209,332.184z"/>
			</g>
			<g>
				<path style="fill:#9BBBE0;" d="M135.051,323.583c-0.014-0.333-0.118-3.292,0.355-4.187l0.399,0.207
					c-0.353,0.672-0.339,3.088-0.305,3.961L135.051,323.583z"/>
			</g>
			<g>
				<path style="fill:#9BBBE0;" d="M147.548,322.794c-0.017-0.195-0.551-3.402-0.624-3.675l0.437-0.113
					c0.068,0.261,0.627,3.565,0.636,3.763l-0.449,0.019l0.225-0.01L147.548,322.794z"/>
			</g>
			<path style="fill:#D4906A;" d="M141.707,320.302c-0.021,0.287,0.099,3.132-0.025,3.229s-4.955,0.087-5.033-0.069
				c-0.079-0.156,0.142-3.137,0.175-3.272C136.858,320.057,141.707,320.302,141.707,320.302z"/>
			<path style="fill:#FFC2B3;" d="M137.754,290.083c0.134-1.328-0.445-4.421-0.882-4.671c-0.438-0.25-0.793-0.31-1.245-0.47
				c-0.452-0.161-0.732-0.907-0.831-2.414c-0.099-1.507,0.259-3.599,0.26-4.127c0.001-0.527,0.054-1.782,0.573-2.417
				c0.52-0.635,8.686,9.969,8.965,10.978c0.279,1.009,0.779,1.759,0.779,1.759s-0.904,1.039-3.409,1.285
				C139.458,290.253,139.347,289.691,137.754,290.083z"/>
			<path style="fill:#FFD0C4;" d="M136.014,284.032c0.206,0.379,0.511,0.08,0.654-0.875c0.143-0.956,0.225-1.374-0.304-1.494
				c-0.529-0.12-0.654,0.505-0.59,1.027c0.064,0.522,0.09,1.134,0.09,1.134L136.014,284.032z"/>
			<path style="fill:#6073F5;" d="M128.06,297.466c0.145,0.17,0.333,0.434,0.545,0.777c0.781,1.252,1.887,3.538,2.43,5.978
				c0.69,3.106,2.437,14.235,2.47,14.643c0.014,0.184,0.677,0.709,1.992,1.131c1.595,0.513,4.149,0.874,7.664,0.285
				c6.412-1.075,8.312-2.925,8.312-2.925s0.56-1.04,0.51-2.031c-0.051-0.993-1.271-9.587-1.208-11.35
				c0.061-1.761,1.786-6.877,0.579-11.316c-1.208-4.44-4.236-4.254-4.236-4.254s-1.418,0.203-2.628,0.095l-0.115,0.01l-6.073,1.28
				c0,0-1.09,0.644-1.71,0.93c-0.621,0.283-1.166,0.065-2.358,0.161C133.039,290.974,127.381,296.671,128.06,297.466z"/>
			<path style="fill:#FFC2B3;" d="M145.411,280.317c0.45,0.872,0.748,1.287,1.375,2.876c0.625,1.588,1.588,5.901,1.588,5.901
				l4.615,3.491c0.03-0.124,0.059-0.247,0.089-0.362c0.567-2.334,0.767-3.03,0.502-3.9c-0.27-0.888-5.945-10.637-6.199-11.533
				c-0.005-0.026-0.007-0.045-0.005-0.056c0.089-0.354,0.368-0.893,0.368-0.893s0.439-0.59,0.805-1.147
				c0.224-0.343,0.42-0.672,0.467-0.844c0.126-0.448,0.588-1.628,0.622-2.113c0.033-0.487,0.156-2.589-0.031-2.911
				c-0.186-0.32-0.581-0.128-0.581-0.128s-0.098-0.182-0.264-0.196c-0.074-0.007-0.158,0.019-0.254,0.107
				c-0.228,0.208-0.189,1.128-0.152,1.618c0.016,0.182,0.029,0.308,0.029,0.308s-0.005-0.01-0.017-0.028
				c-0.045-0.079-0.194-0.294-0.403-0.319c-0.105-0.014-0.226,0.021-0.357,0.147c-0.448,0.431-1.784,3.655-1.84,3.866
				C145.71,274.41,144.959,279.447,145.411,280.317z"/>
			<path style="fill:#FFC2B3;" d="M127.712,288.068c-1.601-2.066-5.356-4.339-5.691-4.868c-0.335-0.529-1.608-9.765-1.489-12.292
				c0.118-2.527,0.16-3.086,0.16-3.086s0.955-1.409,1.306-1.95c0.352-0.541,0.907-2.181,0.907-2.181s0.452-1.105,0.26-1.309
				c-0.192-0.204-0.994,0.197-0.994,0.197l-0.619,1.031c0,0,0.333-4.579,0.213-4.979c-0.12-0.4-0.722-0.425-0.829,0.067
				c-0.107,0.491-0.436,3.489-0.436,3.489s0.1-3.843-0.027-4.33c-0.127-0.488-0.655-0.313-0.829-0.109
				c-0.174,0.205-0.14,0.802-0.14,0.802s-0.138-0.443-0.599-0.347c-0.461,0.096-0.417,0.824-0.461,1.545
				c-0.044,0.721-0.279,3.608-0.401,3.37c-0.122-0.239-0.286-0.636-0.286-0.636s-0.168-2.621-0.486-2.756
				c-0.318-0.135-0.618-0.038-0.632,0.695c-0.014,0.733-0.035,2.652,0.006,2.971c0.04,0.319-0.262,1.646-0.252,2.318
				c0.01,0.672,0.161,2.182,0.352,2.547c0.19,0.365,0.109,0.986,0.109,0.986s-0.323,3.802-0.416,6.729
				c-0.093,2.928-0.046,7.867,0.292,8.518c0.338,0.652,3.738,4.702,5.572,6.75c1.834,2.047,3.696,4.18,5.06,3.939
				C128.727,294.939,127.712,288.068,127.712,288.068z"/>
			<g>
				<path style="fill:#F2D5D5;" d="M118.452,262.558c0.017,0.204-0.391,1.144-0.409,0.56c0.122,0.239,0.357-2.649,0.401-3.37
					c0.022-0.351,0.023-0.703,0.071-0.983C118.44,260.169,118.44,262.406,118.452,262.558z"/>
				<path style="fill:#F2D5D5;" d="M116.628,261.367c0.058,0.87,0.133,1.692,0.019,2.025
					C116.618,263.172,116.62,262.194,116.628,261.367z"/>
				<path style="fill:#F2D5D5;" d="M117.516,260.37c0.019,0.095,0.036,0.197,0.053,0.302c-0.014-0.057-0.022-0.09-0.022-0.09
					S117.535,260.499,117.516,260.37z"/>
				<path style="fill:#F2D5D5;" d="M116.855,269.244c0,0,0.081-0.621-0.109-0.986c-0.19-0.365-0.342-1.875-0.352-2.547
					c-0.006-0.347,0.073-0.868,0.144-1.335c-0.029,1.113,0.079,2.648,0.079,2.648s0.586,1.27,0.31,3.839
					c-0.276,2.569-0.118,11.601-0.118,11.601s0.151,1.876,0.455,2.378c0.304,0.503,3.17,3.915,5.152,6.171
					c1.982,2.255,3.066,3.177,4.276,3.475c1.21,0.297,1.526-3.943,0.083-6.593c-1.443-2.65-4.247-3.653-4.247-3.653l-1.697-1.444
					c0,0,0.683,0.296,0.593-0.268c-0.089-0.564-1.135-6.451-1.249-8.944c-0.114-2.494,0.284-5.731,0.284-5.731
					s0.861-1.299,1.142-1.629c0.281-0.33,1.05-2.763,1.05-2.763s0.283-0.502,0.518-1.072c0.175,0.222-0.266,1.3-0.266,1.3
					s-0.556,1.64-0.907,2.181c-0.352,0.541-1.306,1.95-1.306,1.95s-0.043,0.559-0.16,3.086c-0.118,2.527,1.154,11.762,1.489,12.292
					c0.336,0.529,4.09,2.802,5.691,4.868c0,0,1.015,6.87-0.348,7.112c-1.364,0.242-3.226-1.891-5.06-3.939
					c-1.834-2.047-5.234-6.098-5.572-6.75c-0.338-0.651-0.385-5.591-0.292-8.518C116.533,273.046,116.855,269.244,116.855,269.244z"
					/>
				<path style="fill:#F2D5D5;" d="M122.072,263.335c-0.391,0.602-1.065,1.491-1.081,1.843c-0.089-0.564,0.451-1.485,0.451-1.485
					s0.062-0.475,0.172-0.967c-0.035,0.526-0.061,0.885-0.061,0.885l0.619-1.031c0,0,0.152-0.076,0.34-0.145
					C122.385,262.762,122.239,263.076,122.072,263.335z"/>
				<path style="fill:#F2D5D5;" d="M120.795,261.842l-0.418,1.351l0.124-1.005c0,0,0.329-2.998,0.436-3.489
					c0.012-0.054,0.03-0.101,0.052-0.142C120.826,259.77,120.795,261.842,120.795,261.842z"/>
				<path style="fill:#F2D5D5;" d="M119.548,257.969c0.053,1.111,0.028,4,0.028,4l-0.376,1.143c0,0,0.237-3.59,0.254-4.47
					c0.002-0.075-0.004-0.147-0.011-0.218c0.044,0.069,0.062,0.126,0.062,0.126S119.487,258.222,119.548,257.969z"/>
			</g>
			<path style="fill:#FFD0C4;" d="M125.105,286.64c1.268,1.032,2.354,2.332,2.925,3.864c0.205,0.551,0.342,1.124,0.464,1.699
				c0.097,0.453,0.167,0.984-0.142,1.33c-0.248,0.277-0.676,0.333-1.033,0.226c-0.356-0.107-0.655-0.349-0.932-0.598
				c-0.854-0.768-1.591-1.657-2.427-2.445c-0.587-0.554-1.222-1.058-1.778-1.643c-0.725-0.763-1.308-1.657-2.075-2.377
				c-0.699-0.656-1.547-1.166-2.112-1.94c-0.645-0.885,0.474-1.028,1.117-1.106c0.657-0.079,1.128,0.119,1.721,0.407
				C122.33,284.782,123.813,285.589,125.105,286.64z"/>
			<path style="fill:#FFD0C4;" d="M117.463,268.698c0.035-0.093,0.076-0.19,0.153-0.253c0.183-0.148,0.458-0.034,0.641,0.113
				c0.662,0.531,0.953,1.408,1.028,2.253c0.075,0.845-0.031,1.697,0.005,2.545c0.028,0.666,0.143,1.325,0.251,1.983
				c0.451,2.755,0.774,5.53,1.098,8.303c0.034,0.287,0.066,0.58,0,0.861c-0.066,0.281-0.252,0.552-0.527,0.637
				c-0.28,0.086-0.578-0.03-0.847-0.148c-0.28-0.122-0.564-0.25-0.795-0.451c-0.272-0.237-0.454-0.56-0.603-0.889
				c-0.99-2.199-0.663-4.729-0.52-7.137c0.083-1.399,0.098-2.801,0.044-4.202C117.344,271.071,117.014,269.897,117.463,268.698z"/>
			<path style="fill:#F2D5D5;" d="M128.605,298.243c0.781,1.252,1.887,3.538,2.43,5.978c0.69,3.106,2.437,14.235,2.47,14.643
				c0.014,0.184,0.677,0.709,1.992,1.131c-0.109-1.54-1.506-4.888-1.506-4.888l-2.593-12.554c0,0-1.199-3.24-2.756-4.403
				C128.643,298.15,128.631,298.182,128.605,298.243z"/>
			<path style="fill:#F2D5D5;" d="M149.637,271.737c0.033-0.487,0.156-2.589-0.031-2.911c-0.186-0.32-0.581-0.128-0.581-0.128
				s-0.098-0.182-0.264-0.196c0.084,0.07,0.168,0.142,0.233,0.229c0.126,0.172,0.168,0.391,0.2,0.603
				c0.208,1.395,0.138,2.831-0.207,4.2c-0.093,0.369-0.205,0.737-0.387,1.073c-0.016,0.03-0.033,0.059-0.051,0.087
				c0.224-0.343,0.42-0.672,0.467-0.844C149.142,273.401,149.604,272.221,149.637,271.737z"/>
			<path style="fill:#F2D5D5;" d="M148.361,271.747c-0.039-0.413,0.012-0.828,0.005-1.241c-0.045-0.079-0.194-0.294-0.403-0.319
				c0.263,0.698,0.072,1.945,0.007,2.381c-0.088,0.599-0.173,1.196-0.261,1.794c0.347-0.446,0.707-0.926,0.76-1.49
				C148.505,272.496,148.396,272.123,148.361,271.747z"/>
			<path style="fill:#F2D5D5;" d="M147.293,277.708c0.467,0.602,0.931,1.208,1.35,1.849c0.833,1.276,1.393,2.696,2.108,4.028
				c0.28,0.522,0.56,1.043,0.84,1.563c0.242,0.453,0.543,0.877,0.772,1.327c0.245,0.483,0.411,1,0.658,1.484
				c0.268,0.522,0.24,1.094,0.233,1.665c-0.009,0.79-0.105,1.576-0.166,2.362c-0.005,0.077-0.01,0.158-0.01,0.236
				c0.567-2.334,0.767-3.03,0.502-3.9c-0.27-0.888-5.945-10.637-6.199-11.533c-0.016,0.024-0.035,0.049-0.054,0.072
				c-0.085,0.1-0.194,0.191-0.229,0.317C147.044,277.367,147.172,277.554,147.293,277.708z"/>
			<path style="fill:#FFD0C4;" d="M150.133,282.749c0.211,0.399,0.424,0.799,0.573,1.225c0.053,0.15,0.097,0.314,0.051,0.466
				c-0.039,0.127-0.136,0.227-0.24,0.311c-0.47,0.378-1.14,0.489-1.706,0.283c-0.81-0.295-1.281-1.117-1.702-1.869
				c-0.721-1.287-1.494-2.554-2.032-3.927c-0.234-0.598-0.421-1.28-0.165-1.869c0.566-1.3,1.698,0.139,2.19,0.678
				c0.813,0.889,1.472,1.904,2.071,2.945C149.506,281.571,149.82,282.16,150.133,282.749z"/>
			<path style="fill:#FFD0C4;" d="M150.43,283.333c0.481,1.257,0.933,2.52,1.542,3.721c0.174,0.344,0.352,0.852,0.399,1.235
				c0.041,0.337-0.222,0.579-0.362,0.858c-0.154,0.307-0.356,0.636-0.702,0.751c-0.559,0.187-1.143,0.298-1.732,0.33
				c-0.069,0.004-0.141,0.006-0.203-0.023c-0.127-0.059-0.166-0.217-0.191-0.354c-0.314-1.72-0.8-3.409-1.447-5.034
				c-0.257-0.643-0.244-1.108,0.185-1.632c0.336-0.41,0.697-0.875,1.29-0.784C149.707,282.479,150.249,282.858,150.43,283.333z"/>
			<path style="fill:#FFD0C4;" d="M140.745,288.72c0.079,0.099,0.153,0.199,0.222,0.301c0.054,0.079,0.098,0.199,0.024,0.26
				c-0.033,0.027-0.079,0.031-0.122,0.034c-0.818,0.05-1.639,0.07-2.459,0.062c-0.062-0.001-0.131-0.004-0.173-0.05
				c-0.04-0.044-0.04-0.11-0.036-0.169c0.015-0.308,0.122-0.646,0.092-0.95c-0.037-0.378-0.262-0.786-0.371-1.151
				c-0.045-0.15-0.452-1.304-0.063-1.298c0.332,0.005,0.913,0.858,1.113,1.084C139.521,287.463,140.224,288.06,140.745,288.72z"/>
			<path style="fill:#8A536A;" d="M137.398,283.218c0.02,0.056,0.04,0.113,0.061,0.169c0.289,0.766,0.733,1.605,1.286,2.378
				c0.594,0.83,1.235,1.152,2.164,1.516c0.929,0.364,2.906,0.095,3.488-0.303c0.583-0.398,1.486-1.723,1.486-1.723
				s1.428-1.894,2.002-4.574c0.574-2.681-0.152-4.598-1.337-5.139c-2.015-4.294-5.431-3.645-7.282-3.452
				c-1.85,0.193-4.557,1.751-4.32,4.147c0.237,2.396,0.335,3.617,0.348,4.319c0.013,0.702-0.11,1.348-0.11,1.348l0.59,0.787
				c0,0-0.168-0.996,0.281-1.142C136.505,281.402,137.398,283.218,137.398,283.218z"/>
			<path style="fill:#6073F5;" d="M124.83,290.086c0.561-2.413,0.354-3.249,2.338-3.145c1.983,0.103,3.141,2.117,4.29,2.201
				c1.148,0.083,3.473,1.178,4.009,1.723c0.536,0.544-2.612,4.341-3.169,5.059c-0.557,0.718-2.357,2.343-2.851,3.853
				c-1.658-3.138-2.114-2.984-2.114-2.984s-0.93-1.008-1.38-1.499C125.504,294.803,124.247,292.594,124.83,290.086z"/>
			<path style="fill:#6B84FF;" d="M129.96,289.655c0.998,0.369,2.016,0.682,3.075,1.041c0.021,0.033-0.064,0.021-0.047-0.014
				c0.017-0.035,0.068-0.028,0.105-0.015c0.792,0.29,1.12,1.403,0.675,2.094c-0.705,1.097-1.273,2.281-1.687,3.517
				c-0.159,0.473-0.395,1.041-0.891,1.093c-0.41,0.043-0.745-0.305-1.008-0.623c-0.917-1.106-1.834-2.212-2.751-3.318
				c-0.354-0.427-0.714-0.863-0.933-1.373c-0.215-0.499-0.285-1.047-0.331-1.588c-0.045-0.527-0.083-1.085-0.005-1.61
				c0.135-0.906,0.42-0.815,1.159-0.399C128.197,288.953,129.071,289.326,129.96,289.655z"/>
			<path style="fill:#6073F5;" d="M146.224,289.665c2.364-1.906,2.871-2.152,3.893-2.175c1.023-0.024,2.523,0.792,3.255,2.606
				c0.732,1.815,0.095,3.359,0.095,3.359s-1.529,4.631-2.938,6.033C149.12,300.889,146.224,289.665,146.224,289.665z"/>
			<path style="fill:#6B84FF;" d="M149.763,288.239c0.654-0.224,1.196,0.125,1.827,0.456c0.147,0.077,0.298,0.157,0.412,0.278
				c0.913,0.964,0.277,3.238-0.3,4.174c-0.336,0.545-0.732,1.052-1.179,1.51c-0.12,0.123-0.274,0.252-0.443,0.219
				c-0.109-0.022-0.193-0.107-0.265-0.192c-0.556-0.664-0.788-1.532-1.17-2.31c-0.296-0.602-0.76-1.232-1.41-1.476
				c-0.553-0.207-1.913-0.106-1.035-1.054c0.358-0.387,0.817-0.346,1.292-0.47c0.811-0.213,1.412-0.764,2.161-1.09
				C149.689,288.266,149.726,288.252,149.763,288.239z"/>
			<path style="fill:#6B84FF;" d="M148.058,290.313c1.006,1.222,2.357,3.658,1.81,5.307c-1.197,3.609-1.408,7.62-1.213,11.436
				c0.041,0.797,0.105,1.599,0.308,2.371c0.202,0.768,0.536,1.494,0.869,2.216c0.352,0.763,0.704,1.526,1.056,2.289
				c0.096,0.208,0.195,0.428,0.18,0.657c-0.036,0.565-0.68,0.844-1.208,1.049c-0.714,0.277-1.396,0.637-2.027,1.071
				c-0.715,0.492-1.393,1.091-2.236,1.296c-1.177,0.286-2.46-0.255-3.609,0.129c-0.332,0.111-0.641,0.297-0.986,0.352
				c-0.522,0.084-1.039-0.14-1.521-0.358c-0.748-0.339-1.331-0.743-2.096-1.059c-0.224-0.092-0.449-0.199-0.62-0.37
				c-0.245-0.246-0.349-0.594-0.444-0.928c-1.34-4.701-2.48-9.458-3.415-14.256c-0.229-1.173-0.457-2.379-1.093-3.39
				c-0.225-0.357-0.496-0.683-0.725-1.038c-0.542-0.84-1.386-2.74-0.815-3.758c0.451-0.804,1.56-1.146,2.385-1.372
				c1.96-0.538,3.982-0.534,5.987-0.743c1.428-0.149,2.856-0.297,4.284-0.446c0.806-0.084,1.613-0.168,2.404-0.343
				c0.573-0.127,1.134-0.3,1.7-0.456c0.165-0.045,0.339-0.089,0.506-0.052C147.755,289.968,147.917,290.142,148.058,290.313z"/>
		</g>
		<g>
			<g style="enable-background:new    ;">
				<g>
					<polygon style="fill:#B0B0B0;" points="283.297,319.236 283.288,322.303 218.822,359.767 218.831,356.699 					"/>
				</g>
				<g>
					<polygon style="fill:#868686;" points="218.831,356.699 218.822,359.767 191.446,343.961 191.454,340.893 					"/>
				</g>
				<g>
					<polygon style="fill:#D4D4D4;" points="283.297,319.236 218.831,356.699 191.454,340.893 255.921,303.43 					"/>
				</g>
			</g>
		</g>
		<g>
			<g style="enable-background:new    ;">
				<g>
					<polygon style="fill:#B0B0B0;" points="283.297,315.455 283.288,318.523 218.822,355.987 218.831,352.919 					"/>
				</g>
				<g>
					<polygon style="fill:#868686;" points="218.831,352.919 218.822,355.987 191.446,340.181 191.454,337.113 					"/>
				</g>
				<g>
					<polygon style="fill:#D4D4D4;" points="283.297,315.455 218.831,352.919 191.454,337.113 255.921,299.65 					"/>
				</g>
			</g>
		</g>
		<g>
			<g style="enable-background:new    ;">
				<g>
					<polygon style="fill:#B0B0B0;" points="283.297,311.649 283.288,314.716 218.822,352.18 218.831,349.112 					"/>
				</g>
				<g>
					<polygon style="fill:#868686;" points="218.831,349.112 218.822,352.18 191.446,336.374 191.454,333.307 					"/>
				</g>
				<g>
					<polygon style="fill:#D4D4D4;" points="283.297,311.649 218.831,349.112 191.454,333.307 255.921,295.843 					"/>
				</g>
			</g>
		</g>
		<g>
			<g style="enable-background:new    ;">
				<g>
					<polygon style="fill:#B0B0B0;" points="283.297,307.842 283.288,310.91 218.822,348.374 218.831,345.306 					"/>
				</g>
				<g>
					<polygon style="fill:#868686;" points="218.831,345.306 218.822,348.374 191.446,332.568 191.454,329.5 					"/>
				</g>
				<g>
					<polygon style="fill:#D4D4D4;" points="283.297,307.842 218.831,345.306 191.454,329.5 255.921,292.036 					"/>
				</g>
			</g>
		</g>
		<g>
			<g style="enable-background:new    ;">
				<g>
					<polygon style="fill:#B0B0B0;" points="283.069,294.938 283.292,297.86 219.05,341.681 218.827,338.759 					"/>
				</g>
				<g>
					<polygon style="fill:#868686;" points="218.827,338.759 219.05,341.681 191.673,325.875 191.451,322.953 					"/>
				</g>
				<g>
					<polygon style="fill:#FCFCFC;" points="283.069,294.938 218.827,338.759 191.451,322.953 255.693,279.132 					"/>
				</g>
			</g>
		</g>
		<g>
			<g style="enable-background:new    ;">
				<g>
					<polygon style="fill:#6A6C6E;" points="300.497,278.086 300.505,281.154 339.269,303.681 339.261,300.613 					"/>
				</g>
				<g>
					<polygon style="fill:#828487;" points="339.261,300.613 339.269,303.681 372.821,284.31 372.812,281.242 					"/>
				</g>
				<g>
					<polygon style="fill:#C7CACF;" points="300.497,278.086 339.261,300.613 372.812,281.242 334.048,258.715 					"/>
				</g>
			</g>
		</g>
		<g>
			<g style="enable-background:new    ;">
				<g>
					<polygon style="fill:#6A6C6E;" points="300.497,274.375 300.505,277.443 339.269,299.97 339.261,296.902 					"/>
				</g>
				<g>
					<polygon style="fill:#828487;" points="339.261,296.902 339.269,299.97 372.821,280.599 372.812,277.531 					"/>
				</g>
				<g>
					<polygon style="fill:#C7CACF;" points="300.497,274.375 339.261,296.902 372.812,277.531 334.048,255.004 					"/>
				</g>
			</g>
		</g>
		<g>
			<g style="enable-background:new    ;">
				<g>
					<polygon style="fill:#6A6C6E;" points="300.497,270.664 300.505,273.732 339.269,296.259 339.261,293.191 					"/>
				</g>
				<g>
					<polygon style="fill:#828487;" points="339.261,293.191 339.269,296.259 372.821,276.888 372.812,273.82 					"/>
				</g>
				<g>
					<polygon style="fill:#C7CACF;" points="300.497,270.664 339.261,293.191 372.812,273.82 334.048,251.293 					"/>
				</g>
			</g>
		</g>
		<g>
			<g style="enable-background:new    ;">
				<g>
					<polygon style="fill:#6A6C6E;" points="300.497,266.953 300.505,270.021 339.269,292.548 339.261,289.48 					"/>
				</g>
				<g>
					<polygon style="fill:#828487;" points="339.261,289.48 339.269,292.548 372.821,273.177 372.812,270.109 					"/>
				</g>
				<g>
					<polygon style="fill:#C7CACF;" points="300.497,266.953 339.261,289.48 372.812,270.109 334.048,247.582 					"/>
				</g>
			</g>
		</g>
		<g>
			<path style="fill:#FFC2B3;" d="M216.063,288.194c1.161-0.499,1.616-1.009,1.876-1.488c0.259-0.479,0.583-1.096,1.035-2.005
				c0.453-0.908,3.638-4.465,5.916-2.757c2.278,1.708,4.149,3.579,3.315,4.89c-0.834,1.311-2.012,2.706-2.488,3.493
				c-0.476,0.787-1.539,1.639-1.95,1.831c-0.41,0.192-1.234,0.282-1.624,0.123C221.753,292.123,216.063,288.194,216.063,288.194z"/>
			<path style="fill:#8A536A;" d="M222.16,287.746c-0.525-0.089-1.63-1.022-2.373-1.292c-0.743-0.269-1.316-0.271-1.717,0.008
				c-0.561-0.156-0.589-1.103-0.589-1.103s-0.012-1.166,0.832-3.271c0.843-2.105,2.934-4.904,5.917-3.185
				c2.68,0.011,4.595,1.992,4.879,3.417c0.284,1.425,0.423,3.154-0.278,4.248c-0.7,1.094-1.028,1.021-1.028,1.021
				s-0.287-0.367-0.679,0.005c-0.391,0.372-0.74,0.955-0.74,0.955l-0.391-0.246c0,0,0.598-1.727-0.279-2.088
				c-0.877-0.36-1.054-0.046-1.662,0.605C223.444,287.471,222.16,287.746,222.16,287.746z"/>
			<path style="fill:#FFC2B3;" d="M225.146,287.417c0.294-0.621,0.922-1.52,1.432-1.374c0.51,0.146,0.331,0.574,0.223,0.818
				c-0.108,0.244-0.632,1.025-0.632,1.025s-0.605,1.255-1.077,1.365c-0.472,0.11-0.156-1.289-0.156-1.289L225.146,287.417z"/>
			<path style="fill:#F25100;" d="M223.95,300.478c-0.586,1.022-1.303,1.923-1.989,2.557c-2.034,1.877-4.092,2.823-5.955,4.438
				c-1.863,1.615-5.794,4.706-6.089,4.907c-0.086,0.06-0.742-0.078-1.678-0.32c-2.226-0.581-6.044-1.764-7.581-2.34
				c-2.182-0.817-7.272-4.677-7.272-4.677c0.092-0.34-0.313-0.287,0.117-1.131c0.428-0.846,1.384-2.125,3.072-3.279
				c1.688-1.154,3.689-2.638,5.554-5.358c1.867-2.718,4.117-6.444,6.691-7.14c2.575-0.697,4.815-0.601,5.855-0.917
				c1.038-0.318,3.846-0.008,5.448,1.325c1.602,1.331,2.86,2.901,4.527,5.636C225.758,295.989,225.109,298.467,223.95,300.478z"/>
			<path style="fill:#F2D5D5;" d="M223.95,300.478c-0.586,1.022-1.303,1.923-1.989,2.557c-2.034,1.877-4.092,2.823-5.955,4.438
				c-1.863,1.615-5.794,4.706-6.089,4.907c-0.086,0.06-0.742-0.078-1.678-0.32c0.223-0.235,0.458-0.458,0.72-0.656
				c2.456-1.846,5.29-3.366,7.905-4.986c0.751-0.472,1.524-0.966,2.026-1.696c0.719-1.048,0.777-2.419,1.374-3.539
				c0.672-1.264,2.044-2.287,1.99-3.717C222.977,298.369,223.547,299.393,223.95,300.478z"/>
			<path style="fill:#FC5400;" d="M220.051,289.591c-1.381-1.079-2.911-1.977-4.742-1.845c-0.675,0.049-1.362-0.042-2.046,0.013
				c-1.5,0.12-2.954,0.563-4.37,1.05c-1.525,0.524-2.689,1.15-3.675,2.485c-0.357,0.483-0.655,1.006-0.967,1.52
				c-1.661,2.732-3.742,5.208-6.147,7.315c-1.112,0.974-2.304,1.881-3.214,3.047c-0.101,0.129-0.198,0.317-0.093,0.443
				c0.043,0.052,0.111,0.076,0.176,0.097c1.027,0.328,1.883,0.157,2.915,0.103c0.85-0.044,1.87,0.327,2.707,0.509
				c2.071,0.452,4.136,1.073,5.956,2.186c1.285,0.786,2.454,1.818,3.893,2.267c0.196,0.061,0.414,0.11,0.603,0.028
				c0.145-0.063,0.248-0.193,0.344-0.319c0.548-0.72,1.061-1.472,1.689-2.124c1.459-1.514,3.443-2.392,5.129-3.648
				c0.295-0.22,0.588-0.46,0.767-0.781c0.16-0.288,0.217-0.62,0.271-0.944c0.135-0.806,0.109-1.683,0.682-2.284
				c0.651-0.684,1.285-1.378,1.994-2.004c0.506-0.448,1.078-0.878,1.749-0.962c0.35-0.044,0.804-0.052,0.919-0.386
				c0.065-0.19-0.028-0.396-0.125-0.572c-0.539-0.976-1.298-1.807-1.86-2.767c-0.235-0.401-0.359-0.72-0.731-0.997
				c-0.355-0.265-0.709-0.513-1.051-0.801c-0.159-0.133-0.412-0.442-0.609-0.501c-0.314-0.095-0.382,0.067-0.652,0.311
				L220.051,289.591z"/>
			<path style="fill:#6B505C;" d="M203.198,353.65c-0.709,1.46-2.292,2.238-3.113,2.624c-0.821,0.384-2.317,0.762-2.725,0.644
				c-0.409-0.116-1.09,0.701-1.09,0.701s-0.184,0.268-0.23,0.586c-0.045,0.318-1.145,1.636-2.072,1.946
				c-0.929,0.311-3.261-0.286-3.513-0.792c-0.119-0.237-0.115-0.514-0.065-0.876c0.057-0.412,0.174-0.935,0.243-1.634
				c0.126-1.308,0.89-1.495,1.355-2.283c0,0,4.393-1.472,4.862-2.082c0.47-0.612,2.039-0.449,2.773-0.433
				c0.734,0.016,2.495,0.064,2.495,0.064s0.581,0.022,0.949,0.315C203.345,352.648,203.503,353.021,203.198,353.65z"/>
			<path style="fill:#9BBBE0;" d="M197.782,353.913c-0.113,1.196-1.05,1.919-2.07,2.215c-0.17,0.051-0.344,0.09-0.516,0.116
				c-1.197,0.184-2.925-0.104-3.354-0.653c-0.432-0.547-1.336-13.206-1.229-16.13c0.104-2.926,0.631-8.2,0.679-8.856
				c0.048-0.655-0.177-3.118-0.845-9.645c-0.637-2.676-0.785-4.288-0.724-7.374c0.062-3.085,2.235-7.352,3.78-9.674
				c0,0,1.801,1.161,3.277,1.739c1.542,0.605,2.977,8.345,3.62,12.227c0.193,1.166,0.314,1.983,0.345,2.155
				c0.137,0.749-1.171,6.862-2.477,17.329C196.963,347.83,197.914,352.517,197.782,353.913z"/>
			<path style="fill:#F2D5D5;" d="M197.782,353.913c-0.113,1.196-1.05,1.919-2.07,2.215c0.195-1.553,0.493-3.115,0.52-4.674
				c0.019-1.042-0.083-2.083-0.11-3.127c-0.093-3.576,0.697-7.108,1.079-10.667c0.369-3.417,0.363-6.864,0.357-10.3
				c-0.002-0.815-0.005-1.642-0.229-2.425c-0.447-1.559-1.726-2.794-2.096-4.374c-0.29-1.233-0.096-4.252,1.45-4.713
				c1.107-0.33,2.648,1.051,3.715,2.028c0.193,1.166,0.314,1.983,0.345,2.155c0.137,0.749-1.171,6.862-2.477,17.329
				C196.963,347.83,197.914,352.517,197.782,353.913z"/>
			<path style="fill:#A7C6EB;" d="M192.16,308.282c-0.349,0.734-0.662,1.55-0.707,1.668c-0.446,1.178-0.908,2.103-0.989,3.363
				c-0.085,1.337-0.296,2.809-0.139,4.143c0.151,1.287,0.609,2.574,0.794,3.871c0.232,1.629,0.585,3.29,0.914,4.916
				c0.094,0.464,0.188,0.928,0.282,1.392c0.242,1.192,0.377,2.008,0.146,3.211c-0.657,3.413-0.597,6.843-1.051,10.25
				c-0.215,1.611,0.196,3.353,0.378,4.964c0.209,1.847,0.417,3.694,0.626,5.541c0.276,2.443,1.373,3.6,3.879,2.826
				c-0.328-3.091-0.562-6.192-0.702-9.297c-0.042-0.929-0.075-1.859-0.051-2.789c0.068-2.669,0.642-5.252,1.204-7.85
				c0.427-1.977-0.243-4.148-0.654-6.1c-0.527-2.508-0.841-5.054-1.155-7.597c-0.125-1.013-0.251-2.031-0.201-3.05
				c0.066-1.36,0.528-2.653,0.815-3.973c0.322-1.479,0.187-2.638,0.927-3.979c0.085-0.153,0.172-0.325,0.132-0.495
				c-0.027-0.113-0.107-0.205-0.192-0.284c-0.436-0.403-1.041-0.549-1.59-0.772c-0.65-0.265-1.249-0.656-1.752-1.145
				C192.883,306.911,192.504,307.556,192.16,308.282z"/>
			<path style="fill:#F5F5F5;" d="M203.198,353.65c-0.709,1.46-2.292,2.238-3.113,2.624c-0.821,0.384-2.317,0.762-2.725,0.644
				c-0.409-0.116-1.09,0.701-1.09,0.701s-0.184,0.268-0.23,0.586c-0.045,0.318-1.145,1.636-2.072,1.946
				c-0.929,0.311-3.261-0.286-3.513-0.792c-0.119-0.237-0.115-0.514-0.065-0.876c0.751,0.457,1.711,0.54,2.609,0.571
				c0.373,0.012,0.751,0.019,1.109-0.086c1.277-0.379,1.761-1.992,2.92-2.646c0.75-0.425,1.665-0.385,2.509-0.564
				c1.465-0.31,2.738-1.37,3.377-2.717c0.094-0.201,0.135-0.406,0.154-0.61C203.345,352.648,203.503,353.021,203.198,353.65z"/>
			<g>
				<path style="fill:#BCD7F7;" d="M197.024,355.649l-0.107-0.138l-0.163-0.057c0.063-0.305-0.057-4.571-0.152-8.001
					c-0.066-2.362-0.127-4.596-0.127-5.4c-0.003-1.178,0.177-2.164,0.425-3.528c0.191-1.052,0.43-2.359,0.661-4.178
					c0.448-3.493,0.434-8.142,0.424-11.535c-0.002-0.654-0.003-1.266-0.002-1.822h0.349c0,0.556,0.002,1.168,0.003,1.822
					c0.009,3.402,0.023,8.064-0.426,11.579c-0.234,1.828-0.473,3.141-0.666,4.197c-0.245,1.348-0.422,2.318-0.421,3.465
					c0.001,0.801,0.063,3.028,0.129,5.387C197.177,355.533,197.147,355.555,197.024,355.649z"/>
			</g>
			<path style="fill:#6B505C;" d="M215.933,362.348c-0.577,1.156-2.023,2.013-2.798,2.285c-0.776,0.274-1.642,0.357-2.727,0.321
				c-1.085-0.035-1.287,0.349-1.287,0.349s-0.774,0.48-1.014,0.918c-0.239,0.438-1.843,1.154-2.865,1.302
				c-1.023,0.151-2.643-0.905-2.639-1.346c0.002-0.265,0.024-0.367,0.11-0.667c0.056-0.198,0.141-0.484,0.268-0.959
				c0.316-1.193,0.748-2.06,1.209-3.335c0,0,3.957-2.564,4.906-2.4c0.949,0.164,3.941-0.149,4.857,0.04s2.039,0.789,2.312,1.153
				c0.011,0.016,0.024,0.033,0.034,0.051C216.534,360.444,216.484,361.242,215.933,362.348z"/>
			<path style="fill:#9BBBE0;" d="M196.78,305.65c-0.707,1.248-1.895,2.235-3.082,6.244c-1.187,4.009,0.221,6.397,2.229,8.139
				c2.008,1.743,3.033,7.767,3.715,10.759c0.681,2.992,1.461,7.943,1.385,9.413c-0.076,1.47,0.793,10.633,1.428,14.104
				c0.636,3.472,1.093,7.736,1.273,8.181c0.18,0.445,1.552,1.214,3.532,0.5c1.98-0.714,2.173-2.234,2.284-2.859
				c0.111-0.625-0.419-18.735-0.284-22.031c0.135-3.296,1.196-14.219,0.811-20.241c-0.385-6.022-0.247-7.306-0.359-7.609
				c-0.112-0.303-2.799-1.665-7.199-2.699C198.963,306.717,196.78,305.65,196.78,305.65z"/>
			<path style="fill:#8A536A;" d="M192.269,305.969c1.571,1.385,5.785,3.043,10.378,4.431c4.592,1.388,7.179,2.717,7.179,2.717
				l-0.114-2.866c0,0-13.942-4.258-16.209-6.34C193.268,304.326,192.269,305.969,192.269,305.969z"/>
			<path style="fill:#A7C6EB;" d="M196.207,309.396c-0.861,2.71-2.864,5.142-1.707,8.168c0.25,0.654,0.64,1.245,1.036,1.823
				c0.39,0.57,0.789,1.135,1.251,1.649c0.531,0.592,1.461,1.167,1.785,1.904c0.218,0.496,0.127,1.119,0.254,1.649
				c0.414,1.722,1.511,3.203,1.979,4.912c0.281,1.024,0.342,2.092,0.468,3.146c0.228,1.91,0.67,3.795,1.317,5.607
				c0.074,0.207,0.156,0.422,0.322,0.567c0.148,0.129,0.344,0.186,0.535,0.236c1.193,0.308,2.428,0.454,3.659,0.432
				c0.363-0.007,0.749-0.036,1.038-0.255c0.362-0.275,0.468-0.766,0.527-1.216c0.247-1.884,0.105-3.794,0.069-5.694
				c-0.03-1.522,0.008-3.045,0.046-4.566c0.239-4.152,0.103-8.25,0.686-12.352c0.085-0.594,0.169-1.199,0.074-1.791
				c-0.097-0.609-1.49-0.643-2.04-0.842c-0.952-0.345-1.909-0.559-2.895-0.801C201.762,311.272,198.956,310.412,196.207,309.396z"/>
			<path style="fill:#A7C6EB;" d="M202.479,343.626c0.144,1.148,0.439,2.274,0.581,3.423c0.159,1.287,0.125,2.589,0.136,3.886
				c0.027,3.15,0.323,6.29,0.618,9.427c0.018,0.188,0.042,0.391,0.169,0.53c0.109,0.119,0.273,0.169,0.431,0.199
				c1.06,0.204,2.128-0.226,3.121-0.647c0.458-0.194,0.941-0.408,1.221-0.819c0.334-0.489,0.299-1.132,0.251-1.723
				c-0.407-4.992-0.146-9.974-0.171-15.004c-0.008-1.582-0.016-3.164-0.024-4.745c-0.002-0.365-0.006-0.742-0.153-1.077
				c-0.363-0.826-1.34-1.169-1.781-1.954c-0.422-0.75-0.71-1.604-1.814-1.248c-1.471,0.474-1.888,2.742-2.189,4.003
				C202.427,339.754,202.238,341.704,202.479,343.626z"/>
			<path style="fill:#F5F5F5;" d="M215.933,362.348c-0.577,1.156-2.023,2.013-2.798,2.285c-0.776,0.274-1.642,0.357-2.727,0.321
				c-1.085-0.035-1.287,0.349-1.287,0.349s-0.774,0.48-1.014,0.918c-0.239,0.438-1.843,1.154-2.865,1.302
				c-1.023,0.151-2.643-0.905-2.639-1.346c0.002-0.265,0.024-0.367,0.11-0.667c0.407,0.314,0.85,0.585,1.307,0.815
				c0.124,0.062,0.252,0.122,0.391,0.143c0.136,0.019,0.274-0.003,0.409-0.032c0.656-0.143,1.366-0.248,1.985-0.515
				c1.086-0.473,2.099-1.138,3.251-1.414c0.827-0.199,1.704-0.19,2.519-0.42c0.102-0.029,0.202-0.062,0.301-0.098
				c0.526-0.195,0.999-0.51,1.458-0.831c0.493-0.344,0.986-0.705,1.368-1.17c0.384-0.464,0.653-1.048,0.628-1.651
				c-0.005-0.091-0.015-0.185-0.029-0.277C216.534,360.444,216.484,361.242,215.933,362.348z"/>
			<g>
				<path style="fill:#BCD7F7;" d="M208.816,361.727c-0.011-0.11-1.189-11.07-0.999-15.716c0.087-2.117-0.077-4.391-0.236-6.587
					c-0.187-2.601-0.363-5.054-0.06-6.741c0.546-3.025,0.773-8.758,0.694-11.535c-0.019-0.682-0.053-1.398-0.089-2.126
					c-0.11-2.281-0.223-4.637,0.11-6.349l0.342,0.069c-0.323,1.668-0.21,4.002-0.102,6.261c0.034,0.732,0.069,1.451,0.088,2.133
					c0.08,2.796-0.148,8.563-0.697,11.61c-0.297,1.643-0.121,4.077,0.065,6.653c0.159,2.208,0.322,4.489,0.234,6.625
					c-0.188,4.621,0.986,15.556,0.999,15.665L208.816,361.727z"/>
			</g>
			<g>
				<path style="fill:#BCD7F7;" d="M201.148,325.616l-0.077-0.063l-3.933-3.329l-0.888-7.947l0.24,0.057l9.717,2.214l-0.831,7.577
					l-0.104,0.038L201.148,325.616z M197.471,322.047l3.749,3.173l3.834-1.354l0.771-7.049l-9.173-2.089L197.471,322.047z"/>
			</g>
			<g>
				<path style="fill:#BCD7F7;" d="M190.364,321.017l-0.129-0.223c-0.063-0.11-1.531-2.758-0.446-9.072l0.044-0.251l0.218,0.129
					c0.641,0.38,1.244,0.581,1.25,0.585l0.122,0.041l-0.003,0.129l-0.107,7.47L190.364,321.017z M190.094,312.026
					c-0.812,4.963,0.015,7.58,0.333,8.349l0.539-0.679l0.104-7.225C190.885,312.403,190.513,312.255,190.094,312.026z"/>
			</g>
			<path style="fill:#FFC2B3;" d="M240.322,327.581c0,0-0.038,0.08-0.104,0.159c-0.083,0.098-0.213,0.194-0.373,0.116
				c-0.285-0.14-0.276-0.569-0.358-0.779c-0.08-0.21-1.133-1.056-1.133-1.056l-0.153,0.042l-0.168,0.046c0,0,1.01,1.138,1.277,1.594
				c0.267,0.458,0.347,1.133,0.342,1.485c-0.006,0.354-0.333,0.639-0.501,0.571c-0.012-0.004-0.024-0.014-0.037-0.025
				c-0.152-0.157-0.291-0.854-0.386-1.053c-0.101-0.213-0.91-1.056-0.91-1.056s-0.005,0.022-0.004,0.065
				c-0.001,0.096,0.03,0.291,0.23,0.519c0.01,0.013,0.02,0.026,0.028,0.038c0.078,0.11,0.122,0.267,0.147,0.435
				c0.059,0.384,0.017,0.815,0.017,0.815s-0.135,0.642-0.364,0.545c-0.017-0.008-0.034-0.018-0.051-0.031
				c-0.208-0.158-0.383-0.716-0.445-0.99c-0.051-0.222-0.511-0.715-0.739-0.946c-0.076-0.078-0.126-0.127-0.126-0.127l0.006,0.027
				l0.057,0.33l0.133,0.755c0,0-0.005,0.661-0.147,1.04c-0.142,0.377-0.508,0.303-0.662,0.15c-0.094-0.095-0.14-0.347-0.168-0.561
				c-0.018-0.138-0.028-0.261-0.041-0.316c-0.03-0.144-0.271-0.739-0.381-0.895c-0.11-0.156-1.575-2.049-1.73-2.196
				c-0.156-0.148-0.559-0.683-0.577-1.173c-0.02-0.489-2.528-3.541-3.99-5.383c-1.462-1.842-3.553-5.344-4.149-6.909
				c-0.597-1.565-2.67-6.897-3.147-8.048c-0.478-1.15-0.028-2.303,0.094-3.478c0,0,1.861,1.228,2.334,1.311
				c0.474,0.081,3.081,1.967,3.208,2.207c0.019,0.036,0.064,0.155,0.127,0.332c0.354,0.996,1.291,3.871,1.633,4.722
				c0.405,0.999,2.243,3.204,2.89,5.507c0.645,2.302,3.073,7.283,3.114,7.377c0.042,0.094,0.845,0.042,1.013,0.11
				c0.166,0.068,0.998,0.285,1.147,0.406c0.147,0.119,0.812,0.116,0.856,0.11c0.046-0.004,0.655-0.094,0.762,0.241
				c0.025,0.078,0.039,0.144,0.039,0.199c0.004,0.176-0.118,0.245-0.362,0.364c-0.32,0.153-1.031,0.021-1.031,0.021
				s0.005,0.004,0.015,0.011c0,0.003,0.001,0.003,0.003,0.002c0.047,0.038,0.186,0.153,0.462,0.419
				c0.35,0.337,1.497,0.974,1.695,1.212c0.2,0.238,0.57,1.053,0.57,1.053L240.322,327.581z"/>
			<g>
				<path style="fill:#9BBBE0;" d="M195.142,308.722l-0.421-0.163c0.036-0.091,0.873-2.255,1.919-3.085l0.279,0.352
					C195.969,306.579,195.15,308.7,195.142,308.722z"/>
			</g>
			<g>
				<path style="fill:#9BBBE0;" d="M206.797,312.736l-0.421-0.157c0.008-0.022,0.799-2.171,0.691-3.393l0.449-0.038
					C207.633,310.471,206.832,312.645,206.797,312.736z"/>
			</g>
			<path style="fill:#F2D5D5;" d="M235.686,328.924c0.016,0.254,0.033,0.509,0.045,0.764c-0.018-0.138-0.028-0.261-0.041-0.316
				c-0.03-0.144-0.271-0.739-0.381-0.895c-0.11-0.156-1.575-2.049-1.73-2.196c-0.156-0.148-0.559-0.683-0.577-1.173
				c-0.02-0.489-2.528-3.541-3.99-5.383c-1.462-1.842-3.553-5.344-4.149-6.909c-0.597-1.565-2.67-6.897-3.147-8.048
				c-0.478-1.15-0.028-2.303,0.094-3.478c0,0,1.861,1.228,2.334,1.311c0.474,0.081,3.081,1.967,3.208,2.207
				c0.019,0.036,0.064,0.155,0.127,0.332c-0.081,0.002-0.162-0.008-0.245-0.031c-0.943-0.251-1.892-0.466-2.851-0.645
				c-0.578-0.108-1.18-0.203-1.751-0.051c-0.114,0.03-0.233,0.075-0.301,0.171c-0.178,0.245,0.082,0.557,0.264,0.8
				c0.383,0.509,0.452,1.178,0.627,1.79c0.188,0.657,0.594,1.144,0.938,1.715c0.496,0.823,0.581,1.803,0.906,2.687
				c0.443,1.205,0.791,2.536,1.437,3.64c0.963,1.649,2.036,3.311,3.408,4.648c0.654,0.639,1.144,1.424,1.632,2.191
				c0.429,0.676,0.986,1.329,1.267,2.084c0.253,0.685,0.456,1.311,0.975,1.862c0.534,0.563,1.301,0.883,1.644,1.618
				C235.62,328.023,235.657,328.478,235.686,328.924z"/>
			<path style="fill:#F2D5D5;" d="M236.517,327.974l0.057,0.33c-0.079-0.173-0.17-0.34-0.275-0.499
				C236.373,327.86,236.445,327.915,236.517,327.974z"/>
			<path style="fill:#F2D5D5;" d="M237.821,329.589c0.029,0.139,0.013,0.28,0.001,0.421c-0.208-0.158-0.383-0.716-0.445-0.99
				c-0.051-0.222-0.511-0.715-0.739-0.946c0.36,0.311,0.681,0.664,0.956,1.054C237.691,329.269,237.788,329.419,237.821,329.589z"/>
			<path style="fill:#F2D5D5;" d="M238.072,328.247c0.078,0.11,0.122,0.267,0.147,0.435
				C238.178,328.534,238.129,328.389,238.072,328.247z"/>
			<path style="fill:#F2D5D5;" d="M237.556,324.205c-0.197-0.077-0.39-0.16-0.583-0.247c0.396,0.085,0.8,0.171,1.204,0.132
				c0.27-0.026,0.544-0.118,0.757-0.281c0.004,0.176-0.118,0.245-0.362,0.364c-0.32,0.153-1.031,0.021-1.031,0.021
				S237.546,324.197,237.556,324.205z"/>
			<path style="fill:#F2D5D5;" d="M239.114,329.734c-0.152-0.157-0.291-0.854-0.386-1.053c-0.101-0.213-0.91-1.056-0.91-1.056
				s-0.005,0.022-0.004,0.065c-0.093-0.176-0.199-0.345-0.313-0.506C238.429,327.679,239.063,328.684,239.114,329.734z"/>
			<path style="fill:#F2D5D5;" d="M240.218,327.739c-0.083,0.098-0.213,0.194-0.373,0.116c-0.285-0.14-0.276-0.569-0.358-0.779
				c-0.08-0.21-1.133-1.056-1.133-1.056l-0.153,0.042c-0.051-0.058-0.104-0.113-0.157-0.167
				C238.981,326.176,239.776,326.871,240.218,327.739z"/>
			<path style="fill:#FFD0C4;" d="M224.528,304.985c-0.07,0.022-0.141,0.05-0.196,0.098c-0.081,0.072-0.118,0.182-0.14,0.288
				c-0.129,0.609,0.09,1.243,0.411,1.777c0.233,0.389,0.689,0.781,0.843,1.2c0.13,0.354,0.052,0.818,0.125,1.2
				c0.191,1,0.647,1.927,1.093,2.833c0.257,0.522,0.515,1.044,0.772,1.565c0.075,0.152,0.153,0.308,0.278,0.423
				c0.383,0.351,0.993,0.167,1.465-0.05c0.337-0.156,0.677-0.324,0.939-0.587c0.813-0.817-0.077-1.996-0.625-2.678
				c-0.276-0.343-0.727-0.697-0.924-1.085c-0.309-0.605-0.375-1.471-0.576-2.128C227.488,306.194,226.573,304.327,224.528,304.985z"
				/>
			<path style="fill:#FFD0C4;" d="M234.408,321.611c-0.273-0.721-0.827-1.29-1.089-1.991c-0.283-0.758-0.62-1.461-0.988-2.185
				c-0.352-0.69-0.4-1.555-0.667-2.297c-0.389-1.087-0.785-1.977-1.733-2.693c-0.337-0.255-0.739-0.475-1.159-0.435
				c-0.45,0.044-0.835,0.394-0.995,0.818c-0.189,0.5-0.027,0.895,0.05,1.386c0.079,0.51,0.051,1.003,0.318,1.471
				c0.237,0.413,0.605,0.593,0.952,0.887c0.281,0.238,0.443,0.55,0.656,0.85c0.644,0.911,1.232,1.845,1.713,2.854
				c0.194,0.408,0.374,0.824,0.623,1.201c0.134,0.203,0.288,0.393,0.404,0.607c0.269,0.496,0.15,1.09,0.44,1.56
				c0.088,0.143,0.211,0.262,0.341,0.368c0.482,0.392,1.206,0.433,1.443-0.254C234.928,323.146,234.625,322.183,234.408,321.611z"/>
			<path style="fill:#F25100;" d="M227.581,305.178c-0.155-0.155-2.653-0.774-3.238-0.857c-0.585-0.083-2.482-0.263-2.779-0.195
				c-0.297,0.069-1.481-1.87-1.294-3.345c0.187-1.475,1.172-5.778,4.383-6.605c1.236,0.794,1.877,3.448,2.216,5.264
				C227.208,301.258,227.581,305.178,227.581,305.178z"/>
			<path style="fill:#FC5400;" d="M224.932,295.366c-0.208-0.323-0.452-0.606-0.877-0.72c-0.387-0.104-0.807,0.02-1.137,0.246
				c-0.33,0.226-0.584,0.545-0.821,0.868c-0.588,0.799-0.341,1.498-0.244,2.439c0.107,1.052,0.215,2.104,0.322,3.156
				c0.311,0.615,0.405,1.337,0.26,2.01c-0.025,0.117-0.057,0.243-0.009,0.354c0.07,0.163,0.274,0.213,0.449,0.241
				c1.3,0.212,2.577,0.512,3.894,0.389c-0.193-1.599-0.316-3.205-0.369-4.815c-0.037-1.147-0.082-2.41-0.861-3.253
				C225.29,296.012,225.128,295.671,224.932,295.366z"/>
		</g>
		<g>
			<g>
				<g style="enable-background:new    ;">
					<g>
						<polygon style="fill:#76777A;" points="247.417,222.645 244.774,220.842 248.026,178.142 250.668,179.945 						"/>
					</g>
					<g>
						<polygon style="fill:#87898C;" points="250.668,179.945 248.026,178.142 281.577,158.771 284.22,160.574 						"/>
					</g>
					<g>
						<polygon style="fill:#CBCED3;" points="284.22,160.574 280.968,203.274 247.417,222.645 250.668,179.945 						"/>
					</g>
				</g>
			</g>
			<path style="fill:#FFC2B3;" d="M291.208,194.155c-1.293-2.238-5.535-9.828-6.928-10.769c-1.393-0.941-7.357-7.017-7.896-7.881
				c-0.538-0.864-0.932-1.579-1.07-2.021c-0.138-0.443-0.767-3.524-0.876-4.145c-0.109-0.62-0.935-1.973-1.232-2.389
				c-0.297-0.415-0.505-0.998-0.91-0.936c-0.405,0.062-0.348,0.584-0.207,0.88c0.141,0.296,0.256,0.448,0.256,0.448l-0.108,1.019
				l0.295,1.118l0.453,2.891c0,0,0.309,1.102,0.267,1.5c-0.041,0.399,0.677,2.229,1.046,2.799c0.368,0.571,2.066,3.185,3.034,4.439
				c0.967,1.254,2.77,4.182,2.869,4.32c0.099,0.138,6.463,8.626,7.34,9.697C288.416,196.195,291.208,194.155,291.208,194.155z"/>
			<path style="fill:#6B505C;" d="M284.235,272.531c0.322,1.269,2.278,2.649,2.278,2.649s1.563,0.599,1.841,0.774
				c0.277,0.175,1.31,2.454,1.31,2.454s1.383,1.177,2.372,1.098c0.989-0.081,2.416-0.546,2.358-1.245
				c-0.007-0.095-0.019-0.222-0.039-0.376c-0.112-0.966-0.443-2.947-1.147-4.153c0,0-4.263-2.679-5.096-2.941
				c-0.833-0.263-2.995-0.131-3.185-0.028c-0.068,0.037-0.221,0.112-0.369,0.254C284.293,271.265,284.03,271.719,284.235,272.531z"
				/>
			<path style="fill:#9BBBE0;" d="M284.496,237.472c0.047,2.622,0.133,5.014,0.217,6.414c0.257,4.282,2.588,11.763,2.738,13.976
				c0.149,2.213,0.009,14.635,0.158,15.737c0.135,1.003,0.793,1.553,1.807,2.033c0.096,0.047,0.196,0.093,0.299,0.138
				c1.183,0.52,4,0.585,3.879-0.546c-0.121-1.133,1.324-10.793,0.917-16.204c-0.408-5.411-1.26-10.173-1.413-10.6
				c-0.151-0.426-0.233-0.713,0.002-2.517c0.234-1.805,0.145-4.373,0.21-5.755c0.063-1.379,0.879-3.963,0.83-7.854
				c-0.051-3.888-1.295-8.062-2.372-11.253c0,0-5.828,2.871-6.709,3.937C284.467,225.696,284.399,232.074,284.496,237.472z"/>
			<path style="fill:#F2D5D5;" d="M284.496,237.472c0.047,2.622,0.133,5.014,0.217,6.414c0.257,4.282,2.588,11.763,2.738,13.976
				c0.149,2.213,0.009,14.635,0.158,15.737c0.135,1.003,0.793,1.553,1.807,2.033c-0.322-3.307-0.644-6.618-0.965-9.926
				c-0.142-1.444-0.282-2.908-0.049-4.342c0.091-0.56,0.238-1.117,0.238-1.684c0-0.644-0.189-1.271-0.366-1.891
				c-0.753-2.642-1.315-5.336-1.683-8.058c-0.147-1.078-0.492-2.067-0.385-3.154c0.13-1.323,0.371-2.633,0.611-3.939
				c0.051-0.284,0.105-0.573,0.263-0.814c0.214-0.326,0.579-0.511,0.896-0.739c0.846-0.606,1.382-1.579,1.605-2.595
				c0.186-0.847,0.567-3.559-0.868-3.65c-0.389-0.026-0.751,0.17-1.086,0.368C286.516,235.862,285.446,236.604,284.496,237.472z"/>
			<path style="fill:#A7C6EB;" d="M288.666,239.182c0.235-0.503,0.512-1.003,0.936-1.361c0.424-0.358,1.024-0.552,1.548-0.368
				c0.772,0.271,1.074,1.187,1.223,1.992c0.422,2.284,0.44,4.642,0.053,6.933c-0.129,0.764-0.304,1.525-0.313,2.299
				c-0.009,0.692,0.115,1.378,0.237,2.059c0.296,1.644,0.592,3.288,0.889,4.932c-0.569-0.209-1.179-0.303-1.784-0.276
				c-0.47,0.021-0.944,0.114-1.407,0.031c-0.727-0.131-1.321-0.689-1.669-1.34c-0.348-0.651-0.485-1.392-0.594-2.123
				C287.167,247.852,286.859,243.05,288.666,239.182z"/>
			<path style="fill:#A7C6EB;" d="M293.93,259.934c0.034,0.627,0.069,1.256,0.011,1.882c-0.047,0.503-0.152,0.999-0.187,1.502
				c-0.048,0.699,0.042,1.4,0.062,2.1c0.026,0.899-0.063,1.797-0.152,2.691c-0.18,1.812-0.359,3.625-0.539,5.436
				c-0.027,0.274-0.063,0.569-0.249,0.772c-0.158,0.173-0.397,0.246-0.626,0.296c-0.513,0.112-1.857,0.444-2.3,0.061
				c-0.445-0.384-0.261-2.081-0.299-2.651c-0.144-2.165-0.289-4.33-0.433-6.495c0.005,0.096,0.011,0.192,0.016,0.287
				c-0.033-0.413-0.053-0.817-0.06-1.231c-0.041-2.27-0.193-4.537-0.374-6.8c-0.13-1.63-0.851-3.389-0.277-4.985
				c0.765-2.131,2.71-1.249,3.751,0.116C293.762,254.864,293.801,257.58,293.93,259.934z"/>
			<path style="fill:#F5F5F5;" d="M284.235,272.531c0.322,1.269,2.278,2.649,2.278,2.649s1.563,0.599,1.841,0.774
				c0.277,0.175,1.31,2.454,1.31,2.454s1.383,1.177,2.372,1.098c0.989-0.081,2.416-0.546,2.358-1.245
				c-0.007-0.095-0.019-0.222-0.039-0.376c-0.846,0.632-1.954,0.912-2.994,0.725c-0.31-0.056-0.616-0.151-0.874-0.331
				c-0.352-0.245-0.583-0.625-0.803-0.995c-0.275-0.459-0.55-0.917-0.823-1.376c-0.154-0.255-0.311-0.518-0.544-0.703
				c-0.294-0.235-0.671-0.326-1.023-0.455c-1.066-0.396-1.933-1.245-2.423-2.262c-0.18-0.376-0.231-0.938-0.313-1.471
				C284.293,271.265,284.03,271.719,284.235,272.531z"/>
			<g>
				<path style="fill:#BCD7F7;" d="M288.492,274.947l-0.349-0.006c0-0.019,0.023-1.885-0.013-5.566
					c-0.011-1.074,0.028-2.218,0.068-3.327c0.098-2.767,0.198-5.629-0.46-7.834c-0.936-3.145-2.701-13.539-3.155-17.56l0.349-0.038
					c0.452,4.008,2.21,14.368,3.143,17.497c0.674,2.259,0.572,5.152,0.475,7.947c-0.039,1.103-0.078,2.243-0.069,3.308
					C288.518,273.059,288.494,274.928,288.492,274.947z"/>
			</g>
			<path style="fill:#6B505C;" d="M271.737,278.699c0.735,0.951,2.397,1.959,2.969,1.978c0.572,0.019,2.92,0.817,2.92,0.817
				s0.17,0.734,2.283,1.616c2.113,0.884,3.403-0.121,3.403-0.121s0.42-0.17,0.368-1.171c-0.007-0.135-0.023-0.287-0.049-0.457
				c-0.214-1.346-0.658-3.065-1.152-3.878c-0.023-0.039-0.047-0.074-0.07-0.107c0,0-3.634-2.32-4.266-2.269
				c-0.632,0.051-5.455-0.394-5.91-0.049c-0.352,0.266-0.789,0.618-1.005,1.054c-0.065,0.128-0.11,0.263-0.128,0.404
				C271.017,277.144,271.001,277.748,271.737,278.699z"/>
			<path style="fill:#9BBBE0;" d="M289.62,224.171c0.376,1.755,1.983,6.075,1.736,8.817c-0.247,2.742-2.769,5.229-3.536,5.876
				c-0.768,0.648-1.284,1.86-1.378,2.512c-0.094,0.652-1.437,4.683-1.426,9.892c0.011,5.21-0.407,5.477-0.479,7.123
				c-0.072,1.645-0.193,6.309-0.437,9.461c-0.243,3.152-1.174,10.486-1.294,11.169c-0.121,0.683-3.004,0.857-4.521-0.162
				c-1.517-1.019-1.51-2.395-1.449-2.723c0.061-0.327,0.732-5.796,0.581-9.121c-0.151-3.325-1.184-16.853-1.336-19.095
				c-0.152-2.242-1.509-8.543-0.942-15.292c0.568-6.749,0.4-7.38,1.422-7.404C277.584,225.2,289.62,224.171,289.62,224.171z"/>
			<path style="fill:#8A536A;" d="M293.178,225.748c-0.719,0.959-6.305,3.17-8.656,3.621c-2.35,0.451-8.71,0.397-9.09-0.43
				c0.194-2.143,0.194-2.143,0.194-2.143s5.55,0.47,7.067-0.311c1.518-0.781,9.756-3.337,9.756-3.337L293.178,225.748z"/>
			<path style="fill:#A7C6EB;" d="M293.516,228.733c0.683,1.981,0.909,4.109,0.751,6.199c-0.191,2.538-0.948,5.032-2.2,7.249
				c-1.048-1.234-1.75-2.758-2.005-4.357c-0.055-0.343-0.09-0.695-0.219-1.018c-0.082-0.206-0.201-0.396-0.279-0.604
				c-0.24-0.639-0.073-1.35,0.102-2.009c0.207-0.779,0.43-1.574,0.427-2.386c-0.003-0.811-0.179-1.425,0.564-1.981
				c0.388-0.29,0.875-0.389,1.273-0.671C292.405,228.82,293.158,227.696,293.516,228.733z"/>
			<path style="fill:#A7C6EB;" d="M285.509,232.242c0.361-0.008,0.792,0.015,0.977,0.324c0.086,0.144,0.096,0.319,0.099,0.487
				c0.059,2.964-1.108,5.81-1.45,8.755c-0.121,1.043-0.139,2.101-0.363,3.127c-0.187,0.852-0.513,1.67-0.691,2.524
				c-0.193,0.923-0.209,1.872-0.326,2.808c-0.102,0.813-0.28,1.616-0.363,2.432c-0.072,0.707-0.072,1.421,0.001,2.128
				c0.071,0.696,0.206,1.431-0.078,2.07c-0.628,1.412-2.916,0.811-4.035,0.413c-0.443-0.158-0.896-0.415-1.071-0.851
				c-0.092-0.227-0.097-0.479-0.105-0.723c-0.049-1.459-0.231-2.916-0.531-4.337c-0.456-2.159-0.857-4.33-1.149-6.517
				c-0.44-3.292-0.63-6.618-0.571-9.939c0.014-0.769-0.316-3.816,0.594-4.133c0.465-0.162,1.412,0.433,1.87,0.575
				c0.721,0.224,1.457,0.397,2.201,0.527C282.162,232.199,283.84,232.279,285.509,232.242z"/>
			<path style="fill:#A7C6EB;" d="M283.832,255.839c0.164,0.881,0.089,1.787,0.008,2.679c-0.229,2.505-0.503,5.008-0.584,7.522
				c-0.116,3.637,0.142,7.446-1.41,10.738c-0.091,0.194-0.199,0.396-0.386,0.5c-0.214,0.119-0.478,0.081-0.719,0.034
				c-0.775-0.153-1.537-0.366-2.278-0.637c-0.715-0.262-0.456-0.705-0.398-1.269c0.081-0.793-0.065-1.676-0.095-2.474
				c-0.062-1.603-0.124-3.207-0.186-4.81c-0.126-3.255-0.252-6.51-0.378-9.766c-0.018-0.473-0.036-0.952,0.054-1.416
				c0.102-0.522,0.337-1.007,0.58-1.48c0.605-1.179,1.951-4.411,3.828-3.315C283.014,252.813,283.603,254.613,283.832,255.839z"/>
			<path style="fill:#F5F5F5;" d="M271.737,278.699c0.735,0.951,2.397,1.959,2.969,1.978c0.572,0.019,2.92,0.817,2.92,0.817
				s0.17,0.734,2.283,1.616c2.113,0.884,3.403-0.121,3.403-0.121s0.42-0.17,0.368-1.171c-0.537,0.495-1.372,0.52-2.099,0.38
				c-1.562-0.306-2.948-1.21-4.487-1.616c-1.029-0.273-2.122-0.32-3.107-0.727c-0.938-0.385-1.711-1.117-2.206-1.994
				c-0.32-0.571-0.465-1.141-0.553-1.749c-0.065,0.128-0.11,0.263-0.128,0.404C271.017,277.144,271.001,277.748,271.737,278.699z"/>
			<g>
				<path style="fill:#BCD7F7;" d="M278.159,278.65l-0.349-0.025c0.003-0.057,0.411-5.852,0.457-7.979
					c0.045-2.202-0.261-10.847-0.399-13.083c-0.033-0.521-0.083-1.366-0.145-2.412c-0.217-3.669-0.578-9.807-0.823-12.832
					c-0.263-3.251,0.447-8.246,0.917-11.551c0.094-0.669,0.181-1.275,0.248-1.794l0.349,0.044c-0.069,0.518-0.156,1.128-0.251,1.8
					c-0.467,3.289-1.173,8.258-0.914,11.475c0.245,3.025,0.608,9.166,0.824,12.835c0.061,1.046,0.112,1.891,0.143,2.416
					c0.14,2.237,0.446,10.903,0.399,13.109C278.572,272.789,278.164,278.591,278.159,278.65z"/>
			</g>
			<g>
				<path style="fill:#BCD7F7;" d="M283.366,243.204l-3.314-2.532l0.004-0.091l0.283-6.952l0.193,0.031
					c0.058,0.006,5.668,0.854,8.766-0.93l0.394-0.226l-2.103,6.452L283.366,243.204z M280.41,240.503l2.925,2.237l3.977-3.999
					l1.776-5.504c-2.936,1.43-7.418,0.933-8.415,0.798L280.41,240.503z"/>
			</g>
			<path style="fill:#F5F5F5;" d="M274.779,212.576c0.09,0.727,0.189,1.765,0.282,2.92c0.257,3.177,0.476,7.241,0.378,8.149
				c-0.135,1.241,0.156,2.29,0.201,2.502c0.019,0.089,0.546,0.298,1.269,0.494c0.979,0.266,2.32,0.509,3.253,0.399
				c1.623-0.189,7.032-0.625,10.465-2.717c1.465-0.895,1.523-0.695,1.763-1.365c0.238-0.669-0.788-9.397-0.585-10.145
				c0.203-0.75,2.163-9.104,1.754-11.997c-0.41-2.896-0.679-4.074-2.384-4.872c-1.703-0.8-4.496-0.222-5.623-0.044
				c-1.128,0.178-2.172,0.644-4.13,2.88c-1.955,2.236-4.639,5.994-5.126,6.854C275.81,206.491,274.443,209.85,274.779,212.576z"/>
			<path style="fill:#F5F5F5;" d="M289.505,193.092c1.085-0.153,1.494,0.011,2.077,0.711c0.584,0.699,1.411,3.069,1.523,3.368
				c0.112,0.298,0.287,2.485,0.371,3.064c0.084,0.58-8.499-3.586-8.891-3.628c-0.465-0.051-0.317-0.308-0.317-0.308
				s-0.488-1.779,1.417-2.657C287.59,192.764,289.505,193.092,289.505,193.092z"/>
			<path style="fill:#FFC2B3;" d="M287.793,194.196c0,0,0.219,1.893,0.632,2.66c0.413,0.768,0.057,1.258-1.606,2.138
				c-1.663,0.881-3.884,0.84-4.719,1.105c-0.835,0.265-1.688,0.575-1.688,0.575s0.707-0.596,0.764-1.137
				c0.057-0.541-0.079-2.891-0.194-3.497c-0.115-0.605-1.025-1.542-1.194-1.605c-0.17-0.063-1.193-0.639-1.404-1.072
				c-0.211-0.433-0.146-2.217,0.029-3.317c0.175-1.101,0.431-3.503,0.557-3.975c0.127-0.471,0.871-3.221,2.386-2.805
				c1.516,0.416,4.437,2.2,5.532,5.163C287.985,191.393,287.793,194.196,287.793,194.196z"/>
			<path style="fill:#FFC2B3;" d="M272.511,174.31c-0.134-0.399-0.493-0.853-0.609-1.019c-0.116-0.166-0.162-0.558,0.202-0.763
				c0.364-0.205,0.613-0.02,0.891,0.338c0.278,0.358,0.519,0.631,0.519,0.631s0.624-0.065,1.017,0.445
				c0.392,0.51,0.544,1.112,0.426,1.839c-0.117,0.727-0.393,0.973-0.587,1.001c-0.194,0.028-1.022-0.623-1.266-0.925
				C272.861,175.555,272.511,174.31,272.511,174.31z"/>
			<g>
				<path style="fill:#9BBBE0;" d="M291.293,228.151l-0.449-0.031c0.066-0.895-0.945-2.834-1.34-3.506l0.387-0.227
					C289.952,224.492,291.384,226.933,291.293,228.151z"/>
			</g>
			<g>
				<path style="fill:#9BBBE0;" d="M280.248,230.714c-0.693-1.442-0.324-3.619-0.308-3.71l0.443,0.076
					c-0.003,0.022-0.36,2.127,0.27,3.44L280.248,230.714z"/>
			</g>
			<path style="fill:#F2D5D5;" d="M275.439,223.646c-0.135,1.241,0.156,2.29,0.201,2.502c0.019,0.089,0.546,0.298,1.269,0.494
				c0.177-1.278,0.354-2.556,0.53-3.834c0.089-0.646,0.186-1.31,0.504-1.877c0.208-0.367,0.501-0.677,0.762-1.01
				c0.534-0.681,0.936-1.465,1.178-2.299c0.149-0.51,0.24-1.042,0.476-1.516c0.142-0.285,0.333-0.541,0.495-0.814
				c0.571-0.965,0.758-2.118,0.723-3.239c-0.037-1.103-0.116-3.463-1.556-3.739c-1.833-0.352-2.761,1.969-3.261,3.279
				c-0.508,1.325-1.075,2.628-1.7,3.904C275.318,218.674,275.537,222.737,275.439,223.646z"/>
			<path style="fill:#FFD0C4;" d="M281.039,181.158c0.061,0.079,0.122,0.159,0.154,0.252c0.133,0.384-0.26,0.745-0.634,0.906
				c-0.374,0.16-0.822,0.289-0.987,0.661c-0.09,0.204-0.197,0.523-0.402,0.436c-0.075-0.031-0.114-0.112-0.147-0.186
				c-0.834-1.845-2.023-3.505-3.217-5.141c-0.592-0.811-1.469-1.902-1.418-2.968c1.385-0.431,2.319,1.076,3.115,1.913
				C278.753,178.345,279.933,179.723,281.039,181.158z"/>
			<path style="fill:#FFD0C4;" d="M282.979,196.533c0.499,0.842,0.998,1.686,1.586,2.469c-0.791,0.258-1.608,0.438-2.435,0.536
				c-0.067,0.008-0.136,0.015-0.201-0.005c-0.154-0.048-0.221-0.224-0.262-0.38c-0.39-1.463-0.457-3.202-0.248-4.698
				C282.164,194.528,282.659,195.992,282.979,196.533z"/>
			<path style="fill:#FAFAFA;" d="M283.848,200.553c1.667-0.339,3.146-1.265,4.584-2.174c0.32-0.202,0.648-0.412,0.868-0.72
				c0.417-0.583,0.385-1.431,0.891-1.939c0.099-0.1,0.23-0.186,0.37-0.172c0.17,0.017,0.289,0.171,0.381,0.314
				c0.999,1.561,1.284,3.49,1.187,5.341c-0.096,1.851-0.546,3.662-0.911,5.48c-0.3,1.493-0.545,2.998-0.733,4.509
				c-0.226,1.816-0.37,3.667-0.05,5.468c0.271,1.529,0.871,2.992,1.039,4.536c0.057,0.518,0.053,1.078-0.237,1.511
				c-0.203,0.303-0.523,0.506-0.841,0.686c-2.772,1.568-6.007,2.055-9.163,2.477c-0.91,0.122-1.882,0.232-2.708-0.169
				c-0.243-0.118-0.474-0.287-0.597-0.528c-0.135-0.267-0.119-0.582-0.094-0.88c0.065-0.76,0.175-1.516,0.329-2.262
				c0.137-0.664,0.318-1.342,0.732-1.879c0.549-0.712,1.426-1.079,2.11-1.662c1.105-0.942,1.64-2.381,2.025-3.781
				c0.482-1.751,0.901-3.703,0.778-5.53c-0.086-1.278-1.002-2.82-1.911-3.676c-0.818-0.77-1.836-1.298-2.885-1.698
				c-0.151-0.058-0.318-0.126-0.384-0.274c-0.079-0.176,0.024-0.377,0.13-0.538c0.555-0.839,1.37-1.677,2.306-2.095
				C281.947,200.504,282.931,200.74,283.848,200.553z"/>
			<path style="fill:#8A536A;" d="M284.204,195.871c0.5,0.429,2.194,0.612,2.685,0.44c0.491-0.171,1.286-0.389,1.906-1.142
				c0.62-0.752,1.241-2.844,2.163-4.478c0.922-1.633,0.854-4.921-0.849-6.167c-1.195-2.296-2.346-2.95-5.051-3.017
				c-2.706-0.067-4.13,0.509-5.131,1.161c-1.001,0.652-1.448,3.278-1.212,4.028c0.236,0.749,0.63,1.552,0.761,2.09
				c0.132,0.538,0.089,2.188,0.089,2.188l0.02,0.789l1.048-0.612c0,0,1.155,0.17,1.646,1.623
				C282.769,194.229,283.855,195.572,284.204,195.871z"/>
			<path style="fill:#FFC2B3;" d="M250.037,220.661c0.011,0.088,0.061,0.205,0.138,0.335c0.262,0.448,0.812,1.049,0.931,1.131
				c0.156,0.105,0.128,0.121,0.128,0.121s1.589-0.068,2.351-0.072c0.76-0.004,1.492-0.194,2.411-0.415
				c0.919-0.221,2.383-0.221,2.934-0.266c0.553-0.044,4.422,1.108,8.438,2.276c4.018,1.17,5.361,0.768,6.476,0.443
				c1.117-0.324,2.496-2.074,3.918-4.413c1.421-2.339,1.903-3.256,2.614-5.335c0,0-0.159-0.222-0.417-0.559
				c-0.76-0.991-2.36-2.979-3.167-3.221c-0.942-0.282-2.476,2.607-3.05,3.654c-0.084,0.152-0.147,0.266-0.186,0.326
				c-0.035,0.054-0.084,0.152-0.143,0.287c-0.453,1.024-1.527,4.07-1.651,4.132c-0.14,0.07-1.815,0.175-3.977,0.219
				c-2.164,0.042-7.456-0.247-8.074-0.285c-0.586-0.037-1.698-0.361-2.286-0.417c-0.031-0.003-0.061-0.005-0.089-0.007
				c-0.559-0.028-2.553,1.026-2.553,1.026s-0.054-0.142-0.126-0.487c-0.028-0.136,0.054-0.333,0.163-0.548
				c0.164-0.331,0.389-0.702,0.359-0.958c-0.049-0.422-0.359-0.455-0.579-0.29c-0.221,0.165-0.467,0.74-0.467,0.74s0,0-0.156-0.31
				c-0.157-0.31-0.572-0.203-0.676-0.033c-0.103,0.169-0.839,1.035-0.839,1.035l0.052-0.24c0,0-0.354-0.396-0.586-0.376
				s-0.511,0.188-0.681,0.611c-0.005,0.01-0.009,0.022-0.012,0.035c-0.166,0.441-0.284,1.379-0.284,1.379s-0.119-0.562-0.203-0.686
				c-0.059-0.089-0.343-0.109-0.534-0.026c-0.072,0.032-0.132,0.077-0.16,0.14C249.957,219.833,249.992,220.269,250.037,220.661z"/>
			<path style="fill:#F2D5D5;" d="M250.176,220.995c0.262,0.448,0.812,1.049,0.931,1.131c0.156,0.105,0.128,0.121,0.128,0.121
				s1.589-0.068,2.351-0.072c0.76-0.004,1.492-0.194,2.411-0.415c0.919-0.221,2.383-0.221,2.934-0.266
				c0.553-0.044,4.422,1.108,8.438,2.276c4.018,1.17,5.361,0.768,6.476,0.443c1.117-0.324,2.496-2.074,3.918-4.413
				c1.421-2.339,1.903-3.256,2.614-5.335c0,0-0.159-0.222-0.417-0.559c-1.365,0.051-2.745,0.439-4.019,1.133
				c-0.723-0.223-1.469-0.471-2.197-0.7c-0.084,0.152-0.147,0.266-0.186,0.326c-0.035,0.054-0.084,0.152-0.143,0.287
				c0.234,0.236,0.553,0.427,0.847,0.578c1.371,0.702,2.742,1.406,4.113,2.108c-1.331,1.642-2.661,3.283-3.992,4.925
				c-0.345,0.427-0.712,0.87-1.22,1.078c-0.548,0.226-1.168,0.142-1.754,0.056c-1.581-0.235-3.163-0.469-4.744-0.706
				c-2.013-0.298-4.032-0.597-5.991-1.141c-0.826-0.229-1.649-0.502-2.505-0.546c-1.269-0.063-2.5,0.383-3.745,0.63
				c-1.21,0.24-2.269,0.151-3.398-0.333C250.657,221.445,250.384,221.242,250.176,220.995z"/>
			<path style="fill:#F2D5D5;" d="M254.916,220.312c0.028-0.068-0.045-0.135-0.112-0.168c-0.884-0.45-2.08-0.018-2.869-0.616
				c-0.207-0.158-0.361-0.371-0.536-0.562c-0.053-0.058-0.107-0.114-0.164-0.168c-0.166,0.441-0.284,1.379-0.284,1.379
				s-0.119-0.562-0.203-0.686c-0.059-0.089-0.343-0.109-0.534-0.026c0.164,0.203,0.296,0.443,0.434,0.667
				c0.226,0.366,0.532,0.737,0.96,0.802c0.187,0.028,0.378-0.007,0.566-0.044c0.87-0.166,1.74-0.334,2.612-0.501
				C254.838,220.379,254.897,220.363,254.916,220.312z"/>
			<path style="fill:#FFD0C4;" d="M275.918,217.179c0.353,0.342,0.705,0.684,1.058,1.025c-0.355,0.318-0.711,0.637-1.066,0.955
				c-0.85,0.762-1.72,1.537-2.767,1.99c-0.067,0.029-0.142,0.057-0.213,0.036c-0.092-0.028-0.14-0.128-0.174-0.218
				c-0.338-0.904-0.397-1.91-0.165-2.846c0.133-0.54,0.63-2.247,1.257-2.351C274.513,215.66,275.503,216.777,275.918,217.179z"/>
			<path style="fill:#FFD0C4;" d="M259.487,219.31c0.909-0.21,2.169,0.077,3.101,0.124c1.472,0.147,2.97,0.156,4.447,0.242
				c1.303,0.076,2.666-0.152,3.989-0.182c0.529-0.012,1.083-0.018,1.569,0.17c0.09,0.035,0.177,0.076,0.261,0.125
				c0.481,0.28,0.807,0.808,0.844,1.363c0.006,0.097,0.002,0.202-0.054,0.281c-0.057,0.081-0.155,0.12-0.248,0.152
				c-2.367,0.823-5.069,0.595-7.539,0.655c0,0.057,0.107,0.012,0.086-0.04c-0.021-0.053-0.091-0.062-0.148-0.064
				c-1.333-0.044-2.64-0.357-3.922-0.703c-0.675-0.182-1.409-0.236-2.037-0.564C259.296,220.587,258.437,219.553,259.487,219.31z"/>
			<path style="fill:#F5F5F5;" d="M280.247,204.07c1.052,0.525,3.285,2.611,2.761,5.376c-0.523,2.764-2.902,7.28-3.362,7.582
				c-0.46,0.302-3.437-0.783-4.872-1.341c-1.435-0.558-1.626-0.835-1.626-0.835s2.271-7.23,2.82-8.043
				C276.517,205.996,277.823,202.861,280.247,204.07z"/>
			<path style="fill:#FAFAFA;" d="M276.578,207.194c0.193-0.566,0.391-1.144,0.762-1.613c0.37-0.469,0.95-0.817,1.544-0.748
				c0.756,0.088,1.274,0.782,1.697,1.415c0.184,0.274,0.367,0.549,0.551,0.824c0.242,0.362,0.49,0.741,0.54,1.173
				c0.037,0.321-0.039,0.644-0.119,0.958c-0.603,2.376-1.415,4.699-2.425,6.932c-0.044,0.097-0.092,0.198-0.183,0.253
				c-0.082,0.05-0.183,0.052-0.279,0.05c-1.344-0.018-2.681-0.414-3.818-1.132c-0.106-0.067-0.214-0.141-0.272-0.252
				c-0.056-0.106-0.057-0.232-0.053-0.352c0.038-1.421,0.578-2.624,0.952-3.963C275.809,209.544,276.177,208.372,276.578,207.194z"
				/>
			<path style="fill:#FFD0C4;" d="M280.641,193.442c0.35,0.257,0.828-0.447,1.007-0.945c0.179-0.497,0.115-1.385-0.513-1.547
				c-0.628-0.161-0.696,0.993-0.724,1.193c-0.028,0.2-0.134,0.786-0.066,1.001C280.415,193.357,280.641,193.442,280.641,193.442z"/>
			<polygon style="fill:#CBCED3;" points="256.552,217.37 249.65,221.355 249.65,216.546 			"/>
			<path style="fill:#FFD0C4;" d="M251.025,219.912c0.026,0.136,0.151,0.236,0.282,0.277c0.133,0.042,0.275,0.035,0.413,0.03
				c1.049-0.038,2.094,0.168,3.132,0.089c1.089-0.08,2.132-0.215,3.172-0.569c0.175-0.06,0.371-0.149,0.41-0.329
				c0.044-0.199-0.137-0.373-0.308-0.482c-0.37-0.237-0.815-0.447-1.262-0.458c-0.135-0.003-0.27,0.016-0.404,0.033
				c-0.489,0.061-0.982,0.085-1.474,0.072c-0.396-0.01-0.822,0.189-1.195,0.321c-0.537,0.189-1.043,0.193-1.611,0.261
				c-0.368,0.044-0.762,0.117-1.016,0.385C251.07,219.642,250.999,219.777,251.025,219.912z"/>
		</g>
	</g>
</g>
</svg>
