<?xml version="1.0" encoding="utf-8"?>
<!-- Generator: Adobe Illustrator 27.5.0, SVG Export Plug-In . SVG Version: 6.00 Build 0)  -->
<svg version="1.1" xmlns="http://www.w3.org/2000/svg" xmlns:xlink="http://www.w3.org/1999/xlink" x="0px" y="0px"
	 viewBox="0 0 3710 3710" style="enable-background:new 0 0 3710 3710;" xml:space="preserve">
<g id="Background">
	<g>
		<g>
			<rect style="fill:#FFFFFF;" width="3710" height="3710"/>
		</g>
	</g>
</g>
<g id="Illustration">
	<g>
		<linearGradient id="SVGID_1_" gradientUnits="userSpaceOnUse" x1="3559.8333" y1="4035.9988" x2="1126.7306" y2="1014.2381">
			<stop  offset="0" style="stop-color:#B37CFF"/>
			<stop  offset="1" style="stop-color:#F895E7"/>
		</linearGradient>
		<path style="opacity:0.3;fill:url(#SVGID_1_);" d="M2890.471,2844.326c-55.887,58.836-108.767,96.778-150.547,126.756
			c-491.111,352.377-1072.225,249.661-1195.728,224.577c-182.375-37.041-534.903-108.642-789.774-408.365
			c-385.599-453.456-325.555-1167.864-26.459-1639.455c54.709-86.262,343.701-565.036,931.074-641.816
			c355.472-46.466,769.838,47.251,1069.911,298.652C3358.826,1332.388,3313.986,2398.463,2890.471,2844.326z"/>
		<g>
			
				<linearGradient id="SVGID_00000082341467367301374580000012278336009540478380_" gradientUnits="userSpaceOnUse" x1="6416.6357" y1="542.0197" x2="7462.2534" y2="542.0197" gradientTransform="matrix(0.9241 0.3823 -0.3823 0.9241 -5471.54 -1929.6399)">
				<stop  offset="0" style="stop-color:#A737D5"/>
				<stop  offset="1" style="stop-color:#EF497A"/>
			</linearGradient>
			<path style="fill:url(#SVGID_00000082341467367301374580000012278336009540478380_);" d="M482.754,468.835
				c-2.59-11.023,12.917-18.35,22.412-10.65c96.42,78.187,328.088,312.321,270.352,721.488
				c-72.439,513.361,51.404,700.682,205.558,814.944c0,0-211.704-53.733-344.898-243.81
				C309.155,1284.122,528.796,664.829,482.754,468.835z"/>
			<path style="fill:#FFFFFF;" d="M556.131,629.177c12.062,57.15,22.813,114.474,31.121,172.057
				c8.656,57.534,15.29,115.269,19.829,173.1c4.282,57.84,7.307,115.741,7.479,173.667c0.473,57.923-1.935,115.797-4.588,173.898
				c-2.276,58.079-4.951,116.578-0.699,175.49c4.181,58.792,16.556,118.099,41.115,173.694
				c6.139,13.856,12.594,27.669,19.928,41.016c7.05,13.47,14.793,26.674,22.806,39.753c16.181,26.095,34.396,51.307,54.694,75.238
				c40.743,47.779,89.882,90.163,144.014,126.033c5.697,3.775,13.86,2.847,18.233-2.072c4.293-4.831,3.334-11.715-2.096-15.537
				l-0.038-0.027c-12.88-9.046-25.625-18.209-37.852-27.831c-6.204-4.727-12.152-9.682-18.206-14.539
				c-5.833-5.048-11.896-9.903-17.542-15.101c-22.986-20.459-44.281-42.286-63.6-65.366c-38.86-45.944-69.97-97.141-93.539-150.216
				c-11.441-26.661-20.587-54.003-27.264-81.859c-6.654-27.862-10.838-56.209-13.153-84.784
				c-4.635-57.182-2.541-115.101-0.749-173.191c1.706-58.105,2.957-116.505,1.424-174.858c-0.675-29.174-1.958-58.335-3.844-87.462
				c-0.846-14.567-2.019-29.118-3.161-43.667c-1.304-14.541-2.701-29.073-4.234-43.592c-6.259-58.071-14.567-115.948-24.981-173.519
				c-10.733-57.527-23.231-114.788-38.262-171.537c-0.43-1.623-2.3-2.636-4.179-2.265
				C556.961,626.062,555.802,627.604,556.131,629.177z"/>
		</g>
		<g>
			<g>
				
					<linearGradient id="SVGID_00000123417293118030957290000008448576168209327256_" gradientUnits="userSpaceOnUse" x1="-835.2156" y1="3829.3491" x2="167.591" y2="3829.3491" gradientTransform="matrix(0.6312 -0.7758 0.7758 0.6312 -1946.3445 -1491.1105)">
					<stop  offset="0" style="stop-color:#CE1567"/>
					<stop  offset="1" style="stop-color:#7A1DBC"/>
				</linearGradient>
				<path style="fill:url(#SVGID_00000123417293118030957290000008448576168209327256_);" d="M732.526,1736.45
					c-11.822,12.543-32.613,8.936-39.725-6.765c-39.242-86.634-128.043-341.613,18.615-635.362
					c123.846-248.058,167.428-394.334,182.611-462.109c3.211-14.332,22.851-16.234,28.779-2.797
					C988.212,777.667,1160.913,1281.935,732.526,1736.45z"/>
				<path style="fill:#FFFFFF;" d="M711.052,1727.308c-0.421,0.075-0.853,0.111-1.297,0.104c-3.716-0.057-6.682-3.116-6.626-6.831
					c0.065-4.213,8.264-425.311,164.883-777.998c1.508-3.393,5.484-4.925,8.883-3.42c3.397,1.51,4.927,5.485,3.42,8.883
					c-155.48,350.119-163.663,768.556-163.728,772.74C716.537,1724.06,714.159,1726.752,711.052,1727.308z"/>
			</g>
		</g>
		<g>
			
				<linearGradient id="SVGID_00000098909845763051153590000014870951605869837757_" gradientUnits="userSpaceOnUse" x1="1951.707" y1="3319.1064" x2="1915.6344" y2="2604.8757">
				<stop  offset="0" style="stop-color:#2B3582"/>
				<stop  offset="1" style="stop-color:#150E42"/>
			</linearGradient>
			<polygon style="fill:url(#SVGID_00000098909845763051153590000014870951605869837757_);" points="1650.259,2508.266 
				1590.347,3045.589 2285.438,3045.589 2194.902,2508.266 			"/>
			
				<linearGradient id="SVGID_00000119828917555509783370000015597325786279213757_" gradientUnits="userSpaceOnUse" x1="482.63" y1="1841.5779" x2="3257.2307" y2="1841.5779">
				<stop  offset="0" style="stop-color:#2B3582"/>
				<stop  offset="1" style="stop-color:#150E42"/>
			</linearGradient>
			<path style="fill:url(#SVGID_00000119828917555509783370000015597325786279213757_);" d="M482.63,1184.418v1230.609
				c0,101.234,80.671,184.019,181.872,186.629c449.478,11.59,2021.537,39.694,2449.41,33.386
				c73.54-1.084,133.115-59.934,135.236-133.451c8.251-285.887,21.65-973.35-27.938-1292.513
				c-10.443-67.212-67.176-117.472-135.159-119.646c-376.606-12.048-2043.092-50.304-2470.765-40.699
				C541.527,1050.389,482.63,1110.64,482.63,1184.418z"/>
			
				<linearGradient id="SVGID_00000093173410323720510400000007903223900152542382_" gradientUnits="userSpaceOnUse" x1="2332.804" y1="1241.1313" x2="-8.5249" y2="3923.2134">
				<stop  offset="0" style="stop-color:#FDF53F"/>
				<stop  offset="1" style="stop-color:#D93C65"/>
			</linearGradient>
			<path style="fill:url(#SVGID_00000093173410323720510400000007903223900152542382_);" d="M559.847,1178.427v1169.164
				c0,59.106,47.446,107.267,106.545,108.151l2385.963,29.478c58.593,0.876,106.622-46.264,106.84-104.863l3.992-1158.717
				c0.156-41.9-33.225-76.231-75.112-77.25l-2442.784-49.35C598.442,1093.898,559.847,1131.565,559.847,1178.427z"/>
			<path style="opacity:0.65;fill:#FFFFFF;" d="M3177.156,2533.489c-0.02,0-0.041,0-0.063,0l-2617.31-44.594
				c-2.023-0.035-3.635-1.703-3.601-3.724c0.034-2.029,1.641-3.574,3.726-3.603l2617.31,44.594c2.023,0.036,3.635,1.703,3.601,3.724
				C3180.786,2531.89,3179.151,2533.489,3177.156,2533.489z"/>
			
				<linearGradient id="SVGID_00000150797358783885708480000012842919997571784586_" gradientUnits="userSpaceOnUse" x1="1953.9519" y1="3049.5986" x2="1622.0863" y2="3778.2598">
				<stop  offset="0" style="stop-color:#2B3582"/>
				<stop  offset="1" style="stop-color:#150E42"/>
			</linearGradient>
			<path style="fill:url(#SVGID_00000150797358783885708480000012842919997571784586_);" d="M2435.16,3155.525H1417.848
				c-27.637,0-48.392-19.675-43.048-40.809l13.054-51.626c3.925-15.526,21.006-26.924,41.293-27.557l980.726-30.603
				c21.194-0.661,39.961,10.589,44.579,26.725l23.532,82.228C2484.097,3135.247,2463.244,3155.525,2435.16,3155.525z"/>
			<path style="fill:#FFFFFF;" d="M1965.484,3049.866c-1.998,0-3.631-1.606-3.662-3.61c-0.029-2.025,1.587-3.689,3.61-3.718
				l42.027-0.612c0.018,0,0.037,0,0.055,0c1.998,0,3.631,1.607,3.662,3.61c0.029,2.025-1.587,3.688-3.61,3.717l-42.027,0.612
				C1965.522,3049.866,1965.504,3049.866,1965.484,3049.866z"/>
			<path style="fill:#FFFFFF;" d="M1412.465,3127.411c-0.193,0-0.386-0.014-0.583-0.046c-1.998-0.319-3.359-2.197-3.039-4.193
				l5.995-37.549c3.247-20.347,20.556-35.331,41.157-35.635l445.744-6.515c1.934-0.075,3.687,1.588,3.718,3.61
				c0.029,2.025-1.587,3.688-3.61,3.717l-445.744,6.515c-17.032,0.25-31.343,12.64-34.03,29.46l-5.995,37.549
				C1415.791,3126.127,1414.233,3127.411,1412.465,3127.411z"/>
		</g>
		<g>
			<path style="opacity:0.44;fill:#FFFFFF;" d="M2643.489,1538.836h-265.21c-16.646,0-30.141-13.494-30.141-30.141
				c0-16.647,13.495-30.142,30.141-30.142h265.21c16.646,0,30.141,13.495,30.141,30.142
				C2673.631,1525.342,2660.135,1538.836,2643.489,1538.836z"/>
			<path style="opacity:0.43;fill:#FFFFFF;" d="M2741.097,1491.402h286.248c17.968,0,32.533,53.539,32.533,119.581v704.192
				c0,66.045-14.565,119.581-32.533,119.581h-286.248c-17.967,0-32.533-53.536-32.533-119.581v-704.192
				C2708.565,1544.941,2723.13,1491.402,2741.097,1491.402z"/>
			<path style="opacity:0.46;fill:#FFFFFF;" d="M2378.279,1572.327h265.21c16.646,0,30.141,13.495,30.141,30.141v177.498
				c0,16.647-13.496,30.141-30.141,30.141h-265.21c-16.646,0-30.141-13.494-30.141-30.141v-177.498
				C2348.138,1585.822,2361.633,1572.327,2378.279,1572.327z"/>
			<path style="opacity:0.38;fill:#FFFFFF;" d="M2378.278,1863.321h265.21c16.646,0,30.142,32.525,30.142,72.645v427.792
				c0,40.122-13.496,72.645-30.142,72.645h-265.21c-16.646,0-30.141-32.523-30.141-72.645v-427.792
				C2348.137,1895.845,2361.633,1863.321,2378.278,1863.321z"/>
			<path style="opacity:0.42;fill:#FFFFFF;" d="M3056.558,1441.247H680.753c-27.5,0-49.794-22.293-49.794-49.794V1193.3
				c0-27.993,23.068-50.485,51.052-49.778l2375.806,60.077c27.001,0.683,48.535,22.768,48.535,49.778v138.077
				C3106.352,1418.953,3084.059,1441.247,3056.558,1441.247z"/>
			<path style="opacity:0.58;fill:#FFFFFF;" d="M2261.755,2255.967h-800.501c-20.168,0-36.517-16.349-36.517-36.517v-682.786
				c0-20.168,16.349-36.517,36.517-36.517h800.501c20.168,0,36.517,16.349,36.517,36.517v682.786
				C2298.272,2239.617,2281.923,2255.967,2261.755,2255.967z"/>
			<path style="opacity:0.28;fill:#FFFFFF;" d="M2296.012,2448.906l-1645.989-13.846c-19.957-0.168-36.046-16.393-36.046-36.351
				v-58.074c0-27.761,22.505-50.265,50.265-50.265h1629.543c10.718,0,19.406,8.688,19.406,19.406v122.095
				C2313.191,2441.335,2305.476,2448.985,2296.012,2448.906z"/>
			<path style="opacity:0.47;fill:#FFFFFF;" d="M1339.551,2238.534H648.383c-19.002,0-34.406-15.404-34.406-34.406V1512.96
				c0-19.002,15.404-34.406,34.406-34.406h691.168c19.002,0,34.406,15.404,34.406,34.406v691.168
				C1373.957,2223.13,1358.553,2238.534,1339.551,2238.534z"/>
		</g>
		<g>
			<g>
				<g>
					
						<linearGradient id="SVGID_00000012433440356731570030000006688954660694553016_" gradientUnits="userSpaceOnUse" x1="2475.4075" y1="1507.5034" x2="1381.0381" y2="3202.3237">
						<stop  offset="0" style="stop-color:#CB236D"/>
						<stop  offset="1" style="stop-color:#4C246D"/>
					</linearGradient>
					<path style="fill:url(#SVGID_00000012433440356731570030000006688954660694553016_);" d="M1847.261,1557.197l778.479-6.981
						c15.266-0.137,27.69,12.247,27.604,27.513l-3.406,597.371c-0.088,15.366-12.785,27.648-28.145,27.19
						c-140.753-4.196-765.66-22.712-793.245-21.557c-27.261,1.139-12.45-478.736-8.381-597.138
						C1820.668,1568.956,1832.614,1557.329,1847.261,1557.197z"/>
					<path style="fill:#FFFFFF;" d="M2622.624,2179.777l-0.159-0.005c-111.916-3.339-675.435-20.068-778.649-21.52l-1.392-0.02
						l-0.242-1.369c-9.758-55.052-9.562-279.768,0.5-572.492c0.087-2.586,2.19-4.627,4.784-4.646l778.476-6.981
						c1.704,0,2.826,0.777,3.47,1.428c0.923,0.925,1.41,2.113,1.402,3.429l-3.408,597.371
						C2627.393,2177.622,2625.248,2179.777,2622.624,2179.777z M1845.26,2154.907c106.846,1.582,665.883,18.177,777.306,21.5
						l0.135,0.007c0.702-0.001,1.337-0.656,1.341-1.459l3.407-597.373c0.002-0.422-0.128-0.743-0.424-1.038
						c-0.291-0.294-0.637-0.434-1.068-0.434l-778.463,6.981c-0.787,0.007-1.423,0.619-1.451,1.396
						C1836.072,1874.621,1835.78,2097.788,1845.26,2154.907z"/>
				</g>
				<path style="fill:#FFFFFF;" d="M1941.212,2102.973h510.313c15.885,0,25.758-17.261,17.703-30.953l-202.029-343.449
					c-8.426-14.324-29.49-13.233-36.389,1.887l-97.55,213.75c-5.793,12.691-22.281,16.04-32.564,6.613l-39.461-36.173
					c-9.168-8.404-23.642-6.796-30.742,3.415l-106.144,152.645C1914.879,2084.326,1924.624,2102.973,1941.212,2102.973z"/>
				
					<ellipse transform="matrix(0.9239 -0.3827 0.3827 0.9239 -471.443 1066.2959)" style="fill:#FFFFFF;" cx="2444.591" cy="1718.199" rx="73.36" ry="73.36"/>
			</g>
			<g>
				<g>
					
						<linearGradient id="SVGID_00000121255058289730104800000012049694533815015326_" gradientUnits="userSpaceOnUse" x1="2864.9922" y1="2554.2798" x2="3110.3662" y2="1957.9476" gradientTransform="matrix(0.9998 -0.0189 0.0189 0.9998 -59.5478 19.4772)">
						<stop  offset="0" style="stop-color:#2B3582"/>
						<stop  offset="1" style="stop-color:#150E42"/>
					</linearGradient>
					<path style="fill:url(#SVGID_00000121255058289730104800000012049694533815015326_);" d="M3112.585,2272.981
						c-17.914-66.254-73.261-120.684-134.937-134.44c-11.332-2.527-17.894-14.071-15.234-25.373
						c0.019-0.078,0.037-0.157,0.055-0.235c8.937-38.531-15.763-69.228-53.012-77.868c-37.248-8.638-72.939,8.052-81.875,46.583
						c-6.031,26.003,1.694,55.254,18.795,74.197c7.048,7.806,7.614,19.458,0.785,27.457
						c-37.584,44.03-52.874,111.235-36.621,171.345c23.939,88.539,107.192,128.092,190.599,105.54
						C3084.548,2437.637,3136.524,2361.521,3112.585,2272.981z"/>
					<path style="fill:#FFFFFF;" d="M3086.647,2357.478l-1.621-1.138c14.931-21.192,16.849-51.782,5.001-79.83
						c-9.408-22.279-26.245-42.651-52.986-64.11c-9.963-7.998-20.528-15.589-30.745-22.925
						c-12.301-8.837-25.019-17.973-36.808-27.905c-10.604-8.938-21.761-20.027-24.1-34.533c-1.168-7.232-0.077-14.935,0.979-22.384
						c1.652-11.658,3.211-22.67-3.622-31.101l1.54-1.246c7.377,9.1,5.682,21.06,4.043,32.625
						c-1.035,7.301-2.105,14.854-0.987,21.788c2.239,13.867,13.096,24.632,23.423,33.333c11.73,9.882,24.417,18.998,36.686,27.812
						c10.238,7.355,20.826,14.958,30.83,22.987c27.007,21.676,44.03,42.295,53.572,64.884
						C3103.964,2304.411,3101.967,2335.733,3086.647,2357.478z"/>
					<path style="fill:#FFFFFF;" d="M3046.991,2370.266l-1.861-0.673c10.159-28.098,7.185-62.628-8.162-94.739
						c-15.214-31.824-40.083-57.772-60.049-76.824l1.366-1.432c20.089,19.165,45.117,45.286,60.47,77.404
						C3054.329,2306.585,3057.332,2341.672,3046.991,2370.266z"/>
				</g>
				
					<linearGradient id="SVGID_00000145767868375547687400000015347788309441258117_" gradientUnits="userSpaceOnUse" x1="2633.8401" y1="1920.7799" x2="2845.0955" y2="2397.7813">
					<stop  offset="0" style="stop-color:#F9B776"/>
					<stop  offset="1" style="stop-color:#F47960"/>
				</linearGradient>
				<path style="fill:url(#SVGID_00000145767868375547687400000015347788309441258117_);" d="M2647.018,2006.8l-0.688-22.882
					l23.918-47.492c4.375-8.688,4.409-18.927,0.092-27.644l-27.094-54.704c0,0-15.647,118.739-19.764,128.608
					c-4.117,9.869,11.165,27.6,11.165,27.6L2647.018,2006.8z"/>
				
					<linearGradient id="SVGID_00000126294802325949112060000010710211191002116028_" gradientUnits="userSpaceOnUse" x1="2637.5935" y1="1919.1177" x2="2848.8489" y2="2396.1189">
					<stop  offset="0" style="stop-color:#F9B776"/>
					<stop  offset="1" style="stop-color:#F47960"/>
				</linearGradient>
				<path style="fill:url(#SVGID_00000126294802325949112060000010710211191002116028_);" d="M2646.33,1983.918
					c0,0,72.748,198.316,196.704,260.298c0,0-41.257,67.316-62.788,71.398c0,0-132.417-169.479-145.917-308.329L2646.33,1983.918z"
					/>
				
					<linearGradient id="SVGID_00000155861672047287428150000014717788061683036842_" gradientUnits="userSpaceOnUse" x1="3164.469" y1="2883.8752" x2="3178.9971" y2="3242.2373">
					<stop  offset="0" style="stop-color:#53D8FF"/>
					<stop  offset="1" style="stop-color:#3840F7"/>
				</linearGradient>
				<path style="fill:url(#SVGID_00000155861672047287428150000014717788061683036842_);" d="M3144.845,3176.85l3.659,30.076
					c3.809,14.294,22.21,50.31,45.826,47.965c14.531-1.443,16.28-43.896,14.256-50.264c-3.69-11.61-10.442-29.039-20.175-39.296
					h-33.363C3148.879,3165.331,3144.1,3170.727,3144.845,3176.85z"/>
				
					<linearGradient id="SVGID_00000127006289731129278320000012267005091792574389_" gradientUnits="userSpaceOnUse" x1="2872.9814" y1="3445.9207" x2="2965.5432" y2="2364.105">
					<stop  offset="0" style="stop-color:#F9B776"/>
					<stop  offset="1" style="stop-color:#F47960"/>
				</linearGradient>
				<path style="fill:url(#SVGID_00000127006289731129278320000012267005091792574389_);" d="M2883.531,2824.532l-5.631,33.125
					c0,0,18.858,191.014,22.212,267.42c0.526,11.979-2.573,23.817-8.86,34.027l-32.791,53.249l83.336-49.176l1.659-10.17
					l-13.642-18.757l17.869-213.983c1.05-12.57-1.544-25.177-7.471-36.312l-17.238-32.383L2883.531,2824.532z"/>
				
					<linearGradient id="SVGID_00000057148531611838001090000012512168209830623914_" gradientUnits="userSpaceOnUse" x1="2916.4575" y1="2855.4067" x2="2894.665" y2="3250.0901">
					<stop  offset="0" style="stop-color:#53D8FF"/>
					<stop  offset="1" style="stop-color:#3840F7"/>
				</linearGradient>
				<path style="fill:url(#SVGID_00000057148531611838001090000012512168209830623914_);" d="M2852.973,3220.066h26.594
					c4.978,0,9.673-2.285,12.709-6.23c8.291-10.773,25.468-31.79,33.681-32.339c11.057-0.739,9.642,38.569,9.642,38.569h6.198
					l7.851-48.845c1.975-12.29-4.136-24.464-15.172-30.222l0,0c0,0-2.528,18.692-16.233,26.959
					c-13.705,8.268-55.77,37.877-55.77,37.877s-5.152-0.734-10.809,0.288C2843.274,3207.64,2844.446,3220.066,2852.973,3220.066z"/>
				
					<linearGradient id="SVGID_00000056387823534247972520000008672781865422673299_" gradientUnits="userSpaceOnUse" x1="3059.1748" y1="3462.0171" x2="3151.7607" y2="2379.9177">
					<stop  offset="0" style="stop-color:#F9B776"/>
					<stop  offset="1" style="stop-color:#F47960"/>
				</linearGradient>
				<path style="fill:url(#SVGID_00000056387823534247972520000008672781865422673299_);" d="M2997.675,2840.265
					c0,0,110.475,209.56,128.036,257.406c17.562,47.846,23.713,87.76,23.949,91.54c0.368,5.906,7.714,11.571,27.963,11.571
					c10.45,0,15.568-4.189,18.073-8.243c2.138-3.459,2.249-7.788,0.447-11.434c-6.39-12.933-26.67-54.263-34.181-73.009
					c-8.968-22.381-28.257-123.81-38.836-159.075c-10.579-35.266-22.537-73.519-68.605-108.756
					C3054.521,2840.265,3022.896,2809.291,2997.675,2840.265z"/>
				
					<linearGradient id="SVGID_00000160167077789473137970000017271167619637359282_" gradientUnits="userSpaceOnUse" x1="3024.6038" y1="2165.1802" x2="2745.1008" y2="2555.7673">
					<stop  offset="0" style="stop-color:#53D8FF"/>
					<stop  offset="1" style="stop-color:#3840F7"/>
				</linearGradient>
				<path style="fill:url(#SVGID_00000160167077789473137970000017271167619637359282_);" d="M2927.886,2496.891
					c-16.18-68.562,0.099-120.212,17.194-152.054c13.635-25.397,4.049-56.814-21.526-70.114
					c-39.969-20.786-80.521-30.507-80.521-30.507s-79.196,57.899-69.801,103.218c5.507,26.562,55.667,159.099,55.667,159.099
					S2875.283,2528.485,2927.886,2496.891z"/>
				
					<linearGradient id="SVGID_00000036248008372141159810000014012371011415691174_" gradientUnits="userSpaceOnUse" x1="3179.1428" y1="2357.0522" x2="2681.2092" y2="3028.509">
					<stop  offset="0" style="stop-color:#CB236D"/>
					<stop  offset="1" style="stop-color:#4C246D"/>
				</linearGradient>
				<path style="fill:url(#SVGID_00000036248008372141159810000014012371011415691174_);" d="M2991.069,2556.673
					c-11.597-34.938-63.183-59.782-63.183-59.782c-52.603,31.594-98.986,9.642-98.986,9.642s-10.402,39.76-3.222,76.709
					c7.179,36.95,52.223,274.415,52.223,274.415c70.973,14.381,180.128-14.468,180.128-14.468
					C3012.822,2762.927,3002.667,2591.612,2991.069,2556.673z"/>
				
					<linearGradient id="SVGID_00000183208277611434962600000001046633294711992992_" gradientUnits="userSpaceOnUse" x1="2862.8303" y1="2379.575" x2="2880.2178" y2="2252.3726">
					<stop  offset="0" style="stop-color:#F9B776"/>
					<stop  offset="1" style="stop-color:#F47960"/>
				</linearGradient>
				<path style="fill:url(#SVGID_00000183208277611434962600000001046633294711992992_);" d="M2894.808,2164.417l23.169,104.071
					c2.218,9.167-6.138,7.667-15.406,5.919c-15.177-2.862-34.739-8.755-41.279-20.565c-0.665-1.202-0.998-2.561-1.186-3.922
					l-9.954-72.165c-0.79-5.726,2.305-11.282,7.589-13.625l19.208-8.517C2884.345,2152.334,2892.905,2156.554,2894.808,2164.417z"/>
				
					<linearGradient id="SVGID_00000180338681985789405450000012380444343976624570_" gradientUnits="userSpaceOnUse" x1="2770.9216" y1="2082.1519" x2="2754.5742" y2="2484.5427">
					<stop  offset="0" style="stop-color:#F9B776"/>
					<stop  offset="1" style="stop-color:#F47960"/>
				</linearGradient>
				<path style="fill:url(#SVGID_00000180338681985789405450000012380444343976624570_);" d="M2605.218,2095.681
					c0,0,60.979,211.837,306.88,191.927c15.732-1.273,29.551,10.384,30.774,26.12l0.661,8.503
					c1.772,22.795-16.83,42.011-39.665,40.856c-81.786-4.137-257.428-36.257-317.629-230.584L2605.218,2095.681z"/>
				
					<linearGradient id="SVGID_00000073694119909794220420000006590638614203047602_" gradientUnits="userSpaceOnUse" x1="2588.2427" y1="2078.688" x2="2573.0137" y2="2453.5513">
					<stop  offset="0" style="stop-color:#F9B776"/>
					<stop  offset="1" style="stop-color:#F47960"/>
				</linearGradient>
				<path style="fill:url(#SVGID_00000073694119909794220420000006590638614203047602_);" d="M2586.24,2132.502
					c0,0-11.717-34.483-14.661-56.037s7.892-69.931,17.203-83.534c9.312-13.603,10.87,19.743,15.062,35.413
					c4.192,15.67-2.908,38.032-2.908,38.032l4.282,29.305L2586.24,2132.502z"/>
				<g>
					
						<linearGradient id="SVGID_00000003824175442088235630000016428937389097010607_" gradientUnits="userSpaceOnUse" x1="-5429.1294" y1="2967.6506" x2="-5312.6914" y2="3101.5237" gradientTransform="matrix(0.9653 0.2612 -0.2612 0.9653 8856.9795 649.0368)">
						<stop  offset="0" style="stop-color:#F9B776"/>
						<stop  offset="1" style="stop-color:#F47960"/>
					</linearGradient>
					<path style="fill:url(#SVGID_00000003824175442088235630000016428937389097010607_);" d="M2847.3,2078.561
						c0,0-58.584,85.345-22.152,109.125c36.431,23.781,78.136-36.872,78.136-36.872s13.092-46.354-1.803-61.714
						C2886.587,2073.74,2847.3,2078.561,2847.3,2078.561z"/>
					
						<linearGradient id="SVGID_00000142874473602750082140000010672921293727273881_" gradientUnits="userSpaceOnUse" x1="2742.2405" y1="2510.6812" x2="2989.8013" y2="1909.0344" gradientTransform="matrix(0.9998 -0.0189 0.0189 0.9998 -59.5478 19.4772)">
						<stop  offset="0" style="stop-color:#2B3582"/>
						<stop  offset="1" style="stop-color:#150E42"/>
					</linearGradient>
					<path style="fill:url(#SVGID_00000142874473602750082140000010672921293727273881_);" d="M2871.878,2057.855
						c0,0-25.488,6.55-28.857,18.202c-3.369,11.652,36.729,21.641,47.917,21.955l9.89,46.575c0,0,25.796-44.477,14.769-69.675
						C2904.57,2049.715,2871.878,2057.855,2871.878,2057.855z"/>
					
						<linearGradient id="SVGID_00000096054419447218278060000010041112042875498137_" gradientUnits="userSpaceOnUse" x1="-5400.0376" y1="2942.3469" x2="-5283.6011" y2="3076.218" gradientTransform="matrix(0.9653 0.2612 -0.2612 0.9653 8856.9795 649.0368)">
						<stop  offset="0" style="stop-color:#F9B776"/>
						<stop  offset="1" style="stop-color:#F47960"/>
					</linearGradient>
					<path style="fill:url(#SVGID_00000096054419447218278060000010041112042875498137_);" d="M2891.502,2144.838
						c0,0,22.909-27.567,32.559-10.059c9.65,17.507-20.497,31.357-31.184,22.874L2891.502,2144.838z"/>
				</g>
			</g>
		</g>
		<g>
			<g>
				<g>
					
						<linearGradient id="SVGID_00000059267434382287216220000004489918044642373018_" gradientUnits="userSpaceOnUse" x1="10823.6631" y1="2804.4175" x2="9979.8545" y2="3351.416" gradientTransform="matrix(-1 0 0 1 11862.3076 0)">
						<stop  offset="0" style="stop-color:#53D8FF"/>
						<stop  offset="1" style="stop-color:#3840F7"/>
					</linearGradient>
					<path style="fill:url(#SVGID_00000059267434382287216220000004489918044642373018_);" d="M700.047,2962.971l932.693,0.001
						v-151.483l-932.693,0.001C720.01,2811.49,720.01,2962.971,700.047,2962.971z"/>
					
						<linearGradient id="SVGID_00000070812078389389961600000016134425165338174892_" gradientUnits="userSpaceOnUse" x1="1305.3441" y1="2349.1633" x2="1196.4128" y2="2836.4861">
						<stop  offset="0" style="stop-color:#A737D5"/>
						<stop  offset="1" style="stop-color:#EF497A"/>
					</linearGradient>
					<path style="fill:url(#SVGID_00000070812078389389961600000016134425165338174892_);" d="M1632.739,2925.064v-69.325
						c0-24.438-18.432-44.249-41.168-44.249H703.979c-17.88,0-32.375-11.762-32.375-26.271c0-4.408,4.404-7.982,9.837-7.982h970.069
						c22.247,0,57.567,28.382,57.567,63.394v96.821c0,33.01-34.29,59.771-55.265,59.771H686.544c-8.251,0-14.94-5.428-14.94-12.123
						c0-12.222,12.21-22.129,27.271-22.129h898.596C1616.949,2962.971,1632.739,2946,1632.739,2925.064z"/>
				</g>
				<path style="fill:#FFFFFF;" d="M1606.872,2845.935H732.345c-1.858,0-3.365-1.507-3.365-3.365c0-1.858,1.507-3.365,3.365-3.365
					h874.528c1.858,0,3.365,1.507,3.365,3.365C1610.237,2844.428,1608.73,2845.935,1606.872,2845.935z"/>
				<path style="fill:#FFFFFF;" d="M1606.872,2868.421H732.345c-1.858,0-3.365-1.507-3.365-3.365s1.507-3.365,3.365-3.365h874.528
					c1.858,0,3.365,1.507,3.365,3.365S1608.73,2868.421,1606.872,2868.421z"/>
				<path style="fill:#FFFFFF;" d="M1606.872,2890.905H732.345c-1.858,0-3.365-1.507-3.365-3.365c0-1.858,1.507-3.365,3.365-3.365
					h874.528c1.858,0,3.365,1.507,3.365,3.365C1610.237,2889.398,1608.73,2890.905,1606.872,2890.905z"/>
				<path style="fill:#FFFFFF;" d="M1606.872,2913.389H732.345c-1.858,0-3.365-1.507-3.365-3.365s1.507-3.365,3.365-3.365h874.528
					c1.858,0,3.365,1.507,3.365,3.365S1608.73,2913.389,1606.872,2913.389z"/>
				<path style="fill:#FFFFFF;" d="M1606.872,2935.875H732.345c-1.858,0-3.365-1.507-3.365-3.365s1.507-3.365,3.365-3.365h874.528
					c1.858,0,3.365,1.507,3.365,3.365S1608.73,2935.875,1606.872,2935.875z"/>
			</g>
			<g>
				
					<linearGradient id="SVGID_00000136402634363684585320000006862258134375914666_" gradientUnits="userSpaceOnUse" x1="1137.2781" y1="2871.8843" x2="1109.9824" y2="3324.9917">
					<stop  offset="0" style="stop-color:#53D8FF"/>
					<stop  offset="1" style="stop-color:#3840F7"/>
				</linearGradient>
				<path style="fill:url(#SVGID_00000136402634363684585320000006862258134375914666_);" d="M1722.981,3252.454H520.971
					c-11.814,0-21.391-9.577-21.391-21.391v-210.33c0-11.814,9.577-21.391,21.391-21.391h1202.01
					c11.814,0,21.391,9.577,21.391,21.391v210.33C1744.372,3242.877,1734.795,3252.454,1722.981,3252.454z"/>
				
					<linearGradient id="SVGID_00000180349596226331042480000010840716938464896388_" gradientUnits="userSpaceOnUse" x1="558.7402" y1="2936.4856" x2="1047.6128" y2="3535.2964">
					<stop  offset="0" style="stop-color:#53D8FF"/>
					<stop  offset="1" style="stop-color:#3840F7"/>
				</linearGradient>
				<path style="fill:url(#SVGID_00000180349596226331042480000010840716938464896388_);" d="M779.253,3223.364H647.501
					c-4,0-7.242-3.242-7.242-7.242v-180.449c0-4,3.242-7.242,7.242-7.242h131.752c4,0,7.242,3.242,7.242,7.242v180.449
					C786.495,3220.121,783.253,3223.364,779.253,3223.364z"/>
				
					<linearGradient id="SVGID_00000032623186513359405750000012785328301312811672_" gradientUnits="userSpaceOnUse" x1="642.2354" y1="2889.2468" x2="1115.7886" y2="3469.2932">
					<stop  offset="0" style="stop-color:#53D8FF"/>
					<stop  offset="1" style="stop-color:#3840F7"/>
				</linearGradient>
				<path style="fill:url(#SVGID_00000032623186513359405750000012785328301312811672_);" d="M856.982,3223.364h-43.088
					c-3.253,0-5.89-2.637-5.89-5.89v-183.153c0-3.253,2.637-5.89,5.89-5.89h43.088c3.253,0,5.89,2.637,5.89,5.89v183.153
					C862.872,3220.727,860.235,3223.364,856.982,3223.364z"/>
			</g>
		</g>
		<g>
			<g>
				
					<linearGradient id="SVGID_00000024715384995037754330000010483725735170682250_" gradientUnits="userSpaceOnUse" x1="1460.1759" y1="1315.9187" x2="1341.8503" y2="1559.814" gradientTransform="matrix(0.987 0.1608 -0.1608 0.987 126.9837 357.2448)">
					<stop  offset="0" style="stop-color:#2B3582"/>
					<stop  offset="1" style="stop-color:#150E42"/>
				</linearGradient>
				<path style="fill:url(#SVGID_00000024715384995037754330000010483725735170682250_);" d="M1129.284,2096.093
					c-0.604,1.145-38.656,29.146-38.656,29.146s8.403,60.117,42.526,83.856c37.517,26.099,90.5-21.498,90.5-21.498
					s42.166,10.023,64.589-77.75c5.144-20.137-24.552-21.839-60.392-18.131C1181.635,2096.5,1129.284,2096.093,1129.284,2096.093z"
					/>
				
					<linearGradient id="SVGID_00000103244378409925569540000016965414628150126739_" gradientUnits="userSpaceOnUse" x1="1187.1206" y1="2303.9229" x2="1187.1206" y2="2829.3015">
					<stop  offset="0" style="stop-color:#CB236D"/>
					<stop  offset="1" style="stop-color:#4C246D"/>
				</linearGradient>
				<path style="fill:url(#SVGID_00000103244378409925569540000016965414628150126739_);" d="M1058.159,2301.194
					c14.886-10.235,31.345-17.952,48.794-22.7c6.554-1.783,41.942,8.502,63.817,7.999c30.028-0.69,60.594-14.356,85.346-8.187
					c24.587,6.127,44.71,14.13,56.329,22.394c34.779,24.736,55.198,70.859,67.642,116.547
					c-23.563,24.188-53.215,34.938-53.215,34.938l-5.479,222.075l-131.317,67.187l-149.883-75.25l5.369-217.02
					c0,0-47.595-22.165-51.087-30.228C990.983,2410.886,1016.167,2330.066,1058.159,2301.194z"/>
				
					<linearGradient id="SVGID_00000049910347570220484680000000597896893701108899_" gradientUnits="userSpaceOnUse" x1="964.1046" y1="2370.4368" x2="1213.6436" y2="2973.2195">
					<stop  offset="0" style="stop-color:#F9B776"/>
					<stop  offset="1" style="stop-color:#F47960"/>
				</linearGradient>
				<path style="fill:url(#SVGID_00000049910347570220484680000000597896893701108899_);" d="M996.692,2417.979
					c0,0-63.78,176.824,81.662,249.498c30.199-4.012,18.584-54.164,18.584-54.164s-63.195-13.986-44.216-161.491
					C1035.248,2437.446,996.692,2417.979,996.692,2417.979z"/>
				
					<linearGradient id="SVGID_00000027592542826384946180000009731866730917058228_" gradientUnits="userSpaceOnUse" x1="-5573.5527" y1="2369.1409" x2="-5324.0137" y2="2971.9238" gradientTransform="matrix(-1 0 0 1 -4167.0742 0)">
					<stop  offset="0" style="stop-color:#F9B776"/>
					<stop  offset="1" style="stop-color:#F47960"/>
				</linearGradient>
				<path style="fill:url(#SVGID_00000027592542826384946180000009731866730917058228_);" d="M1377.021,2417.979
					c0,0,43.887,184.58-81.662,249.498c-30.2-4.012-18.584-54.164-18.584-54.164s50.932-25.084,44.216-161.491
					C1338.464,2437.446,1377.021,2417.979,1377.021,2417.979z"/>
				
					<linearGradient id="SVGID_00000119829255027656507080000006627442016540507068_" gradientUnits="userSpaceOnUse" x1="1185.7622" y1="2448.3408" x2="1172.7909" y2="2973.686">
					<stop  offset="0" style="stop-color:#2B3582"/>
					<stop  offset="1" style="stop-color:#150E42"/>
				</linearGradient>
				<path style="fill:url(#SVGID_00000119829255027656507080000006627442016540507068_);" d="M1318.092,2679.896h-271.293
					c-4.584,0-8.334-3.75-8.334-8.334v-177.803c0-4.584,3.75-8.334,8.334-8.334h271.293c4.584,0,8.334,3.75,8.334,8.334v177.803
					C1326.427,2676.146,1322.676,2679.896,1318.092,2679.896z"/>
				<g>
					
						<linearGradient id="SVGID_00000065057624785415088930000005202497983871013025_" gradientUnits="userSpaceOnUse" x1="1347.0853" y1="2737.2583" x2="1483.4496" y2="2737.2583" gradientTransform="matrix(1 0.0077 -0.0077 1 9.5247 16.8137)">
						<stop  offset="0" style="stop-color:#2B3582"/>
						<stop  offset="1" style="stop-color:#150E42"/>
					</linearGradient>
					<path style="fill:url(#SVGID_00000065057624785415088930000005202497983871013025_);" d="M1452.731,2737.55
						c-32.955-7.564-109.122-3.498-109.122-3.498l-3.098,8.39l-5.13,41.701c0,0,72.536,13.074,108.29,13.042
						c3.648-0.004,6.984-0.551,10.032-1.499c1.09-0.978,2.155-1.992,3.163-3.093
						C1472.036,2776.026,1467.655,2751.69,1452.731,2737.55z"/>
					
						<linearGradient id="SVGID_00000008119365616928549590000003286971871700152708_" gradientUnits="userSpaceOnUse" x1="1425.5385" y1="2518.5737" x2="1281.5964" y2="2908.4565">
						<stop  offset="0" style="stop-color:#F9B776"/>
						<stop  offset="1" style="stop-color:#F47960"/>
					</linearGradient>
					<path style="fill:url(#SVGID_00000008119365616928549590000003286971871700152708_);" d="M1321.724,2731.704l12.897,0.55
						c6.93,0.295,13.46,3.672,18.119,9.368c4.659,5.696,7.055,13.232,6.648,20.91c-0.326,6.121-2.837,11.847-6.979,15.908
						c-4.142,4.061-9.574,6.124-15.092,5.731l-19.734-1.404L1321.724,2731.704z"/>
				</g>
				<g>
					
						<linearGradient id="SVGID_00000134942934122744615380000000543446911036119436_" gradientUnits="userSpaceOnUse" x1="-5873.7095" y1="2697.6765" x2="-5737.2876" y2="2697.6765" gradientTransform="matrix(-0.9998 -0.02 -0.02 0.9998 -4813.9961 -50.8396)">
						<stop  offset="0" style="stop-color:#2B3582"/>
						<stop  offset="1" style="stop-color:#150E42"/>
					</linearGradient>
					<path style="fill:url(#SVGID_00000134942934122744615380000000543446911036119436_);" d="M888.044,2733.539
						c33.131-6.551,109.167-0.148,109.167-0.148l2.887,8.481l4.088,41.843c0,0-72.834,10.843-108.574,9.715
						c-3.647-0.115-6.969-0.765-9.991-1.807c-1.066-1.011-2.105-2.058-3.085-3.189
						C867.786,2771.408,872.773,2747.215,888.044,2733.539z"/>
					
						<linearGradient id="SVGID_00000075156606444083772850000003998114166742077119_" gradientUnits="userSpaceOnUse" x1="1137.1478" y1="2401.0825" x2="993.1301" y2="2791.1702">
						<stop  offset="0" style="stop-color:#F9B776"/>
						<stop  offset="1" style="stop-color:#F47960"/>
					</linearGradient>
					<path style="fill:url(#SVGID_00000075156606444083772850000003998114166742077119_);" d="M1019.146,2731.715l-12.906,0.154
						c-6.934,0.083-13.546,3.258-18.346,8.809c-4.799,5.551-7.382,13.011-7.167,20.698c0.172,6.129,2.54,11.929,6.58,16.117
						c4.039,4.187,9.417,6.416,14.943,6.192l19.762-0.798L1019.146,2731.715z"/>
				</g>
				
					<linearGradient id="SVGID_00000032647687386308890090000004867695665167111095_" gradientUnits="userSpaceOnUse" x1="1486.5491" y1="2511.0481" x2="1112.3525" y2="2792.1428">
					<stop  offset="0" style="stop-color:#53D8FF"/>
					<stop  offset="1" style="stop-color:#3840F7"/>
				</linearGradient>
				<path style="fill:url(#SVGID_00000032647687386308890090000004867695665167111095_);" d="M1461.947,2606.821
					c-14.945-34.396-51.498-39.979-82.608-23.897c-0.542,0.711-197.572,101.691-371.328,145.948
					c4.974,15.947,7.532,32.916,8.089,49.594c0.101,3.716,0.039,7.381-0.179,10.997c133.246-6.844,277.858-51.281,402.123-90.333
					C1456.578,2686.702,1478.512,2644.944,1461.947,2606.821z"/>
				
					<linearGradient id="SVGID_00000149347290681369176030000011862234838761214634_" gradientUnits="userSpaceOnUse" x1="1148.1609" y1="2763.1624" x2="1050.0891" y2="2513.0801">
					<stop  offset="0" style="stop-color:#53D8FF"/>
					<stop  offset="1" style="stop-color:#3840F7"/>
				</linearGradient>
				<path style="fill:url(#SVGID_00000149347290681369176030000011862234838761214634_);" d="M1322.671,2781.078
					c-0.521-19.224,3.217-37.121,11.213-53.689c0.229-0.759,0.502-1.488,0.744-2.237c-9.922-3.073-22.74-7.237-39.579-12.949
					c-123.384-42.225-217.512-84.861-307.347-133.942c-34.899-19.067-74.58-6.288-85.752,35.007
					c-9.973,36.865,11.928,68.337,45.167,79.398c99.443,33.091,47.666,23.9,80.144,34.352
					c87.222,26.972,195.759,51.539,295.619,58.247C1322.804,2783.868,1322.718,2782.471,1322.671,2781.078z"/>
				
					<linearGradient id="SVGID_00000016764513929429233440000008101920196457355399_" gradientUnits="userSpaceOnUse" x1="1183.1641" y1="2420.2068" x2="1179.8439" y2="2131.3223">
					<stop  offset="0" style="stop-color:#F9B776"/>
					<stop  offset="1" style="stop-color:#F47960"/>
				</linearGradient>
				<path style="fill:url(#SVGID_00000016764513929429233440000008101920196457355399_);" d="M1106.953,2278.494
					c0,0,13.27,57.504,77.694,56.31c65.619-1.194,71.469-56.499,71.469-56.499l-42.864-9.172l-3.582-47.761l-64.477,4.777
					l-1.194,45.373L1106.953,2278.494z"/>
				
					<linearGradient id="SVGID_00000013896166155030400350000003548011044717471888_" gradientUnits="userSpaceOnUse" x1="1338.8527" y1="1709.54" x2="1349.1956" y2="1458.1606" gradientTransform="matrix(0.987 0.1608 -0.1608 0.987 126.9837 357.2448)">
					<stop  offset="0" style="stop-color:#F9B776"/>
					<stop  offset="1" style="stop-color:#F47960"/>
				</linearGradient>
				<path style="fill:url(#SVGID_00000013896166155030400350000003548011044717471888_);" d="M1154.245,2086.052
					c0,0-73.89,143.129,13.76,177.854c61.825,24.493,100.588-95.049,89.026-127.427c-17.876-50.062-29.65-44.122-29.65-44.122
					L1154.245,2086.052z"/>
				
					<linearGradient id="SVGID_00000163045720834340893020000011436860482050806174_" gradientUnits="userSpaceOnUse" x1="1461.0428" y1="1281.5929" x2="1327.9011" y2="1556.0277" gradientTransform="matrix(0.987 0.1608 -0.1608 0.987 126.9837 357.2448)">
					<stop  offset="0" style="stop-color:#2B3582"/>
					<stop  offset="1" style="stop-color:#150E42"/>
				</linearGradient>
				<path style="fill:url(#SVGID_00000163045720834340893020000011436860482050806174_);" d="M1274.812,2073.028
					c36.503,10.033,5.306,89.2-49.651,70.479c-54.958-18.721-76.554-18.448-85.118-3.357c-8.564,15.091-10.404,68.683-28.986,42.194
					c-20.372-29.041-31.732-87.331-6.753-106.121c22.323-16.793,27.532-42.831,54.307-41.928
					c35.539,1.198,63.023-14.556,79.065-3.195C1256.099,2044.148,1247.953,2065.646,1274.812,2073.028z"/>
				
					<linearGradient id="SVGID_00000155851387241616723420000003624910578456651924_" gradientUnits="userSpaceOnUse" x1="822.2534" y1="2641.6304" x2="838.4618" y2="2247.6965" gradientTransform="matrix(0.9911 -0.1329 0.1329 0.9911 -26.0254 -216.2621)">
					<stop  offset="0" style="stop-color:#F9B776"/>
					<stop  offset="1" style="stop-color:#F47960"/>
				</linearGradient>
				<path style="fill:url(#SVGID_00000155851387241616723420000003624910578456651924_);" d="M1136.664,2152.458
					c0,0-15.759-16.956-18.281,3.48c-2.523,20.436,5.576,46.756,15.064,32.329
					C1142.934,2173.84,1136.664,2152.458,1136.664,2152.458z"/>
			</g>
			
				<linearGradient id="SVGID_00000130617072708312783100000018275990001070300548_" gradientUnits="userSpaceOnUse" x1="1184.3002" y1="2437.447" x2="1175.9142" y2="2838.7556">
				<stop  offset="0" style="stop-color:#53D8FF"/>
				<stop  offset="1" style="stop-color:#3840F7"/>
			</linearGradient>
			<path style="fill:url(#SVGID_00000130617072708312783100000018275990001070300548_);" d="M1199.431,2567.393
				c1.527,10.317-4.001,19.682-14.318,21.209c-10.318,1.527-19.919-5.6-21.446-15.917c-1.526-10.317,3.195-20.565,13.513-22.091
				C1187.498,2549.067,1197.904,2557.075,1199.431,2567.393z"/>
		</g>
		<g>
			<circle style="fill:#FFFFFF;" cx="1001.363" cy="1686.71" r="337.033"/>
			<g>
				
					<linearGradient id="SVGID_00000126309739124055247540000008039247533513984927_" gradientUnits="userSpaceOnUse" x1="1135.7601" y1="835.2366" x2="624.2715" y2="1999.8549">
					<stop  offset="0" style="stop-color:#53D8FF"/>
					<stop  offset="1" style="stop-color:#3840F7"/>
				</linearGradient>
				<path style="fill:url(#SVGID_00000126309739124055247540000008039247533513984927_);" d="M723.584,1670.266l70.721-36.877
					v15.714c0,1.192-0.299,2.279-0.894,3.261c-0.596,0.982-1.578,1.828-2.946,2.543l-32.414,16.609
					c-1.371,0.715-2.812,1.325-4.331,1.831c-1.517,0.506-3.141,0.968-4.866,1.384c1.725,0.416,3.349,0.878,4.866,1.384
					c1.519,0.506,2.96,1.116,4.331,1.831l32.414,16.699c1.368,0.712,2.35,1.561,2.946,2.543c0.594,0.982,0.894,2.069,0.894,3.258
					v15.716l-70.721-36.967V1670.266z"/>
				
					<linearGradient id="SVGID_00000146491883155936271640000008500859777069182394_" gradientUnits="userSpaceOnUse" x1="1216.8102" y1="870.8309" x2="705.3196" y2="2035.4537">
					<stop  offset="0" style="stop-color:#53D8FF"/>
					<stop  offset="1" style="stop-color:#3840F7"/>
				</linearGradient>
				<path style="fill:url(#SVGID_00000146491883155936271640000008500859777069182394_);" d="M826.538,1734.914v-132.69h22.056
					v50.986c3.571-3.392,7.501-6.13,11.787-8.214c4.286-2.081,9.316-3.125,15.09-3.125c5.001,0,9.435,0.849,13.305,2.546
					c3.869,1.695,7.098,4.078,9.688,7.142c2.59,3.067,4.553,6.729,5.893,10.984c1.34,4.255,2.009,8.944,2.009,14.063v58.308h-22.055
					v-58.308c0-5.595-1.295-9.926-3.885-12.993c-2.59-3.064-6.473-4.598-11.653-4.598c-3.811,0-7.381,0.863-10.715,2.59
					c-3.334,1.727-6.489,4.078-9.464,7.055v66.255H826.538z"/>
				
					<linearGradient id="SVGID_00000018946021706565558580000001575258451275350459_" gradientUnits="userSpaceOnUse" x1="1294.5648" y1="904.9796" x2="783.0745" y2="2069.6016">
					<stop  offset="0" style="stop-color:#53D8FF"/>
					<stop  offset="1" style="stop-color:#3840F7"/>
				</linearGradient>
				<path style="fill:url(#SVGID_00000018946021706565558580000001575258451275350459_);" d="M958.156,1736.344
					c-7.918,0-14.019-2.247-18.305-6.744c-4.286-4.494-6.43-10.7-6.43-18.617v-51.164h-9.286c-1.192,0-2.219-0.387-3.081-1.163
					c-0.863-0.773-1.295-1.933-1.295-3.482v-8.749l14.734-2.413l4.643-25c0.237-1.192,0.788-2.113,1.651-2.77
					c0.863-0.654,1.949-0.983,3.26-0.983h11.429v28.843h24.109v15.716h-24.109v49.646c0,2.857,0.715,5.09,2.144,6.697
					c1.429,1.607,3.333,2.41,5.715,2.41c1.369,0,2.514-0.163,3.437-0.488c0.923-0.328,1.727-0.672,2.411-1.029
					c0.685-0.358,1.295-0.698,1.831-1.026c0.535-0.325,1.071-0.491,1.607-0.491c0.654,0,1.19,0.166,1.607,0.491
					c0.416,0.328,0.862,0.82,1.339,1.474l6.608,10.714c-3.215,2.68-6.906,4.703-11.073,6.072
					C966.937,1735.658,962.62,1736.344,958.156,1736.344z"/>
				
					<linearGradient id="SVGID_00000120545269160990797450000017593968488008271807_" gradientUnits="userSpaceOnUse" x1="1387.8904" y1="945.9681" x2="876.3997" y2="2110.5911">
					<stop  offset="0" style="stop-color:#53D8FF"/>
					<stop  offset="1" style="stop-color:#3840F7"/>
				</linearGradient>
				<path style="fill:url(#SVGID_00000120545269160990797450000017593968488008271807_);" d="M997.175,1734.914v-91.613h13.484
					c2.857,0,4.732,1.337,5.625,4.017l1.429,6.787c1.607-1.788,3.289-3.424,5.046-4.912c1.754-1.488,3.63-2.767,5.625-3.84
					c1.994-1.073,4.138-1.918,6.43-2.543c2.291-0.625,4.806-0.939,7.546-0.939c5.773,0,10.521,1.564,14.241,4.688
					c3.721,3.125,6.504,7.275,8.349,12.455c1.429-3.035,3.215-5.639,5.357-7.813c2.144-2.171,4.495-3.942,7.054-5.313
					c2.559-1.366,5.283-2.378,8.171-3.035c2.886-0.654,5.789-0.982,8.706-0.982c5.059,0,9.554,0.773,13.484,2.323
					c3.928,1.549,7.232,3.811,9.912,6.784c2.678,2.979,4.716,6.61,6.116,10.894c1.398,4.287,2.099,9.197,2.099,14.734v58.308
					h-22.056v-58.308c0-5.834-1.28-10.223-3.838-13.17c-2.561-2.947-6.312-4.421-11.252-4.421c-2.263,0-4.362,0.39-6.294,1.163
					c-1.936,0.773-3.632,1.889-5.091,3.349c-1.459,1.459-2.604,3.287-3.437,5.491c-0.834,2.203-1.25,4.732-1.25,7.589v58.308
					h-22.145v-58.308c0-6.13-1.237-10.595-3.706-13.394c-2.471-2.796-6.117-4.197-10.938-4.197c-3.157,0-6.117,0.791-8.886,2.366
					c-2.767,1.578-5.342,3.738-7.723,6.476v67.057H997.175z"/>
				
					<linearGradient id="SVGID_00000070082901237665985070000009831773738052753799_" gradientUnits="userSpaceOnUse" x1="1462.8939" y1="978.9088" x2="951.4033" y2="2143.5315">
					<stop  offset="0" style="stop-color:#53D8FF"/>
					<stop  offset="1" style="stop-color:#3840F7"/>
				</linearGradient>
				<path style="fill:url(#SVGID_00000070082901237665985070000009831773738052753799_);" d="M1171.03,1602.224v132.69h-22.056
					v-132.69H1171.03z"/>
				
					<linearGradient id="SVGID_00000006680315642275126000000013376675634451725246_" gradientUnits="userSpaceOnUse" x1="1525.4059" y1="1006.3639" x2="1013.9172" y2="2170.9822">
					<stop  offset="0" style="stop-color:#53D8FF"/>
					<stop  offset="1" style="stop-color:#3840F7"/>
				</linearGradient>
				<path style="fill:url(#SVGID_00000006680315642275126000000013376675634451725246_);" d="M1204.604,1716.163v-15.716
					c0-1.189,0.297-2.276,0.892-3.258c0.594-0.983,1.577-1.831,2.947-2.543l32.412-16.699c2.619-1.308,5.684-2.381,9.198-3.215
					c-1.728-0.416-3.349-0.878-4.867-1.384c-1.517-0.506-2.962-1.116-4.331-1.831l-32.412-16.609
					c-1.37-0.715-2.353-1.561-2.947-2.543c-0.596-0.983-0.892-2.07-0.892-3.261v-15.714l70.72,36.877v8.929L1204.604,1716.163z"/>
			</g>
		</g>
		<g>
			<circle style="fill:#FFFFFF;" cx="1774.45" cy="1469.006" r="296.873"/>
			<g>
				
					<linearGradient id="SVGID_00000155147862518604541580000016873595598943496870_" gradientUnits="userSpaceOnUse" x1="1865.8494" y1="845.9203" x2="1528.5771" y2="1915.3179">
					<stop  offset="0" style="stop-color:#53D8FF"/>
					<stop  offset="1" style="stop-color:#3840F7"/>
				</linearGradient>
				<path style="fill:url(#SVGID_00000155147862518604541580000016873595598943496870_);" d="M1617.502,1469.492l85.801-44.74
					v19.064c0,1.446-0.367,2.765-1.086,3.957c-0.723,1.192-1.915,2.222-3.576,3.089l-39.323,20.15
					c-1.661,0.864-3.41,1.608-5.254,2.218c-1.841,0.617-3.812,1.174-5.903,1.678c2.091,0.504,4.063,1.068,5.903,1.682
					c1.844,0.614,3.594,1.354,5.254,2.218l39.323,20.259c1.661,0.867,2.853,1.897,3.576,3.089c0.719,1.188,1.086,2.507,1.086,3.95
					v19.071l-85.801-44.853V1469.492z"/>
				
					<linearGradient id="SVGID_00000003820701522329797970000012454256313383754401_" gradientUnits="userSpaceOnUse" x1="1958.7045" y1="875.2058" x2="1621.4323" y2="1944.6038">
					<stop  offset="0" style="stop-color:#53D8FF"/>
					<stop  offset="1" style="stop-color:#3840F7"/>
				</linearGradient>
				<path style="fill:url(#SVGID_00000003820701522329797970000012454256313383754401_);" d="M1751.721,1548.248
					c-0.649,1.664-1.481,3.107-2.49,4.338c-1.012,1.227-2.165,2.257-3.467,3.086c-1.301,0.829-2.673,1.464-4.115,1.894
					c-1.446,0.437-2.856,0.652-4.225,0.652h-11.27l63.267-161.848c1.227-3.033,2.994-5.364,5.307-6.986
					c2.313-1.626,5.092-2.44,8.344-2.44h11.376L1751.721,1548.248z"/>
				
					<linearGradient id="SVGID_00000041975470230838145490000010677777126521910158_" gradientUnits="userSpaceOnUse" x1="2052.4231" y1="904.7637" x2="1715.1509" y2="1974.1613">
					<stop  offset="0" style="stop-color:#53D8FF"/>
					<stop  offset="1" style="stop-color:#3840F7"/>
				</linearGradient>
				<path style="fill:url(#SVGID_00000041975470230838145490000010677777126521910158_);" d="M1836.764,1525.178v-19.071
					c0-1.442,0.36-2.761,1.079-3.95c0.723-1.192,1.915-2.222,3.576-3.089l39.327-20.259c3.174-1.587,6.894-2.888,11.157-3.9
					c-2.095-0.504-4.062-1.061-5.903-1.678c-1.841-0.61-3.597-1.354-5.254-2.218l-39.327-20.15
					c-1.661-0.867-2.853-1.897-3.576-3.089c-0.719-1.192-1.079-2.511-1.079-3.957v-19.064l85.798,44.74v10.833L1836.764,1525.178z"
					/>
			</g>
		</g>
		<g>
			<g style="opacity:0.64;">
				<path style="fill:#FFFFFF;" d="M3108.854,1641.018c-0.874,0-1.746-0.339-2.405-1.012c-1.3-1.329-1.277-3.459,0.052-4.758
					c1.985-1.942,3.94-3.907,5.869-5.895c1.293-1.334,3.426-1.365,4.758-0.072c1.334,1.293,1.367,3.424,0.072,4.758
					c-1.969,2.031-3.966,4.038-5.994,6.02C3110.553,1640.699,3109.704,1641.018,3108.854,1641.018z"/>
				<path style="fill:#FFFFFF;" d="M2898.999,1729.617c-1.821,0-3.319-1.454-3.362-3.284c-0.046-1.858,1.424-3.399,3.283-3.444
					c5.445-0.131,10.979-0.414,16.45-0.843c1.873-0.154,3.472,1.241,3.618,3.092c0.145,1.853-1.24,3.473-3.092,3.618
					c-5.593,0.437-11.25,0.726-16.815,0.859C2899.055,1729.617,2899.027,1729.617,2898.999,1729.617z M2882.338,1729.574
					c-0.033,0-0.067,0-0.102-0.002c-5.588-0.164-11.245-0.485-16.813-0.95c-1.852-0.154-3.227-1.781-3.072-3.634
					c0.154-1.85,1.786-3.248,3.634-3.072c5.448,0.455,10.982,0.769,16.45,0.93c1.858,0.054,3.32,1.605,3.265,3.462
					C2885.645,1728.131,2884.15,1729.574,2882.338,1729.574z M2932.191,1727.016c-1.661,0-3.107-1.231-3.33-2.923
					c-0.245-1.842,1.05-3.532,2.893-3.777c5.405-0.718,10.876-1.595,16.262-2.609c1.835-0.343,3.587,0.861,3.93,2.685
					c0.343,1.827-0.859,3.585-2.685,3.93c-5.504,1.035-11.097,1.932-16.624,2.665
					C2932.489,1727.006,2932.339,1727.016,2932.191,1727.016z M2849.151,1726.807c-0.153,0-0.307-0.01-0.463-0.031
					c-5.552-0.764-11.139-1.686-16.612-2.74c-1.824-0.352-3.018-2.116-2.667-3.942c0.353-1.822,2.106-3.015,3.941-2.667
					c5.353,1.032,10.823,1.934,16.254,2.681c1.842,0.253,3.128,1.952,2.875,3.792
					C2852.248,1725.586,2850.805,1726.807,2849.151,1726.807z M2964.913,1720.859c-1.515,0-2.89-1.029-3.265-2.566
					c-0.442-1.804,0.664-3.626,2.469-4.066c5.292-1.295,10.638-2.755,15.889-4.344c1.779-0.541,3.657,0.467,4.195,2.246
					c0.539,1.779-0.467,3.657-2.246,4.195c-5.366,1.623-10.831,3.119-16.241,4.439
					C2965.447,1720.828,2965.177,1720.859,2964.913,1720.859z M2816.448,1720.514c-0.27,0-0.542-0.031-0.815-0.099
					c-5.419-1.347-10.877-2.857-16.223-4.49c-1.776-0.544-2.777-2.425-2.234-4.201c0.545-1.779,2.433-2.773,4.203-2.236
					c5.231,1.6,10.574,3.079,15.878,4.395c1.802,0.448,2.902,2.274,2.455,4.078
					C2819.33,1719.493,2817.957,1720.514,2816.448,1720.514z M2996.789,1711.223c-1.377,0-2.668-0.853-3.164-2.221
					c-0.633-1.748,0.273-3.677,2.019-4.31c5.126-1.855,10.288-3.879,15.341-6.017c1.707-0.721,3.687,0.076,4.41,1.788
					c0.725,1.712-0.076,3.685-1.788,4.41c-5.162,2.185-10.435,4.252-15.673,6.148
					C2997.556,1711.158,2997.168,1711.223,2996.789,1711.223z M2784.604,1710.785c-0.383,0-0.772-0.067-1.153-0.205
					c-5.261-1.919-10.528-4.002-15.653-6.188c-1.709-0.729-2.504-2.706-1.774-4.416c0.729-1.709,2.699-2.506,4.416-1.774
					c5.014,2.139,10.168,4.178,15.318,6.056c1.745,0.637,2.645,2.568,2.008,4.315
					C2787.267,1709.937,2785.977,1710.785,2784.604,1710.785z M3027.465,1698.244c-1.249,0-2.447-0.695-3.03-1.893
					c-0.812-1.671-0.117-3.685,1.554-4.499c4.922-2.394,9.84-4.949,14.619-7.597c1.628-0.899,3.675-0.309,4.573,1.314
					c0.902,1.625,0.314,3.672-1.313,4.573c-4.881,2.706-9.907,5.317-14.935,7.763
					C3028.459,1698.135,3027.958,1698.244,3027.465,1698.244z M2753.978,1697.726c-0.496,0-1.002-0.11-1.479-0.343
					c-5.024-2.466-10.039-5.095-14.904-7.816c-1.623-0.907-2.203-2.957-1.296-4.579c0.907-1.623,2.954-2.202,4.579-1.296
					c4.763,2.663,9.669,5.236,14.585,7.648c1.669,0.82,2.358,2.836,1.54,4.503
					C2756.418,1697.034,2755.222,1697.726,2753.978,1697.726z M3056.591,1682.114c-1.122,0-2.218-0.56-2.857-1.582
					c-0.984-1.576-0.504-3.651,1.071-4.636c4.627-2.892,9.245-5.954,13.726-9.104c1.525-1.065,3.619-0.702,4.689,0.818
					c1.068,1.521,0.702,3.62-0.818,4.689c-4.581,3.219-9.301,6.349-14.031,9.304
					C3057.816,1681.95,3057.2,1682.114,3056.591,1682.114z M2724.925,1681.488c-0.615,0-1.235-0.168-1.792-0.519
					c-4.725-2.982-9.429-6.132-13.982-9.359c-1.516-1.075-1.875-3.176-0.8-4.691c1.073-1.516,3.174-1.876,4.691-0.8
					c4.456,3.159,9.06,6.24,13.683,9.158c1.572,0.992,2.042,3.071,1.05,4.641
					C2727.133,1680.933,2726.042,1681.488,2724.925,1681.488z M3083.832,1662.973c-0.996,0-1.983-0.44-2.647-1.285
					c-1.148-1.461-0.896-3.577,0.565-4.725c4.3-3.38,8.563-6.922,12.669-10.525c1.398-1.229,3.523-1.086,4.748,0.309
					c1.226,1.396,1.088,3.523-0.309,4.748c-4.198,3.684-8.555,7.303-12.948,10.758
					C3085.294,1662.738,3084.56,1662.973,3083.832,1662.973z M2697.778,1662.245c-0.733,0-1.47-0.238-2.088-0.728
					c-4.38-3.472-8.719-7.104-12.898-10.799c-1.392-1.231-1.521-3.357-0.291-4.75c1.23-1.39,3.355-1.525,4.75-0.291
					c4.086,3.615,8.332,7.17,12.618,10.566c1.456,1.153,1.702,3.271,0.547,4.727
					C2699.753,1661.808,2698.77,1662.245,2697.778,1662.245z M2672.857,1640.21c-0.853,0-1.705-0.322-2.361-0.968
					c-3.971-3.91-7.893-7.988-11.659-12.119c-1.252-1.374-1.155-3.501,0.219-4.753c1.377-1.252,3.503-1.153,4.753,0.219
					c3.685,4.042,7.525,8.033,11.409,11.859c1.324,1.304,1.341,3.434,0.036,4.758
					C2674.595,1639.874,2673.726,1640.21,2672.857,1640.21z M2650.459,1615.63c-0.974,0-1.942-0.422-2.607-1.235
					c-3.539-4.331-7.004-8.812-10.297-13.317c-1.096-1.5-0.769-3.605,0.733-4.701c1.5-1.101,3.605-0.769,4.701,0.731
					c3.222,4.406,6.611,8.79,10.075,13.027c1.176,1.439,0.963,3.559-0.477,4.735
					C2651.963,1615.382,2651.209,1615.63,2650.459,1615.63z M2630.811,1588.759c-1.099,0-2.177-0.537-2.823-1.526
					c-3.054-4.686-6.018-9.51-8.811-14.34c-0.93-1.609-0.38-3.667,1.229-4.597c1.612-0.932,3.664-0.383,4.597,1.229
					c2.732,4.727,5.634,9.447,8.624,14.031c1.014,1.557,0.575,3.643-0.981,4.658
					C2632.078,1588.583,2631.44,1588.759,2630.811,1588.759z M2614.144,1559.946c-1.226,0-2.407-0.67-3.002-1.837
					c-1.195-2.345-2.366-4.71-3.51-7.101c-1.288-2.688-2.535-5.384-3.74-8.093c-0.756-1.699,0.01-3.687,1.707-4.441
					c1.694-0.761,3.687,0.008,4.441,1.707c1.179,2.65,2.399,5.29,3.661,7.921c1.12,2.34,2.266,4.656,3.435,6.951
					c0.845,1.655,0.188,3.682-1.469,4.526C2615.179,1559.828,2614.658,1559.946,2614.144,1559.946z M2600.596,1529.527
					c-1.352,0-2.629-0.823-3.142-2.162c-2.001-5.22-3.887-10.56-5.604-15.875c-0.572-1.769,0.399-3.665,2.167-4.237
					c1.776-0.568,3.667,0.399,4.237,2.167c1.681,5.202,3.526,10.428,5.483,15.536c0.665,1.735-0.202,3.68-1.937,4.346
					C2601.404,1529.455,2600.997,1529.527,2600.596,1529.527z M2590.357,1497.839c-1.49,0-2.852-0.997-3.251-2.505
					c-1.428-5.391-2.731-10.903-3.871-16.386c-0.378-1.819,0.789-3.601,2.609-3.979c1.809-0.376,3.602,0.789,3.979,2.609
					c1.115,5.364,2.39,10.758,3.789,16.034c0.475,1.796-0.595,3.638-2.391,4.114
					C2590.932,1497.801,2590.641,1497.839,2590.357,1497.839z M2583.575,1465.238c-1.635,0-3.068-1.193-3.322-2.859
					c-0.841-5.527-1.541-11.148-2.083-16.706c-0.181-1.85,1.173-3.496,3.021-3.675c1.88-0.191,3.496,1.175,3.675,3.022
					c0.531,5.44,1.218,10.941,2.041,16.348c0.279,1.837-0.984,3.554-2.821,3.833
					C2583.915,1465.227,2583.744,1465.238,2583.575,1465.238z M2580.348,1432.101c-1.792,0-3.281-1.411-3.36-3.219
					c-0.194-4.467-0.292-9.017-0.292-13.524c0-1.104,0.007-2.207,0.018-3.311c0.02-1.845,1.523-3.329,3.365-3.329
					c0.011,0,0.023,0,0.036,0c1.858,0.02,3.348,1.543,3.329,3.401c-0.011,1.078-0.018,2.157-0.018,3.238
					c0,4.41,0.097,8.862,0.286,13.231c0.081,1.857-1.359,3.427-3.215,3.508C2580.446,1432.099,2580.396,1432.101,2580.348,1432.101z
					"/>
				<path style="fill:#FFFFFF;" d="M2580.716,1398.616c-0.074,0-0.148-0.002-0.222-0.007c-1.855-0.122-3.26-1.722-3.14-3.577
					c0.186-2.831,0.406-5.654,0.667-8.473c0.171-1.85,1.779-3.232,3.661-3.04c1.85,0.171,3.21,1.809,3.04,3.661
					c-0.255,2.757-0.471,5.521-0.651,8.289C2583.954,1397.249,2582.474,1398.616,2580.716,1398.616z"/>
			</g>
			<g style="opacity:0.64;">
				<path style="fill:#FFFFFF;" d="M2686.852,1183.837c-0.94,0-1.875-0.391-2.54-1.157c-1.219-1.401-1.073-3.527,0.33-4.747
					c2.133-1.857,4.295-3.687,6.487-5.491c1.433-1.185,3.552-0.979,4.735,0.457c1.183,1.433,0.978,3.554-0.457,4.735
					c-2.143,1.768-4.259,3.559-6.349,5.376C2688.421,1183.566,2687.635,1183.837,2686.852,1183.837z"/>
				<path style="fill:#FFFFFF;" d="M3202.001,1435.449c-0.064,0-0.126-0.002-0.191-0.005c-1.855-0.104-3.276-1.691-3.173-3.547
					c0.312-5.621,0.472-11.325,0.472-16.957c0-1.858,1.507-3.365,3.365-3.365s3.365,1.507,3.365,3.365
					c0,5.755-0.163,11.586-0.481,17.332C3205.258,1434.062,3203.774,1435.449,3202.001,1435.449z M3201.998,1401.158
					c-1.773,0-3.256-1.387-3.356-3.178c-0.314-5.64-0.789-11.327-1.408-16.905c-0.207-1.848,1.124-3.511,2.97-3.716
					c1.832-0.205,3.511,1.124,3.717,2.971c0.636,5.701,1.119,11.514,1.441,17.276c0.104,1.855-1.318,3.444-3.173,3.547
					C3202.125,1401.156,3202.06,1401.158,3201.998,1401.158z M3198.201,1367.081c-1.615,0-3.04-1.163-3.315-2.808
					c-0.93-5.547-2.032-11.148-3.273-16.644c-0.409-1.812,0.729-3.615,2.542-4.024c1.819-0.407,3.615,0.731,4.024,2.542
					c1.268,5.617,2.394,11.342,3.345,17.012c0.307,1.832-0.93,3.569-2.762,3.876
					C3198.572,1367.066,3198.385,1367.081,3198.201,1367.081z M3190.655,1333.636c-1.465,0-2.814-0.966-3.235-2.446
					c-1.536-5.397-3.25-10.842-5.095-16.18c-0.606-1.756,0.325-3.672,2.082-4.28c1.761-0.601,3.672,0.325,4.28,2.082
					c1.885,5.456,3.636,11.02,5.207,16.539c0.508,1.786-0.529,3.647-2.317,4.157
					C3191.269,1333.593,3190.958,1333.636,3190.655,1333.636z M3179.464,1301.223c-1.327,0-2.584-0.79-3.117-2.095
					c-2.126-5.213-4.426-10.438-6.835-15.531c-0.795-1.681-0.077-3.687,1.602-4.48c1.682-0.792,3.688-0.077,4.48,1.602
					c2.461,5.205,4.811,10.543,6.983,15.866c0.703,1.722-0.123,3.685-1.844,4.387
					C3180.317,1301.142,3179.886,1301.223,3179.464,1301.223z M3164.805,1270.219c-1.196,0-2.354-0.637-2.962-1.765
					c-2.688-4.969-5.54-9.912-8.476-14.693c-0.973-1.584-0.478-3.656,1.106-4.628c1.586-0.973,3.656-0.477,4.628,1.106
					c3,4.886,5.915,9.937,8.66,15.016c0.884,1.633,0.276,3.675-1.359,4.559C3165.895,1270.089,3165.346,1270.219,3164.805,1270.219z
					 M3146.867,1241.007c-1.066,0-2.116-0.506-2.77-1.449c-3.202-4.625-6.58-9.225-10.039-13.673
					c-1.14-1.467-0.875-3.58,0.592-4.722c1.461-1.139,3.579-0.877,4.722,0.592c3.534,4.544,6.986,9.245,10.259,13.972
					c1.058,1.528,0.677,3.625-0.851,4.683C3148.195,1240.813,3147.528,1241.007,3146.867,1241.007z M3125.828,1213.963
					c-0.94,0-1.875-0.391-2.54-1.155c-3.685-4.236-7.548-8.429-11.478-12.465c-1.296-1.333-1.268-3.462,0.063-4.758
					c1.331-1.298,3.463-1.268,4.758,0.063c4.019,4.127,7.967,8.414,11.734,12.741c1.219,1.403,1.073,3.527-0.329,4.748
					C3127.399,1213.69,3126.612,1213.963,3125.828,1213.963z M3101.928,1189.42c-0.813,0-1.63-0.294-2.276-0.887
					c-4.127-3.795-8.432-7.536-12.794-11.121c-1.436-1.18-1.643-3.299-0.463-4.735c1.181-1.438,3.302-1.645,4.735-0.463
					c4.458,3.662,8.857,7.487,13.077,11.365c1.369,1.259,1.457,3.386,0.2,4.755
					C3103.743,1189.053,3102.836,1189.42,3101.928,1189.42z M2706.808,1167.875c-1.035,0-2.055-0.475-2.716-1.374
					c-1.099-1.498-0.777-3.603,0.721-4.704c4.633-3.403,9.427-6.722,14.251-9.868c1.554-1.017,3.643-0.578,4.656,0.979
					c1.015,1.556,0.577,3.641-0.979,4.656c-4.72,3.079-9.411,6.329-13.946,9.657
					C2708.196,1167.663,2707.498,1167.875,2706.808,1167.875z M3075.452,1167.667c-0.69,0-1.386-0.212-1.986-0.651
					c-4.528-3.32-9.22-6.565-13.948-9.644c-1.557-1.015-1.996-3.099-0.982-4.656c1.017-1.557,3.102-1.996,4.656-0.983
					c4.83,3.146,9.625,6.464,14.253,9.855c1.499,1.099,1.822,3.205,0.725,4.704
					C3077.511,1167.19,3076.489,1167.667,3075.452,1167.667z M2735.522,1149.138c-1.163,0-2.295-0.603-2.918-1.684
					c-0.928-1.609-0.376-3.667,1.234-4.595c4.985-2.875,10.114-5.65,15.245-8.246c1.661-0.841,3.685-0.174,4.521,1.482
					c0.84,1.66,0.176,3.684-1.482,4.522c-5.024,2.542-10.044,5.258-14.923,8.072
					C2736.671,1148.994,2736.093,1149.138,2735.522,1149.138z M3046.733,1148.959c-0.57,0-1.147-0.145-1.676-0.449
					c-4.862-2.801-9.883-5.51-14.925-8.056c-1.66-0.836-2.327-2.86-1.489-4.518c0.836-1.658,2.864-2.328,4.518-1.489
					c5.154,2.599,10.285,5.368,15.254,8.23c1.61,0.928,2.164,2.985,1.237,4.595
					C3049.03,1148.355,3047.898,1148.959,3046.733,1148.959z M2766.114,1133.647c-1.293,0-2.527-0.751-3.082-2.011
					c-0.748-1.7,0.025-3.687,1.725-4.436c5.281-2.323,10.681-4.526,16.054-6.547c1.73-0.651,3.68,0.225,4.334,1.965
					c0.654,1.738-0.225,3.68-1.965,4.334c-5.258,1.978-10.543,4.134-15.712,6.409
					C2767.027,1133.555,2766.567,1133.647,2766.114,1133.647z M3016.132,1133.515c-0.45,0-0.909-0.092-1.347-0.284
					c-5.143-2.251-10.431-4.395-15.722-6.373c-1.74-0.651-2.624-2.588-1.973-4.329c0.651-1.742,2.599-2.627,4.329-1.973
					c5.406,2.019,10.811,4.211,16.065,6.511c1.702,0.746,2.478,2.729,1.732,4.433
					C3018.662,1132.761,3017.428,1133.515,3016.132,1133.515z M2798.206,1121.571c-1.429,0-2.755-0.92-3.207-2.356
					c-0.559-1.773,0.426-3.662,2.198-4.219c5.486-1.728,11.095-3.325,16.675-4.748c1.807-0.453,3.633,0.631,4.091,2.43
					c0.46,1.801-0.627,3.633-2.428,4.093c-5.46,1.392-10.949,2.954-16.317,4.643
					C2798.881,1121.52,2798.541,1121.571,2798.206,1121.571z M2984.02,1121.513c-0.333,0-0.672-0.051-1.007-0.154
					c-5.358-1.677-10.85-3.232-16.325-4.619c-1.801-0.455-2.892-2.287-2.435-4.088c0.455-1.802,2.274-2.9,4.088-2.435
					c5.593,1.416,11.205,3.003,16.683,4.717c1.773,0.555,2.76,2.443,2.207,4.218
					C2986.778,1120.59,2985.451,1121.513,2984.02,1121.513z M2831.429,1113.098c-1.576,0-2.982-1.111-3.297-2.716
					c-0.36-1.822,0.828-3.592,2.652-3.95c5.647-1.112,11.399-2.078,17.097-2.872c1.822-0.266,3.541,1.025,3.797,2.867
					c0.258,1.84-1.027,3.541-2.867,3.797c-5.575,0.777-11.204,1.724-16.729,2.809
					C2831.863,1113.078,2831.645,1113.098,2831.429,1113.098z M2950.78,1113.089c-0.214,0-0.432-0.02-0.649-0.063
					c-5.532-1.083-11.163-2.026-16.736-2.801c-1.84-0.255-3.125-1.955-2.869-3.795c0.256-1.842,1.955-3.132,3.795-2.869
					c5.695,0.792,11.448,1.755,17.1,2.86c1.825,0.356,3.013,2.124,2.657,3.948
					C2953.765,1111.977,2952.357,1113.089,2950.78,1113.089z M2916.814,1108.364c-0.094,0-0.187-0.003-0.282-0.012
					c-5.601-0.468-11.301-0.784-16.944-0.941c-1.858-0.051-3.322-1.599-3.27-3.457c0.051-1.857,1.526-3.399,3.457-3.27
					c5.767,0.159,11.593,0.483,17.316,0.961c1.852,0.154,3.229,1.781,3.074,3.633
					C2920.018,1107.035,2918.546,1108.364,2916.814,1108.364z M2865.388,1108.359c-1.733,0-3.204-1.329-3.35-3.086
					c-0.155-1.853,1.222-3.478,3.074-3.633c5.747-0.478,11.572-0.8,17.313-0.956c1.897-0.041,3.406,1.413,3.455,3.271
					c0.051,1.858-1.413,3.404-3.271,3.455c-5.616,0.154-11.315,0.47-16.938,0.936
					C2865.576,1108.356,2865.482,1108.359,2865.388,1108.359z"/>
				<path style="fill:#FFFFFF;" d="M3199.512,1461.093c-0.154,0-0.312-0.01-0.468-0.033c-1.842-0.256-3.125-1.955-2.869-3.795
					c0.381-2.744,0.728-5.493,1.035-8.25c0.204-1.847,1.868-3.179,3.717-2.971c1.847,0.205,3.177,1.87,2.97,3.717
					c-0.314,2.816-0.667,5.627-1.058,8.43C3202.606,1459.876,3201.163,1461.093,3199.512,1461.093z"/>
			</g>
			<g>
				
					<linearGradient id="SVGID_00000042738986960506732860000006370903724307866797_" gradientUnits="userSpaceOnUse" x1="2383.8423" y1="1357.2089" x2="2217.2847" y2="2169.8091" gradientTransform="matrix(0.9855 -0.1695 0.1695 0.9855 325.7162 -30.9683)">
					<stop  offset="0" style="stop-color:#A737D5"/>
					<stop  offset="1" style="stop-color:#EF497A"/>
				</linearGradient>
				<path style="fill:url(#SVGID_00000042738986960506732860000006370903724307866797_);" d="M3158.76,1487.358
					c0.668-1.721,0.172-3.677-1.237-4.871l-40.208-34.046c3.445-24.362,3.031-49.45-1.621-74.339l38.635-35.771
					c1.356-1.255,1.765-3.231,1.021-4.921l-25.471-57.836c-0.745-1.69-2.48-2.721-4.319-2.569l-52.472,4.354
					c-15.222-20.235-33.448-37.477-53.748-51.382l2.028-52.648c0.071-1.845-1.037-3.532-2.758-4.201l-58.907-22.885
					c-1.722-0.669-3.678-0.172-4.871,1.238l-34.046,40.208c-24.362-3.445-49.449-3.03-74.339,1.622l-35.771-38.636
					c-1.255-1.355-3.23-1.765-4.921-1.021l-57.837,25.472c-1.69,0.744-2.722,2.479-2.569,4.32l4.354,52.472
					c-20.235,15.222-37.478,33.448-51.382,53.747l-52.649-2.028c-1.844-0.071-3.532,1.037-4.2,2.758l-22.885,58.907
					c-0.67,1.722-0.172,3.678,1.238,4.871l40.208,34.046c-3.446,24.362-3.031,49.45,1.621,74.339l-38.637,35.771
					c-1.355,1.255-1.765,3.23-1.021,4.921l25.472,57.837c0.744,1.69,2.479,2.722,4.319,2.568l52.472-4.354
					c15.221,20.235,33.449,37.478,53.748,51.383l-2.028,52.647c-0.072,1.846,1.037,3.533,2.758,4.202l58.907,22.885
					c1.721,0.669,3.677,0.172,4.871-1.237l34.046-40.208c24.362,3.446,49.449,3.03,74.339-1.622l35.771,38.636
					c1.253,1.355,3.23,1.765,4.921,1.02l57.835-25.471c1.69-0.744,2.722-2.479,2.57-4.319l-4.354-52.472
					c20.234-15.222,37.476-33.448,51.382-53.747l52.647,2.027c1.845,0.071,3.532-1.036,4.202-2.758L3158.76,1487.358z"/>
				<path style="opacity:0.56;fill:#FFFFFF;" d="M2888.739,1475.785c-17.721,0-35.264-7.862-46.977-22.889
					c-9.768-12.53-14.071-28.113-12.117-43.881c1.953-15.768,9.93-29.83,22.461-39.596c12.53-9.768,28.122-14.066,43.88-12.119
					c15.768,1.953,29.83,9.93,39.598,22.461c20.164,25.867,15.525,63.316-10.343,83.479
					C2914.401,1471.69,2901.523,1475.785,2888.739,1475.785z M2888.566,1363.571c-11.682,0-22.963,3.858-32.323,11.154
					c-11.113,8.662-18.186,21.134-19.92,35.118c-1.733,13.984,2.083,27.804,10.745,38.916c17.879,22.938,51.092,27.055,74.035,9.174
					c22.939-17.882,27.055-51.094,9.173-74.035c-8.664-11.113-21.134-18.186-35.117-19.92
					C2892.955,1363.706,2890.753,1363.571,2888.566,1363.571z"/>
				<path style="opacity:0.56;fill:#FFFFFF;" d="M2887.608,1571.8c-59.938,0.002-117.192-34.753-142.859-93.035
					c-8.866-20.128-13.308-41.445-13.305-62.797c0.003-19.064,3.552-38.157,10.661-56.462
					c15.076-38.804,44.361-69.417,82.462-86.195c38.096-16.78,80.449-17.717,119.255-2.642
					c38.806,15.076,69.418,44.361,86.197,82.46c4.484,10.177,7.88,20.812,10.096,31.608c0.048,0.228,0.069,0.455,0.069,0.679
					c0.001,1.564-1.096,2.967-2.688,3.294c-1.83,0.38-3.6-0.8-3.973-2.619c-2.121-10.33-5.373-20.508-9.662-30.249
					c-16.055-36.455-45.345-64.476-82.475-78.9c-37.127-14.424-77.655-13.525-114.108,2.527
					c-36.455,16.055-64.475,45.345-78.9,82.475c-6.804,17.513-10.198,35.781-10.201,54.022c-0.003,20.431,4.249,40.827,12.73,60.088
					c33.144,75.253,121.327,109.512,196.583,76.371c24.742-10.896,46.029-28.258,61.558-50.205c1.073-1.516,3.174-1.875,4.691-0.803
					c0.927,0.657,1.423,1.696,1.421,2.752c0,0.672-0.2,1.349-0.618,1.939c-16.235,22.943-38.482,41.088-64.342,52.476
					C2929.835,1567.554,2908.555,1571.8,2887.608,1571.8z"/>
			</g>
		</g>
		<g>
			<g style="opacity:0.64;">
				<path style="fill:#FFFFFF;" d="M2658.104,1251.622c-0.882,0-1.763-0.345-2.423-1.03c-1.29-1.339-1.249-3.468,0.089-4.758
					c1.995-1.922,3.95-3.874,5.871-5.856c1.295-1.337,3.424-1.365,4.758-0.076c1.334,1.293,1.369,3.424,0.076,4.758
					c-1.973,2.037-3.984,4.045-6.035,6.02C2659.787,1251.31,2658.946,1251.622,2658.104,1251.622z"/>
				<path style="fill:#FFFFFF;" d="M2485.552,1321.346c-4.546,0-9.165-0.126-13.729-0.376c-1.855-0.102-3.278-1.689-3.176-3.544
					c0.102-1.855,1.712-3.291,3.544-3.176c5.586,0.307,11.212,0.424,16.788,0.342c1.921-0.033,3.386,1.459,3.412,3.317
					s-1.459,3.386-3.317,3.413C2487.898,1321.338,2486.725,1321.346,2485.552,1321.346z M2506.023,1320.498
					c-1.733,0-3.204-1.329-3.35-3.085c-0.155-1.853,1.222-3.478,3.074-3.633c5.555-0.462,11.164-1.124,16.673-1.967
					c1.817-0.273,3.554,0.978,3.835,2.816c0.282,1.837-0.979,3.554-2.816,3.835c-5.662,0.867-11.427,1.548-17.133,2.022
					C2506.211,1320.495,2506.115,1320.498,2506.023,1320.498z M2455.063,1319.465c-0.138,0-0.278-0.008-0.419-0.026
					c-5.688-0.703-11.419-1.613-17.033-2.699c-1.824-0.355-3.017-2.119-2.663-3.945c0.353-1.822,2.115-3.007,3.945-2.663
					c5.463,1.06,11.041,1.944,16.58,2.63c1.843,0.228,3.155,1.908,2.924,3.753
					C2458.186,1318.218,2456.735,1319.465,2455.063,1319.465z M2539.652,1315.349c-1.54,0-2.928-1.063-3.28-2.627
					c-0.407-1.814,0.733-3.613,2.545-4.02c5.442-1.222,10.908-2.649,16.248-4.241c1.773-0.531,3.654,0.483,4.186,2.264
					c0.531,1.781-0.483,3.656-2.264,4.186c-5.488,1.635-11.104,3.1-16.695,4.356
					C2540.145,1315.323,2539.897,1315.349,2539.652,1315.349z M2421.667,1312.995c-0.286,0-0.575-0.038-0.865-0.113
					c-5.53-1.469-11.083-3.146-16.509-4.991c-1.76-0.598-2.701-2.509-2.103-4.268c0.598-1.76,2.51-2.703,4.269-2.103
					c5.281,1.796,10.686,3.429,16.069,4.858c1.797,0.476,2.867,2.318,2.389,4.114
					C2424.518,1311.997,2423.156,1312.995,2421.667,1312.995z M2572.262,1305.636c-1.364,0-2.647-0.836-3.151-2.188
					c-0.651-1.74,0.232-3.679,1.973-4.329c5.195-1.942,10.417-4.101,15.52-6.414c1.696-0.771,3.687-0.02,4.454,1.674
					c0.767,1.692,0.018,3.687-1.674,4.454c-5.241,2.377-10.605,4.594-15.944,6.588
					C2573.053,1305.567,2572.654,1305.636,2572.262,1305.636z M2389.456,1302.054c-0.432,0-0.871-0.084-1.295-0.261
					c-5.279-2.205-10.555-4.622-15.681-7.183c-1.661-0.831-2.336-2.852-1.505-4.515c0.832-1.658,2.851-2.336,4.515-1.505
					c4.99,2.494,10.126,4.847,15.263,6.993c1.715,0.716,2.525,2.686,1.809,4.402
					C2392.024,1301.275,2390.773,1302.054,2389.456,1302.054z M2603.256,1291.588c-1.199,0-2.361-0.642-2.967-1.773
					c-0.879-1.636-0.264-3.677,1.372-4.556c4.914-2.639,9.796-5.479,14.513-8.442c1.574-0.989,3.651-0.516,4.638,1.06
					c0.989,1.572,0.514,3.651-1.06,4.638c-4.844,3.044-9.86,5.961-14.907,8.672
					C2604.339,1291.46,2603.793,1291.588,2603.256,1291.588z M2359.031,1286.838c-0.58,0-1.168-0.15-1.704-0.465
					c-4.944-2.91-9.842-6.022-14.557-9.25c-1.533-1.05-1.926-3.145-0.876-4.677c1.052-1.531,3.146-1.922,4.678-0.876
					c4.591,3.143,9.357,6.171,14.169,9.004c1.602,0.943,2.136,3.005,1.193,4.607
					C2361.306,1286.245,2360.184,1286.838,2359.031,1286.838z M2632.058,1273.489c-1.04,0-2.065-0.48-2.724-1.385
					c-1.093-1.502-0.762-3.606,0.741-4.701c4.505-3.279,8.953-6.759,13.219-10.341c1.425-1.193,3.547-1.007,4.742,0.414
					c1.195,1.425,1.009,3.547-0.414,4.742c-4.387,3.68-8.958,7.255-13.588,10.627
					C2633.438,1273.28,2632.745,1273.489,2632.058,1273.489z M2330.969,1267.627c-0.731,0-1.467-0.237-2.085-0.725
					c-4.495-3.552-8.92-7.305-13.156-11.154c-1.375-1.249-1.475-3.378-0.225-4.753c1.25-1.37,3.376-1.475,4.753-0.225
					c4.119,3.744,8.427,7.397,12.801,10.852c1.457,1.152,1.706,3.268,0.554,4.727
					C2332.947,1267.188,2331.962,1267.627,2330.969,1267.627z M2305.799,1244.753c-0.885,0-1.768-0.347-2.43-1.037
					c-3.965-4.137-7.832-8.461-11.496-12.853c-1.19-1.428-0.997-3.549,0.429-4.74c1.425-1.186,3.549-0.997,4.74,0.429
					c3.564,4.273,7.328,8.483,11.187,12.508c1.285,1.341,1.24,3.472-0.102,4.756
					C2307.475,1244.442,2306.637,1244.753,2305.799,1244.753z M2284.018,1218.637c-1.043,0-2.07-0.483-2.729-1.392
					c-3.348-4.625-6.587-9.439-9.625-14.311c-0.984-1.576-0.504-3.652,1.073-4.635c1.574-0.986,3.652-0.506,4.635,1.073
					c2.959,4.74,6.11,9.426,9.368,13.926c1.089,1.505,0.752,3.61-0.752,4.699C2285.392,1218.43,2284.701,1218.637,2284.018,1218.637
					z M2266.011,1189.788c-1.203,0-2.366-0.646-2.972-1.781c-1.737-3.256-3.421-6.587-5.006-9.896
					c-0.89-1.86-1.755-3.723-2.594-5.591c-0.762-1.696-0.005-3.687,1.691-4.448c1.689-0.766,3.685-0.006,4.448,1.691
					c0.816,1.819,1.661,3.633,2.525,5.442c1.543,3.222,3.184,6.464,4.875,9.635c0.874,1.64,0.255,3.679-1.385,4.553
					C2267.087,1189.661,2266.545,1189.788,2266.011,1189.788z M2252.052,1158.76c-1.367,0-2.652-0.84-3.155-2.197
					c-1.996-5.384-3.826-10.891-5.442-16.373c-0.526-1.783,0.493-3.654,2.276-4.178c1.774-0.527,3.654,0.491,4.178,2.276
					c1.572,5.333,3.355,10.696,5.297,15.936c0.646,1.743-0.243,3.679-1.985,4.324
					C2252.835,1158.691,2252.441,1158.76,2252.052,1158.76z M2242.43,1126.122c-1.543,0-2.934-1.068-3.283-2.637
					c-1.237-5.593-2.295-11.299-3.145-16.962c-0.276-1.839,0.991-3.552,2.828-3.827c1.829-0.286,3.551,0.991,3.827,2.828
					c0.826,5.511,1.856,11.064,3.063,16.505c0.401,1.815-0.744,3.611-2.558,4.014
					C2242.917,1126.097,2242.672,1126.122,2242.43,1126.122z M2237.385,1092.476c-1.737,0-3.21-1.336-3.352-3.097
					c-0.455-5.706-0.718-11.504-0.782-17.232c-0.02-1.858,1.469-3.381,3.327-3.403c0.013,0,0.026,0,0.038,0
					c1.842,0,3.344,1.482,3.365,3.327c0.061,5.575,0.317,11.217,0.762,16.772c0.148,1.852-1.234,3.473-3.087,3.621
					C2237.565,1092.473,2237.473,1092.476,2237.385,1092.476z"/>
				<path style="fill:#FFFFFF;" d="M2237.022,1058.354c-0.066,0-0.132-0.002-0.199-0.005c-1.855-0.109-3.271-1.701-3.165-3.556
					c0.166-2.838,0.378-5.67,0.639-8.494c0.169-1.85,1.82-3.201,3.657-3.043c1.852,0.169,3.214,1.807,3.043,3.657
					c-0.251,2.752-0.46,5.509-0.619,8.271C2240.273,1056.974,2238.791,1058.354,2237.022,1058.354z"/>
			</g>
			<g style="opacity:0.64;">
				<path style="fill:#FFFFFF;" d="M2321.97,884.979c-0.94,0-1.875-0.391-2.54-1.155c-1.219-1.401-1.073-3.528,0.329-4.748
					c2.139-1.862,4.314-3.69,6.524-5.486c1.438-1.168,3.561-0.954,4.734,0.491c1.171,1.443,0.951,3.56-0.491,4.733
					c-2.151,1.747-4.267,3.526-6.347,5.338C2323.54,884.706,2322.753,884.979,2321.97,884.979z"/>
				<path style="fill:#FFFFFF;" d="M2733.99,1081.473c-0.041,0-0.082,0-0.125-0.002c-1.857-0.069-3.307-1.628-3.24-3.487
					c0.108-2.98,0.164-5.966,0.164-8.954c0-2.52-0.04-5.042-0.117-7.566c-0.058-1.857,1.401-3.409,3.26-3.467
					c1.807-0.132,3.409,1.401,3.467,3.26c0.081,2.593,0.12,5.184,0.12,7.773c0,3.071-0.056,6.138-0.168,9.201
					C2737.284,1080.047,2735.792,1081.473,2733.99,1081.473z M2732.946,1048.013c-1.71,0-3.173-1.296-3.345-3.033
					c-0.541-5.458-1.277-10.967-2.187-16.376c-0.307-1.834,0.928-3.569,2.76-3.878c1.842-0.31,3.567,0.93,3.877,2.76
					c0.935,5.558,1.691,11.22,2.246,16.829c0.184,1.85-1.167,3.496-3.016,3.68
					C2733.168,1048.009,2733.056,1048.013,2732.946,1048.013z M2727.391,1014.999c-1.521,0-2.9-1.038-3.27-2.583
					c-1.275-5.336-2.749-10.698-4.38-15.932c-0.554-1.773,0.437-3.661,2.211-4.213c1.766-0.552,3.661,0.435,4.213,2.211
					c1.677,5.378,3.191,10.885,4.502,16.369c0.432,1.807-0.684,3.623-2.491,4.055
					C2727.914,1014.969,2727.651,1014.999,2727.391,1014.999z M2717.436,983.034c-1.349,0-2.621-0.818-3.138-2.151
					c-1.976-5.107-4.155-10.223-6.477-15.208c-0.784-1.684-0.054-3.685,1.631-4.471c1.678-0.782,3.684-0.056,4.471,1.631
					c2.382,5.118,4.62,10.372,6.651,15.615c0.67,1.733-0.191,3.682-1.922,4.354C2718.253,982.961,2717.841,983.034,2717.436,983.034
					z M2703.306,952.678c-1.188,0-2.341-0.631-2.952-1.745c-2.644-4.816-5.479-9.595-8.428-14.207
					c-1.002-1.564-0.544-3.646,1.022-4.646c1.559-1.004,3.642-0.547,4.646,1.022c3.03,4.737,5.943,9.646,8.659,14.591
					c0.896,1.63,0.299,3.675-1.329,4.569C2704.409,952.545,2703.854,952.678,2703.306,952.678z M2685.27,924.484
					c-1.032,0-2.049-0.471-2.709-1.365c-3.266-4.42-6.718-8.774-10.26-12.94c-1.203-1.416-1.03-3.539,0.386-4.743
					c1.415-1.201,3.538-1.032,4.743,0.386c3.638,4.282,7.187,8.756,10.543,13.298c1.104,1.493,0.789,3.602-0.707,4.706
					C2686.665,924.271,2685.965,924.484,2685.27,924.484z M2663.597,898.98c-0.876,0-1.751-0.34-2.412-1.019
					c-3.812-3.915-7.821-7.762-11.913-11.432c-1.383-1.24-1.5-3.368-0.26-4.752c1.24-1.383,3.366-1.498,4.751-0.26
					c4.206,3.771,8.327,7.725,12.245,11.749c1.295,1.332,1.267,3.463-0.066,4.76C2665.289,898.663,2664.443,898.98,2663.597,898.98z
					 M2638.679,876.642c-0.725,0-1.454-0.233-2.07-0.713c-4.311-3.368-8.803-6.639-13.351-9.723
					c-1.538-1.043-1.94-3.135-0.897-4.673c1.043-1.536,3.135-1.942,4.673-0.897c4.673,3.168,9.288,6.528,13.719,9.99
					c1.464,1.143,1.723,3.258,0.58,4.724C2640.669,876.198,2639.678,876.642,2638.679,876.642z M2341.758,869.459
					c-1.056,0-2.096-0.496-2.752-1.424c-1.071-1.52-0.71-3.618,0.808-4.689c4.597-3.243,9.372-6.376,14.192-9.311
					c1.585-0.969,3.657-0.467,4.623,1.124c0.966,1.587,0.463,3.657-1.124,4.623c-4.692,2.857-9.339,5.907-13.811,9.061
					C2343.105,869.26,2342.428,869.459,2341.758,869.459z M2610.972,857.863c-0.577,0-1.16-0.148-1.694-0.458
					c-4.729-2.762-9.62-5.401-14.537-7.845c-1.663-0.826-2.341-2.847-1.515-4.512c0.826-1.664,2.843-2.346,4.512-1.515
					c5.051,2.51,10.076,5.223,14.935,8.059c1.604,0.938,2.146,2.999,1.209,4.604
					C2613.255,857.266,2612.128,857.863,2610.972,857.863z M2370.346,852.046c-1.216,0-2.387-0.659-2.987-1.811
					c-0.859-1.648-0.219-3.68,1.429-4.538c2.529-1.318,5.09-2.598,7.681-3.84c2.532-1.212,5.072-2.379,7.622-3.5
					c1.705-0.748,3.69,0.028,4.434,1.727c0.748,1.702-0.026,3.687-1.727,4.434c-2.484,1.091-4.958,2.228-7.421,3.408
					c-2.525,1.209-5.018,2.456-7.48,3.738C2371.401,851.925,2370.869,852.046,2370.346,852.046z M2581.002,842.966
					c-0.43,0-0.869-0.084-1.292-0.26c-5.052-2.103-10.254-4.066-15.457-5.834c-1.76-0.598-2.701-2.509-2.103-4.268
					c0.598-1.758,2.5-2.701,4.269-2.103c5.345,1.816,10.688,3.831,15.878,5.992c1.715,0.715,2.527,2.685,1.814,4.4
					C2583.571,842.185,2582.321,842.966,2581.002,842.966z M2400.998,838.58c-1.377,0-2.668-0.851-3.164-2.221
					c-0.633-1.747,0.271-3.677,2.019-4.31c5.304-1.919,10.735-3.682,16.147-5.238c1.786-0.521,3.651,0.518,4.163,2.303
					c0.514,1.786-0.518,3.651-2.303,4.163c-5.268,1.515-10.555,3.23-15.717,5.1C2401.765,838.515,2401.379,838.58,2400.998,838.58z
					 M2549.308,832.201c-0.286,0-0.577-0.038-0.867-0.115c-5.303-1.411-10.719-2.663-16.098-3.716
					c-1.824-0.358-3.011-2.126-2.655-3.95c0.358-1.824,2.118-3.013,3.95-2.655c5.525,1.083,11.089,2.368,16.535,3.818
					c1.796,0.478,2.864,2.322,2.386,4.117C2552.157,831.205,2550.797,832.201,2549.308,832.201z M2433.173,829.329
					c-1.551,0-2.946-1.078-3.286-2.657c-0.391-1.816,0.764-3.606,2.581-3.997c5.509-1.188,11.131-2.2,16.708-3.012
					c1.847-0.258,3.546,1.007,3.815,2.846c0.266,1.84-1.007,3.547-2.845,3.815c-5.428,0.789-10.898,1.775-16.261,2.93
					C2433.646,829.304,2433.408,829.329,2433.173,829.329z M2516.463,825.768c-0.141,0-0.284-0.008-0.429-0.026
					c-5.45-0.692-10.985-1.206-16.448-1.528c-1.855-0.108-3.271-1.701-3.161-3.555c0.108-1.855,1.715-3.327,3.555-3.161
					c5.614,0.33,11.301,0.858,16.902,1.568c1.843,0.235,3.148,1.919,2.915,3.762C2519.58,824.526,2518.132,825.768,2516.463,825.768
					z M2466.301,824.513c-1.741,0-3.217-1.342-3.352-3.109c-0.141-1.853,1.245-3.47,3.099-3.611
					c5.614-0.43,11.32-0.674,16.957-0.723c0.01,0,0.02,0,0.03,0c1.845,0,3.349,1.487,3.365,3.335
					c0.016,1.858-1.477,3.378-3.335,3.394c-5.486,0.048-11.039,0.286-16.504,0.703
					C2466.473,824.51,2466.386,824.513,2466.301,824.513z"/>
				<path style="fill:#FFFFFF;" d="M2731.788,1106.616c-0.154,0-0.312-0.01-0.468-0.033c-1.842-0.256-3.125-1.955-2.869-3.795
					c0.38-2.737,0.716-5.481,1.004-8.232c0.194-1.848,1.817-3.184,3.698-2.995c1.848,0.194,3.189,1.85,2.995,3.698
					c-0.297,2.826-0.641,5.645-1.033,8.455C2734.882,1105.399,2733.439,1106.616,2731.788,1106.616z"/>
			</g>
			<g>
				
					<linearGradient id="SVGID_00000114788984611675698270000002127776657650069909_" gradientUnits="userSpaceOnUse" x1="2021.9827" y1="1052.578" x2="1890.7552" y2="1688.5258" gradientTransform="matrix(0.9855 -0.1695 0.1695 0.9855 325.7162 -30.9683)">
					<stop  offset="0" style="stop-color:#A737D5"/>
					<stop  offset="1" style="stop-color:#EF497A"/>
				</linearGradient>
				<path style="fill:url(#SVGID_00000114788984611675698270000002127776657650069909_);" d="M2699.211,1126.937
					c0.534-1.376,0.137-2.94-0.989-3.894l-32.142-27.216c2.754-19.475,2.423-39.53-1.296-59.427l30.885-28.595
					c1.084-1.003,1.411-2.583,0.816-3.934l-20.362-46.234c-0.596-1.351-1.982-2.176-3.453-2.054l-41.946,3.481
					c-12.169-16.176-26.739-29.959-42.966-41.075l1.621-42.086c0.056-1.475-0.829-2.824-2.205-3.358l-47.09-18.294
					c-1.377-0.535-2.941-0.137-3.894,0.989l-27.216,32.142c-19.475-2.754-39.53-2.422-59.426,1.296l-28.595-30.886
					c-1.003-1.083-2.583-1.411-3.934-0.816l-46.234,20.362c-1.351,0.595-2.176,1.982-2.054,3.453l3.481,41.946
					c-16.176,12.168-29.959,26.738-41.074,42.965l-42.087-1.621c-1.474-0.057-2.823,0.829-3.358,2.204l-18.294,47.09
					c-0.536,1.376-0.137,2.94,0.989,3.894l32.142,27.216c-2.755,19.475-2.423,39.53,1.296,59.427l-30.886,28.595
					c-1.083,1.003-1.411,2.582-0.816,3.933l20.362,46.235c0.595,1.351,1.982,2.176,3.453,2.053l41.946-3.481
					c12.168,16.176,26.739,29.959,42.966,41.075l-1.621,42.086c-0.058,1.475,0.829,2.824,2.205,3.359l47.09,18.294
					c1.376,0.534,2.939,0.137,3.894-0.989l27.216-32.142c19.475,2.754,39.53,2.422,59.427-1.296l28.595,30.886
					c1.002,1.083,2.582,1.411,3.934,0.815l46.233-20.361c1.351-0.595,2.176-1.981,2.054-3.453l-3.48-41.946
					c16.175-12.168,29.958-26.739,41.074-42.965l42.086,1.62c1.475,0.057,2.823-0.828,3.359-2.205L2699.211,1126.937z"/>
				<path style="opacity:0.56;fill:#FFFFFF;" d="M2483.357,1118.36c-14.366,0.002-28.588-6.373-38.085-18.556
					c-7.919-10.159-11.409-22.795-9.825-35.578c1.584-12.783,8.052-24.185,18.211-32.103c10.159-7.921,22.797-11.411,35.576-9.825
					c12.782,1.584,24.185,8.052,32.103,18.211l0,0c16.348,20.97,12.587,51.331-8.384,67.68
					C2504.164,1115.041,2493.721,1118.36,2483.357,1118.36z M2483.22,1028.657c-9.189,0-18.062,3.035-25.425,8.774
					c-18.045,14.066-21.282,40.189-7.216,58.236c14.064,18.042,40.191,21.282,58.236,7.216c18.045-14.067,21.28-40.193,7.215-58.236
					l0,0c-6.813-8.741-16.624-14.306-27.624-15.669C2486.672,1028.764,2484.94,1028.657,2483.22,1028.657z"/>
				<path style="opacity:0.56;fill:#FFFFFF;" d="M2482.455,1195.115c-48.174,0.002-94.192-27.933-114.821-74.775
					c-7.211-16.374-10.624-33.476-10.622-50.317c0.003-48.169,27.936-94.183,74.775-114.811
					c63.213-27.837,137.291,0.938,165.128,64.153c0.979,2.221,1.893,4.469,2.74,6.74c1.842,4.931,3.372,9.965,4.577,15.053
					c0.011,0.049,0.023,0.1,0.035,0.149c0.038,0.158,0.074,0.316,0.11,0.473c0.23,0.994,0.447,1.99,0.652,2.987
					c0.048,0.228,0.069,0.455,0.069,0.679c0.002,1.564-1.096,2.967-2.688,3.294c-1.822,0.381-3.598-0.798-3.973-2.619
					c-1.686-8.207-4.27-16.297-7.681-24.045l0,0c-21.727-49.331-73.222-76.5-124.152-69.732c-10.826,1.438-21.622,4.41-32.107,9.027
					c-44.322,19.52-70.752,63.062-70.756,108.645c-0.002,15.934,3.227,32.119,10.05,47.614
					c26.345,59.815,96.444,87.044,156.259,60.705c19.668-8.663,36.588-22.463,48.93-39.905c1.073-1.516,3.174-1.875,4.691-0.803
					c0.927,0.657,1.423,1.697,1.421,2.752c0,0.672-0.2,1.349-0.618,1.939c-13.047,18.438-30.93,33.021-51.712,42.176
					C2516.392,1191.702,2499.29,1195.115,2482.455,1195.115z"/>
			</g>
		</g>
	</g>
</g>
</svg>
