<svg xmlns="http://www.w3.org/2000/svg" xmlns:xlink="http://www.w3.org/1999/xlink" width="500" zoomAndPan="magnify" viewBox="0 0 375 374.999991" height="500" preserveAspectRatio="xMidYMid meet" version="1.0"><defs><g/><clipPath id="dd1429b946"><path d="M 37.5 179.445312 L 70 179.445312 L 70 195.699219 L 37.5 195.699219 Z M 37.5 179.445312 " clip-rule="nonzero"/></clipPath><clipPath id="a2a1f1ee6f"><path d="M 70 187.539062 C 70 192.011719 66.378906 195.636719 61.90625 195.636719 L 45.730469 195.636719 C 41.265625 195.636719 37.566406 192.0625 37.535156 187.601562 C 37.5 183.101562 41.136719 179.445312 45.628906 179.445312 L 61.90625 179.445312 C 66.375 179.445312 70 183.070312 70 187.539062 " clip-rule="nonzero"/></clipPath><clipPath id="93add4afc3"><path d="M 51 145 L 70 145 L 70 174.820312 L 51 174.820312 Z M 51 145 " clip-rule="nonzero"/></clipPath><clipPath id="6a5fb3062a"><path d="M 70 158.023438 L 70 174.703125 L 54.15625 158.855469 C 50.996094 155.695312 50.996094 150.570312 54.15625 147.410156 C 57.316406 144.246094 62.441406 144.246094 65.601562 147.40625 C 68.417969 150.222656 70 154.042969 70 158.023438 " clip-rule="nonzero"/></clipPath><clipPath id="b95104cdaf"><path d="M 51 200.375 L 70 200.375 L 70 230.832031 L 51 230.832031 Z M 51 200.375 " clip-rule="nonzero"/></clipPath><clipPath id="f3dd9dca4e"><path d="M 70 200.375 L 70 217.054688 C 70 221.035156 68.417969 224.855469 65.601562 227.671875 C 62.441406 230.832031 57.320312 230.832031 54.15625 227.667969 C 50.988281 224.507812 50.996094 219.382812 54.15625 216.222656 Z M 70 200.375 " clip-rule="nonzero"/></clipPath><clipPath id="0decfff417"><path d="M 86.191406 130.75 L 102.515625 130.75 L 102.515625 161.394531 L 86.191406 161.394531 Z M 86.191406 130.75 " clip-rule="nonzero"/></clipPath><clipPath id="5f0284314d"><path d="M 102.382812 138.984375 C 102.382812 142.898438 100.828125 146.652344 98.058594 149.421875 L 86.191406 161.289062 L 86.191406 138.878906 C 86.191406 134.386719 89.851562 130.75 94.351562 130.785156 C 98.8125 130.820312 102.382812 134.519531 102.382812 138.984375 " clip-rule="nonzero"/></clipPath><clipPath id="74f597a8e4"><path d="M 86.191406 213.605469 L 102.515625 213.605469 L 102.515625 244.25 L 86.191406 244.25 Z M 86.191406 213.605469 " clip-rule="nonzero"/></clipPath><clipPath id="535e619ab0"><path d="M 97.984375 225.578125 C 100.800781 228.394531 102.382812 232.214844 102.382812 236.199219 C 102.382812 240.359375 99.238281 243.785156 95.199219 244.242188 C 95.199219 244.242188 95.195312 244.242188 95.195312 244.242188 C 94.890625 244.246094 94.589844 244.246094 94.285156 244.246094 C 93.984375 244.246094 93.683594 244.246094 93.378906 244.242188 C 93.375 244.242188 93.375 244.242188 93.375 244.242188 C 89.332031 243.789062 86.191406 240.359375 86.191406 236.199219 L 86.191406 213.785156 Z M 97.984375 225.578125 " clip-rule="nonzero"/></clipPath><clipPath id="4cff92a787"><path d="M 86.191406 145 L 151.273438 145 L 151.273438 230.855469 L 86.191406 230.855469 Z M 86.191406 145 " clip-rule="nonzero"/></clipPath><clipPath id="40fb72f94b"><path d="M 151.027344 187.113281 C 151.273438 191.765625 147.46875 195.632812 142.804688 195.632812 L 113.902344 195.632812 C 113.875 195.632812 113.863281 195.667969 113.878906 195.683594 L 134.421875 216.222656 C 137.582031 219.382812 137.582031 224.507812 134.417969 227.671875 C 131.273438 230.816406 126.183594 230.832031 123.019531 227.722656 C 123 227.703125 122.984375 227.6875 122.96875 227.671875 C 122.949219 227.652344 122.933594 227.636719 122.917969 227.621094 L 102.382812 207.082031 L 94.289062 198.988281 L 94.285156 198.988281 L 90.9375 195.632812 L 90.933594 195.632812 L 88.5625 193.261719 C 87.042969 191.742188 86.191406 189.6875 86.191406 187.539062 C 86.191406 185.390625 87.042969 183.335938 88.5625 181.816406 L 90.933594 179.445312 L 94.285156 176.089844 L 102.382812 167.996094 L 122.921875 147.457031 L 122.972656 147.410156 L 123.023438 147.359375 C 126.1875 144.246094 131.273438 144.265625 134.421875 147.410156 C 137.582031 150.570312 137.582031 155.699219 134.421875 158.859375 L 113.882812 179.398438 C 113.863281 179.417969 113.878906 179.449219 113.902344 179.449219 L 142.945312 179.449219 C 147.273438 179.449219 150.804688 182.84375 151.027344 187.117188 " clip-rule="nonzero"/></clipPath><clipPath id="e339e9a2fe"><path d="M 325.820312 201.011719 L 337.5 201.011719 L 337.5 212.691406 L 325.820312 212.691406 Z M 325.820312 201.011719 " clip-rule="nonzero"/></clipPath><clipPath id="44c549225c"><path d="M 331.660156 201.011719 C 328.433594 201.011719 325.820312 203.625 325.820312 206.851562 C 325.820312 210.078125 328.433594 212.691406 331.660156 212.691406 C 334.886719 212.691406 337.5 210.078125 337.5 206.851562 C 337.5 203.625 334.886719 201.011719 331.660156 201.011719 Z M 331.660156 201.011719 " clip-rule="nonzero"/></clipPath></defs><g clip-path="url(#dd1429b946)"><g clip-path="url(#a2a1f1ee6f)"><path fill="#481c4b" d="M 37.5 179.445312 L 70 179.445312 L 70 195.636719 L 37.5 195.636719 Z M 37.5 179.445312 " fill-opacity="1" fill-rule="nonzero"/></g></g><g clip-path="url(#93add4afc3)"><g clip-path="url(#6a5fb3062a)"><path fill="#2dcf42" d="M 50.996094 144.246094 L 70 144.246094 L 70 174.703125 L 50.996094 174.703125 Z M 50.996094 144.246094 " fill-opacity="1" fill-rule="nonzero"/></g></g><g clip-path="url(#b95104cdaf)"><g clip-path="url(#f3dd9dca4e)"><path fill="#efd109" d="M 50.996094 200.375 L 70 200.375 L 70 230.832031 L 50.996094 230.832031 Z M 50.996094 200.375 " fill-opacity="1" fill-rule="nonzero"/></g></g><g clip-path="url(#0decfff417)"><g clip-path="url(#5f0284314d)"><path fill="#e01d5b" d="M 85.054688 129.617188 L 152.40625 129.617188 L 152.40625 245.382812 L 85.054688 245.382812 Z M 85.054688 129.617188 " fill-opacity="1" fill-rule="nonzero"/></g></g><g clip-path="url(#74f597a8e4)"><g clip-path="url(#535e619ab0)"><path fill="#2bb1eb" d="M 85.054688 129.617188 L 152.40625 129.617188 L 152.40625 245.382812 L 85.054688 245.382812 Z M 85.054688 129.617188 " fill-opacity="1" fill-rule="nonzero"/></g></g><g clip-path="url(#4cff92a787)"><g clip-path="url(#40fb72f94b)"><path fill="#481c4b" d="M 85.054688 129.617188 L 152.40625 129.617188 L 152.40625 245.382812 L 85.054688 245.382812 Z M 85.054688 129.617188 " fill-opacity="1" fill-rule="nonzero"/></g></g><g fill="#481c4b" fill-opacity="1"><g transform="translate(167.564187, 211.078131)"><g><path d="M 24.203125 -37.03125 L 24.203125 0 L 14.203125 0 L 14.203125 -37.03125 L 1.78125 -37.03125 L 1.78125 -45.90625 L 36.625 -45.90625 L 36.625 -37.03125 Z M 24.203125 -37.03125 "/></g></g></g><g fill="#481c4b" fill-opacity="1"><g transform="translate(205.968577, 211.078131)"><g><path d="M 18.9375 0.796875 C 16.3125 0.796875 13.96875 0.367188 11.90625 -0.484375 C 9.84375 -1.347656 8.097656 -2.554688 6.671875 -4.109375 C 5.242188 -5.660156 4.171875 -7.554688 3.453125 -9.796875 C 2.734375 -12.035156 2.375 -14.535156 2.375 -17.296875 C 2.375 -20.015625 2.722656 -22.476562 3.421875 -24.6875 C 4.117188 -26.90625 5.15625 -28.800781 6.53125 -30.375 C 7.914062 -31.957031 9.617188 -33.175781 11.640625 -34.03125 C 13.660156 -34.882812 15.960938 -35.3125 18.546875 -35.3125 C 21.398438 -35.3125 23.84375 -34.828125 25.875 -33.859375 C 27.914062 -32.898438 29.582031 -31.609375 30.875 -29.984375 C 32.164062 -28.367188 33.109375 -26.492188 33.703125 -24.359375 C 34.296875 -22.234375 34.59375 -20.007812 34.59375 -17.6875 L 34.59375 -14.796875 L 12.4375 -14.796875 L 12.4375 -14.265625 C 12.4375 -11.984375 13.046875 -10.175781 14.265625 -8.84375 C 15.492188 -7.507812 17.425781 -6.84375 20.0625 -6.84375 C 22.070312 -6.84375 23.710938 -7.242188 24.984375 -8.046875 C 26.253906 -8.859375 27.441406 -9.835938 28.546875 -10.984375 L 33.40625 -4.9375 C 31.875 -3.132812 29.867188 -1.726562 27.390625 -0.71875 C 24.910156 0.289062 22.09375 0.796875 18.9375 0.796875 Z M 18.75 -28.140625 C 16.769531 -28.140625 15.222656 -27.492188 14.109375 -26.203125 C 12.992188 -24.910156 12.4375 -23.191406 12.4375 -21.046875 L 12.4375 -20.515625 L 24.53125 -20.515625 L 24.53125 -21.109375 C 24.53125 -23.210938 24.054688 -24.910156 23.109375 -26.203125 C 22.171875 -27.492188 20.71875 -28.140625 18.75 -28.140625 Z M 18.75 -28.140625 "/></g></g></g><g fill="#481c4b" fill-opacity="1"><g transform="translate(242.926226, 211.078131)"><g><path d="M 16.25 0.796875 C 12.914062 0.796875 10.109375 0.257812 7.828125 -0.8125 C 5.546875 -1.894531 3.503906 -3.421875 1.703125 -5.390625 L 7.4375 -11.1875 C 8.65625 -9.820312 10.007812 -8.742188 11.5 -7.953125 C 13 -7.171875 14.691406 -6.78125 16.578125 -6.78125 C 18.503906 -6.78125 19.835938 -7.070312 20.578125 -7.65625 C 21.328125 -8.25 21.703125 -9.050781 21.703125 -10.0625 C 21.703125 -11.6875 20.539062 -12.648438 18.21875 -12.953125 L 14.46875 -13.421875 C 6.707031 -14.378906 2.828125 -17.925781 2.828125 -24.0625 C 2.828125 -25.726562 3.144531 -27.253906 3.78125 -28.640625 C 4.414062 -30.023438 5.3125 -31.207031 6.46875 -32.1875 C 7.632812 -33.175781 9.039062 -33.941406 10.6875 -34.484375 C 12.332031 -35.035156 14.1875 -35.3125 16.25 -35.3125 C 18.039062 -35.3125 19.625 -35.191406 21 -34.953125 C 22.382812 -34.710938 23.613281 -34.363281 24.6875 -33.90625 C 25.769531 -33.445312 26.757812 -32.875 27.65625 -32.1875 C 28.550781 -31.507812 29.4375 -30.753906 30.3125 -29.921875 L 24.734375 -24.203125 C 23.628906 -25.296875 22.382812 -26.160156 21 -26.796875 C 19.625 -27.429688 18.210938 -27.75 16.765625 -27.75 C 15.097656 -27.75 13.914062 -27.484375 13.21875 -26.953125 C 12.519531 -26.429688 12.171875 -25.734375 12.171875 -24.859375 C 12.171875 -23.941406 12.421875 -23.226562 12.921875 -22.71875 C 13.421875 -22.21875 14.375 -21.859375 15.78125 -21.640625 L 19.65625 -21.109375 C 27.25 -20.097656 31.046875 -16.632812 31.046875 -10.71875 C 31.046875 -9.050781 30.691406 -7.515625 29.984375 -6.109375 C 29.285156 -4.710938 28.289062 -3.5 27 -2.46875 C 25.707031 -1.4375 24.148438 -0.632812 22.328125 -0.0625 C 20.503906 0.507812 18.476562 0.796875 16.25 0.796875 Z M 16.25 0.796875 "/></g></g></g><g fill="#481c4b" fill-opacity="1"><g transform="translate(276.069732, 211.078131)"><g><path d="M 16.640625 0 C 13.265625 0 10.707031 -0.851562 8.96875 -2.5625 C 7.238281 -4.269531 6.375 -6.769531 6.375 -10.0625 L 6.375 -26.96875 L 1.515625 -26.96875 L 1.515625 -34.53125 L 3.953125 -34.53125 C 5.265625 -34.53125 6.160156 -34.847656 6.640625 -35.484375 C 7.117188 -36.117188 7.359375 -37.023438 7.359375 -38.203125 L 7.359375 -43.859375 L 16.109375 -43.859375 L 16.109375 -34.53125 L 22.953125 -34.53125 L 22.953125 -26.96875 L 16.109375 -26.96875 L 16.109375 -7.5625 L 22.421875 -7.5625 L 22.421875 0 Z M 16.640625 0 "/></g></g></g><g clip-path="url(#e339e9a2fe)"><g clip-path="url(#44c549225c)"><path fill="#e01d5b" d="M 325.820312 201.011719 L 337.5 201.011719 L 337.5 212.691406 L 325.820312 212.691406 Z M 325.820312 201.011719 " fill-opacity="1" fill-rule="nonzero"/></g></g></svg>