<svg xmlns="http://www.w3.org/2000/svg" xmlns:xlink="http://www.w3.org/1999/xlink" width="500" zoomAndPan="magnify" viewBox="0 0 375 374.999991" height="500" preserveAspectRatio="xMidYMid meet" version="1.0"><defs><g/></defs><rect x="-37.5" width="450" fill="#ffffff" y="-37.499999" height="449.999989" fill-opacity="1"/><path stroke-linecap="butt" transform="matrix(0.75, 0, 0, 0.75, -159.946113, 26.625538)" fill="none" stroke-linejoin="miter" d="M 419.251095 102.160747 C 395.66776 117.806581 377.245884 159.509709 366.839633 203.681587 C 353.589632 259.457632 353.589632 304.827427 394.990677 309.770136 C 436.693804 314.337844 457.282347 281.843051 475.02714 245.384715 C 476.600057 241.71284 465.891723 235.577422 464.318806 238.947214 C 452.042764 264.697216 430.256304 290.452426 407.870886 288.582634 C 388.256301 287.082634 385.860468 264.400341 392.594843 233.405547 C 432.725054 216.858671 458.777139 187.061794 468.959431 152.47325 C 483.933391 105.228456 448.969847 82.244079 419.251095 102.160747 Z M 440.438596 119.004498 C 448.969847 119.603457 445.902138 139.218041 435.792763 162.577418 C 427.558387 181.296169 413.407344 200.613879 397.162552 211.619088 C 402.402135 192.004503 410.042761 170.218043 415.282345 157.040959 C 423.818803 134.952416 432.126096 118.707623 440.438596 119.004498 Z M 509.126101 119.90554 C 491.605266 147.233667 475.360474 194.473253 461.881306 245.384715 C 450.80318 288.280551 443.464638 329.686804 442.266721 353.270139 C 440.39693 380.89514 448.704222 396.843058 473.563598 397.139933 C 491.90735 397.442016 505.454226 388.905558 514.589643 373.556598 C 529.636519 348.400347 531.209436 309.770136 509.126101 284.613884 C 534.579227 287.082634 563.704229 286.483676 580.54798 245.082631 C 581.745897 241.71284 571.64173 235.577422 569.844855 239.244089 C 550.527145 283.718051 510.021934 271.139925 489.511516 266.197216 C 491.90735 255.192007 495.271933 242.311798 497.745892 234.603464 C 531.808394 219.629505 569.844855 187.061794 578.678189 142.290958 C 589.459439 92.952413 537.646936 77.306579 509.126101 119.90554 Z M 533.308394 132.181582 C 544.688603 111.671164 556.667771 117.207623 552.32402 136.223249 C 545.88652 165.94721 526.266727 195.072211 503.28235 211.915963 C 512.495893 180.322211 524.771935 148.431583 533.308394 132.181582 Z M 483.969849 287.384718 C 502.683392 303.62951 500.8136 335.822221 493.475058 357.60868 C 486.063599 378.42639 471.391723 381.494099 471.990682 358.509722 C 472.58964 340.764929 478.730265 310.067011 483.969849 287.384718 Z M 483.969849 287.384718 " stroke="#1f2235" stroke-width="7.66665" stroke-opacity="1" stroke-miterlimit="4"/><g fill="#ffc576" fill-opacity="1"><g transform="translate(108.952307, 256.875523)"><g><path d="M 45.539062 -153.636719 C 27.828125 -141.90625 14.03125 -110.628906 6.210938 -77.507812 C -3.679688 -35.648438 -3.679688 -1.609375 27.371094 2.070312 C 58.648438 5.519531 74.058594 -18.859375 87.398438 -46.230469 C 88.546875 -48.988281 80.5 -53.589844 79.347656 -51.058594 C 70.148438 -31.738281 53.820312 -12.417969 37.027344 -13.800781 C 22.308594 -14.949219 20.46875 -31.96875 25.53125 -55.199219 C 55.660156 -67.617188 75.207031 -89.929688 82.796875 -115.917969 C 94.066406 -151.335938 67.847656 -168.585938 45.539062 -153.636719 Z M 61.410156 -140.988281 C 67.847656 -140.527344 65.546875 -125.808594 57.957031 -108.328125 C 51.75 -94.296875 41.167969 -79.808594 28.980469 -71.527344 C 32.890625 -86.25 38.640625 -102.578125 42.550781 -112.46875 C 48.988281 -129.027344 55.199219 -141.21875 61.410156 -140.988281 Z M 61.410156 -140.988281 "/></g></g></g><g fill="#ffc576" fill-opacity="1"><g transform="translate(186.690461, 256.875523)"><g><path d="M 35.1875 -140.296875 C 22.078125 -119.828125 9.890625 -84.40625 -0.230469 -46.230469 C -8.511719 -14.03125 -14.03125 17.019531 -14.949219 34.730469 C -16.328125 55.429688 -10.121094 67.386719 8.511719 67.617188 C 22.308594 67.847656 32.429688 61.410156 39.328125 49.910156 C 50.597656 31.050781 51.75 2.070312 35.1875 -16.789062 C 54.277344 -14.949219 76.128906 -15.410156 88.777344 -46.460938 C 89.699219 -48.988281 82.109375 -53.589844 80.726562 -50.828125 C 66.238281 -17.480469 35.878906 -26.910156 20.46875 -30.589844 C 22.308594 -38.871094 24.839844 -48.527344 26.679688 -54.277344 C 52.207031 -65.546875 80.726562 -89.929688 87.398438 -123.507812 C 95.449219 -160.535156 56.578125 -172.265625 35.1875 -140.296875 Z M 53.359375 -131.097656 C 61.867188 -146.507812 70.839844 -142.367188 67.617188 -128.105469 C 62.789062 -105.796875 48.070312 -83.949219 30.820312 -71.296875 C 37.71875 -94.988281 46.917969 -118.90625 53.359375 -131.097656 Z M 16.328125 -14.71875 C 30.359375 -2.53125 28.980469 21.621094 23.460938 37.949219 C 17.941406 53.589844 6.898438 55.890625 7.359375 38.640625 C 7.820312 25.300781 12.417969 2.300781 16.328125 -14.71875 Z M 16.328125 -14.71875 "/></g></g></g></svg>