<?xml version="1.0" encoding="utf-8"?>
<!-- Generator: Adobe Illustrator 27.5.0, SVG Export Plug-In . SVG Version: 6.00 Build 0)  -->
<svg version="1.1" id="Layer_1" xmlns="http://www.w3.org/2000/svg" xmlns:xlink="http://www.w3.org/1999/xlink" x="0px" y="0px"
	 viewBox="0 0 3000 2000" style="enable-background:new 0 0 3000 2000;" xml:space="preserve">
<rect style="fill:#FFFFFF;" width="3000" height="2000"/>
<path style="fill:#F6F9FF;" d="M2540.348,1655.037c34.204-0.177,94.544-111.52,108.742-137.759
	c73.829-136.446,102.952-294.722,95.029-448.906c-7.29-141.864-37.695-313.301-145.108-413.634
	c-194.455-181.637-489.736-70.681-720.606-57.089c-141.5,8.331-280.65-24.451-381.15-129.712
	c-65.269-68.361-132.692-146.87-219.868-191.37c-100.805-51.457-225.48-48.008-330.571-11.151
	c-99.616,34.937-186.12,100.646-253.516,181.185c-72.06,86.114-114.059,192.19-184.909,279.085
	c-65.481,80.31-156.24,141.03-213.723,226.428c-55.663,82.695-88.919,178.509-85.738,278.997
	c7.029,221.976,164.408,345.822,349.576,434.17C558.508,1665.281,2540.311,1655.037,2540.348,1655.037z"/>
<g>
	<path style="fill:#D4DFFF;" d="M2267.702,1239.713c-120.429,0-218.406-97.977-218.406-218.407
		c0-120.43,97.977-218.407,218.406-218.407c120.43,0,218.407,97.977,218.407,218.407
		C2486.108,1141.736,2388.132,1239.713,2267.702,1239.713z M2648.806,961.638h-59.502c-8.278-45.146-25.934-87.771-52.003-125.547
		l42.074-42.074c5.296-5.296,5.296-13.883,0-19.179l-65.204-65.204c-5.296-5.296-13.882-5.296-19.179,0l-42.075,42.075
		c-37.776-26.07-80.401-43.726-125.547-52.004v-59.502c0-7.49-6.072-13.561-13.562-13.561h-92.212
		c-7.49,0-13.562,6.072-13.562,13.561v59.502c-45.146,8.278-87.771,25.934-125.547,52.004l-42.075-42.074
		c-5.296-5.296-13.883-5.296-19.179,0l-65.204,65.204c-5.296,5.296-5.296,13.883,0,19.179l42.074,42.074
		c-26.069,37.776-43.725,80.401-52.003,125.547h-59.502c-7.49,0-13.562,6.072-13.562,13.562v92.213
		c0,7.49,6.072,13.562,13.562,13.562h59.502c8.278,45.146,25.934,87.771,52.003,125.547l-42.074,42.074
		c-5.296,5.296-5.296,13.883,0,19.179l65.204,65.204c5.296,5.296,13.883,5.296,19.179,0l42.075-42.074
		c37.776,26.07,80.401,43.726,125.547,52.004v59.502c0,7.49,6.072,13.562,13.562,13.562h92.212c7.49,0,13.562-6.072,13.562-13.562
		v-59.502c45.146-8.278,87.771-25.934,125.547-52.004l42.075,42.075c5.296,5.296,13.883,5.296,19.179,0l65.204-65.204
		c5.296-5.296,5.296-13.883,0-19.179l-42.074-42.074c26.07-37.776,43.726-80.401,52.003-125.547h59.502
		c7.49,0,13.562-6.072,13.562-13.562V975.2C2662.368,967.71,2656.297,961.638,2648.806,961.638z"/>
</g>
<g>
	<path style="fill:#D4DFFF;" d="M623.526,1103.763c-45.466,0-82.456-36.99-82.456-82.457c0-45.467,36.99-82.457,82.456-82.457
		c45.467,0,82.457,36.99,82.457,82.457C705.983,1066.773,668.993,1103.763,623.526,1103.763z M767.407,998.78h-22.464
		c-3.125-17.044-9.791-33.137-19.633-47.399l15.884-15.885c2-2,2-5.241,0-7.241l-24.617-24.617c-2-2-5.241-2-7.241,0l-15.885,15.885
		c-14.262-9.842-30.354-16.508-47.399-19.633v-22.464c0-2.828-2.292-5.12-5.12-5.12H606.12c-2.828,0-5.12,2.292-5.12,5.12v22.464
		c-17.044,3.125-33.137,9.791-47.398,19.633l-15.885-15.885c-2-2-5.241-2-7.241,0l-24.617,24.617c-1.999,2-1.999,5.241,0,7.241
		l15.885,15.885c-9.842,14.262-16.508,30.354-19.633,47.399h-22.464c-2.828,0-5.12,2.292-5.12,5.12v34.814
		c0,2.828,2.292,5.12,5.12,5.12h22.464c3.125,17.044,9.791,33.137,19.633,47.399l-15.885,15.885c-1.999,2-1.999,5.241,0,7.241
		l24.617,24.617c2,2,5.241,2,7.241,0l15.885-15.885c14.262,9.842,30.354,16.508,47.398,19.633v22.464c0,2.828,2.293,5.12,5.12,5.12
		h34.814c2.828,0,5.12-2.292,5.12-5.12v-22.464c17.044-3.125,33.137-9.791,47.399-19.633l15.885,15.885c2,2,5.241,2,7.241,0
		l24.617-24.617c2-1.999,2-5.241,0-7.241l-15.884-15.885c9.842-14.262,16.508-30.354,19.633-47.399h22.464
		c2.828,0,5.12-2.292,5.12-5.12V1003.9C772.527,1001.072,770.235,998.78,767.407,998.78z"/>
</g>
<g>
	<g>
		<g>
			<defs>
				<path id="XMLID_239_" d="M671.539,1548.501c-12.478,2.151-24.386,9.75-36.868,7.627c-12.9-2.194-21.807-14.114-27.319-25.981
					c-5.512-11.867-9.271-24.962-18.13-34.592c-9.03-9.816-23.007-14.829-36.217-12.99c-10.606,1.476-20.853,7.052-31.443,5.467
					c-14.084-2.107-23.019-15.682-34.355-24.3c-11.91-9.054-27.296-12.812-42.25-12.351c-14.641,0.451-29.058,4.75-41.948,11.708
					c-14.607,7.885-27.89,20.056-32.435,36.021c-4.545,15.965,2.234,35.713,17.655,41.856c14.44,5.752,33.043-0.748,44.994,9.19
					c8.718,7.25,9.728,19.969,13.864,30.527c7.262,18.54,26.578,31.665,46.488,31.59c11.616-0.044,22.794-4.125,34.237-6.124
					c11.443-1.999,24.38-1.498,33.103,6.172c9.086,7.989,10.961,21.179,16.279,32.046c8.889,18.165,27.951,29.028,47.411,32.124
					c22.844,3.635,44.676-4.619,65.078-14.123c14.948-6.963,31.026-15.951,39.852-30.46c8.88-14.597,6.569-31.635,0.01-46.668
					c-8.741-20.031-27.264-36.965-50.109-37.342C676.792,1547.855,674.146,1548.051,671.539,1548.501z"/>
			</defs>
			<use xlink:href="#XMLID_239_"  style="overflow:visible;fill:#D4DFFF;"/>
			<clipPath id="XMLID_00000158730627501271304380000001015627688191329420_">
				<use xlink:href="#XMLID_239_"  style="overflow:visible;"/>
			</clipPath>
			<path style="clip-path:url(#XMLID_00000158730627501271304380000001015627688191329420_);fill:#8C9EF4;" d="M367.679,1502.857
				c26.354-4.041,53.643-1.165,78.636,8.088c12.687,4.697,24.343,11.31,35.808,18.419c11.24,6.97,22.446,14.155,34.739,19.162
				c13.121,5.345,27.306,5.164,41.021,7.825c11.645,2.259,22.052,7.863,31.414,15.005c9.759,7.446,18.349,16.267,27.744,24.143
				c5.268,4.416,10.756,8.576,16.434,12.452c5.453,3.722,11.129,6.9,16.907,10.076c2.697,1.482,5.37,3.023,7.889,4.796
				c2.583,1.818,4.772,3.961,6.994,6.188c4.221,4.231,8.707,8.193,13.475,11.799c9.531,7.206,20.471,12.974,32.3,15.181
				c2.921,0.545,5.877,0.873,8.845,0.993c1.748,0.071,1.744-2.645,0-2.716c-12.43-0.504-24.123-5.227-34.423-12.018
				c-5.213-3.437-10.072-7.381-14.635-11.638c-4.436-4.137-8.408-8.454-13.576-11.727c-5.244-3.321-10.909-5.909-16.176-9.192
				c-5.983-3.729-11.755-7.833-17.291-12.195c-9.945-7.835-18.837-16.875-28.607-24.913c-8.808-7.247-18.433-13.586-29.393-17.035
				c-13.068-4.111-27.082-3.519-40.303-7.018c-13.205-3.495-25.171-11.079-36.672-18.212c-11.304-7.011-22.561-14.038-34.842-19.243
				c-24.294-10.295-51.174-14.518-77.453-12.035c-3.197,0.302-6.383,0.708-9.556,1.195
				C365.235,1500.502,365.967,1503.119,367.679,1502.857L367.679,1502.857z"/>
			<path style="opacity:0.31;clip-path:url(#XMLID_00000158730627501271304380000001015627688191329420_);fill:#8C9EF4;" d="
				M562.335,1572.169c5.879,5.961,12.688,11.168,20.496,14.19c13.729,5.314,29.019,3.442,43.721,4.202
				c14.702,0.759,31.079,5.621,37.663,18.789c8.012,16.023-2.405,34.944-2.019,52.855c0.071,3.314,0.561,6.73,2.297,9.554
				c3.441,5.596,10.699,7.385,17.253,7.839c20.659,1.432,41.014-5.422,59.844-14.038c2.764-1.265,5.547-2.593,7.85-4.577
				c8.802-7.579,7.665-21.524,3.999-32.546c-8.038-24.165-24.173-44.655-40.007-64.601c-21.758-27.407-43.628-54.936-69.33-78.683
				c-19.901-18.388-44.581-35.198-71.611-33.316c-9.426,0.656-19.921,4.159-25.647,12.146c-1.193,1.664-1.489,3.41-2.217,5.27
				c-0.87,2.222-1.904,4.371-2.725,6.617c-1.633,4.468-2.891,9.07-3.781,13.742c-1.784,9.364-2.088,18.998-1.003,28.465
				c1.087,9.475,3.567,18.796,7.387,27.537c3.81,8.72,8.964,16.863,15.348,23.928
				C560.662,1570.435,561.489,1571.311,562.335,1572.169z"/>
		</g>
		<g>
			<defs>
				<path id="XMLID_238_" d="M754.69,1585.286c4.162-14.937,15.473-29.283,11.375-44.238c-1.802-6.574-6.384-11.955-9.912-17.788
					c-10.858-17.952-11.399-41.687-1.37-60.115c3.813-7.006,9.074-13.402,11.024-21.136c4.771-18.931-11.471-36.147-26.547-48.551
					c-15.076-12.404-32.127-28.117-29.547-47.468c3.158-23.688,31.708-32.524,53.623-42.053c4.634-2.015,9.599-4.76,11.126-9.577
					c2.029-6.401-3.122-12.908-8.805-16.484c-5.683-3.576-12.42-5.85-16.745-10.986c-7.79-9.252-4.013-24.287,4.892-32.47
					c8.906-8.183,21.28-11.191,33.128-13.622c19.788-4.06,45.799-4.36,54.036,14.084c8.069,18.067-8.409,41.192,1.871,58.099
					c3.75,6.168,10.452,10.083,14.257,16.218c7.784,12.548,0.881,28.984-7.785,40.939c-8.666,11.955-19.582,23.911-20.022,38.671
					c-0.777,26.049,30.505,42.075,36.762,67.372c5.717,23.114-10.979,47.577-4.688,70.542c7.298,26.642,42.633,40.518,44.54,68.076
					c1.792,25.892-27.098,42.574-52.396,48.372c-19.928,4.567-43.156,8.532-63.631,5.352c-14.687-2.281-25.137-15.759-31.398-28.374
					C753.175,1609.458,751.467,1596.856,754.69,1585.286z"/>
			</defs>
			<use xlink:href="#XMLID_238_"  style="overflow:visible;fill:#D4DFFF;"/>
			<clipPath id="XMLID_00000076589968438293553700000010062775947631369904_">
				<use xlink:href="#XMLID_238_"  style="overflow:visible;"/>
			</clipPath>
			<path style="clip-path:url(#XMLID_00000076589968438293553700000010062775947631369904_);fill:#8C9EF4;" d="M793.931,1216.28
				c2.804,15.436,5.494,30.989,5.722,46.717c0.112,7.752-0.379,15.532-1.823,23.157c-1.448,7.641-4.031,14.899-6.796,22.146
				c-2.686,7.041-5.279,14.095-6.682,21.522c-1.375,7.276-1.821,14.729-1.304,22.115c0.508,7.247,1.9,14.441,4.213,21.331
				c2.387,7.111,5.74,13.84,9.021,20.568c3.355,6.881,6.542,13.811,8.745,21.16c2.147,7.161,3.513,14.542,4.26,21.976
				c1.503,14.964,0.67,30.053-0.625,44.999c-1.311,15.13-3.133,30.222-3.786,45.403c-0.655,15.232-0.27,30.508,1.128,45.689
				c2.781,30.208,9.528,60.048,20.137,88.472c1.321,3.538,2.705,7.052,4.14,10.546c0.655,1.595,3.284,0.896,2.619-0.722
				c-11.646-28.355-19.49-58.262-23.16-88.699c-1.825-15.136-2.64-30.395-2.423-45.639c0.217-15.209,1.721-30.321,3.176-45.449
				c2.811-29.238,5.086-59.81-6.537-87.564c-5.895-14.076-13.966-27.041-16.903-42.218c-2.947-15.232-1.346-30.707,3.808-45.272
				c2.575-7.275,5.673-14.372,7.76-21.814c2.008-7.161,3.114-14.565,3.548-21.984c0.897-15.339-1.076-30.693-3.613-45.793
				c-0.638-3.795-1.317-7.583-2.005-11.369C796.238,1213.841,793.62,1214.568,793.931,1216.28L793.931,1216.28z"/>
			<path style="opacity:0.31;clip-path:url(#XMLID_00000076589968438293553700000010062775947631369904_);fill:#8C9EF4;" d="
				M744.071,1465.751c4.433,2.765,8.876,5.536,13.561,7.848c27.685,13.659,62.256,10.641,87.673,28.162
				c16.035,11.053,26.141,28.964,32.408,47.403c9.383,27.608,10.977,59.07-1.98,85.192c-17.041,1.749-33.577,3.419-50.693,4.121
				c-5.172-22.811-10.939-45.821-22.255-66.291c-11.316-20.471-28.928-38.42-51.25-45.409c-5.939-1.86-12.329-3.025-17.242-6.846
				c-5.676-4.414-8.422-11.784-8.834-18.963c-0.412-7.179,1.224-14.3,2.871-21.299
				C730.026,1472.464,737.792,1461.833,744.071,1465.751z"/>
		</g>
		<g>
			<defs>
				<path id="XMLID_237_" d="M718.312,1660.726c-20.9-10.842-35.579-32.839-37.572-56.299c-0.919-10.813,0.448-22.608-5.551-31.651
					c-6.713-10.12-20.361-13.016-32.494-12.495c-12.133,0.522-24.296,3.557-36.296,1.69c-23.486-3.653-40.755-26.078-44.81-49.499
					c-4.055-23.42,2.646-47.396,11.749-69.353c2.093-5.048,4.364-10.45,3.253-15.8c-2.123-10.231-14.413-13.93-24.402-16.994
					c-21.737-6.668-42.504-29.563-51.779-50.322c-15.412-34.496-10.793-71.083,26.308-78.223
					c37.101-7.14,97.511,21.903,106.62,58.571c3.949,15.897,7.314,37.406,23.595,39.21c5.709,0.633,11.258-1.764,16.888-2.903
					c21.305-4.311,42.993,10.509,52.78,29.918c9.787,19.409,10.016,42.198,7.964,63.838c-0.643,6.786-1.416,14.005,1.648,20.094
					c7.864,15.633,30.673,10.966,48.128,12.204c35.439,2.513,60.444,41.456,56.757,76.792
					c-2.414,23.143-14.446,44.066-30.319,60.671c-14.719,15.398-29.113,24.658-50.366,27.57
					C746.107,1669.705,731.16,1667.392,718.312,1660.726z"/>
			</defs>
			<use xlink:href="#XMLID_237_"  style="overflow:visible;fill:#8C9EF4;"/>
			<clipPath id="XMLID_00000101820036518127426900000010985047347754106022_">
				<use xlink:href="#XMLID_237_"  style="overflow:visible;"/>
			</clipPath>
			<path style="clip-path:url(#XMLID_00000101820036518127426900000010985047347754106022_);fill:#D4DFFF;" d="M499.456,1291.192
				c13.557,27.619,43.381,40.817,67.544,57.328c6.408,4.379,12.615,9.079,18.244,14.435c5.985,5.696,11.201,12.13,15.832,18.962
				c9.478,13.981,16.586,29.366,24.331,44.327c7.679,14.835,16.118,29.511,27.765,41.632c12.212,12.71,27.243,22.399,38.963,35.613
				c5.876,6.625,10.216,14.121,14.149,22.014c3.893,7.813,7.579,15.819,12.953,22.759c11.154,14.403,29.396,19.457,42.578,31.448
				c13.096,11.915,21.421,28.183,27.019,44.762c3.304,9.786,5.776,19.825,8.14,29.871c1.213,5.153,2.396,10.312,3.651,15.455
				c0.598,2.448,1.21,4.892,1.851,7.329c0.594,2.259,0.946,4.955,2.089,7.012c1.177,2.119,4.376,4.315,6.065,1.487
				c0.898-1.504-1.449-2.872-2.345-1.371c-0.067,0.113-1.157-1.09-1.374-1.487c-0.551-1.005-0.732-2.336-1.034-3.443
				c-0.729-2.674-1.421-5.358-2.089-8.047c-1.216-4.892-2.355-9.803-3.503-14.712c-2.35-10.051-4.736-20.109-7.887-29.945
				c-5.164-16.12-12.583-31.942-24.222-44.439c-5.927-6.364-12.895-11.286-20.364-15.671c-7.661-4.498-15.689-8.695-22.081-14.98
				c-12.398-12.192-16.522-30.03-26.686-43.813c-10.33-14.008-24.848-23.922-37.558-35.555
				c-12.422-11.369-21.721-24.999-29.728-39.725c-7.928-14.579-14.734-29.765-23.302-43.995
				c-8.231-13.672-18.217-25.774-30.861-35.577c-11.881-9.211-24.988-16.629-37.552-24.833
				c-12.218-7.978-24.333-16.917-32.803-28.998c-2.052-2.927-3.862-6.007-5.437-9.215
				C501.031,1288.253,498.688,1289.627,499.456,1291.192L499.456,1291.192z"/>
		</g>
	</g>
	<g>
		<defs>
			<path id="XMLID_236_" d="M609.764,1613.141c-7.793,1.46-15.583,4.784-23.37,3.29c-11.212-2.15-18-13.149-26.033-21.261
				c-19.976-20.17-54.749-23.378-78.078-7.203c-5.365,3.72-10.494,8.461-16.958,9.369c-7.139,1.003-13.904-2.919-20.447-5.944
				c-23.218-10.733-51.065-10.938-74.439-0.548c-3.96,1.76-7.899,3.891-10.665,7.226c-6.422,7.741-4.417,20.027,2.105,27.683
				c6.523,7.656,16.379,11.573,26.068,14.27c5.088,1.416,10.369,2.63,14.743,5.589c8.133,5.502,11.408,15.706,17.282,23.574
				c9.174,12.292,24.902,18.57,40.237,18.847c15.336,0.277,30.331-4.826,44.007-11.771c5.674-2.882,11.69-6.192,17.999-5.36
				c9.421,1.243,14.977,10.775,21.722,17.468c13.645,13.541,34.491,16.373,53.714,16.468c13.405,0.067,27.31-0.892,39.65-6.589
				c10.977-5.068,20.011-14.881,26.665-24.83c12.497-18.685-2.102-41.323-18.545-52.255
				C635.026,1614.254,622.158,1610.82,609.764,1613.141z"/>
		</defs>
		<use xlink:href="#XMLID_236_"  style="overflow:visible;fill:#8C9EF4;"/>
		<clipPath id="XMLID_00000127741178925632914670000002441505424766489021_">
			<use xlink:href="#XMLID_236_"  style="overflow:visible;"/>
		</clipPath>
		<path style="clip-path:url(#XMLID_00000127741178925632914670000002441505424766489021_);fill:#D4DFFF;" d="M347.098,1607.086
			c23.812-4.075,47.942,1.76,70.182,10.136c11.123,4.189,21.835,9.604,33.226,13.055c5.71,1.73,11.583,2.828,17.553,3.018
			c5.932,0.188,11.85-0.416,17.721-1.21c11.638-1.573,23.305-3.974,35.103-2.88c8.461,0.784,16.715,3.286,24.41,6.843
			c15.999,7.395,29.764,18.756,43.57,29.516c13.907,10.838,28.237,21.667,44.842,28.028c2.039,0.781,4.106,1.483,6.196,2.113
			c1.677,0.505,2.394-2.115,0.722-2.619c-17.172-5.173-32.017-15.704-46.073-26.522c-14.057-10.818-27.739-22.509-43.558-30.734
			c-7.539-3.92-15.569-6.994-23.952-8.502c-10.847-1.952-21.664-0.84-32.482,0.754c-11.937,1.759-24.057,3.801-36.062,1.416
			c-11.851-2.355-22.767-7.826-33.896-12.318c-21.949-8.859-45.67-15.786-69.582-13.818c-2.896,0.238-5.78,0.614-8.644,1.104
			C344.656,1604.761,345.385,1607.379,347.098,1607.086L347.098,1607.086z"/>
	</g>
</g>
<g>
	<g>
		<g>
			<defs>
				<path id="XMLID_235_" d="M914.646,1129.969c0,0-30.049,34.982-23.491,103.989c6.559,69.007,17.052,192.403,17.052,192.403
					H691.07c-1.93,0-3.442,1.659-3.263,3.581l4.835,51.897c0.268,2.879,2.273,5.295,5.056,6.082
					c33.805,9.562,243.077,67.54,280.869,48.39c41.138-20.846,39.248-293.196,39.248-293.196l45.864,484.547h73.415
					c0,0-12.421-587.39-22.274-601.143C1104.966,1112.766,914.646,1129.969,914.646,1129.969z"/>
			</defs>
			<use xlink:href="#XMLID_235_"  style="overflow:visible;fill:#1B3D9E;"/>
			<clipPath id="XMLID_00000150791962610171631100000005036645945312751281_">
				<use xlink:href="#XMLID_235_"  style="overflow:visible;"/>
			</clipPath>
			<path style="opacity:0.56;clip-path:url(#XMLID_00000150791962610171631100000005036645945312751281_);fill:#1C056D;" d="
				M685.27,1474.323c3.606,0.601,71.462,15.887,87.981,18.163s226.212,26.469,228.015,33.08
				c1.803,6.611-21.858,41.303-128.75,16.222c-17.677-4.148-186.313-45.263-188.216-51.512
				C682.396,1484.026,685.27,1474.323,685.27,1474.323z"/>
		</g>
		<g>
			<defs>
				<path id="XMLID_233_" d="M672.855,1435.262c0,0,0-4.921-8.906-9.561c-3.539-1.844-16.326-6.806-26.566-3.818
					c-4.456,1.3-25.814,104.622-21.739,109.809s17.746,1.907,23.693-1.825c5.947-3.732,27.436-58.514,27.436-58.514
					L672.855,1435.262z"/>
			</defs>
			<use xlink:href="#XMLID_233_"  style="overflow:visible;fill:#1B3D9E;"/>
			<clipPath id="XMLID_00000020371628442406254220000007814174872702636187_">
				<use xlink:href="#XMLID_233_"  style="overflow:visible;"/>
			</clipPath>
			<g style="clip-path:url(#XMLID_00000020371628442406254220000007814174872702636187_);">
				<defs>
					<path id="XMLID_234_" d="M665.126,1419.69c0,0-6.569,2.059-11.786,14.728c-5.217,12.669-23.203,97.37-18.185,97.5
						c5.018,0.13,12.719-4.59,12.719-4.59s24.097-58.627,24.097-61.857s6.707-35.199,5.962-35.859
						C677.188,1428.953,665.126,1419.69,665.126,1419.69"/>
				</defs>
				<use xlink:href="#XMLID_234_"  style="overflow:visible;opacity:0.56;fill:#1C056D;"/>
				<clipPath id="XMLID_00000013188213969865948820000000865494759485328794_">
					<use xlink:href="#XMLID_234_"  style="overflow:visible;opacity:0.56;"/>
				</clipPath>
				<path style="clip-path:url(#XMLID_00000013188213969865948820000000865494759485328794_);fill:#1B3D9E;" d="M666.945,1479.389
					c0,0-13.605-6.446-14.785-5.701c-1.18,0.745-1.328,2.958-0.59,3.991c0.738,1.033,14.049,7.67,14.311,6.492
					S666.945,1479.389,666.945,1479.389"/>
				<path style="clip-path:url(#XMLID_00000013188213969865948820000000865494759485328794_);fill:#1B3D9E;" d="M664.129,1490.163
					c0,0-13.605-6.446-14.785-5.701c-1.18,0.745-1.328,2.958-0.59,3.991c0.738,1.033,14.049,7.67,14.311,6.492
					C663.327,1493.767,664.129,1490.163,664.129,1490.163"/>
				<path style="clip-path:url(#XMLID_00000013188213969865948820000000865494759485328794_);fill:#1B3D9E;" d="M661.313,1500.937
					c0,0-13.605-6.446-14.785-5.701c-1.18,0.745-1.328,2.958-0.59,3.991c0.738,1.033,14.049,7.67,14.311,6.492
					C660.511,1504.54,661.313,1500.937,661.313,1500.937"/>
				<path style="clip-path:url(#XMLID_00000013188213969865948820000000865494759485328794_);fill:#1B3D9E;" d="M660.035,1510.731
					c0,0-13.605-6.446-14.785-5.701c-1.18,0.745-1.328,2.958-0.59,3.991c0.738,1.033,14.049,7.67,14.311,6.492
					C659.233,1514.335,660.035,1510.731,660.035,1510.731"/>
			</g>
		</g>
		<path style="fill:#1C056D;" d="M637.383,1421.883c0,0-3.955-1.219-7.005,0c-3.049,1.219-12.962,50.391-15.248,60.111
			s-6.669,48.219-5.145,49.172c1.525,0.953,5.659,0.527,5.659,0.527S622.717,1464.208,637.383,1421.883z"/>
		<path style="fill:#FE8E9C;" d="M688.196,1434.121c0,0-9.828,1.003-26.533,1.702c-1.653,0.069-7.837,29.117,0.459,31.412
			c14.303,3.957,30.034,9.402,30.034,9.402L688.196,1434.121z"/>
		<path style="fill:#FC476A;" d="M661.663,1435.823c0,0,20.183-3.335,19.809-1.702c-5.575,24.341-2.062,39.138-4.28,39.138
			c-1.11,0-17.516-5.627-19.298-7.529C656.112,1463.827,655.754,1444.352,661.663,1435.823z"/>
	</g>
	<g>
		<g>
			<defs>
				<path id="XMLID_231_" d="M1081.619,1748c0,0-4.805,1.061-7.417,10.757c-1.038,3.853-3.127,17.409,1.997,26.764
					c2.23,4.072,107.727,2.661,111.914-2.437c4.187-5.098-1.962-17.74-6.889-22.743s-63.052-14.181-63.052-14.181L1081.619,1748z"/>
			</defs>
			<use xlink:href="#XMLID_231_"  style="overflow:visible;fill:#1B3D9E;"/>
			<clipPath id="XMLID_00000167364092080005361810000005743896172225195191_">
				<use xlink:href="#XMLID_231_"  style="overflow:visible;"/>
			</clipPath>
			<g style="clip-path:url(#XMLID_00000167364092080005361810000005743896172225195191_);">
				<defs>
					<path id="XMLID_232_" d="M1068.079,1758.903c0,0,3.426,5.971,16.922,8.335c13.496,2.364,100.082,1.673,99.128-3.255
						c-0.955-4.928-7.224-11.431-7.224-11.431s-62.443-10.896-65.596-10.2c-3.154,0.696-35.818,1.036-36.301,1.906
						C1074.525,1745.128,1068.079,1758.903,1068.079,1758.903"/>
				</defs>
				<use xlink:href="#XMLID_232_"  style="overflow:visible;opacity:0.56;fill:#1C056D;"/>
				<clipPath id="XMLID_00000105398196058368372410000007458560983669029529_">
					<use xlink:href="#XMLID_232_"  style="overflow:visible;opacity:0.56;"/>
				</clipPath>
				<path style="clip-path:url(#XMLID_00000105398196058368372410000007458560983669029529_);fill:#1B3D9E;" d="M1125.984,1744.261
					c0,0-3.362,14.674-2.38,15.667c0.982,0.992,3.175,0.659,4.024-0.284s4.462-15.371,3.255-15.374
					C1129.675,1744.267,1125.984,1744.261,1125.984,1744.261"/>
				<path style="clip-path:url(#XMLID_00000105398196058368372410000007458560983669029529_);fill:#1B3D9E;" d="M1137.111,1744.689
					c0,0-3.362,14.674-2.38,15.666c0.982,0.992,3.175,0.659,4.024-0.284c0.85-0.943,4.462-15.371,3.255-15.374
					C1140.803,1744.695,1137.111,1744.689,1137.111,1744.689"/>
				<path style="clip-path:url(#XMLID_00000105398196058368372410000007458560983669029529_);fill:#1B3D9E;" d="M1148.238,1745.117
					c0,0-3.362,14.674-2.38,15.666c0.982,0.992,3.175,0.659,4.024-0.284c0.849-0.943,4.462-15.371,3.255-15.374
					S1148.238,1745.117,1148.238,1745.117"/>
				<path style="clip-path:url(#XMLID_00000105398196058368372410000007458560983669029529_);fill:#1B3D9E;" d="M1158.078,1744.254
					c0,0-3.362,14.674-2.38,15.666c0.982,0.992,3.175,0.659,4.024-0.284c0.849-0.943,4.462-15.371,3.255-15.374
					S1158.078,1744.254,1158.078,1744.254"/>
			</g>
		</g>
		<path style="fill:#1C056D;" d="M1076.199,1785.521c0,0-0.338,4.125,1.509,6.84c1.847,2.715,52,1.798,61.984,1.936
			c9.984,0.137,48.523-3.879,49.125-5.573c0.602-1.694-0.705-5.639-0.705-5.639S1120.69,1790.721,1076.199,1785.521z"/>
		<path style="fill:#FE8E9C;" d="M1079.992,1727.661c0,0-0.001,13.806,4.282,29.967c0.424,1.599,30.426,2.557,30.88-6.039
			c0.781-14.82,1.913-23.928,1.913-23.928H1079.992z"/>
		<path style="fill:#FC476A;" d="M1083.973,1758.294c-0.726-0.233-1.274-0.823-1.435-1.569c-0.916-4.249-3.978-18.939-2.546-18.928
			c24.97,0.198,37.318-4.388,37.796-2.222c0.239,1.083-1.72,18.317-3.193,20.467
			C1113.18,1758.109,1093.994,1761.514,1083.973,1758.294z"/>
	</g>
	<g>
		<g>
			<defs>
				<path id="XMLID_230_" d="M944.107,624.209c-14.49,10.377-24.742,26.6-27.555,44.2c-3.437,21.509,3.534,45.344-7.282,64.25
					c-10.296,17.998-34.398,26.509-40.371,46.365c-4.174,13.875,2.098,28.874,0.075,43.221
					c-2.578,18.285-17.777,31.887-25.971,48.435c-8.148,16.454-9.072,36.331-2.485,53.47c6.587,17.139,20.585,31.281,37.656,38.043
					c4.458,1.766,9.17,3.057,13.965,3.073c3.454,0.011,6.873-0.639,10.266-1.286c16.488-3.145,32.976-6.291,49.464-9.436
					c22.022-4.201,44.08-8.41,65.624-14.611c29.536-8.501,58.922-21.381,79.618-44.104c20.696-22.723,30.845-57.037,18.497-85.182
					c-9.783-22.3-32.358-39.307-34.405-63.573c-1.392-16.509,7.352-33.237,3.179-49.271c-1.759-6.76-5.705-12.771-7.666-19.475
					c-3.4-11.626-0.565-24.256-3.092-36.102c-3.357-15.738-16.323-28.469-31.524-33.748c-13.413-4.658-28.203-3.973-41.675,0.076
					c-2.423,0.728-4.927,2.44-7.426,2.715c-3.179,0.349-6.592-0.297-9.813-0.183c-6.594,0.234-13.156,1.366-19.447,3.356
					C956.743,616.655,950.077,619.934,944.107,624.209z"/>
			</defs>
			<use xlink:href="#XMLID_230_"  style="overflow:visible;fill:#1B3D9E;"/>
			<clipPath id="XMLID_00000098194750246499855580000002852158905988557991_">
				<use xlink:href="#XMLID_230_"  style="overflow:visible;"/>
			</clipPath>
			<path style="opacity:0.56;clip-path:url(#XMLID_00000098194750246499855580000002852158905988557991_);fill:#1C056D;" d="
				M876.613,856.889c0,0,22.504-85.093,90.906-142.4c10.33-8.654,64.418-86.262,75.71-79.25
				c31.572,19.605,30.157,79.25,27.71,105.583c-1.179,12.682,32.611,127.347,32.611,127.347S895.391,876.772,876.613,856.889z"/>
		</g>
		<g>
			<defs>
				<path id="XMLID_194_" d="M1114.819,1042.396l-0.557-0.004c0.366-0.02,0.557-0.031,0.557-0.031s-16.333-185.835-28.666-205.857
					c-12.332-20.022-68.177-37.072-68.177-37.072h-73.732c0,0-75.578,13.221-90.179,52.579
					c-5.596,15.084,16.217,188.937,47.4,194.681c2.811,0.518,6.853,0.906,11.873,1.186c-3.656,20.525-12.826,79.229,1.308,82.091
					c17.143,3.472,199.578,16.76,200.173-3.451C1115.414,1106.309,1114.819,1042.396,1114.819,1042.396z"/>
			</defs>
			<use xlink:href="#XMLID_194_"  style="overflow:visible;fill:#FFCC59;"/>
			<clipPath id="XMLID_00000140701313447240561840000001745896882096149122_">
				<use xlink:href="#XMLID_194_"  style="overflow:visible;"/>
			</clipPath>
			<path style="clip-path:url(#XMLID_00000140701313447240561840000001745896882096149122_);fill:#F6AB36;" d="M913.338,1047.878
				c0,0,25.675,1.445,57.158-7.017c31.483-8.462,0,0,0,0s-36.8,26.349-64.247,25.345
				C906.25,1066.206,910.051,1051.642,913.338,1047.878"/>
		</g>
		<g>
			<defs>
				<path id="XMLID_193_" d="M1080.631,830.018c0,0,83.267,73.705,89.953,71.882c15.384-4.196,92.455-92.939,110.022-113.345
					c2.053-2.384,5.544-2.898,8.196-1.206l26.225,16.724c2.539,1.619,3.196,5.036,1.432,7.477
					c-19.71,27.279-122.933,169.39-132.939,167.572c-28.175-5.12-75.211-22.966-79.97-26.773
					C1098.791,948.542,1080.631,830.018,1080.631,830.018z"/>
			</defs>
			<use xlink:href="#XMLID_193_"  style="overflow:visible;fill:#FFCC59;"/>
			<clipPath id="XMLID_00000137126902048381711240000016190384058917467548_">
				<use xlink:href="#XMLID_193_"  style="overflow:visible;"/>
			</clipPath>
			<path style="clip-path:url(#XMLID_00000137126902048381711240000016190384058917467548_);fill:#F6AB36;" d="M1188.896,888.022
				c0,0-20.971,10.411-21.138,37.364c-0.168,26.953-3.062,37.702-3.062,37.702s-13.072-63.851-8.19-69.546
				S1188.896,888.022,1188.896,888.022"/>
			<path style="clip-path:url(#XMLID_00000137126902048381711240000016190384058917467548_);fill:#F6AB36;" d="M1300.696,838.154
				c-2.57-1.396-20.51-5.261-30.694-0.405c-10.183,4.857-109.342,137.095-109.342,137.095s7.69,3.365,17.403,4.367
				C1187.777,980.213,1300.696,838.154,1300.696,838.154"/>
		</g>
		<g>
			<g>
				<defs>
					<path id="XMLID_192_" d="M1114.819,1042.396c0,0,123.221-172.061,145.278-175.351c22.056-3.29,280.752-6.58,283.005,0
						c2.253,6.58-133.983,173.983-133.983,173.983S1126.568,1043.71,1114.819,1042.396z"/>
				</defs>
				<use xlink:href="#XMLID_192_"  style="overflow:visible;fill:#1B3D9E;"/>
				<clipPath id="XMLID_00000035531047285279358380000005172911074950908078_">
					<use xlink:href="#XMLID_192_"  style="overflow:visible;"/>
				</clipPath>
				<path style="opacity:0.56;clip-path:url(#XMLID_00000035531047285279358380000005172911074950908078_);fill:#1C056D;" d="
					M1444.754,863.246c0,0-75.613,144.53-314.029,133.685l-42.055,61.264h329.655c0,0,148.899-190.893,144.404-194.948
					C1558.234,859.19,1444.754,863.246,1444.754,863.246"/>
			</g>
			
				<ellipse transform="matrix(0.7071 -0.7071 0.7071 0.7071 -283.1754 1228.285)" style="fill:#8C9EF4;" cx="1341.097" cy="955.969" rx="23.444" ry="19.248"/>
		</g>
		<g>
			<g>
				<path style="fill:#FFFFFF;" d="M999.464,835.174c0,0-1.21,40.716-19.251,33.641c-18.04-7.075-61.84-60.183-30.131-78.09
					c0,0,4.279,5.872,8.17,8.348C962.143,801.549,999.464,835.174,999.464,835.174z"/>
				<path style="fill:#FFFFFF;" d="M1005.575,834.019c0,0,13.467,23.135,20.332,19.488c6.865-3.647,3.391-48.044,2.272-49.847
					c-1.607-2.587-8.794-5.106-15.138-5.238L1005.575,834.019z"/>
			</g>
			<g>
				<g>
					<defs>
						<path id="XMLID_191_" d="M962.179,648.339c8.3-9.779,38.624-20.496,63.098-15.924c13.796,2.577,24.573,13.418,27.553,27.133
							c6.747,31.041,20.15,104.295-1.931,111c-9.832,2.985-21.4,0.648-32.512-4.195c-2.247,18.895-11.194,61.913-12.812,67.667
							c-2.274,8.086-55.505-29.876-55.493-43.295c0.011-12.977,25.179-59.325,25.179-59.325
							C969.992,718.615,950.631,661.945,962.179,648.339z"/>
					</defs>
					<use xlink:href="#XMLID_191_"  style="overflow:visible;fill:#FE8E9C;"/>
					<clipPath id="XMLID_00000116237798059333993810000008906041638244908687_">
						<use xlink:href="#XMLID_191_"  style="overflow:visible;"/>
					</clipPath>
					<path style="clip-path:url(#XMLID_00000116237798059333993810000008906041638244908687_);fill:#E57492;" d="M1018.387,766.352
						c0,0-14.555-9.929-26.581-21.685c0,0,3.583,41.191,27.892,45.468L1018.387,766.352"/>
					<path style="clip-path:url(#XMLID_00000116237798059333993810000008906041638244908687_);fill:#E57492;" d="M1055.572,646.865
						c0,0,2.771,27.225-9.54,35.454c-12.311,8.229-28.218,6.646-28.218,6.646l3.564-6.013c0,0-15.508,18.357-34.814,19.306
						l-2.428-6.646c0,0-7.336,15.282-16.617,18.877s0,0,0,0s-12.446-43.563-4.85-52.424c7.596-8.862,73.742-32.282,73.742-32.282
						S1055.308,640.842,1055.572,646.865z"/>
				</g>
				<path style="fill:#E57492;" d="M1039.44,687.452c0,0,15.695,25.4,12.379,29.509c-3.317,4.109-11.691-5.772-14.25-5.124
					c-2.559,0.649-3.828,4.734-0.676,5.207c3.151,0.473,15.389,6.507,16.658,0.709
					C1054.818,711.956,1052.52,707.576,1039.44,687.452z"/>
				<path style="fill:#FFFFFF;" d="M1054.913,732.17c0,0-4.234,10.813-16.52,1.4c0,0,0.829,14.516,9.275,15.797
					C1058.805,751.057,1054.913,732.17,1054.913,732.17z"/>
			</g>
		</g>
		<path style="fill:#F6AB36;" d="M1103.55,952.349l-10.741-92.378c0,0,26.878,75.685,26.423,84.396S1103.55,952.349,1103.55,952.349
			z"/>
		<g>
			<path style="fill:#FFCC59;" d="M914.701,967.522c0,0,236.882-49.492,236.882-43.575c0,5.917-0.404,42.756-2.837,43.575
				c-2.434,0.82-168.735,75.386-192.26,75.491C932.96,1043.117,913.478,982.116,914.701,967.522z"/>
			<g>
				<defs>
					<path id="XMLID_190_" d="M1152.544,923.947c0,0-9.672-3.538-19.572,1.475c-9.899,5.013-9.4,49.014,0,49.408
						c9.4,0.394,16.734-7.307,16.734-7.307S1156.161,965.162,1152.544,923.947z"/>
				</defs>
				<use xlink:href="#XMLID_190_"  style="overflow:visible;fill:#FFFFFF;"/>
				<clipPath id="XMLID_00000117667007229441191310000007255679475607926422_">
					<use xlink:href="#XMLID_190_"  style="overflow:visible;"/>
				</clipPath>
				<path style="opacity:0.12;clip-path:url(#XMLID_00000117667007229441191310000007255679475607926422_);fill:#8C9EF4;" d="
					M1153.645,927.729c0,0-12.98,0.601-16.105,7.571c-3.125,6.97-2.978,37.493,2.149,36.773c5.127-0.719,11.893-9.013,11.893-9.013
					L1153.645,927.729z"/>
			</g>
			<path style="fill:#F6AB36;" d="M1109.207,984.489l-138.711,56.372c0,0,35.876-0.4,53.775-7.656
				c17.899-7.256,85.653-41.758,85.653-41.758L1109.207,984.489z"/>
			<path style="fill:#F6AB36;" d="M1103.55,930.54c0,0-134.886,25.875-144.413,27.824c-9.527,1.949-35.878,45.116-35.878,45.116
				s17.265-41.648,15.615-46.727c-1.65-5.078-10.537-79.35-10.537-79.35s20.948,65.368,24.122,66.963
				C955.634,945.961,1096.67,925.914,1103.55,930.54z"/>
			<path style="fill:#FE8E9C;" d="M1148.92,931.057c0,0,15.614-5.312,18.838-5.671c3.224-0.358,53.736,14.33,54.81,17.195
				c1.075,2.866-6.807,3.941-10.031,3.224s-31.525-6.448-31.525-6.448s39.606,12.369,41.656,12.991
				c2.049,0.622-4.936,5.197-7.085,5.197s-35.149-6.744-35.149-6.744s32.104,14.708,32.104,15.783c0,1.075-2.149,2.508-6.807,2.508
				s-37.615-10.747-37.615-10.747s18.516,20.015,15.404,20.778c-5.953,1.46-21.102-15.481-23.251-15.839
				c-2.149-0.358-14.663,1.46-15.08-0.282C1139.995,941.295,1148.92,931.057,1148.92,931.057z"/>
		</g>
		<g>
			<defs>
				<path id="XMLID_189_" d="M1286.379,785.308c-1.307-0.64-2.844-0.568-4.074,0.208c-4.022,2.536-13.072,8.985-12.25,15.215
					c1.055,7.987,30.283,26.611,35.868,25.343c3.934-0.893,9.163-9.967,11.91-15.252c1.113-2.141,0.467-4.767-1.508-6.153
					C1309.339,799.767,1293.368,788.729,1286.379,785.308z"/>
			</defs>
			<use xlink:href="#XMLID_189_"  style="overflow:visible;fill:#FFFFFF;"/>
			<clipPath id="XMLID_00000075149652925155991340000010972413844513163935_">
				<use xlink:href="#XMLID_189_"  style="overflow:visible;"/>
			</clipPath>
			<path style="opacity:0.12;clip-path:url(#XMLID_00000075149652925155991340000010972413844513163935_);fill:#8C9EF4;" d="
				M1284.183,783.134c0,0-4.096,5.032,2.34,12.521c6.436,7.489,27.194,18.424,29.921,17.755s5.536-8.627,5.536-8.627
				s-28.787-21.415-32.766-21.766C1285.236,782.666,1284.183,783.134,1284.183,783.134z"/>
		</g>
		<path style="fill:#1B3D9E;" d="M1046.021,656.225c-0.16,6.81-2.157,13.719-6.47,18.992c-3.702,4.527-8.898,7.625-14.329,9.792
			c1.714-7.011,2.129-14.337,1.22-21.497c-1.119,9.366-7.215,17.561-14.707,23.292s-16.344,9.355-25.08,12.913
			c1.884-6.51,3.033-13.233,3.417-19.999c-4.629,13.282-10.87,26.935-22.552,34.77c-4.271-7.523-8.546-15.052-12.326-22.834
			c-2.782-5.727-5.327-11.72-5.836-18.066c-1.06-13.208,6.952-25.679,17.049-34.261c15.442-13.125,36.485-19.425,56.599-16.943
			c4.393,0.542,8.817,1.512,12.659,3.71c3.144,1.799,7.206,5.26,7.566,9.145c0.158,1.711-0.036,3.21,0.442,4.916
			c0.683,2.438,1.283,4.893,1.697,7.392C1045.842,650.413,1046.089,653.32,1046.021,656.225z"/>
		<g>
			<defs>
				<path id="XMLID_188_" d="M1291.397,788.47c0,0,10.679-35.21,12.641-33.248c1.962,1.962,2.853,4.102,2.853,5.528
					c0,1.427-1.962,13.91-0.713,13.91c1.248,0,21.757-5.707,24.253-7.49c2.497-1.783,26.215-24.61,26.394-22.47
					c0.178,2.14,1.07,5.528-0.892,8.738c-1.962,3.21-16.764,19.438-16.764,19.438s25.68-22.47,27.642-23.719
					c1.962-1.248,3.032,2.853,2.318,6.242c-0.713,3.388-23.897,24.254-23.897,24.254s22.379-15.693,24.119-16.763
					c1.74-1.07,0.222,3.388,0,5.885s-22.692,21.757-22.87,22.292c-0.178,0.535,20.687,4.28,20.687,6.42s-29.425,0-29.425,0
					l-30.566,7.779C1307.177,805.267,1292.13,798.891,1291.397,788.47z"/>
			</defs>
			<use xlink:href="#XMLID_188_"  style="overflow:visible;fill:#FE8E9C;"/>
			<clipPath id="XMLID_00000075125187521451302150000002804799104583187336_">
				<use xlink:href="#XMLID_188_"  style="overflow:visible;"/>
			</clipPath>
			<path style="clip-path:url(#XMLID_00000075125187521451302150000002804799104583187336_);fill:#E57492;" d="M1306.178,774.661
				c0,0,12.031,9.144,12.649,10.688c0.617,1.544,0,9.726,0.617,8.954c0.618-0.772,4.168-8.077,3.396-9.905
				c-0.772-1.828-12.813-10.626-12.813-10.626L1306.178,774.661"/>
		</g>
	</g>
</g>
<g>
	<g>
		<path style="fill:#1B3D9E;" d="M500.41,1694.515v34.818c0,8.118,5.701,15.115,13.654,16.744
			c61.576,12.613,330.723,61.906,793.289,65.877c530.831,4.557,1230.302-21.447,1341.944-39.203
			c77.653-12.351,115.972-25.682,132.107-32.654c6.005-2.595,9.874-8.531,9.874-15.072v-30.509H500.41z"/>
		<g>
			<defs>
				<ellipse id="XMLID_187_" cx="1645.844" cy="1694.515" rx="1145.434" ry="78.235"/>
			</defs>
			<use xlink:href="#XMLID_187_"  style="overflow:visible;fill:#D4DFFF;"/>
			<clipPath id="XMLID_00000150074125255550893250000017772465697260313001_">
				<use xlink:href="#XMLID_187_"  style="overflow:visible;"/>
			</clipPath>
			<path style="opacity:0.2;clip-path:url(#XMLID_00000150074125255550893250000017772465697260313001_);fill:#1B3D9E;" d="
				M753.389,1678.715c0,0,990.885,137.291,1020.967,133.766s958.028-56.354,949.194-54.273
				c-8.834,2.08-235.967-100.164-235.967-100.164L753.389,1678.715"/>
		</g>
	</g>
	<g>
		<g>
			<defs>
				<path id="XMLID_186_" d="M1076.4,1042.53c0,0-340.782,635.254-323.011,636.185c17.771,0.932,536.07,14.312,536.07,14.312
					L1076.4,1042.53z"/>
			</defs>
			<use xlink:href="#XMLID_186_"  style="overflow:visible;fill:#FC476A;"/>
			<clipPath id="XMLID_00000021113112325870047050000008830319134685791406_">
				<use xlink:href="#XMLID_186_"  style="overflow:visible;"/>
			</clipPath>
			<path style="clip-path:url(#XMLID_00000021113112325870047050000008830319134685791406_);fill:#FE8E9C;" d="M1106.549,1040.059
				c0,0-298.588,651.646-330.018,652.968c-31.43,1.322-52.384-14.312-52.384-14.312s319.541-654.878,338.749-653.132
				C1082.103,1027.329,1106.549,1040.059,1106.549,1040.059"/>
			<path style="clip-path:url(#XMLID_00000021113112325870047050000008830319134685791406_);fill:#D40221;" d="M1076.4,1042.53
				c0,0,121.366,606.1,84.144,674.281l188.079,2.351l-232.354-679.103L1076.4,1042.53"/>
		</g>
		<path style="fill:#8C9EF4;" d="M1076.4,1042.53c0,0,192.605,650.497,213.058,650.497c20.453,0,1211.441-10.977,1225.341-13.344
			c13.899-2.368-243.041-631.593-265.28-637.153C2227.28,1036.97,1076.4,1042.53,1076.4,1042.53z"/>
		<g>
			<path style="fill:#D4DFFF;" d="M1286.198,1554.563c21.721,60.794,38.449,102.428,43.154,102.435
				c39.36,0.063,79.675,0.059,120.535-0.003c-8.608-21.566-22.411-58.746-38.907-104.204
				C1357.465,1553.767,1314.246,1554.404,1286.198,1554.563z"/>
			<path style="fill:#D4DFFF;" d="M1365.896,1427.046c-51.827,0.94-94.202,1.572-122.827,1.773
				c11.827,35.562,23.486,69.878,34.248,100.622c25.894-0.755,69.203-1.711,124.219-2.762
				C1390.354,1495.672,1378.253,1461.813,1365.896,1427.046z"/>
			<path style="fill:#D4DFFF;" d="M1285.322,1198.385c-52.789,0.943-93.195,1.469-115.316,1.407
				c8.56,28.198,18.412,59.891,28.939,93.105c26.377-0.724,67.436-1.612,118.629-2.584
				C1306.047,1257.54,1295.095,1226.308,1285.322,1198.385z"/>
			<path style="fill:#D4DFFF;" d="M1326.767,1316.43c-50.439,0.91-91.715,1.521-119.782,1.718
				c9.004,28.154,18.365,57.008,27.729,85.43c26.864-0.739,69.127-1.652,121.91-2.649
				C1346.615,1372.697,1336.548,1344.194,1326.767,1316.43z"/>
			<path style="fill:#D4DFFF;" d="M1433.892,1552.365l37.348,104.594c44.44-0.088,89.439-0.243,134.483-0.453
				c-8.428-20.818-22.721-59.25-39.991-106.831C1518.139,1550.698,1473.621,1551.611,1433.892,1552.365z"/>
			<path style="fill:#D4DFFF;" d="M1588.614,1549.179l38.286,107.223c45.04-0.227,90.044-0.508,134.496-0.832
				c-8.209-19.951-22.99-59.632-41.037-109.348C1675.08,1547.264,1630.79,1548.26,1588.614,1549.179z"/>
			<path style="fill:#D4DFFF;" d="M1897.783,1542.042l39.991,111.998c46.622-0.468,91.706-0.972,134.55-1.497
				c-7.644-17.864-23.339-59.875-42.881-113.705C1986.685,1539.89,1942.453,1540.968,1897.783,1542.042z"/>
			<path style="fill:#D4DFFF;" d="M1245.043,1082.968c-65.503,0.684-106.08,1.556-106.132,2.625
				c-0.29,5.995,9.018,40.368,23.67,89.53c18.653-0.716,58.918-1.7,113.62-2.814
				C1260.45,1127.251,1248.966,1094.249,1245.043,1082.968z"/>
			<path style="fill:#D4DFFF;" d="M2052.297,1538.274l40.71,114.011c42.44-0.536,82.485-1.09,119.417-1.649
				c-8.083-19.246-23.876-61.624-43.333-115.27C2132.335,1536.289,2093.092,1537.267,2052.297,1538.274z"/>
			<path style="fill:#D4DFFF;" d="M1743.229,1545.695l39.177,109.719c45.705-0.349,90.734-0.742,134.524-1.167
				c-7.945-18.958-23.197-59.841-42.007-111.656C1830.951,1543.643,1786.726,1544.687,1743.229,1545.695z"/>
			<path style="fill:#D4DFFF;" d="M2272.134,1390.438c42.968,0.077,76.052,0.422,95.51,1.105
				c-13.327-32.934-27.037-66.375-40.354-98.487c-20.633,0.53-51.16,1.31-89.116,2.272L2272.134,1390.438z"/>
			<path style="fill:#D4DFFF;" d="M1431.035,1169.46c-14.796-42.325-25.88-74.162-30.552-87.592
				c-50.047,0.243-95.656,0.54-134.273,0.894l31.819,89.111C1337.037,1171.105,1382.086,1170.288,1431.035,1169.46z"/>
			<path style="fill:#D4DFFF;" d="M2272.057,1162.379c-20.372-47.012-34.623-78.001-36.785-78.866
				c-1.425-0.57-28.491-1.047-73.241-1.424l28.308,79.278C2226.293,1161.468,2254.396,1161.789,2272.057,1162.379z"/>
			<path style="fill:#D4DFFF;" d="M2317.027,1516.164c50.078,0.122,85.773,0.637,100.654,1.662
				c-13.378-34.719-28.93-73.968-45.209-114.333c-19.675,0.506-52.464,1.346-94.812,2.42L2317.027,1516.164z"/>
			<path style="fill:#D4DFFF;" d="M2168.281,1161.332c-11.801-33.745-21.458-61.444-27.715-79.408
				c-31.08-0.217-68.548-0.395-110.501-0.533l28.673,80.299C2099.252,1161.447,2136.248,1161.318,2168.281,1161.332z"/>
			<path style="fill:#D4DFFF;" d="M2191.961,1534.792l41.25,115.525c41.516-0.651,78.636-1.304,110.232-1.935
				c-7.828-18.354-23.886-61.392-43.811-116.319C2267.911,1532.873,2231.592,1533.794,2191.961,1534.792z"/>
			<path style="fill:#D4DFFF;" d="M1741.088,1164.863c-13.186-37.715-23.546-67.448-29.237-83.798
				c-45.003,0.035-90.226,0.101-134.458,0.199l30.502,85.422C1651.722,1166.049,1696.482,1165.434,1741.088,1164.863z"/>
			<path style="fill:#D4DFFF;" d="M1586.008,1167.007c-13.933-39.855-24.636-70.586-29.893-85.694
				c-46.631,0.115-91.915,0.267-134.399,0.456l31.181,87.325C1495.15,1168.393,1539.951,1167.689,1586.008,1167.007z"/>
			<path style="fill:#D4DFFF;" d="M2036.766,1161.831c-12.279-35.119-22.134-63.395-28.092-80.506
				c-37.219-0.107-77.497-0.185-119.624-0.233l29.188,81.743C1959.66,1162.426,1999.511,1162.084,2036.766,1161.831z"/>
			<path style="fill:#D4DFFF;" d="M1896.287,1163.057c-12.54-35.864-22.592-64.705-28.609-81.987
				c-43.55-0.038-88.81-0.045-134.502-0.02l29.828,83.535C1808.155,1164.021,1852.96,1163.504,1896.287,1163.057z"/>
			<path style="fill:#D4DFFF;" d="M2232.615,1279.761c38.254,0.055,68.936,0.317,89.498,0.832
				c-16.167-38.863-31.588-75.363-44.844-106.148c-17.751,0.474-45.756,1.218-81.489,2.159L2232.615,1279.761z"/>
			<path style="fill:#D4DFFF;" d="M1543.722,1423.457l35.759,100.145c42.161-0.669,86.537-1.338,131.975-1.985
				c-11.319-31.37-23.609-65.748-36.171-101.088C1630.078,1421.561,1585.855,1422.547,1543.722,1423.457z"/>
			<path style="fill:#D4DFFF;" d="M1698.348,1420.002l36.168,101.291c43.574-0.608,87.929-1.194,132.07-1.738
				c-11.47-31.776-23.957-66.7-36.727-102.625C1785.934,1417.972,1741.778,1419.005,1698.348,1420.002z"/>
			<path style="fill:#D4DFFF;" d="M1388.992,1426.619l35.574,99.627c39.502-0.731,84.052-1.5,131.866-2.274
				c-11.216-31.093-23.368-65.09-35.784-100.019C1473.18,1424.965,1428.739,1425.869,1388.992,1426.619z"/>
			<path style="fill:#D4DFFF;" d="M1481.521,1313.346c-47.682,1.015-92.261,1.92-132.024,2.666l30.168,84.488
				c39.574-0.725,84.109-1.486,131.858-2.252C1501.47,1369.895,1491.353,1341.252,1481.521,1313.346z"/>
			<path style="fill:#D4DFFF;" d="M1852.914,1416.382l36.74,102.892c44.815-0.539,89.226-1.032,132.178-1.459
				c-11.664-32.298-24.405-67.928-37.443-104.604C1941.652,1414.253,1897.492,1415.319,1852.914,1416.382z"/>
			<path style="fill:#D4DFFF;" d="M2007.439,1412.648l37.472,104.943c40.993-0.39,80.444-0.715,117.4-0.959
				c-11.913-32.995-24.934-69.423-38.239-106.861C2087.294,1410.685,2048.117,1411.652,2007.439,1412.648z"/>
			<path style="fill:#D4DFFF;" d="M2140.546,1390.802c39.731-0.235,76.267-0.369,108.367-0.38
				c-11.179-31.505-22.477-63.484-33.409-94.52c-32.052,0.81-68.414,1.724-107.877,2.708L2140.546,1390.802z"/>
			<path style="fill:#D4DFFF;" d="M2421.939,1528.916c-15.842,0.412-50.923,1.322-99.443,2.563l41.591,116.477
				c57.493-1.228,92.309-2.35,95.652-3.186C2464.041,1643.694,2447.616,1596.037,2421.939,1528.916z"/>
			<path style="fill:#D4DFFF;" d="M2147.115,1409.196l38.311,107.292c39.928-0.232,76.516-0.357,108.441-0.353
				c-12.178-33.704-25.559-71.13-39.245-109.638C2222.75,1407.302,2186.511,1408.214,2147.115,1409.196z"/>
			<path style="fill:#D4DFFF;" d="M1440.058,1195.254c-48.56,1.062-93.472,1.991-132.705,2.728l32.818,91.909
				c39.601-0.728,84.301-1.495,132.296-2.267C1460.889,1254.709,1449.883,1223.324,1440.058,1195.254z"/>
			<path style="fill:#D4DFFF;" d="M2209.818,1279.752c-12.918-36.708-25.192-71.708-35.993-102.571
				c-31.773,0.834-68.419,1.792-108.546,2.83l35.757,100.14C2140.849,1279.91,2177.525,1279.77,2209.818,1279.752z"/>
			<path style="fill:#D4DFFF;" d="M2117.391,1390.948c-10.863-30.625-21.822-61.648-32.433-91.774
				c-36.925,0.918-76.23,1.888-117.006,2.885l32.083,89.85C2040.953,1391.521,2080.379,1391.195,2117.391,1390.948z"/>
			<path style="fill:#D4DFFF;" d="M1976.904,1392.134c-10.588-29.846-21.272-60.086-31.643-89.521
				c-42.877,1.045-87.161,2.114-131.837,3.178l31.349,87.795C1889.546,1393.051,1933.932,1392.561,1976.904,1392.134z"/>
			<path style="fill:#D4DFFF;" d="M1627.482,1285.285c-11.727-33.337-22.88-65.139-32.826-93.556
				c-45.782,1.079-90.397,2.104-132.591,3.04l33.027,92.495C1537.359,1286.597,1581.874,1285.931,1627.482,1285.285z"/>
			<path style="fill:#D4DFFF;" d="M1821.669,1393.866c-10.358-29.203-20.798-58.755-30.938-87.535
				c-44.069,1.045-88.348,2.08-131.873,3.078l30.773,86.182C1733.188,1394.988,1777.527,1394.406,1821.669,1393.866z"/>
			<path style="fill:#D4DFFF;" d="M1504.231,1312.859l30.359,85.023c42.171-0.663,86.534-1.326,131.956-1.968
				c-10.178-28.702-20.429-57.718-30.388-85.986C1590.789,1310.961,1546.442,1311.949,1504.231,1312.859z"/>
			<path style="fill:#D4DFFF;" d="M1782.598,1283.231c-11.941-33.942-23.3-66.331-33.415-95.227
				c-44.338,1.09-88.869,2.168-132.532,3.205l33.478,93.759C1693.803,1284.36,1738.289,1283.776,1782.598,1283.231z"/>
			<path style="fill:#D4DFFF;" d="M1937.825,1281.493c-12.214-34.711-23.835-67.848-34.159-97.344
				c-43.045,1.089-87.578,2.204-132.493,3.313l34.098,95.494C1850.161,1282.417,1894.693,1281.923,1937.825,1281.493z"/>
			<path style="fill:#D4DFFF;" d="M2078.312,1280.296c-12.554-35.682-24.473-69.672-34.988-99.718
				c-36.98,0.955-76.541,1.969-117.674,3.013l34.878,97.679C2001.567,1280.878,2041.137,1280.548,2078.312,1280.296z"/>
			<path style="fill:#8C9EF4;" d="M1250.52,1530.609c0,0,5.984,17.449,0,23.266c-0.636,0.618,12.213,0.82,35.678,0.687
				c-2.879-8.057-5.843-16.443-8.881-25.121C1260.886,1529.921,1251.464,1530.319,1250.52,1530.609z"/>
			<path style="fill:#8C9EF4;" d="M1151.104,1175.805c0,0,5.817,17.449,0,23.266c-0.456,0.456,6.221,0.685,18.902,0.721
				c-2.599-8.563-5.081-16.807-7.424-24.669C1155.644,1175.39,1151.69,1175.619,1151.104,1175.805z"/>
			<path style="fill:#8C9EF4;" d="M1459.253,1677.367c7.641-0.191,19.103-0.478,19.103-0.478l-7.117-19.931
				c-7.133,0.014-14.251,0.027-21.352,0.037C1455.099,1670.052,1458.407,1677.388,1459.253,1677.367z"/>
			<path style="fill:#8C9EF4;" d="M1202.359,1404.896c0,0,6.035,17.449,0,23.266c-0.683,0.658,14.05,0.845,40.71,0.657
				c-2.779-8.355-5.567-16.779-8.355-25.242C1214.856,1404.124,1203.409,1404.575,1202.359,1404.896z"/>
			<path style="fill:#8C9EF4;" d="M1166.251,1294.224c0,0,6.035,17.449,0,23.266c-0.683,0.658,14.06,0.845,40.734,0.657
				c-2.716-8.492-5.399-16.918-8.04-25.251C1178.879,1293.447,1167.307,1293.902,1166.251,1294.224z"/>
			<path style="fill:#8C9EF4;" d="M1613.732,1673.502c7.641-0.191,19.103-0.478,19.103-0.478l-5.935-16.622
				c-7.059,0.036-14.119,0.07-21.178,0.103C1610.152,1667.445,1612.962,1673.522,1613.732,1673.502z"/>
			<path style="fill:#8C9EF4;" d="M2348.415,1658.044c7.641-0.191,19.103-0.478,19.103-0.478l-3.431-9.61
				c-6.587,0.141-13.474,0.283-20.643,0.426C2346.122,1654.662,2347.839,1658.058,2348.415,1658.044z"/>
			<path style="fill:#8C9EF4;" d="M1768.212,1669.638c7.641-0.191,19.103-0.478,19.103-0.478l-4.908-13.746
				c-6.988,0.053-13.992,0.106-21.01,0.157C1765.137,1664.66,1767.512,1669.655,1768.212,1669.638z"/>
			<path style="fill:#8C9EF4;" d="M2218.077,1661.908c7.641-0.191,19.103-0.478,19.103-0.478l-3.969-11.114
				c-6.812,0.107-13.743,0.213-20.787,0.32C2215.494,1657.945,2217.454,1661.924,2218.077,1661.908z"/>
			<path style="fill:#8C9EF4;" d="M2077.17,1661.908c7.641-0.191,19.103-0.478,19.103-0.478l-3.265-9.145
				c-6.833,0.086-13.728,0.172-20.683,0.257C2074.931,1658.634,2076.603,1661.923,2077.17,1661.908z"/>
			<path style="fill:#8C9EF4;" d="M1922.691,1665.773c7.641-0.191,19.103-0.478,19.103-0.478l-4.019-11.255
				c-6.915,0.07-13.864,0.138-20.844,0.206C1920.063,1661.72,1922.06,1665.789,1922.691,1665.773z"/>
			<path style="fill:#8C9EF4;" d="M1882.498,1062.741l-21.013,0.526c0,0,2.215,6.376,6.194,17.803
				c7.172,0.006,14.298,0.013,21.372,0.022L1882.498,1062.741z"/>
			<path style="fill:#8C9EF4;" d="M2357.192,1292.286c0,0,0,0-6.035-9.694c-0.552-0.887-10.826-1.542-29.044-1.999
				c1.718,4.129,3.444,8.285,5.177,12.463C2346.552,1292.561,2357.192,1292.286,2357.192,1292.286z"/>
			<path style="fill:#8C9EF4;" d="M2298.886,1173.866c0,0,0,0-5.816-9.694c-0.457-0.761-7.825-1.352-21.012-1.793
				c1.695,3.91,3.435,7.941,5.211,12.065C2291.263,1174.071,2298.886,1173.866,2298.886,1173.866z"/>
			<path style="fill:#8C9EF4;" d="M2153.743,1058.877l-21.014,0.526c0,0,2.829,8.144,7.836,22.522
				c7.541,0.053,14.705,0.107,21.465,0.165L2153.743,1058.877z"/>
			<path style="fill:#8C9EF4;" d="M1264.582,1078.2l-21.013,0.526c0,0,0.509,1.466,1.475,4.242
				c6.793-0.071,13.855-0.14,21.167-0.207L1264.582,1078.2z"/>
			<path style="fill:#8C9EF4;" d="M2393.3,1402.957c0,0,0,0-6.035-9.694c-0.448-0.72-7.308-1.287-19.621-1.72
				c1.615,3.992,3.226,7.977,4.828,11.951C2385.973,1403.147,2393.3,1402.957,2393.3,1402.957z"/>
			<path style="fill:#8C9EF4;" d="M2431.352,1528.671c0,0,0,0-5.984-9.694c-0.271-0.439-2.909-0.821-7.687-1.15
				c1.445,3.751,2.865,7.449,4.258,11.089C2428.099,1528.756,2431.352,1528.671,2431.352,1528.671z"/>
			<path style="fill:#8C9EF4;" d="M1573.54,1070.471l-21.013,0.526c0,0,1.261,3.631,3.588,10.317
				c7.064-0.017,14.159-0.034,21.279-0.05L1573.54,1070.471z"/>
			<path style="fill:#8C9EF4;" d="M1419.061,1074.335l-21.014,0.526c0,0,0.849,2.442,2.436,7.007
				c6.993-0.034,14.072-0.067,21.231-0.099L1419.061,1074.335z"/>
			<path style="fill:#8C9EF4;" d="M1728.019,1066.606l-21.013,0.526c0,0,1.719,4.947,4.846,13.933
				c7.115-0.005,14.225-0.01,21.325-0.014L1728.019,1066.606z"/>
			<path style="fill:#8C9EF4;" d="M2023.405,1062.741l-21.014,0.526c0,0,2.248,6.469,6.282,18.058
				c7.248,0.021,14.383,0.043,21.39,0.066L2023.405,1062.741z"/>
		</g>
		<path style="opacity:0.12;fill:#8C9EF4;" d="M1128.922,1078.2c0,0,782.088-3.89,788.009-4.365
			c5.921-0.475,474.528,584.208,474.528,584.208l-969.744,19.323L1128.922,1078.2z"/>
	</g>
</g>
<polygon style="fill:#FE8E9C;" points="2237.435,1582.59 2265.925,1609.043 2289.073,1604.646 2308.475,1584.114 2282.626,1548.331 
	"/>
<polygon style="fill:#FE8E9C;" points="1918.275,1621.625 1929.62,1653.415 1952.876,1665.472 1982.532,1655.884 1970.681,1607.88 
	"/>
<g>
	<g>
		<g>
			<defs>
				<path id="XMLID_185_" d="M2308.475,1584.114l-19.403,20.531l-25.736,4.889c0,0-6.461,36.443-7.382,38.782
					c-0.921,2.339-29.022,66.887-27.103,69.235c1.919,2.348,10.623,15.623,13.378,12.298c2.755-3.325,94.934-110.263,96.919-116.499
					C2341.133,1607.113,2308.475,1584.114,2308.475,1584.114z"/>
			</defs>
			<use xlink:href="#XMLID_185_"  style="overflow:visible;fill:#1B3D9E;"/>
			<clipPath id="XMLID_00000181796105188222124130000011383072043910950822_">
				<use xlink:href="#XMLID_185_"  style="overflow:visible;"/>
			</clipPath>
			<path style="clip-path:url(#XMLID_00000181796105188222124130000011383072043910950822_);fill:#1C056D;" d="M2336.632,1604.643
				l-86.261,105.804c0,0-21.566-6.152-23.818-4.478c-2.252,1.673-2.956,21.294,2.119,24.246c5.075,2.952,15.473,5.591,15.473,5.591
				s105.387-121.102,102.759-123.909S2336.632,1604.643,2336.632,1604.643z"/>
		</g>
		<path style="fill:#1C056D;" d="M2258.833,1634.283c0,0,21.125,5.844,20.733,8.435c-0.393,2.59-2.45,4.212-2.45,4.212
			l-19.598-5.769L2258.833,1634.283z"/>
		<path style="fill:#1C056D;" d="M2255.443,1649.534c0,0,17.75,4.867,17.358,7.457c-0.393,2.59-2.45,4.212-2.45,4.212l-17.672-5.202
			L2255.443,1649.534z"/>
		<path style="fill:#1C056D;" d="M2249.572,1663.292c0,0,15.938,4.318,15.545,6.908s-2.45,4.212-2.45,4.212l-15.829-4.659
			L2249.572,1663.292z"/>
		<path style="fill:#1C056D;" d="M2262.59,1619.1c0,0-15.718-16.029-26.125-13.474c-10.407,2.555-11.124,21.545-1.838,25.224
			c9.285,3.679,28.57-9.832,28.57-9.832s-25.087,6.536-28.188,3.794c-3.1-2.742-1.507-13.554,1.812-15.223
			C2240.139,1607.919,2262.59,1619.1,2262.59,1619.1z"/>
	</g>
	<g>
		<g>
			<defs>
				<path id="XMLID_184_" d="M1982.532,1655.884l-29.655,9.588l-23.256-12.057c0,0-27.598,24.662-29.767,25.932
					c-2.169,1.27-64.147,34.659-64.089,37.691s-1.301,18.848,2.92,17.936c4.221-0.912,142.773-28.039,148.187-31.716
					S1982.532,1655.884,1982.532,1655.884z"/>
			</defs>
			<use xlink:href="#XMLID_184_"  style="overflow:visible;fill:#1B3D9E;"/>
			<clipPath id="XMLID_00000047036901268895122080000016756342532928376209_">
				<use xlink:href="#XMLID_184_"  style="overflow:visible;"/>
			</clipPath>
			<path style="clip-path:url(#XMLID_00000047036901268895122080000016756342532928376209_);fill:#1C056D;" d="M1990.273,1694.856
				l-133.199,29.892c0,0-13.156-18.162-15.96-18.238c-2.805-0.076-15.481,14.916-13.315,20.373
				c2.166,5.457,8.712,13.956,8.712,13.956s157.69-30.103,157.358-33.934C1993.535,1703.073,1990.273,1694.856,1990.273,1694.856z"
				/>
		</g>
		<path style="fill:#1C056D;" d="M1910.787,1670.091c0,0,12.999,17.648,11.09,19.442c-1.909,1.794-4.528,1.798-4.528,1.798
			l-11.845-16.645L1910.787,1670.091z"/>
		<path style="fill:#1C056D;" d="M1898.699,1679.988c0,0,10.949,14.794,9.04,16.588c-1.909,1.794-4.528,1.798-4.528,1.798
			l-10.681-15.009L1898.699,1679.988z"/>
		<path style="fill:#1C056D;" d="M1885.582,1687.178c0,0,9.863,13.243,7.954,15.037c-1.909,1.794-4.528,1.798-4.528,1.798
			l-9.567-13.444L1885.582,1687.178z"/>
		<path style="fill:#1C056D;" d="M1923.123,1660.474c0,0-2.455-22.315-12.216-26.737s-22.058,10.067-17.031,18.697
			c5.027,8.63,28.538,9.922,28.538,9.922s-23.764-10.362-24.507-14.433c-0.743-4.072,7.19-11.588,10.831-10.85
			C1912.379,1637.812,1923.123,1660.474,1923.123,1660.474z"/>
	</g>
	<g>
		<g>
			<g>
				<g>
					<defs>
						<path id="XMLID_183_" d="M2117.391,1299.174c-6.95-13.225-99.391-345.503-99.391-345.503l-80.089,8.193l-144.215,6.257
							l15.079,63.298c0,0-79.612,246.934-77.586,283.568c2.026,36.634,166.058,324.023,175.074,324.023s90.608-11.293,89.889-25.96
							c-0.719-14.667-133.614-298.279-132.498-306.352c0.55-3.981,34.213-75.439,68.194-146.847
							c30.178,86.67,61.09,173.659,69.226,190.192c17.103,34.753,211.216,250.604,229.099,251.271
							c14.851,0.553,64.65-35.127,81.11-47.242c2.956-2.176,3.587-6.328,1.407-9.281
							C2286.66,1509.513,2123.725,1311.225,2117.391,1299.174z"/>
					</defs>
					<use xlink:href="#XMLID_183_"  style="overflow:visible;fill:#1B3D9E;"/>
					<clipPath id="XMLID_00000125560933142813175320000006025768158566286234_">
						<use xlink:href="#XMLID_183_"  style="overflow:visible;"/>
					</clipPath>
					<path style="opacity:0.56;clip-path:url(#XMLID_00000125560933142813175320000006025768158566286234_);fill:#1C056D;" d="
						M1795.871,1045.44c0,0,106.072,28.781,158.067,28.395c51.995-0.386,119.885-11.094,119.885-11.094
						s-16.492-56.949-20.089-60.071c-3.597-3.122-272.693,7.128-271.136,14.257S1795.871,1045.44,1795.871,1045.44z"/>
				</g>
				<path style="opacity:0.56;fill:#1C056D;" d="M1931.847,1159.851l-14.917-71.854c0,0-79.395,187.475-76.957,208.344
					c2.438,20.869,91.873,172.771,91.873,172.771s-70.118-152.198-68.194-162.414S1931.847,1159.851,1931.847,1159.851z"/>
			</g>
			<g>
				<defs>
					<path id="XMLID_23_" d="M2117.391,812.647c-2.846-6.164-107.357-132.555-116.324-143.394c-0.215-0.331-0.424-0.584-0.627-0.757
						c-14.184-12.126-86.387-41.018-86.387-41.018l-86.058,2.841c0,0-62.208,50.664-83.217,70.282
						c-0.393,0.367-1.586,1.707-1.869,2.478c-9.071,15.481-76.311,130.807-91.779,153.338
						c-7.626,11.107-194.978-50.91-194.978-50.91l-11.398,57.74c0,0,169.705,127.438,210.02,115.893
						c30.18-8.642,85.954-69.292,112.089-99.24c14.771,79.259,30.815,154.75,30.815,154.75
						c41.599,18.293,254.62-16.602,254.62-16.602s-8.075-70.26-18.093-147.804c14.499,13.373,26.676,23.982,31.074,27.42
						c13.185,10.305,194.202,101.761,206.778,99.185c12.576-2.576,38.948-39.932,41.929-45.302
						C2316.967,946.176,2120.364,819.087,2117.391,812.647z"/>
				</defs>
				<use xlink:href="#XMLID_23_"  style="overflow:visible;fill:#FC476A;"/>
				<clipPath id="XMLID_00000104674800278581599040000017438171942435119030_">
					<use xlink:href="#XMLID_23_"  style="overflow:visible;"/>
				</clipPath>
				<path style="clip-path:url(#XMLID_00000104674800278581599040000017438171942435119030_);fill:#D40221;" d="M2034.205,870.243
					c0,0-69.59-76.134-68.984-73.109c0.605,3.026,55.67,119.206,78.059,122.837C2065.668,923.602,2034.205,870.243,2034.205,870.243
					"/>
				<path style="clip-path:url(#XMLID_00000104674800278581599040000017438171942435119030_);fill:#D40221;" d="M1770.014,888.477
					c0,0-22.914-111.884-23.768-105.906c-0.854,5.979-16.228,138.361-6.833,138.361
					C1748.809,920.932,1770.014,888.477,1770.014,888.477"/>
				<path style="clip-path:url(#XMLID_00000104674800278581599040000017438171942435119030_);fill:#FFFFFF;" d="M1774.986,946.015
					c0,0,223.136-9.501,272.363-15.752c0,0,10.343,21.98,3.907,23.408c-6.436,1.429-273.587,21.912-276.27,17.223
					C1772.304,966.206,1774.986,946.015,1774.986,946.015z"/>
				<path style="clip-path:url(#XMLID_00000104674800278581599040000017438171942435119030_);fill:#FFFFFF;" d="M1782.118,990.537
					c0,0,86.269-2.198,137.92-4.945c51.651-2.747,129.129-17.034,130.228-12.638c1.099,4.396,4.769,12.24,1.648,13.737
					c-3.12,1.497-121.436,20.331-127.48,19.781c-6.044-0.549-131.876,9.891-135.723,6.594S1782.118,990.537,1782.118,990.537z"/>
			</g>
			<path style="fill:#1C056D;" d="M1804.651,442.511c0,0-30.57,9.771-33.969,22.09c-3.398,12.319,7.273,55.966,7.273,55.966
				l36.057-39.028L1804.651,442.511z"/>
			<g>
				<defs>
					<path id="XMLID_22_" d="M1783.341,487.169c2.64-13.885,13.236-25.011,27.06-27.954c24.495-5.213,55.24,4.758,63.842,14.37
						c11.98,13.386-6.003,70.921-10.967,83.925c0,0,33.604,55.546,37.21,63.959c0.02,0.047,0.03,0.098,0.048,0.146l26.068,11.306
						c0,0-14.572,47.53-48.194,71.662c-16.001,11.485-38.184,6.986-48.513-9.784c-7.442-12.083-14.243-29.536-14.953-53.429
						l13.052-11.05c-2.937-13.23-5.885-27.549-7.189-36.498c-11.053,5.167-22.632,7.824-32.604,5.081
						C1765.783,592.734,1777.378,518.529,1783.341,487.169z"/>
				</defs>
				<use xlink:href="#XMLID_22_"  style="overflow:visible;fill:#FE8E9C;"/>
				<clipPath id="XMLID_00000132772685639304286770000016825730918447601082_">
					<use xlink:href="#XMLID_22_"  style="overflow:visible;"/>
				</clipPath>
				<path style="clip-path:url(#XMLID_00000132772685639304286770000016825730918447601082_);fill:#E57492;" d="M1781.075,472.84
					c0,0-23.202,32.522,23.774,30.038c46.976-2.484,40.758,6.874,40.595,8.152c-0.162,1.278,7.481-11.54,5.35-17.186
					C1848.663,488.197,1781.075,472.84,1781.075,472.84z"/>
			</g>
			<g>
				<path style="fill:#E57492;" d="M1795.726,498.213c0,0-16.196,36.133-10.305,40c5.89,3.867,20.486-4.493,20.486-4.493l0,0
					c-0.205,2.585-0.17,4.384-2.616,5.246c-7.082,2.495-18.386,6.808-21.324,1.158
					C1776.806,530.196,1795.726,498.213,1795.726,498.213z"/>
				<path style="fill:#E57492;" d="M1820.806,593.821c0,0,22.161-15.39,29.396-24.624c0,0-5.941,31.403-26.589,40.384
					L1820.806,593.821z"/>
			</g>
			<path style="fill:#FFFFFF;" d="M1783.759,562.694c0,0,9.076,7.428,15.787,0.956c0,0,0.992,7.673-9.076,9.111
				C1780.403,574.199,1783.759,562.694,1783.759,562.694z"/>
			<path style="fill:#1B3D9E;" d="M1790.391,448.234c0,0-17.22,45.32,19.627,47.239c36.847,1.919,37.231,6.141,36.08,11.515
				c-1.151,5.373-2.302,21.075-2.302,21.075s7.589-12.822,11.252-11.252c3.663,1.57,9.943,13.869,7.065,18.317
				c-2.878,4.448-16.747,7.438-17.532,7.775c-0.785,0.337,18.696,14.607,18.696,14.607s11.658-1.448,19.77-10.607
				s18.579-62.016,14.654-80.857c-3.925-18.84-70.557-38.727-83.688-38.989C1800.882,426.796,1790.391,448.234,1790.391,448.234z"/>
		</g>
		<g>
			<g>
				<path style="fill:#8C9EF4;" d="M1390.927,850.384c-0.747-0.01-1.365-0.567-1.451-1.31c-1.254-10.736-9.793-83.539-7.282-85.422
					c2.708-2.031,60.081-3.87,62.26-1.279c2.263,2.69-3.384,87.316-5.415,87.993
					C1437.208,850.976,1398.552,850.487,1390.927,850.384z"/>
				<path style="fill:#D4DFFF;" d="M1381.722,763.905c0,0,3.664-9.738,6.205-11.009c2.541-1.271,52.089-1.112,52.883,0
					s4.043,10.24,4.043,10.24S1402.318,764.258,1381.722,763.905z"/>
				<path style="fill:#D4DFFF;" d="M1390.927,850.384c0,0-0.811,4.27,0.669,4.838c0.644,0.247,38.838,0.892,46.302,0.098
					c0.233-0.025,0.42-0.203,0.452-0.435c0.076-0.553,0.146-1.804-0.083-4.415C1438.267,850.469,1394.141,850.373,1390.927,850.384z
					"/>
				<ellipse style="fill:#D4DFFF;" cx="1413.357" cy="803.759" rx="14.223" ry="15.868"/>
			</g>
			<g>
				<defs>
					<path id="XMLID_25_" d="M1438.35,854.884c6.044,1.79,7.722,1.687,7.722,1.687l8.701-44.076c0,0-10.514-10.956-12.862-11.102
						c-5.521-0.343-37.185,11.598-36.809,13.476s0.927,6.122,7.874,5.183c6.947-0.939,27.053-3.38,27.053-3.38l-2.511,17.764
						L1438.35,854.884z"/>
				</defs>
				<use xlink:href="#XMLID_25_"  style="overflow:visible;fill:#FE8E9C;"/>
				<clipPath id="XMLID_00000116938944999989629970000006709172209395851710_">
					<use xlink:href="#XMLID_25_"  style="overflow:visible;"/>
				</clipPath>
				<path style="clip-path:url(#XMLID_00000116938944999989629970000006709172209395851710_);fill:#E57492;" d="M1440.028,816.673
					c0,0,3.096,11.115,3.239,17.043c0.142,5.927-2.987,22.857-2.987,22.857l-5.263-1.709c0,0-0.285-23.614,0.854-29.019
					C1437.008,820.439,1440.028,816.673,1440.028,816.673"/>
			</g>
			<g>
				<defs>
					<path id="XMLID_24_" d="M1415.225,823.088c-0.632-0.828-3.792-2.688-7.851-4.861c0.518,0.09,0.951,0.132,1.262,0.108
						c3.66-0.281,7.602-4.083,5.563-6.758c-0.517-0.678-2.728-2.047-5.737-3.712c0.057,0,0.123,0.003,0.174-0.001
						c3.66-0.281,7.602-4.083,5.563-6.758c-2.039-2.675-30.433-16.106-30.433-16.106s-2.301,2.45-2.02,7.377
						c0.1,1.755,0.597,3.201,1.192,4.343c-0.628,1.189-1.358,3.224-1.192,6.128c0.146,2.565,1.135,4.476,2.049,5.723
						c-0.582,1.221-1.173,3.145-1.022,5.787c0.154,2.701,1.242,4.678,2.193,5.917c-1.578,5.368,2.43,10.659,2.468,10.995
						c0.039,0.351,6.988,6.705,9.115,8.087c2.127,1.383,7.339,3.085,8.549,0.532c0.685-1.446-5.934-9.555-11.723-15.24
						c6.006,2.378,14.068,5.365,16.287,5.194C1413.323,829.564,1417.265,825.763,1415.225,823.088z"/>
				</defs>
				<use xlink:href="#XMLID_24_"  style="overflow:visible;fill:#FE8E9C;"/>
				<clipPath id="XMLID_00000087370460517099603840000007470031446420172431_">
					<use xlink:href="#XMLID_24_"  style="overflow:visible;"/>
				</clipPath>
				<path style="clip-path:url(#XMLID_00000087370460517099603840000007470031446420172431_);fill:#E57492;" d="M1382.938,796.721
					c0,0,12.391,6.469,25.698,11.144c13.307,4.674,0,0,0,0s-25.879-15.675-26.89-15.487
					C1380.734,792.567,1382.938,796.721,1382.938,796.721"/>
				<path style="clip-path:url(#XMLID_00000087370460517099603840000007470031446420172431_);fill:#E57492;" d="M1383.795,808.572
					c0,0,23.139,8.398,23.579,9.655c0.441,1.257-24.32-7.666-24.705-7.955C1382.284,809.983,1383.795,808.572,1383.795,808.572"/>
				<path style="clip-path:url(#XMLID_00000087370460517099603840000007470031446420172431_);fill:#E57492;" d="M1384.966,820.276
					c0,0,20.061,20.113,20.962,20.213c0.901,0.1-5.708-10.716-8.412-13.419c0,0,12.719,4.006,15.122,3.104
					C1415.041,829.273,1384.966,820.276,1384.966,820.276"/>
			</g>
			<path style="fill:#E57492;" d="M1412.993,810.574c0,0,3.121,1.956,0.939,4.814c-2.183,2.858-6.558,2.838-6.558,2.838l3.547,1.955
				c0,0,7.418-0.826,8.067-0.908c0.648-0.082,2.36-5.985-4.424-9.352L1412.993,810.574z"/>
		</g>
		<g>
			<g>
				<path style="fill:#8C9EF4;" d="M2312.416,1016.549c-0.695-0.276-1.072-1.017-0.888-1.741
					c2.661-10.477,20.672-81.531,23.69-82.394c3.254-0.93,57.505,17.832,58.615,21.029c1.154,3.321-34.33,80.356-36.469,80.263
					C2355.438,1033.623,2319.503,1019.367,2312.416,1016.549z"/>
				<path style="fill:#D4DFFF;" d="M2334.688,932.481c0,0,6.899-7.789,9.726-8.068c2.827-0.28,49.055,17.556,49.4,18.877
					c0.345,1.322,0.121,11.009,0.121,11.009S2353.8,940.162,2334.688,932.481z"/>
				<path style="fill:#D4DFFF;" d="M2312.416,1016.549c0,0-2.282,3.699-1.102,4.758c0.513,0.461,35.961,14.697,43.217,16.619
					c0.226,0.06,0.465-0.04,0.578-0.245c0.269-0.49,0.78-1.633,1.499-4.154C2356.608,1033.527,2315.422,1017.686,2312.416,1016.549z
					"/>
				
					<ellipse transform="matrix(0.357 -0.9341 0.9341 0.357 594.7635 2826.002)" style="fill:#D4DFFF;" cx="2350.012" cy="981.002" rx="15.868" ry="14.223"/>
			</g>
			<g>
				<defs>
					<path id="XMLID_27_" d="M2311.481,955.469c0,0,12.14,2.453,14.559,4.603c2.419,2.15,25.42,28.331,25.151,30.078
						c-0.269,1.747-6.151,2.679-9.51,1.872c-3.359-0.806-20.579-14.083-20.579-14.083s-8.514,32.694-8.843,33.988
						s-1.129,3.743,0.156,4.622c0,0-2.381,4.172-1.102,4.758c0,0-12.663-5.089-16.291-10.733
						c-3.628-5.644-10.165-22.42-10.165-22.42S2301.629,969.812,2311.481,955.469z"/>
				</defs>
				<use xlink:href="#XMLID_27_"  style="overflow:visible;fill:#FE8E9C;"/>
				<clipPath id="XMLID_00000034802413924614864220000012567856640489607607_">
					<use xlink:href="#XMLID_27_"  style="overflow:visible;"/>
				</clipPath>
				<path style="clip-path:url(#XMLID_00000034802413924614864220000012567856640489607607_);fill:#E57492;" d="M2321.103,977.939
					c0,0-11.808,15.419-12.774,18.798s3.554,16.499,3.715,16.016c0.161-0.483,1.977-7.716,3.13-12.037
					c0.602-2.255,2.681-10.299,2.681-10.299L2321.103,977.939"/>
			</g>
			<g>
				<defs>
					<path id="XMLID_26_" d="M2375.661,997.592c0,0-15.785,0.477-19.054,2.393c-2.63,1.541-0.664,5.454,1.369,7.177
						c-2.454,0.395-4.544,0.876-5.516,1.445c-2.249,1.318-1.137,4.374,0.503,6.309c-2.643,0.408-4.925,0.912-5.955,1.515
						c-3.269,1.916,0.563,7.505,2.799,7.984c2.235,0.479,10.875,0.975,10.875,0.975s5.572-0.017,6.53-3.849
						c0.349-1.394,0.305-2.822,0.111-4.078c1.691-0.238,4.663-1.039,5.34-3.746c0.446-1.786,0.251-3.628-0.083-5.091
						c1.655-0.411,3.686-1.355,4.23-3.532C2377.769,1001.262,2375.661,997.592,2375.661,997.592z"/>
				</defs>
				<use xlink:href="#XMLID_26_"  style="overflow:visible;fill:#FE8E9C;"/>
				<clipPath id="XMLID_00000068672648743907324330000015652468012858076592_">
					<use xlink:href="#XMLID_26_"  style="overflow:visible;"/>
				</clipPath>
				<path style="clip-path:url(#XMLID_00000068672648743907324330000015652468012858076592_);fill:#E57492;" d="M2357.976,1007.162
					c0,0,8.914,1.58,14.604,1.464c5.69-0.116,0,0,0,0s5.946-1.9,4.057-2.04c-0.517-0.039-10.953,0.094-13.387-0.094
					c-2.434-0.187-6.644-0.468-6.644-0.468L2357.976,1007.162"/>
				<path style="clip-path:url(#XMLID_00000068672648743907324330000015652468012858076592_);fill:#E57492;" d="M2352.964,1014.917
					c0,0,13.364,2.702,15.209,2.834c1.846,0.132,3.955-1.538,3.955-1.538s-11.03-0.703-11.821-0.923
					c-0.791-0.22-8.921-2.153-8.701-1.802C2351.826,1013.84,2352.964,1014.917,2352.964,1014.917"/>
			</g>
		</g>
	</g>
</g>
<g>
	<path style="fill:#6880E4;" d="M1272.079,399.928c-3.96,1.051-121.297,98.041-121.297,98.041l15.867,105.823l259.352-38.886
		l-15.867-105.823C1410.134,459.082,1276.039,398.876,1272.079,399.928z"/>
	<g>
		<path style="fill:#FFFFFF;" d="M1386.891,572.325l-189.281,28.38c-4.002,0.6-7.733-2.158-8.333-6.16l-23.216-154.84
			c-0.6-4.002,2.158-7.733,6.16-8.333l189.281-28.38c4.002-0.6,7.733,2.158,8.333,6.16l23.216,154.84
			C1393.651,567.994,1390.893,571.725,1386.891,572.325z"/>
		<g>
			<path style="fill:#EAF2FC;" d="M1352.759,441.889l-160.773,24.106c-0.825,0.124-1.594-0.445-1.717-1.27l-0.942-6.282
				c-0.124-0.825,0.445-1.594,1.27-1.717l160.773-24.106c0.825-0.124,1.594,0.445,1.717,1.27l0.942,6.282
				C1354.152,440.996,1353.584,441.765,1352.759,441.889z"/>
			<path style="fill:#EAF2FC;" d="M1355.186,458.071l-160.773,24.106c-0.825,0.124-1.594-0.445-1.717-1.269l-0.942-6.282
				c-0.124-0.825,0.445-1.594,1.27-1.717l160.773-24.106c0.825-0.124,1.594,0.445,1.718,1.27l0.942,6.282
				C1356.579,457.179,1356.01,457.948,1355.186,458.071z"/>
			<path style="fill:#EAF2FC;" d="M1357.612,474.254l-160.773,24.106c-0.825,0.124-1.594-0.445-1.717-1.27l-0.942-6.282
				c-0.124-0.825,0.445-1.594,1.27-1.717l160.773-24.106c0.825-0.124,1.594,0.445,1.717,1.27l0.942,6.282
				C1359.005,473.361,1358.437,474.13,1357.612,474.254z"/>
			<path style="fill:#EAF2FC;" d="M1360.038,490.436l-160.773,24.106c-0.825,0.124-1.594-0.445-1.718-1.27l-0.942-6.282
				c-0.124-0.825,0.445-1.594,1.27-1.717l160.773-24.106c0.825-0.124,1.594,0.445,1.717,1.27l0.942,6.282
				C1361.431,489.543,1360.863,490.312,1360.038,490.436z"/>
			<path style="fill:#EAF2FC;" d="M1362.464,506.618l-160.773,24.106c-0.825,0.124-1.594-0.445-1.718-1.27l-0.942-6.282
				c-0.124-0.825,0.445-1.594,1.27-1.717l160.773-24.106c0.825-0.124,1.594,0.445,1.717,1.27l0.942,6.282
				C1363.858,505.726,1363.289,506.495,1362.464,506.618z"/>
			<path style="fill:#EAF2FC;" d="M1364.891,522.8l-160.773,24.106c-0.825,0.124-1.594-0.445-1.717-1.27l-0.942-6.282
				c-0.124-0.825,0.445-1.594,1.27-1.717l160.773-24.106c0.825-0.124,1.594,0.445,1.718,1.27l0.942,6.282
				C1366.284,521.908,1365.716,522.677,1364.891,522.8z"/>
		</g>
		<g>
			<g>
				<defs>
					<path id="XMLID_28_" d="M1153.054,513.119c0,0,127.194,57.47,138.284,54.151c11.09-3.318,121.068-93.038,121.068-93.038
						l25.122,167.548c0.502,3.349-1.806,6.471-5.155,6.974l-247.223,37.068c-3.349,0.502-6.471-1.806-6.974-5.155L1153.054,513.119z
						"/>
				</defs>
				<use xlink:href="#XMLID_28_"  style="overflow:visible;fill:#D4DFFF;"/>
				<clipPath id="XMLID_00000000205300902058202010000015170122326452306830_">
					<use xlink:href="#XMLID_28_"  style="overflow:visible;"/>
				</clipPath>
				<path style="opacity:0.19;clip-path:url(#XMLID_00000000205300902058202010000015170122326452306830_);fill:#6880E4;" d="
					M1135.873,609.96c9.689,2.509,69.428,36.184,163.882,29.376s151.483-83.883,151.483-83.883l20.878,98.763
					c0,0-319.022,58.225-319.063,50.567S1135.873,609.96,1135.873,609.96z"/>
			</g>
		</g>
	</g>
</g>
</svg>
