<?xml version="1.0" encoding="utf-8"?>
<!-- Generator: Adobe Illustrator 27.5.0, SVG Export Plug-In . SVG Version: 6.00 Build 0)  -->
<svg version="1.1" xmlns="http://www.w3.org/2000/svg" xmlns:xlink="http://www.w3.org/1999/xlink" x="0px" y="0px"
	 viewBox="0 0 500 500" style="enable-background:new 0 0 500 500;" xml:space="preserve">
<g id="BACKGROUND">
	<g>
		<rect style="fill:#FFFFFF;" width="500" height="500"/>
	</g>
</g>
<g id="OBJECTS">
	<g>
		<g>
			<polygon style="fill:#AFC2FB;" points="250.028,464.371 64.389,357.193 250.027,250.015 435.666,357.193 			"/>
			<polygon style="fill:#87A3F9;" points="249.972,249.985 64.333,357.163 64.333,142.807 249.972,35.629 			"/>
			<polygon style="fill:#698CF7;" points="435.667,357.238 250.028,250.059 250.028,35.703 435.667,142.882 			"/>
		</g>
		<g>
			<g>
				<g>
					<g>
						<polygon style="fill:#FF83AD;" points="140.984,245.296 140.984,313.56 176.224,334.042 176.028,265.657 						"/>
					</g>
				</g>
				<g>
					<polygon style="fill:#F9F4E8;" points="176.028,265.657 176.224,334.042 232.755,301.4 232.562,233.02 					"/>
				</g>
				<g>
					<polygon style="fill:#FFD6E4;" points="140.984,245.296 176.028,265.657 232.562,233.02 198.041,212.506 					"/>
				</g>
				<polygon style="fill:#FFACC9;" points="176.028,265.657 176.084,299.507 232.562,267.555 232.562,233.02 				"/>
				<polygon style="fill:#FFD6E4;" points="176.028,299.743 176.084,333.821 232.562,301.87 232.562,267.101 				"/>
			</g>
			<polygon style="opacity:0.2;fill:#9BB3FA;" points="140.984,245.296 118.663,325.442 176.224,334.042 140.984,313.56 			"/>
			<path style="fill:#698CF7;" d="M206.803,258.22c0,1.537-1.079,3.405-2.41,4.173c-1.331,0.768-2.41,0.146-2.41-1.391
				c0-1.537,1.079-3.405,2.41-4.174C205.725,256.061,206.803,256.683,206.803,258.22z"/>
		</g>
		<g>
			
				<ellipse transform="matrix(0.2398 -0.9708 0.9708 0.2398 -32.4865 284.0418)" style="fill:#0540F2;" cx="165.129" cy="162.765" rx="54.493" ry="27.621"/>
		</g>
		<g>
			
				<ellipse transform="matrix(0.2398 -0.9708 0.9708 0.2398 -31.2946 293.8728)" style="fill:#698CF7;" cx="172.003" cy="166.919" rx="54.493" ry="27.621"/>
			<path style="fill:#CDD9FC;" d="M196.605,152.722c0,24.072-11.268,50.917-24.597,58.618c-5.466,3.15-10.595,2.693-14.729-0.619
				c-1.481-1.185-2.827-2.72-4.025-4.591c-0.956-1.481-1.817-3.191-2.558-5.076c-1.023-2.599-1.831-5.56-2.396-8.845
				c-0.579-3.379-0.889-7.095-0.889-11.093c0-24.072,11.255-50.917,24.597-58.618c1.239-0.714,2.45-1.239,3.635-1.589
				c2.06-0.606,4.025-0.7,5.883-0.296c1.373,0.269,2.679,0.808,3.904,1.589c1.548,0.956,2.975,2.302,4.254,3.972
				C193.939,131.747,196.605,141.023,196.605,152.722z"/>
		</g>
		<g>
			<polygon style="fill:#9BB3FA;" points="368.302,142.298 366.451,143.391 367.275,146.165 368.302,148.704 368.302,203.115 
				403.405,223.382 405.29,226.633 407.141,225.539 407.141,164.721 			"/>
			<g>
				<polygon style="fill:#032079;" points="405.29,226.633 366.451,204.209 366.451,143.391 405.29,165.815 				"/>
				<polygon style="fill:#698CF7;" points="369.949,202.19 369.949,149.451 401.792,167.835 401.792,220.575 				"/>
				<polygon style="fill:#E8EEFC;" points="397.89,183.994 373.851,170.115 373.851,166.749 397.89,180.628 				"/>
				<polygon style="fill:#E8EEFC;" points="397.89,190.052 373.851,176.173 373.851,172.807 397.89,186.687 				"/>
				<path style="fill:#FF83AD;" d="M396.53,207.217c0,2.169-1.522,3.048-3.401,1.963c-1.878-1.084-3.401-3.721-3.401-5.89
					c0-2.169,1.523-3.048,3.401-1.963C395.008,202.412,396.53,205.049,396.53,207.217z"/>
				<polygon style="fill:#FF83AD;" points="388.528,171.112 383.212,168.043 383.212,161.905 388.528,164.974 				"/>
			</g>
		</g>
		<g>
			<polygon style="fill:#9BB3FA;" points="320.27,114.431 318.419,115.525 319.243,118.298 320.27,120.838 320.27,175.249 
				355.373,195.516 357.258,198.767 359.109,197.673 359.109,136.855 			"/>
			<g>
				<polygon style="fill:#032079;" points="357.258,198.767 318.419,176.343 318.419,115.525 357.258,137.949 				"/>
				<polygon style="fill:#2935C0;" points="321.917,174.323 321.917,121.584 353.761,139.969 353.761,192.708 				"/>
				<polygon style="fill:#E8EEFC;" points="349.859,156.128 325.819,142.249 325.819,138.883 349.859,152.762 				"/>
				<polygon style="fill:#E8EEFC;" points="349.859,162.186 325.819,148.307 325.819,144.941 349.859,158.82 				"/>
				<path style="fill:#E8EEFC;" d="M348.498,179.351c0,2.169-1.522,3.048-3.401,1.963c-1.878-1.084-3.401-3.721-3.401-5.89
					c0-2.169,1.523-3.048,3.401-1.963C346.976,174.546,348.498,177.183,348.498,179.351z"/>
				<polygon style="fill:#E8EEFC;" points="340.497,143.246 335.181,140.177 335.181,134.038 340.497,137.108 				"/>
			</g>
		</g>
		<g>
			<polygon style="fill:#9BB3FA;" points="272.238,86.565 270.387,87.659 271.211,90.432 272.238,92.972 272.238,147.383 
				307.341,167.649 309.226,170.9 311.078,169.807 311.078,108.989 			"/>
			<g>
				<polygon style="fill:#032079;" points="309.226,170.9 270.387,148.477 270.387,87.659 309.226,110.083 				"/>
				<polygon style="fill:#FFACC9;" points="273.885,146.457 273.885,93.718 305.729,112.103 305.729,164.842 				"/>
				<polygon style="fill:#E8EEFC;" points="301.827,128.262 277.787,114.382 277.787,111.017 301.827,124.896 				"/>
				<polygon style="fill:#E8EEFC;" points="301.827,134.32 277.787,120.441 277.787,117.075 301.827,130.954 				"/>
				<path style="fill:#FF3077;" d="M300.466,151.485c0,2.169-1.522,3.048-3.401,1.963c-1.878-1.084-3.401-3.721-3.401-5.89
					c0-2.169,1.523-3.048,3.401-1.963C298.944,146.679,300.466,149.316,300.466,151.485z"/>
				<polygon style="fill:#FF3077;" points="292.465,115.38 287.149,112.311 287.149,106.172 292.465,109.241 				"/>
			</g>
		</g>
		<g>
			<path style="fill:#EA9A9E;" d="M316.045,195.743c-0.741,0.898-1.854,1.386-2.924,1.844c-1.221,0.522-2.442,1.045-3.663,1.568
				c1.849,6.234,4.916,12.104,8.978,17.182c3.125-2.884,6.072-6.014,8.285-9.644c2.213-3.631,4.058-7.015,4.015-11.267
				c-0.967,0.504-2.609-0.716-3.335-1.529c-0.726-0.813-1.028-1.917-1.204-2.993c-0.525-3.206-0.139-6.483,0.248-9.709
				c-1.527,1.928-3.656,3.372-6.012,4.077c-1.822,0.546-5.174,1.285-4.299,3.919C316.85,191.348,317.719,193.717,316.045,195.743z"
				/>
			<path style="fill:#FDBDBE;" d="M310.521,173.635c-1.6,2.837-1.67,6.354-0.774,9.486c0.896,3.132,2.677,5.936,4.632,8.542
				c0.921,1.229,2.072,2.527,3.605,2.621c1.379,0.085,2.605-0.847,3.567-1.839c5.903-6.081,6.346-15.348,2.971-20
				C320.971,167.55,313.393,168.54,310.521,173.635z"/>
			<path style="fill:#FF3077;" d="M308.363,174.379c1.336-1.736,3.689-2.541,5.859-2.238c2.17,0.302,4.127,1.615,5.46,3.354
				c1.332,1.739,2.078,3.875,2.406,6.042c0.144,0.953-10.987,0.385-11.962,0.214c-1.813-0.318-3.391-0.161-3.278-2.253
				C306.945,177.71,307.241,175.837,308.363,174.379z"/>
			<path style="fill:#FF3077;" d="M310.422,169.999c1.335-1.792,3.261-3.102,5.361-3.866c4.188-1.523,9.412-0.64,12.191,2.844
				c1.71,2.144,2.335,4.967,2.47,7.707c0.185,3.753-0.462,7.545-1.882,11.024c-0.278,0.682-0.801,1.476-1.527,1.347
				c-0.561-0.099-0.859-0.706-1.047-1.243c-0.432-1.238-0.744-2.518-0.929-3.817c-0.167-1.17-0.288-2.472-1.162-3.267
				c-0.685-0.623-1.67-0.772-2.48-1.219c-1.321-0.729-2.061-2.172-3.149-3.218c-1.237-1.19-2.967-1.852-4.684-1.792
				c-1.026,0.036-1.946,0.346-2.858,0.791c-0.648,0.316-1.375,0.948-1.964,0.127C307.837,174.13,309.664,171.016,310.422,169.999z"
				/>
			<path style="fill:#FF3077;" d="M319.182,162.912c0.419-1.139,1.654-1.786,2.851-1.979c2.946-0.474,6.095,1.444,7.024,4.28
				c0.371,1.131,0.368,2.5-0.439,3.376c-0.819,0.889-2.194,0.994-3.384,0.781C322.66,168.909,317.942,166.279,319.182,162.912z"/>
			<path style="fill:#FDBDBE;" d="M323.576,183.984c-0.419-2.541,1.545-4.958,2.706-4.323c0.516,0.282,0.569,0.993,0.523,1.579
				c-0.173,2.194-0.833,4.349-1.921,6.263c-0.422-1.026-0.843-2.053-1.265-3.079"/>
			<path style="fill:#FDBDBE;" d="M336.103,201.438c-0.178,1.02-0.1,2.066-0.016,3.098c0.818,10.07,2.181,20.2,5.707,29.668
				c0.38,1.021,0.8,2.057,1.529,2.867c0.73,0.81,1.837,1.361,2.906,1.148c1.063-0.211,1.872-1.134,2.245-2.151
				c0.373-1.017,0.385-2.126,0.377-3.21c-0.067-9.3-1.238-18.623-3.918-27.529c-0.629-2.089-1.418-4.268-3.116-5.638
				c-0.946-0.764-2.509-1.44-3.75-1.095C336.885,198.926,336.301,200.306,336.103,201.438z"/>
			<path style="fill:#FDBDBE;" d="M304.309,208.02c-0.376,0.711-0.569,1.501-0.755,2.284c-1.812,7.632-3.235,15.439-2.903,23.276
				c0.036,0.845,0.097,1.711,0.441,2.484c0.344,0.773,1.03,1.446,1.87,1.545c0.835,0.099,1.655-0.388,2.174-1.05
				c0.52-0.661,0.794-1.478,1.048-2.279c2.181-6.883,3.553-14.048,3.71-21.267c0.037-1.693-0.023-3.492-0.948-4.911
				c-0.515-0.791-1.507-1.665-2.507-1.708C305.488,206.352,304.726,207.231,304.309,208.02z"/>
			<path style="fill:#0540F2;" d="M336.825,217.301c3.969,0.36,7.943-0.418,11.853-1.192c-0.05-1.712-0.169-3.422-0.351-5.125
				c-0.043-0.928-0.161-1.852-0.352-2.762c-0.052-0.348-0.106-0.695-0.164-1.041c-0.027,0.009-0.055,0.018-0.083,0.027
				c-0.688-2.522-1.929-4.894-3.645-6.867c-4.577-3.391-10.039-5.066-15.701-5.7c-2.389,5.895-5.976,10.747-9.515,16.032
				c0.186-0.278-2.388-4.761-2.632-5.342c-0.789-1.88-1.275-3.865-2.033-5.747c-0.465-1.155-0.47-2.327-0.47-2.327
				s-5.749,2.042-7.42,3.295c-2.204,1.653-3.606,4.199-4.373,6.845c-0.03,0.104-0.054,0.209-0.082,0.313
				c0.053,0.069-1.39,5.734-1.39,8.568c-0.007,0.551,0.028,1.163,0.417,1.553c0.019,0.019,0.041,0.034,0.061,0.052
				c0.51,0.596,1.45,0.698,2.265,0.728c4.05,0.148,3.152,0.099,4.271,0.21c0.017-0.113,0.035-0.225,0.052-0.338
				c0.057-0.042,0.109-0.088,0.156-0.139c0.309,0.807,0.598,1.619,0.863,2.435c0.122,0.338,0.469,1.015,0.531,1.012
				c2.103,6.641,2.202,13.902,0.282,20.598c9.338,0.941,28.08-0.593,28.08-0.593l1.314-0.61c0,0-0.569-1.72-1.29-2.409
				c-1.411-1.348-1.642-3.488-1.733-5.437c-0.286-6.118-0.028-12.261,0.753-18.335C336.631,216.165,336.779,217.301,336.825,217.301
				z"/>
			<path style="fill:#0430B5;" d="M306.061,208.141c-0.499,2.878-0.978,5.765-1.2,8.678c-0.034,0.441-0.056,0.91,0.155,1.298
				c0.35,0.643,2.861,0.735,2.861,0.735s-0.622-2.211-0.794-3C306.535,213.314,306.192,210.733,306.061,208.141z"/>
			<path style="fill:#0430B5;" d="M314.354,220.204c5.274,0.139,10.535-0.479,15.774-1.096c-1.602,1.581-3.75,2.599-5.989,2.837
				c-2.043,0.217-4.119-0.196-6.157,0.068c-1.684,0.218-3.314,0.894-5.011,0.837c-1.534-0.051-3.037-0.734-4.085-1.855
				c-0.716-0.766-1.866-2.519-1.455-3.61C309.095,219.666,311.134,220.119,314.354,220.204z"/>
			<path style="fill:#0430B5;" d="M336.843,216.952c-0.609-4.109-1.218-8.217-1.827-12.326c0.5,5.065,0.387,10.19-0.339,15.228
				c-0.503,3.497-1.301,6.968-1.388,10.5c-0.086,3.532,0.616,7.226,2.801,10.003c0.326,0.415,0.697,0.816,1.176,1.038
				c0.479,0.221,1.091,0.225,1.497-0.112c-1.932-1.663-2.267-4.488-2.379-7.035c-0.276-6.223-0.033-12.456,0.21-18.68"/>
			<path style="fill:#FF3077;" d="M335.899,232.749c3.944,8.481,7.554,17.295,8.503,26.601c1.016,9.965-1.066,19.957-3.136,29.757
				c-0.443,2.099-0.863,3.031-3.296,3.874c-2.638,0.914-5.473,1.257-8.254,0.998c-1.146-6.583-4.305-12.61-6.762-18.824
				c-5.168-13.068-7.288-27.33-6.145-41.337c-0.009,0.096-5.423,0.064-5.915,0.095c4.017,0.316,8.354-0.364,12.385-0.558
				C327.486,233.154,331.692,232.951,335.899,232.749z"/>
			<path style="fill:#FF3077;" d="M313.309,294.548c3.967,0.384,7.966,0.436,11.941,0.157c1.807-4.53,2.036-9.559,1.498-14.406
				c-0.538-4.847-1.812-9.577-2.933-14.324c-2.47-10.457-4.212-21.086-5.209-31.785c-0.006-0.06-6.962-0.581-7.512-0.269
				c-0.724,0.41-0.921,1.786-1.151,2.499c-1.986,6.153-2.826,12.621-2.882,19.085C306.943,268.737,310.124,281.659,313.309,294.548z
				"/>
			<path style="fill:#0540F2;" d="M349.085,349.58c-0.149-1.074-0.889-1.954-1.55-2.813c-3.036-3.949-4.925-8.77-5.381-13.73
				c-1.524,0.514-2.779,0.046-4.256,0.125c0.021,1.875-0.095,3.571-0.471,5.427c-0.466,2.299-0.911,4.289-0.316,6.539
				c0.263,0.286,0.508,0.59,0.732,0.909c2.078,2.03,2.715,3.219,3.829,5.881c0.337,0.261,0.69,0.499,1.068,0.7
				c1.28,0.678,2.849,0.918,4.191,0.374C348.275,352.448,349.284,351.015,349.085,349.58z"/>
			<path style="fill:#0540F2;" d="M317.466,342.533c-1.502,1.944-3.577,3.468-4.677,5.664c-0.439,0.876-0.592,2.157,0.257,2.645
				c0.528,0.303,1.191,0.131,1.769-0.059c3.475-1.144,6.821-2.681,9.954-4.571c0.776-0.469,1.608-1.054,1.784-1.944
				c0.088-0.448-0.007-0.91-0.102-1.356c-0.656-3.072-1.311-6.145-1.967-9.217c-0.108-0.509-3.115-0.158-3.489-0.059
				c-1.282,0.339-0.828,1.224-0.947,2.388C319.809,338.374,318.913,340.661,317.466,342.533z"/>
			<path style="fill:#FF3077;" d="M330.809,299.385c0.515,2.582,1.03,5.164,1.545,7.746c2.702,13.55,4.375,20.977,4.604,28.91
				c0.333,0.05,0.666,0.104,0.997,0.163c1.238-0.068,2.487-0.043,3.723,0.039c0.733-0.041,1.466-0.076,2.198-0.111
				c-1.535-11.932,2.396-23.592,0.492-35.245c-0.643-3.937-1.942-7.732-3.236-11.505c-0.39-1.137-0.811-2.323-1.691-3.143
				c-0.826-0.769-1.977-1.12-3.105-1.157c-3.332-0.109-7.362,3.217-7.011,6.76C329.576,294.358,330.315,296.907,330.809,299.385z"/>
			<path style="fill:#FF3077;" d="M319.254,336.138c2.069,0.077,4.137,0.154,6.205,0.23c0.419-9.501,3.521-18.935,2.25-28.361
				c-0.478-3.549-1.568-6.985-2.231-10.504c-0.663-3.519-0.879-7.243,0.356-10.605c-0.219,0.597-5.454,0.477-6.152,0.481
				c-1.065,0.005-2.13-0.029-3.192-0.104c-0.707-0.05-2.19-0.514-2.834-0.201c-1.177,0.57-0.565,4.072-0.499,5.155
				c0.131,2.122,0.418,4.232,0.77,6.328C314.893,304.31,317.905,316.817,319.254,336.138z"/>
			<path style="fill:#FDBDBE;" d="M291.964,233.911c-4.088,1.871-8.043,4.443-12.528,4.746c-2.349,0.159-4.757-0.32-7.036,0.27
				c1.512,0.486,3.025,0.972,4.537,1.458c-1.969,1.621-4.458,2.599-7.003,2.751c-0.755,0.045-1.684,0.126-1.983,0.82
				c1.899,1.701,4.603,2.494,7.102,1.989c1.982-0.401,3.719-1.542,5.531-2.438c6.212-3.07,13.4-3.285,20.115-4.999
				c1.207-0.308,2.424-0.676,3.449-1.385c1.025-0.709,1.842-1.814,1.921-3.057c0.322-5.013-7.985-2.411-10.433-1.604
				C294.385,232.873,293.161,233.363,291.964,233.911z"/>
			<path style="fill:#BF2459;" d="M319.749,248.664c0.011,2.693,0.775,5.454,1.279,8.08c0.453,2.359,0.663,4.724,1.104,7.064
				c1.173,6.227,3.894,12.228,4.811,18.502c0.373,2.55,0.46,4.626-0.462,6.944c0.037-2.54-1.199-5.525-2.056-7.917
				c-0.927-2.586-2.033-5.044-2.816-7.685c-1.595-5.382-2.774-10.892-2.776-16.551C318.832,254.278,319.81,251.402,319.749,248.664z
				"/>
			<path style="fill:#BF2459;" d="M324.458,295.23c-2.573,2,0.16,7.02,0.854,9.369c0.952,3.222,1.335,6.415,1.631,9.758
				c0.144,1.624,0.464,3.566,0.131,5.135c-0.014-1.37,0.59-2.853,0.796-4.204c0.237-1.556,0.288-3.067,0.12-4.612
				c-0.396-3.631-1.415-7.12-2.369-10.687C325.159,298.263,324.986,296.484,324.458,295.23z"/>
			<path style="fill:#BF2459;" d="M341.07,289.213c-3.554,1.686,0.98,9.397,1.602,11.875c0.935,3.726,1.286,7.865,1.145,11.681
				c-0.077,2.063,0.03,4.102-0.007,6.201c1.76-7.91,1.426-16.819-0.663-24.574C342.705,292.759,342.177,290.568,341.07,289.213z"/>
			<path style="fill:#FDBDBE;" d="M331.024,235.135c-5.126,2.346-10.084,5.571-15.709,5.951c-2.945,0.199-5.965-0.401-8.823,0.338
				c1.896,0.609,3.793,1.219,5.689,1.828c-2.468,2.032-5.59,3.258-8.781,3.45c-0.947,0.057-2.111,0.158-2.487,1.029
				c2.381,2.132,5.772,3.128,8.905,2.494c2.485-0.503,4.663-1.934,6.936-3.057c7.79-3.85,16.802-4.119,25.221-6.268
				c1.513-0.386,3.04-0.848,4.324-1.737c1.284-0.889,2.309-2.275,2.409-3.834c0.403-6.286-10.013-3.024-13.082-2.011
				C334.059,233.834,332.524,234.449,331.024,235.135z"/>
		</g>
		<g>
			<polygon style="opacity:0.2;fill:#9BB3FA;" points="298.68,368.85 265.44,388.04 248.54,388.04 215.3,368.85 256.99,344.78 			
				"/>
			<g>
				<polygon style="fill:#698CF7;" points="288.728,363.015 265.595,349.659 242.463,363.015 232.358,363.015 232.358,368.849 
					232.358,368.849 265.596,388.038 298.833,368.849 298.833,363.015 				"/>
				<polygon style="fill:#9BB3FA;" points="265.596,382.204 232.358,363.015 265.595,343.825 298.833,363.015 				"/>
			</g>
			<path style="opacity:0.2;fill:#9BB3FA;" d="M235.041,327.422c11.826,6.828,11.826,17.9,0,24.728c-11.825,6.826-31,6.826-42.825,0
				c-11.828-6.829-11.828-17.9,0-24.728C204.041,320.596,223.216,320.596,235.041,327.422z"/>
			<path style="opacity:0.2;fill:#9BB3FA;" d="M349.426,331.461c11.826,6.829,11.826,17.9,0,24.728c-11.825,6.826-31,6.826-42.825,0
				c-11.828-6.828-11.828-17.9,0-24.728C318.426,324.635,337.601,324.635,349.426,331.461z"/>
			<path style="fill:#0540F2;" d="M235.528,336.391c0.097,0.725,0.192,1.479-0.033,2.175c-0.451,1.398-2.098,2.118-3.562,1.99
				c-1.464-0.128-2.782-0.9-4.037-1.663c-2.053-1.248-4.104-2.534-5.865-4.169c-0.663-0.616-1.294-1.297-1.66-2.125
				c-0.365-0.828-0.43-1.831,0.019-2.617c0.698-1.22,2.381-1.524,3.742-1.174c1.362,0.349,2.539,1.186,3.814,1.778
				c1.735,0.806,2.756,1.416,4.534,2.103C234.604,333.509,235.241,334.251,235.528,336.391z"/>
			<path style="fill:#0540F2;" d="M221.887,343.626c0.128,0.762,0.255,1.554,0.049,2.299c-0.422,1.527-2.162,2.378-3.744,2.314
				c-1.583-0.064-3.043-0.823-4.442-1.565c-2.185-1.159-4.373-2.32-6.451-3.661c-1.21-0.782-2.433-1.682-3.042-2.988
				c-0.609-1.306-0.367-3.115,0.881-3.835c1.354-0.78,3.021,0.016,4.48,0.575c1.572,0.601,3.236,0.916,4.889,1.227
				c1.676,0.316,4.549,0.289,6.01,1.137C221.789,339.863,221.651,342.225,221.887,343.626z"/>
			<path style="fill:#FF3077;" d="M216.205,276.676c0,0-6.699,3.134,1.507,38.585c4.316,18.658,4.316,18.658,4.316,18.658
				s4.544,6.923,14.112,0.022l-4.717-38.947L216.205,276.676z"/>
			<path style="fill:#FF5992;" d="M204.331,286.071c0,0-5.157,2.436,2.788,36.939c4.305,18.657,4.327,18.657,4.327,18.657
				s4.541,6.917,14.111,0.02l-4.723-38.953L204.331,286.071z"/>
			<g>
				<path style="fill:#698CF7;" d="M270.869,361.988c0.011,0.791-0.502,1.587-1.547,2.185c-0.238,0.144-0.499,0.263-0.768,0.365
					c-0.206,0.083-0.435,0.158-0.651,0.221c-0.101,0.036-0.219,0.061-0.318,0.08c-0.014,0.011-0.036,0.011-0.044,0.011
					c-0.062,0.017-0.129,0.033-0.189,0.044c-0.167,0.042-0.346,0.069-0.527,0.097c-0.173,0.028-0.354,0.047-0.518,0.061
					c-0.17,0.011-0.348,0.016-0.524,0.027c-0.065,0-0.142-0.011-0.21,0c-0.008,0-0.014-0.011-0.025-0.011
					c-0.108,0-0.198,0.011-0.306,0c-0.202-0.005-0.4-0.005-0.589-0.03c-0.239-0.025-0.442-0.058-0.686-0.097
					c-0.094-0.019-0.173-0.052-0.27-0.066c-0.09-0.025-0.17-0.05-0.26-0.067c-0.145-0.05-0.306-0.069-0.456-0.119
					c-0.414-0.127-0.798-0.304-1.146-0.501c-0.019-0.006-0.047-0.022-0.061-0.047c-0.09-0.044-0.148-0.105-0.221-0.16
					c-0.155-0.108-0.314-0.205-0.44-0.307c0-0.011-0.011-0.022-0.022-0.028c-0.123-0.108-0.235-0.232-0.329-0.351
					c-0.022-0.028-0.028-0.053-0.055-0.075c-0.022-0.041-0.046-0.069-0.068-0.111c-0.027-0.044-0.058-0.091-0.083-0.141
					c-0.076-0.094-0.106-0.191-0.145-0.298c-0.003-0.014-0.003-0.025-0.011-0.031c-0.011-0.027-0.011-0.05-0.022-0.069
					c-0.02-0.069-0.042-0.144-0.057-0.194c-0.016-0.099-0.03-0.196-0.03-0.304l-0.088-30.274c0-0.009,0-0.025,0-0.039
					c0,0.124,0.03,0.252,0.058,0.373c-0.192-0.913,0.296-1.872,1.514-2.575c2.051-1.187,5.422-1.187,7.49,0.019
					c1.015,0.586,1.517,1.366,1.517,2.149v-0.003v0.003c0,0.005,0,0.011,0,0.033L270.869,361.988z M261.748,333.924
					c-0.101-0.061-0.173-0.125-0.257-0.185l0,0C261.575,333.805,261.647,333.863,261.748,333.924z M260.303,332.356
					c0.046,0.138,0.123,0.263,0.207,0.398c-0.084-0.136-0.162-0.266-0.207-0.404C260.303,332.35,260.303,332.35,260.303,332.356z
					 M260.615,332.942c0.079,0.102,0.173,0.196,0.266,0.282c-0.093-0.086-0.198-0.18-0.266-0.288
					C260.615,332.937,260.615,332.937,260.615,332.942z"/>
			</g>
			<path style="fill:#9BB3FA;" d="M259.465,338.388c-0.079-0.169-0.194-0.351-0.349-0.564c0-0.008-0.018-0.022-0.021-0.033
				c-0.141-0.182-0.308-0.379-0.498-0.592c-0.123-0.149-0.29-0.315-0.452-0.481c-0.089-0.097-0.192-0.196-0.296-0.307
				c-0.407-0.382-0.875-0.813-1.388-1.267c-0.111-0.077-0.223-0.169-0.336-0.26c-0.477-0.406-0.993-0.829-1.567-1.283
				c-0.101-0.072-0.187-0.141-0.277-0.224c-0.647-0.498-1.363-1.026-2.091-1.563c-0.181-0.128-0.376-0.266-0.568-0.418
				c-0.664-0.479-1.35-0.96-2.08-1.458c-0.137-0.111-0.269-0.196-0.404-0.293c-0.834-0.569-1.698-1.156-2.596-1.731
				c-0.268-0.185-0.541-0.354-0.809-0.534c-0.813-0.539-1.647-1.076-2.503-1.618c-0.156-0.094-0.296-0.18-0.438-0.271
				c-0.989-0.622-1.998-1.239-3.033-1.858c-0.275-0.177-0.566-0.349-0.861-0.523c-1.065-0.636-2.152-1.286-3.267-1.928
				c-1.64-0.948-3.245-1.844-4.79-2.685c-0.091-0.052-0.173-0.094-0.261-0.141c-1.447-0.791-2.849-1.535-4.207-2.224
				c-0.126-0.052-0.249-0.116-0.371-0.182c-1.305-0.656-2.543-1.267-3.705-1.82c-0.109-0.047-0.227-0.102-0.348-0.152
				c-1.171-0.553-2.261-1.034-3.268-1.449c-0.078-0.033-0.162-0.066-0.245-0.1c-0.697-0.288-1.347-0.536-1.958-0.766
				c-0.127-0.047-0.264-0.091-0.39-0.13c-0.585-0.218-1.126-0.393-1.617-0.517c-0.101-0.036-0.184-0.047-0.296-0.086
				c-0.261-0.061-0.516-0.119-0.747-0.16c-0.137-0.022-0.279-0.05-0.415-0.064c-0.065-0.011-0.131-0.011-0.181-0.019
				c-0.202-0.014-0.38-0.019-0.541-0.006c0,0,0,0,0,0.006c-0.151,0.019-0.301,0.055-0.4,0.122c0.006-0.006,0.019-0.006,0.025-0.014
				l44.554-25.901c0.014-0.009,0.044-0.014,0.061-0.031c0.036-0.008,0.072-0.025,0.118-0.033c0.042-0.014,0.089-0.019,0.13-0.03
				c0.025-0.006,0.037-0.006,0.059-0.006c0.014,0,0.014-0.003,0.033-0.003c0.028,0,0.056-0.008,0.083-0.008
				c0.09-0.008,0.203-0.008,0.318,0c0.044,0.003,0.066,0.008,0.112,0.011c0.055,0.006,0.14,0.017,0.201,0.022
				c0.077,0.014,0.14,0.014,0.226,0.022c0.041,0.017,0.104,0.025,0.148,0.042c0.25,0.044,0.533,0.102,0.834,0.177
				c0.049,0.016,0.096,0.022,0.159,0.047c0.017,0,0.055,0.011,0.064,0.019c0.491,0.127,1.051,0.307,1.647,0.523
				c0.109,0.036,0.224,0.072,0.338,0.116c0.622,0.23,1.297,0.487,2.024,0.786c0.025,0.011,0.041,0.011,0.05,0.019
				c0.041,0.011,0.076,0.039,0.104,0.044c1.018,0.429,2.118,0.918,3.29,1.458c0.144,0.061,0.3,0.135,0.451,0.207
				c1.109,0.52,2.297,1.098,3.535,1.737c0.184,0.094,0.382,0.182,0.589,0.29c1.263,0.647,2.572,1.344,3.93,2.072
				c0.176,0.105,0.343,0.185,0.51,0.282c1.525,0.832,3.089,1.701,4.709,2.638c1.109,0.636,2.199,1.289,3.264,1.928
				c0.287,0.166,0.569,0.34,0.864,0.517c1.032,0.62,2.036,1.236,3.018,1.859c0.155,0.094,0.311,0.194,0.467,0.296
				c0.842,0.531,1.676,1.065,2.484,1.582c0.271,0.188,0.55,0.362,0.809,0.539c0.889,0.586,1.753,1.167,2.573,1.723
				c0.167,0.113,0.321,0.227,0.476,0.337c0.691,0.47,1.347,0.94,1.988,1.405c0.217,0.149,0.434,0.31,0.638,0.456
				c0.718,0.517,1.397,1.037,2.033,1.521c0.134,0.105,0.245,0.208,0.384,0.304c0.518,0.406,0.993,0.805,1.441,1.173
				c0.123,0.119,0.282,0.235,0.405,0.352c0.502,0.431,0.942,0.832,1.332,1.2c0.022,0.03,0.068,0.052,0.084,0.083
				c0.134,0.124,0.223,0.24,0.343,0.354c0.113,0.127,0.231,0.241,0.343,0.354c0.014,0.025,0.05,0.058,0.072,0.083l-0.006,0.005l0,0
				h0.006c0.134,0.133,0.225,0.255,0.329,0.385c0.039,0.047,0.072,0.102,0.112,0.146c0.006,0,0.006,0.02,0.011,0.042
				c0.02,0.008,0.028,0.016,0.039,0.022c0.05,0.075,0.089,0.141,0.134,0.213c0.016,0.03,0.041,0.066,0.055,0.086
				c0.033,0.041,0.044,0.074,0.055,0.108c0.014,0.031,0.04,0.056,0.051,0.089c0.005,0.028,0.028,0.058,0.041,0.088
				c0.017,0.028,0.031,0.056,0.036,0.08c0.006,0.025,0.028,0.058,0.031,0.077c0,0.028,0.011,0.05,0.022,0.075
				c0,0.027,0.014,0.052,0.014,0.077c0,0.022,0,0.047,0,0.069c0.005,0.02,0.005,0.036,0.005,0.061c0,0.183-0.072,0.313-0.217,0.398
				l-44.567,25.898c0.151-0.086,0.228-0.224,0.234-0.398c0-0.141-0.042-0.29-0.125-0.467
				C259.473,338.41,259.465,338.41,259.465,338.388z"/>
			<g>
				<path style="fill:#0540F2;" d="M235.632,321.182c-13.242-7.642-23.955-12.119-23.964-9.981
					c-0.003,2.133,10.699,10.059,23.935,17.703c13.253,7.647,23.983,12.103,23.994,9.979
					C259.598,336.745,248.873,328.821,235.632,321.182z"/>
			</g>
			<path style="fill:#292929;" d="M282.974,294.706c0,0,1.817,19.283-17.697,13.936c-19.515-5.34-32.962-10.565-32.962-10.565
				s-24.889-17.15-15.073-21.545C226.556,267.209,281.942,294.208,282.974,294.706z"/>
			<path style="fill:#343434;" d="M275.458,303.91c0,0-1.243,17.825-20.761,12.482c-19.516-5.352-41.724-16.71-41.724-16.71
				s-16.135-11.013-6.317-15.394C206.656,284.288,215.711,275.208,275.458,303.91z"/>
			<path style="fill:#292929;" d="M217.579,275.611c-2.17,1.485-2.905,2.603-2.815,4.21c15.293,0.124,49.147,11.727,49.147,11.727
				l0.285-6.322C224.61,269.021,227.324,268.935,217.579,275.611z"/>
			<path style="fill:#BDE3FA;" d="M259.537,244.834c0,0,27.699-16.227,33.639-7.982c0,0,5.453,6.859-1.824,24.009
				c-7.284,17.15-2.424,34.295-0.764,46.099c0,0-37.659,4.881-41.348-5.261c-2.753-7.561,6.462-28.105,1.707-32.14
				c-4.432-3.756-3.103-13.287,3.06-17.643C260.17,247.57,259.537,244.834,259.537,244.834z"/>
			<path style="fill:#A3D6EF;" d="M261.508,243.728c0,0,10.471,4.312,6.344,14.775c-4.125,10.466-10.489,43.972-9.829,48.085
				c0,0-11.51,0.753-9.04-12.274c2.467-13.027,2.717-28.36,0.755-32.724C247.773,257.228,251.036,246.458,261.508,243.728z"/>
			<path style="fill:#CDD9FC;" d="M268.815,240.99c-4.353-0.413-14.842-0.17-20.48,7.674c-5.638,7.844-13.779,17.763-18.254,20.295
				c-4.475,2.532-13.854,2.598-18.412,7.717c-4.558,5.12-9.799,7.624-12.053,14.871c-2.254,7.247,0,21.729,0,21.729
				s4.634,6.603,12.053,9.026c7.418,2.423-2.14-7.586,3.225-10.437c5.365-2.852,8.515-0.681,20.739,5.526
				c12.225,6.207,22.054,6.11,26.115-0.012c4.061-6.122,11.439-30.299,27.047-39.078c15.608-8.779,21.554-18.876,20.376-21.344
				c-1.178-2.468-25.467-15.487-25.467-15.487s-5.497,3.037-9.761,2.258C269.678,242.949,268.815,240.99,268.815,240.99z"/>
			<g>
				<g>
					<path style="fill:#0540F2;" d="M271.515,278.41c-1.378-1.419-5.118,11.16-8.384,28.08c-3.279,16.924-4.829,31.773-3.454,33.183
						c1.374,1.422,5.132-11.16,8.399-28.075C271.342,294.681,272.887,279.832,271.515,278.41z"/>
				</g>
				<path style="fill:#3766F5;" d="M316.482,248.361c0-0.169-0.025-0.321-0.055-0.476c-0.007-0.086-0.029-0.177-0.04-0.257
					c-0.019-0.033-0.025-0.078-0.027-0.116c-0.006-0.047-0.028-0.08-0.045-0.111c0-0.039-0.008-0.072-0.019-0.105
					c-0.008-0.036-0.03-0.069-0.042-0.1c-0.015-0.014-0.015-0.036-0.026-0.05c0-0.022,0-0.039-0.025-0.047
					c-0.006-0.025-0.011-0.033-0.017-0.044c0-0.025-0.014-0.039-0.014-0.05c-0.019-0.005-0.025-0.022-0.03-0.033
					c-0.006-0.011-0.022-0.027-0.033-0.033c0-0.017-0.008-0.025-0.022-0.033c0-0.006-0.014-0.008-0.014-0.019
					c-0.01-0.011-0.037-0.022-0.037-0.022c-0.014-0.019-0.036-0.044-0.055-0.052c-0.011-0.014-0.047-0.017-0.05-0.025
					c-0.028-0.008-0.046-0.008-0.073-0.008c0,0-0.011,0-0.014,0l0,0c-0.008,0-0.008,0-0.036,0c-0.019,0-0.044,0-0.05,0.008
					c-0.011,0.008-0.033,0.008-0.057,0.019c-0.011,0.006-0.033,0.014-0.044,0.022c-0.028,0.017-0.044,0.036-0.061,0.036
					c-0.011,0-0.011,0.006-0.011,0.006l-44.553,31.526c0,0,0.014,0,0.019,0c0-0.011,0.006-0.011,0.006-0.014
					c0.077-0.05,0.164-0.088,0.236-0.088l0,0c0.077,0.011,0.151,0.044,0.223,0.116c0.005,0.011,0.017,0.011,0.017,0.019
					c0.011,0.009,0.026,0.02,0.032,0.025c0,0.014,0.014,0.025,0.025,0.044c0.011,0.005,0.022,0.017,0.022,0.036
					c0,0.008,0.014,0.022,0.019,0.03c0.014,0.025,0.028,0.039,0.028,0.05c0,0.025,0.014,0.041,0.014,0.058
					c0.017,0.005,0.022,0.027,0.033,0.05c0.005,0.033,0.014,0.061,0.029,0.088c0.011,0.042,0.033,0.075,0.033,0.102
					c0.017,0.039,0.02,0.089,0.025,0.113c0.009,0.047,0.031,0.088,0.036,0.13c0.011,0.08,0.039,0.166,0.05,0.254
					c0.034,0.144,0.046,0.302,0.07,0.476c0.445,4.37-1.101,17.289-3.872,31.712c-2.944,15.223-6.278,26.941-7.917,28.091
					l44.134-25.79c1.634-1.162,5.389-18.597,8.33-33.822C315.409,265.663,316.949,252.736,316.482,248.361z"/>
			</g>
			<g>
				<g>
					<path style="fill:#FDBDBE;" d="M261.751,216.502c-1.731,20.613,6.405,17.136,7.42,21.401c0.156,0.605,0.104,0.55-0.669,4.934
						c-0.203,3.034,13.802,2.522,13.484-1.795c-0.118-1.46-0.519-6.464-0.519-6.464s-0.448-8.344,0.079-10.916
						c1.672-8.109-3.499-8.729-7.812-12.573C269.41,207.234,262.445,208.219,261.751,216.502z"/>
					<path style="fill:#032079;" d="M284.945,231.881c0.212-0.228,0.428-0.467,0.657-0.726c0.079-0.09,0.16-0.185,0.241-0.279
						c0.218-0.252,0.436-0.511,0.661-0.787c0.092-0.113,0.184-0.229,0.277-0.346c0.22-0.276,0.438-0.559,0.659-0.855
						c0.097-0.13,0.192-0.262,0.289-0.395c0.218-0.301,0.431-0.608,0.644-0.925c0.052-0.078,0.107-0.15,0.159-0.229
						c0.001-0.005,0.001-0.01,0.001-0.015c2.176-3.315,3.931-7.435,2.981-11.374c-0.014-0.177-0.05-0.351-0.102-0.517
						c-0.555-3.059-2.796-6.259-7.53-9.619c-5.598-3.988-14.14-3.195-19.346,1.007c-1.026,0.83-2.123,1.502-2.707,2.743
						c-0.516,1.096-0.85,3.701-0.889,4.962c-0.064,2.182,0.39,4.378,1.315,6.35c0.916,1.95,2.264,2.732,3.502,3.477
						c0.134-0.335,0.326-0.614,0.564-0.802c0.98-0.766,2.621-0.146,3.645,1.953c0.921,1.848,0.109,6.544,1.234,7.526
						c5.664,4.939,10.258,1.717,11.591,0.971c0.059-0.043,0.297-0.251,0.649-0.584c0,0,0,0,0.001-0.001
						c0.172-0.163,0.373-0.36,0.597-0.584c0.029-0.029,0.062-0.063,0.092-0.094c0.2-0.202,0.411-0.42,0.641-0.664
						C284.826,232.011,284.886,231.944,284.945,231.881z"/>
				</g>
				<path style="fill:#032079;" d="M276.608,204.475c3.534-1.202,6.187-0.221,9.031,1.555c0.971,0.609,1.613,0.927,2.36,1.749
					c1.13,1.241,1.711,2.847,2.309,4.399c0.05,0.101,0.227,0.469,0.227,0.469l0.035,0.076l-0.009-0.014
					c4.081,8.875,3.164,8.777,5.571,16.744c2.388,7.937,3.771,7.938,4.97,17.288c-0.027-0.079-0.028-0.112-0.028-0.112
					c0.252,1.632,0.378,3.788,0.179,5.562l0.001-0.023c-0.001,0.013-0.021,0.263-0.034,0.267l0-0.001
					c-0.003,0.001-0.007,0.022-0.007,0.022l-0.001,0c-0.509,4.822-1.342,5.99-2.157,10.418c-0.309,1.688-1.085,5.038-1.222,5.62
					c-0.83,3.549-1.35,3.953-1.687,6.289c-0.093,0.888-0.138,1.739-0.28,2.59c-0.172,1.026-1.158,2.437-3.177,1.443
					c-1.831-0.901-3.708-1.305-7.656-6.232l0.092,0.102c-5.599-6.688-1.968-8.532-12.76-24.333l-0.004,0.003
					c-5.836-7.086-6.479-11.839-6.659-16.834c-0.229-6.29-5.914-12.988-4.194-20.368c0.135-0.58,1.604-0.643,3.597-3.87
					c0.631-1.016,2.701-2.235,6.643-3.736C271.852,203.507,276.505,204.51,276.608,204.475"/>
			</g>
		</g>
		<g>
			<path style="fill:#FF5992;" d="M157.183,246.262c-1.895,1.094-4.968,1.094-6.863,0c-1.895-1.094-1.895-2.868,0-3.962
				c1.895-1.094,4.968-1.094,6.863,0C159.078,243.393,159.078,245.167,157.183,246.262z"/>
			<rect x="148.899" y="217.056" style="fill:#FF5992;" width="9.705" height="27.224"/>
			<path style="fill:#FFACC9;" d="M157.183,219.037c-1.895,1.094-4.968,1.094-6.863,0c-1.895-1.094-1.895-2.868,0-3.962
				c1.895-1.094,4.968-1.094,6.863,0C159.078,216.169,159.078,217.943,157.183,219.037z"/>
			<g>
				<path style="fill:#0540F2;" d="M156.209,215.356c-1.357,0.784-3.558,0.784-4.915,0c-1.357-0.784-1.357-2.054,0-2.837
					c1.357-0.784,3.557-0.784,4.915,0C157.566,213.302,157.566,214.573,156.209,215.356z"/>
				<rect x="150.276" y="211.579" style="fill:#0540F2;" width="6.95" height="2.358"/>
				<path style="fill:#3766F5;" d="M156.209,212.998c-1.357,0.784-3.558,0.784-4.915,0c-1.357-0.784-1.357-2.054,0-2.837
					c1.357-0.784,3.557-0.784,4.915,0C157.566,210.944,157.566,212.214,156.209,212.998z"/>
			</g>
		</g>
		<g>
			<path style="fill:#0540F2;" d="M166.107,241.417c-1.423,0.822-3.731,0.822-5.155,0c-1.423-0.822-1.423-2.154,0-2.976
				c1.424-0.822,3.731-0.822,5.155,0C167.531,239.263,167.531,240.595,166.107,241.417z"/>
			<rect x="159.885" y="219.481" style="fill:#0540F2;" width="7.29" height="20.448"/>
			<path style="fill:#3766F5;" d="M166.107,220.969c-1.423,0.822-3.731,0.822-5.155,0c-1.423-0.822-1.423-2.154,0-2.976
				c1.424-0.822,3.731-0.822,5.155,0C167.531,218.815,167.531,220.147,166.107,220.969z"/>
			<g>
				<path style="fill:#FF5992;" d="M165.376,218.204c-1.019,0.589-2.672,0.589-3.691,0c-1.019-0.589-1.019-1.543,0-2.131
					c1.019-0.588,2.672-0.588,3.691,0C166.395,216.661,166.395,217.615,165.376,218.204z"/>
				<rect x="160.92" y="215.367" style="fill:#FF5992;" width="5.22" height="1.771"/>
				<path style="fill:#FF83AD;" d="M165.376,216.433c-1.019,0.589-2.672,0.589-3.691,0c-1.019-0.589-1.019-1.543,0-2.131
					c1.019-0.589,2.672-0.589,3.691,0C166.395,214.89,166.395,215.844,165.376,216.433z"/>
			</g>
		</g>
		<g>
			<path style="fill:#BF2459;" d="M214.149,232.53l-0.174-0.101l-4.946-2.856c-0.069-0.04-0.154-0.064-0.243-0.074v-0.31h-0.563
				v0.548c-0.002,0.014-0.001,0.028,0,0.042v0.018h0.002c0.015,0.067,0.069,0.132,0.155,0.182l4.397,2.538
				c0.289,0.167,0.289,0.438,0,0.605h0c-0.289,0.167-0.758,0.167-1.047,0l-4.397-2.539c-0.076-0.044-0.175-0.071-0.277-0.083v-0.329
				h-0.563v0.573c0,0.003,0,0.006,0,0.009v0.026h0.002c0.006,0.065,0.05,0.13,0.137,0.18l4.423,2.553
				c0.289,0.167,0.289,0.438,0,0.605c-0.289,0.167-0.758,0.167-1.048,0l-4.397-2.538c-0.076-0.044-0.174-0.071-0.276-0.083v-0.319
				h-0.563v0.56c-0.001,0.007,0,0.014,0,0.021v0.026h0.002c0.01,0.062,0.054,0.122,0.136,0.169l4.423,2.553
				c0.289,0.167,0.289,0.438,0,0.605l0,0c-0.289,0.167-0.758,0.167-1.048,0l-4.397-2.538c-0.076-0.044-0.174-0.071-0.276-0.083
				v-0.337h-0.563v0.576c-0.012,0.078,0.033,0.159,0.137,0.219l4.423,2.553c0.289,0.167,0.289,0.438,0,0.605h0
				c-0.289,0.167-0.758,0.167-1.047,0l-4.397-2.538c-0.076-0.044-0.174-0.07-0.275-0.083v-0.335h-0.563v0.571
				c-0.013,0.079,0.031,0.161,0.136,0.221l4.423,2.553c0.289,0.167,0.289,0.438,0,0.605l0,0c-0.289,0.167-0.758,0.167-1.048,0
				l-4.397-2.538c-0.076-0.044-0.173-0.07-0.274-0.083v-0.314h-0.563v0.548c-0.003,0.019-0.003,0.038,0,0.057v0.003h0
				c0.012,0.06,0.056,0.118,0.136,0.164l4.423,2.553c0.289,0.167,0.289,0.438,0,0.605l0,0c-0.289,0.167-0.758,0.167-1.048,0
				l-4.397-2.538c-0.076-0.044-0.173-0.07-0.274-0.082v-0.326h-0.563v0.557c-0.016,0.08,0.028,0.164,0.135,0.226l4.423,2.553
				c0.289,0.167,0.289,0.438,0,0.605l0,0c-0.289,0.167-0.758,0.167-1.048,0l-4.397-2.538c-0.078-0.045-0.18-0.073-0.285-0.085
				v-0.341h-0.563v0.608h0.009c0.001,0.07,0.045,0.14,0.137,0.193l4.423,2.553c0.289,0.167,0.289,0.438,0,0.605h0
				c-0.289,0.167-0.758,0.167-1.047,0l-4.397-2.538c-0.077-0.044-0.175-0.071-0.277-0.083v-0.342h-0.563v0.586
				c0,0.001,0,0.002,0,0.003v0.018h0.001c0.001,0.07,0.045,0.139,0.137,0.192l4.423,2.553c0.289,0.167,0.289,0.438,0,0.605l0,0
				c-0.289,0.167-0.758,0.167-1.048,0l-4.397-2.538c-0.076-0.044-0.175-0.071-0.277-0.083v-0.348h-0.563v0.59
				c-0.001,0.005,0,0.01,0,0.015v0.003h0c-0.001,0.071,0.043,0.143,0.138,0.198l4.946,2.856l0.174,0.101
				c1.068,0.616,2.799,0.616,3.866,0l12.311-7.108C215.217,234.146,215.217,233.146,214.149,232.53z"/>
			<path style="fill:#FF3077;" d="M208.308,229.033c-0.147,0.113-0.101,0.275,0.072,0.374l4.397,2.538
				c0.289,0.167,0.289,0.438,0,0.605h0c-0.289,0.167-0.758,0.167-1.047,0l-4.397-2.538c-0.173-0.1-0.453-0.126-0.648-0.041
				c-0.238,0.103-0.255,0.299-0.053,0.416l4.423,2.553c0.289,0.167,0.289,0.438,0,0.605l0,0c-0.289,0.167-0.758,0.167-1.048,0
				l-4.397-2.539c-0.173-0.1-0.453-0.126-0.648-0.041c-0.238,0.103-0.255,0.299-0.052,0.416l4.423,2.553
				c0.289,0.167,0.289,0.438,0,0.605l0,0c-0.289,0.167-0.758,0.167-1.048,0l-4.397-2.538c-0.173-0.1-0.453-0.126-0.649-0.041
				c-0.238,0.103-0.255,0.299-0.053,0.416l4.423,2.553c0.289,0.167,0.289,0.438,0,0.605h0c-0.289,0.167-0.758,0.167-1.047,0
				l-4.397-2.538c-0.173-0.1-0.453-0.126-0.648-0.041c-0.238,0.103-0.255,0.299-0.053,0.416l4.423,2.553
				c0.289,0.167,0.289,0.438,0,0.605l0,0c-0.289,0.167-0.758,0.167-1.048,0l-4.397-2.538c-0.173-0.1-0.453-0.126-0.649-0.041
				c-0.237,0.103-0.255,0.299-0.052,0.416l4.423,2.553c0.289,0.167,0.289,0.438,0,0.605l0,0c-0.289,0.167-0.758,0.167-1.048,0
				l-4.397-2.538c-0.173-0.1-0.453-0.126-0.648-0.041c-0.238,0.103-0.255,0.299-0.053,0.416l4.423,2.553
				c0.289,0.167,0.289,0.438,0,0.605l0,0c-0.289,0.167-0.758,0.167-1.048,0l-4.397-2.538c-0.173-0.1-0.453-0.126-0.648-0.041
				c-0.238,0.103-0.255,0.299-0.053,0.416l4.423,2.553c0.289,0.167,0.289,0.438,0,0.605h0c-0.289,0.167-0.758,0.167-1.047,0
				l-4.397-2.538c-0.173-0.1-0.453-0.126-0.648-0.041c-0.238,0.103-0.255,0.299-0.053,0.416l4.423,2.553
				c0.289,0.167,0.289,0.438,0,0.605l0,0c-0.289,0.167-0.758,0.167-1.048,0l-4.397-2.538c-0.173-0.1-0.453-0.126-0.648-0.041
				c-0.238,0.103-0.255,0.299-0.053,0.416l4.946,2.856l0.174,0.1c1.068,0.617,2.799,0.617,3.866,0l12.311-7.108
				c1.068-0.617,1.068-1.616,0-2.232l-0.174-0.101l-4.946-2.856C208.826,228.885,208.487,228.896,208.308,229.033z"/>
		</g>
		<g>
			<path style="fill:#BF2459;" d="M199.404,230.097l-0.113-0.065l-3.208-1.852c-0.045-0.026-0.1-0.041-0.158-0.048v-0.201h-0.365
				v0.355c-0.001,0.009-0.001,0.018,0,0.027v0.012h0.001c0.01,0.043,0.045,0.086,0.101,0.118l2.852,1.646
				c0.188,0.108,0.188,0.284,0,0.392l0,0c-0.188,0.108-0.492,0.108-0.679,0l-2.852-1.646c-0.05-0.029-0.113-0.046-0.18-0.054v-0.214
				h-0.365v0.371c0,0.002,0,0.004,0,0.006v0.017h0.001c0.004,0.042,0.033,0.084,0.089,0.116l2.869,1.656
				c0.188,0.108,0.188,0.284,0,0.392c-0.188,0.108-0.492,0.108-0.679,0l-2.852-1.646c-0.049-0.029-0.113-0.046-0.179-0.054v-0.207
				h-0.365v0.363c-0.001,0.005,0,0.009,0,0.014v0.017h0.001c0.006,0.04,0.035,0.079,0.088,0.11l2.869,1.656
				c0.188,0.108,0.188,0.284,0,0.392l0,0c-0.188,0.108-0.492,0.108-0.679,0l-2.852-1.646c-0.049-0.029-0.113-0.046-0.179-0.054
				v-0.219h-0.365v0.373c-0.008,0.051,0.021,0.103,0.089,0.142l2.869,1.656c0.188,0.108,0.188,0.284,0,0.392l0,0
				c-0.188,0.108-0.492,0.108-0.679,0l-2.852-1.646c-0.049-0.029-0.113-0.046-0.178-0.054v-0.217h-0.365v0.371
				c-0.009,0.051,0.02,0.104,0.088,0.143l2.869,1.656c0.188,0.108,0.188,0.284,0,0.392v0c-0.188,0.108-0.492,0.108-0.679,0
				l-2.852-1.646c-0.049-0.028-0.112-0.046-0.178-0.054v-0.204h-0.365v0.355c-0.002,0.012-0.002,0.025,0,0.037v0.002h0
				c0.008,0.039,0.036,0.077,0.088,0.106l2.869,1.656c0.188,0.108,0.188,0.284,0,0.392l0,0c-0.188,0.108-0.492,0.108-0.679,0
				l-2.852-1.646c-0.049-0.028-0.112-0.045-0.177-0.053v-0.211h-0.365v0.362c-0.01,0.052,0.018,0.106,0.088,0.146l2.869,1.656
				c0.188,0.108,0.188,0.284,0,0.392l0,0c-0.188,0.108-0.492,0.108-0.679,0l-2.852-1.646c-0.051-0.029-0.117-0.047-0.185-0.055
				v-0.221h-0.365v0.394h0.006c0,0.045,0.029,0.091,0.089,0.125l2.869,1.656c0.188,0.108,0.188,0.284,0,0.392l0,0
				c-0.188,0.108-0.492,0.108-0.679,0l-2.852-1.646c-0.05-0.029-0.113-0.046-0.18-0.054v-0.222h-0.365v0.38c0,0.001,0,0.001,0,0.002
				v0.012h0.001c0.001,0.045,0.029,0.09,0.089,0.125l2.869,1.656c0.188,0.108,0.188,0.284,0,0.392h0
				c-0.188,0.108-0.492,0.108-0.679,0l-2.852-1.646c-0.049-0.029-0.113-0.046-0.179-0.054v-0.226H185.5v0.383
				c0,0.003,0,0.007,0,0.01v0.002h0c-0.001,0.046,0.028,0.093,0.089,0.128l3.208,1.852l0.113,0.065c0.693,0.4,1.815,0.4,2.508,0
				l7.985-4.61C200.096,231.145,200.096,230.497,199.404,230.097z"/>
			<path style="fill:#FF3077;" d="M195.615,227.829c-0.095,0.073-0.066,0.178,0.046,0.243l2.852,1.646
				c0.188,0.108,0.188,0.284,0,0.392l0,0c-0.188,0.108-0.492,0.108-0.679,0l-2.852-1.646c-0.112-0.065-0.294-0.082-0.421-0.027
				c-0.154,0.067-0.166,0.194-0.034,0.27l2.869,1.656c0.188,0.108,0.188,0.284,0,0.392l0,0c-0.188,0.108-0.492,0.108-0.679,0
				l-2.852-1.646c-0.112-0.065-0.294-0.082-0.421-0.027c-0.154,0.067-0.165,0.194-0.034,0.27l2.869,1.656
				c0.188,0.108,0.188,0.284,0,0.392l0,0c-0.188,0.108-0.492,0.108-0.679,0l-2.852-1.646c-0.112-0.065-0.294-0.082-0.421-0.027
				c-0.154,0.067-0.165,0.194-0.034,0.27l2.869,1.656c0.188,0.108,0.188,0.284,0,0.392l0,0c-0.188,0.108-0.492,0.108-0.679,0
				l-2.852-1.646c-0.112-0.065-0.294-0.082-0.421-0.027c-0.154,0.067-0.166,0.194-0.034,0.27l2.869,1.656
				c0.188,0.108,0.188,0.284,0,0.392l0,0c-0.188,0.108-0.492,0.108-0.679,0l-2.852-1.646c-0.112-0.065-0.294-0.082-0.421-0.027
				c-0.154,0.067-0.165,0.194-0.034,0.27l2.869,1.656c0.188,0.108,0.188,0.284,0,0.392v0c-0.188,0.108-0.492,0.108-0.679,0
				l-2.852-1.646c-0.112-0.065-0.294-0.082-0.421-0.027c-0.154,0.067-0.165,0.194-0.034,0.27l2.869,1.656
				c0.188,0.108,0.188,0.284,0,0.392l0,0c-0.188,0.108-0.492,0.108-0.679,0l-2.852-1.646c-0.112-0.065-0.294-0.082-0.421-0.027
				c-0.154,0.067-0.166,0.194-0.034,0.27l2.869,1.656c0.188,0.108,0.188,0.284,0,0.392l0,0c-0.188,0.108-0.492,0.108-0.679,0
				l-2.852-1.646c-0.112-0.065-0.294-0.082-0.421-0.027c-0.154,0.067-0.165,0.194-0.034,0.27l2.869,1.656
				c0.188,0.108,0.188,0.284,0,0.392h0c-0.188,0.108-0.492,0.108-0.679,0l-2.852-1.646c-0.112-0.065-0.294-0.082-0.421-0.027
				c-0.154,0.067-0.165,0.194-0.034,0.27l3.208,1.852l0.113,0.065c0.693,0.4,1.815,0.4,2.508,0l7.985-4.61
				c0.693-0.4,0.693-1.048,0-1.448l-0.113-0.065l-3.208-1.852C195.951,227.733,195.731,227.74,195.615,227.829z"/>
		</g>
		<g>
			
				<ellipse transform="matrix(0.5 -0.866 0.866 0.5 -102.1235 175.4557)" style="fill:#3766F5;" cx="100.888" cy="176.17" rx="20.886" ry="12.058"/>
			<g>
				<polygon style="fill:#0540F2;" points="111.618,190.982 96.267,182.119 96.267,173.817 111.618,182.68 				"/>
				<polygon style="fill:#9BB3FA;" points="111.618,182.678 96.267,173.815 103.456,169.664 118.808,178.527 				"/>
				<circle style="fill:#FFFFFF;" cx="119.691" cy="185.583" r="12.495"/>
			</g>
		</g>
		<g>
			
				<ellipse transform="matrix(0.5 -0.866 0.866 0.5 11.3251 241.3647)" style="fill:#3766F5;" cx="214.692" cy="110.874" rx="20.886" ry="12.058"/>
			<g>
				<polygon style="fill:#0540F2;" points="225.422,125.687 210.07,116.824 210.07,108.521 225.422,117.385 				"/>
				<polygon style="fill:#9BB3FA;" points="225.422,117.383 210.07,108.52 217.26,104.368 232.611,113.232 				"/>
				
					<ellipse transform="matrix(0.9227 -0.3856 0.3856 0.9227 -28.3262 99.3424)" style="fill:#FFFFFF;" cx="233.495" cy="120.288" rx="12.495" ry="12.495"/>
			</g>
		</g>
		<path style="fill:#FFFFFF;" d="M181.526,120.613l-30.83,80.441c-1.023-2.599-1.831-5.56-2.396-8.845l27.343-71.3
			C177.703,120.304,179.668,120.209,181.526,120.613z"/>
		<path style="fill:#FFFFFF;" d="M189.685,126.173l-32.405,84.547c-1.481-1.185-2.827-2.72-4.025-4.591l32.176-83.928
			C186.979,123.158,188.406,124.504,189.685,126.173z"/>
	</g>
</g>
</svg>
