<?xml version="1.0" encoding="utf-8"?>
<!-- Generator: Adobe Illustrator 27.5.0, SVG Export Plug-In . SVG Version: 6.00 Build 0)  -->
<svg version="1.1" xmlns="http://www.w3.org/2000/svg" xmlns:xlink="http://www.w3.org/1999/xlink" x="0px" y="0px"
	 viewBox="0 0 500 500" style="enable-background:new 0 0 500 500;" xml:space="preserve">
<g id="BACKGROUND">
	<rect style="fill:#FFFFFF;" width="500" height="500"/>
</g>
<g id="OBJECTS">
	<g>
		<path style="fill:#EBE3FF;" d="M100.097,352.439c0,0-55.656,0.738-71.495,12.429c-15.839,11.691,89.315,26.115,113.73,36.298
			c24.415,10.183,5.266,29.079,96.862,29.079c91.596,0,175.049,2.49,196.656-10.261c19.529-11.524-23.696-26.297,3.79-28.217
			c27.486-1.92,49.637-24.791,15.739-32.157C421.482,352.242,100.097,352.439,100.097,352.439"/>
		<path style="fill:#D4F7FF;" d="M162.959,371.8c-54.718-4.298-102.274-39.486-122.083-90.672
			c-8.399-21.704-13.975-46.888-11.803-73.605c6.516-80.145,48.217-103.602,85.357-106.208s61.249,49.52,118.588,34.534
			c57.339-14.986,72.977-76.235,139.439-63.855c66.461,12.38,53.893,107.471,54.124,140.192s46.871,19.564,46.871,67.396
			s-43.439,82.77-132.488,89.41C286.046,373.086,217.167,376.058,162.959,371.8z"/>
		<g>
			<path style="fill:#925FF5;" d="M408.087,355.472c0,0-10.857-27.664-7.709-49.167c3.148-21.502,18.46-11.403,22.37-7.33
				c3.91,4.072,17.841-23.07,22.805-34.978c4.965-11.908,16.941-30.586,25.737-26.066c8.796,4.52-1.629,34.167,0,40.357
				c1.629,6.19,7.493-2.281,12.706,5.538c5.213,7.819-18.244,21.502-18.244,26.715c0,5.213,12.054,8.084,5.538,20.657
				C464.774,343.771,429.263,360.331,408.087,355.472z"/>
			<g>
				<path style="fill:none;stroke:#6645A3;stroke-miterlimit:10;" d="M408.087,355.472c0,0,35.413-39.569,63.203-117.542"/>
				<line style="fill:none;stroke:#6645A3;stroke-miterlimit:10;" x1="408.437" y1="293.857" x2="420.845" y2="338.712"/>
				<line style="fill:none;stroke:#6645A3;stroke-miterlimit:10;" x1="428.275" y1="327.51" x2="473.452" y2="324.268"/>
				<line style="fill:none;stroke:#6645A3;stroke-miterlimit:10;" x1="445.901" y1="296.701" x2="484.476" y2="288.074"/>
				<line style="fill:none;stroke:#6645A3;stroke-miterlimit:10;" x1="450.21" y1="254.652" x2="455.379" y2="277.202"/>
			</g>
			<g>
				<defs>
					<path id="SVGID_1_" d="M408.087,355.472c0,0-10.857-27.664-7.709-49.167c3.148-21.502,18.46-11.403,22.37-7.33
						c3.91,4.072,17.841-23.07,22.805-34.978c4.965-11.908,16.941-30.586,25.737-26.066c8.796,4.52-1.629,34.167,0,40.357
						c1.629,6.19,7.493-2.281,12.706,5.538c5.213,7.819-18.244,21.502-18.244,26.715c0,5.213,12.054,8.084,5.538,20.657
						C464.774,343.771,429.263,360.331,408.087,355.472z"/>
				</defs>
				<clipPath id="SVGID_00000159437841906139229130000006059114246653570747_">
					<use xlink:href="#SVGID_1_"  style="overflow:visible;"/>
				</clipPath>
				<g style="clip-path:url(#SVGID_00000159437841906139229130000006059114246653570747_);">
					<g>
						<path style="fill:#FFFFFF;" d="M418.378,291.526c2.578,8.296,5.338,18.151,0.037,26.014c-2.514,3.73-6.622,5.449-10.891,6.309
							c-4.824,0.972-9.822,0.796-14.591-0.388c-1.405-0.349-2.005,1.82-0.598,2.17c4.006,0.995,8.165,1.342,12.276,0.916
							c3.819-0.395,7.8-1.275,11.095-3.331c6.035-3.766,8.322-11.198,7.957-17.99c-0.263-4.902-1.667-9.638-3.115-14.298
							C420.119,289.55,417.947,290.138,418.378,291.526L418.378,291.526z"/>
					</g>
					<g>
						<path style="fill:#FFFFFF;" d="M429.315,286.637c2.83,2.137,6.679,2.114,9.837,0.74c3.307-1.438,5.699-4.358,7.459-7.418
							c3.638-6.323,6.622-15.135,1.149-21.341c-0.96-1.088-2.546,0.508-1.591,1.591c4.632,5.252,1.642,12.986-1.304,18.268
							c-1.475,2.644-3.405,5.252-6.172,6.644c-2.635,1.325-5.836,1.391-8.242-0.427
							C429.296,283.821,428.173,285.774,429.315,286.637L429.315,286.637z"/>
					</g>
					<g>
						<path style="fill:#FFFFFF;" d="M426.566,295.378c8.647-0.461,18.426-1.204,24.878-7.73c6.428-6.503,8.976-16.598,8.059-25.513
							c-0.523-5.087-2.125-10.003-4.8-14.368c-0.755-1.233-2.702-0.104-1.943,1.136c4.43,7.229,5.765,16.137,3.78,24.373
							c-0.995,4.129-2.8,8.231-5.535,11.511c-2.732,3.278-6.424,5.328-10.489,6.49c-4.532,1.295-9.266,1.602-13.95,1.851
							C425.126,293.205,425.117,295.455,426.566,295.378L426.566,295.378z"/>
					</g>
					<g>
						<path style="fill:#FFFFFF;" d="M475.515,278.062c-7.894,3.532-14.532,9.821-18.412,17.561
							c-1.948,3.887-3.896,9.164-2.294,13.498c1.638,4.43,6.872,3.78,10.541,2.816c5.28-1.387,10.211-4.127,15.707-4.65
							c1.429-0.136,1.443-2.387,0-2.25c-4.275,0.407-8.204,1.998-12.212,3.428c-2.018,0.72-4.068,1.39-6.18,1.773
							c-1.613,0.292-3.814,0.505-5.075-0.786c-1.481-1.518-1.14-4.488-0.783-6.371c0.418-2.208,1.235-4.318,2.239-6.322
							c1.725-3.441,4-6.579,6.723-9.298c3.142-3.138,6.831-5.643,10.882-7.456C477.97,279.414,476.827,277.475,475.515,278.062
							L475.515,278.062z"/>
					</g>
					<g>
						<path style="fill:#FFFFFF;" d="M475.466,316.193c-9.618-1.912-19.542,1.046-27.243,6.945
							c-8.155,6.246-13.271,15.568-15.473,25.502c-1.301,5.869-1.643,11.923-1.195,17.911c0.107,1.435,2.358,1.447,2.25,0
							c-0.738-9.868,0.665-20.081,5.266-28.934c4.34-8.353,11.59-15.065,20.571-18.108c4.898-1.659,10.138-2.158,15.226-1.146
							C476.282,318.644,476.887,316.475,475.466,316.193L475.466,316.193z"/>
					</g>
					<g>
						<path style="fill:#FFFFFF;" d="M444.961,353.766c1.7-8.7,4.504-17.625,10.416-24.438c5.448-6.278,13.586-10.484,22.031-9.435
							c1.433,0.178,1.421-2.074,0-2.25c-6.84-0.849-13.644,1.615-19.024,5.772c-5.76,4.451-9.641,10.744-12.21,17.478
							c-1.516,3.974-2.567,8.106-3.382,12.275C442.515,354.582,444.683,355.188,444.961,353.766L444.961,353.766z"/>
					</g>
				</g>
			</g>
		</g>
		<g>
			<path style="fill:#FDED6D;" d="M335.497,371.364H439.64c0,0-1.955-32.108-16.941-35.878c-14.986-3.77-23.457,4.748-30.95,0
				c-7.493-4.748-11.403-30.92-34.86-27.445S335.497,371.364,335.497,371.364z"/>
			<g>
				<defs>
					<path id="SVGID_00000147181373903229689510000003702927743825300360_" d="M335.497,371.364H439.64
						c0,0-1.955-32.108-16.941-35.878c-14.986-3.77-23.457,4.748-30.95,0c-7.493-4.748-11.403-30.92-34.86-27.445
						S335.497,371.364,335.497,371.364z"/>
				</defs>
				<clipPath id="SVGID_00000000182139909702051150000015921003891158170799_">
					<use xlink:href="#SVGID_00000147181373903229689510000003702927743825300360_"  style="overflow:visible;"/>
				</clipPath>
				<g style="clip-path:url(#SVGID_00000000182139909702051150000015921003891158170799_);">
					<g>
						<path style="fill:#FFFFFF;" d="M412.008,329.47c-5.743,5.812-8.211,14.619-5.98,22.532
							c2.164,7.675,8.356,13.882,16.012,16.079c5.257,1.509,10.809,1.309,16.214,1.079c1.923-0.082,1.934-3.082,0-3
							c-7.912,0.337-16.465,0.53-22.843-4.933c-5.381-4.609-8.174-11.732-6.893-18.76c0.75-4.112,2.671-7.901,5.611-10.876
							C415.487,330.217,413.367,328.094,412.008,329.47L412.008,329.47z"/>
					</g>
					<g>
						<path style="fill:#FFFFFF;" d="M421.011,330.352c-4.515,4.85-6.169,11.963-4.407,18.343
							c1.748,6.326,6.951,11.086,13.227,12.787c3.511,0.952,7.27,0.922,10.736-0.2c1.829-0.592,1.047-3.49-0.798-2.893
							c-6.554,2.123-14.41-0.348-18.288-6.147c-4.004-5.988-3.241-14.515,1.65-19.769
							C424.447,331.062,422.33,328.935,421.011,330.352L421.011,330.352z"/>
					</g>
					<g>
						<path style="fill:#FFFFFF;" d="M395.382,327.491c-3.162,11.94-12.346,22.056-23.849,26.536
							c-2.876,1.12-5.924,1.96-8.998,2.294c-3.858,0.421-7.192-0.28-9.878-3.221c-2.669-2.922-4.779-6.46-7.059-9.685
							c-2.437-3.447-4.874-6.894-7.311-10.341c-5.591-7.907-11.181-15.815-16.772-23.722c-1.106-1.564-3.708-0.067-2.59,1.514
							c5.256,7.434,10.512,14.869,15.769,22.303c2.676,3.785,5.352,7.569,8.028,11.354c2.419,3.421,4.685,7.063,7.418,10.246
							c2.561,2.984,5.861,4.602,9.808,4.679c3.478,0.068,7.072-0.726,10.363-1.805c6.269-2.054,12.014-5.614,16.72-10.23
							c5.35-5.249,9.325-11.871,11.246-19.126C398.769,326.42,395.876,325.623,395.382,327.491L395.382,327.491z"/>
					</g>
					<g>
						<path style="fill:#FFFFFF;" d="M341.426,311.828c3.214,11.679,8.296,22.956,15.162,32.951
							c1.418,2.064,3.048,4.159,5.365,5.257c2.585,1.225,5.509,0.929,8.095-0.134c4.925-2.024,8.419-6.361,10.841-10.964
							c3.11-5.912,4.674-12.526,8.285-18.191c1.041-1.633-1.555-3.139-2.59-1.514c-3.001,4.708-4.616,10.059-6.832,15.142
							c-1.874,4.298-4.371,8.75-8.358,11.422c-2.042,1.369-4.682,2.519-7.177,1.892c-2.381-0.598-3.953-2.82-5.253-4.74
							c-3.082-4.551-5.8-9.355-8.152-14.322c-2.681-5.662-4.832-11.559-6.493-17.597
							C343.807,309.172,340.912,309.961,341.426,311.828L341.426,311.828z"/>
					</g>
				</g>
			</g>
		</g>
		<g>
			<polygon style="fill:#DAE8EF;" points="64.065,348.691 80.382,190.836 153.393,381.654 100.097,352.439 			"/>
			<polygon style="fill:#C3E3F4;" points="316.06,190.836 80.382,190.836 153.393,381.654 391.749,381.654 			"/>
			<polygon style="fill:#55388F;" points="329.116,223.751 316.06,190.835 80.382,190.836 92.976,223.751 			"/>
			<polygon style="fill:#81ADC1;" points="100.097,352.439 97.381,332.269 94.772,312.086 89.722,271.7 84.912,231.285 
				82.593,211.067 80.382,190.836 83.099,211.005 85.709,231.188 90.757,271.574 95.565,311.99 97.884,332.208 			"/>
			<g>
				<path style="fill:#FDED6D;" d="M122.558,189.722c0.01,0.031,0-0.082-0.044-0.301c0.005,0.048,0.01,0.09,0.015,0.126
					C122.538,189.606,122.55,189.664,122.558,189.722z"/>
				<path style="fill:#FDED6D;" d="M141.773,183.212c-2.069-4.247-5.461-8.244-9.936-10.01c-5.198-2.052-11.431,0.68-13.912,5.586
					c-1.84,3.639-2.159,8.029-1.495,12.048h6.237c0.006-0.275-0.007-0.553-0.063-0.832c-0.019-0.093-0.033-0.187-0.046-0.281
					c-0.005-0.016-0.015-0.073-0.029-0.175c-0.013-0.084-0.023-0.169-0.041-0.251c0.01,0.046,0.018,0.085,0.026,0.125
					c-0.005-0.043-0.01-0.083-0.015-0.136c-0.036-0.364-0.064-0.729-0.083-1.095c-0.045-0.872-0.041-1.746,0.022-2.617
					c0.016-0.214,0.043-0.427,0.058-0.64c0.001-0.012,0.001-0.014,0.001-0.025c0.001-0.007,0.002-0.007,0.003-0.014
					c0.104-0.518,0.191-1.034,0.331-1.544c0.061-0.221,0.126-0.441,0.198-0.658c0.019-0.056,0.132-0.351,0.188-0.505
					c0.06-0.125,0.14-0.295,0.165-0.344c0.144-0.277,0.314-0.535,0.469-0.805c0.043-0.075,0.096-0.145,0.146-0.215
					c0.13-0.15,0.258-0.302,0.397-0.444c0.145-0.148,0.301-0.284,0.456-0.421c0.039-0.021,0.323-0.241,0.46-0.325
					c0.212-0.13,0.432-0.241,0.653-0.353c0.078-0.031,0.336-0.145,0.455-0.185c0.283-0.094,0.571-0.174,0.862-0.242
					c0.131-0.031,0.264-0.055,0.396-0.084c0.295,0.003,0.596-0.016,0.891-0.012c0.158,0.055,0.364,0.07,0.519,0.111
					c0.173,0.045,0.704,0.241,0.855,0.287c0.061,0.029,0.116,0.056,0.143,0.07c0.219,0.118,0.439,0.233,0.653,0.36
					c0.323,0.193,0.623,0.416,0.937,0.622c0.032,0.025,0.064,0.05,0.094,0.077c0.178,0.156,0.36,0.308,0.535,0.468
					c0.646,0.59,1.218,1.239,1.78,1.905c-0.039-0.031,0.461,0.607,0.588,0.792c0.295,0.431,0.575,0.873,0.84,1.324
					c0.248,0.423,0.483,0.854,0.704,1.291c0.103,0.203,0.202,0.407,0.299,0.613c0.046,0.099,0.191,0.432,0.259,0.585
					c0.049,0.126,0.113,0.291,0.132,0.34c0.08,0.212,0.156,0.425,0.229,0.639c0.169,0.496,0.321,0.998,0.453,1.505
					c0.121,0.464,0.226,0.933,0.313,1.404c0.039,0.215,0.071,0.431,0.107,0.647c-0.118-0.708-0.016-0.088,0.011,0.24
					c0.065,0.799-0.008,1.581-0.021,2.371c0.003-0.012,0.005,0.059-0.002,0.169c0,0.058-0.003,0.116-0.002,0.175
					c-0.001-0.052-0.001-0.087-0.001-0.127c-0.007,0.087-0.019,0.19-0.04,0.295c-0.045,0.229-0.097,0.456-0.157,0.681
					c-0.059,0.223-0.125,0.444-0.199,0.663c-0.036,0.107-0.081,0.213-0.121,0.299c-0.209,0.384-0.42,0.762-0.64,1.142
					c-0.019,0.032-0.024,0.045-0.037,0.069c-0.003,0.003-0.003,0.003-0.007,0.006c-0.187,0.189-0.353,0.401-0.543,0.588
					c-0.158,0.156-0.331,0.294-0.491,0.445c-0.053,0.039-0.106,0.079-0.162,0.114c-0.456,0.292-0.921,0.547-1.408,0.783
					c-0.139,0.052-0.278,0.105-0.419,0.153c-0.28,0.095-0.564,0.18-0.85,0.256c-0.345,0.092-0.693,0.17-1.044,0.236
					c-0.137,0.026-0.275,0.048-0.412,0.072c-0.033,0.006-0.041,0.008-0.06,0.012c-0.038,0.004-0.06,0.006-0.111,0.012
					c-1.679,0.192-3.13,1.301-3.13,3.13c0,1.543,1.44,3.324,3.13,3.13c5.63-0.645,10.683-3.358,12.431-9.065
					C145.186,192.867,143.9,187.578,141.773,183.212z M127.689,178.768c0.017-0.004,0.034-0.007,0.051-0.011
					C128.212,178.649,127.961,178.747,127.689,178.768z M137.449,196.622C137.391,196.744,137.366,196.781,137.449,196.622
					L137.449,196.622z"/>
				<path style="fill:#FDED6D;" d="M137.997,194.41c-0.003,0.009-0.005,0.078-0.005,0.217c0.002-0.018,0.002-0.032,0.003-0.048
					C137.995,194.523,137.996,194.466,137.997,194.41z"/>
			</g>
			<g>
				<path style="fill:#FDED6D;" d="M173.591,189.722c0.01,0.031,0-0.082-0.044-0.301c0.005,0.048,0.01,0.09,0.015,0.126
					C173.571,189.606,173.583,189.664,173.591,189.722z"/>
				<path style="fill:#FDED6D;" d="M192.806,183.212c-2.069-4.247-5.461-8.244-9.936-10.01c-5.198-2.052-11.431,0.68-13.912,5.586
					c-1.84,3.639-2.159,8.029-1.495,12.048h6.238c0.006-0.275-0.007-0.553-0.063-0.832c-0.019-0.093-0.033-0.187-0.046-0.281
					c-0.005-0.016-0.015-0.073-0.029-0.175c-0.012-0.084-0.023-0.169-0.041-0.251c0.01,0.046,0.018,0.085,0.026,0.125
					c-0.005-0.043-0.01-0.083-0.015-0.136c-0.036-0.364-0.064-0.729-0.083-1.095c-0.045-0.872-0.041-1.746,0.023-2.617
					c0.016-0.214,0.043-0.427,0.057-0.64c0.001-0.012,0.001-0.014,0.001-0.025c0.001-0.007,0.002-0.007,0.003-0.014
					c0.104-0.518,0.191-1.034,0.331-1.544c0.06-0.221,0.126-0.441,0.198-0.658c0.019-0.056,0.132-0.351,0.189-0.505
					c0.06-0.125,0.14-0.295,0.165-0.344c0.144-0.277,0.314-0.535,0.469-0.805c0.043-0.075,0.096-0.145,0.146-0.215
					c0.13-0.15,0.258-0.302,0.397-0.444c0.145-0.148,0.301-0.284,0.456-0.421c0.039-0.021,0.323-0.241,0.46-0.325
					c0.212-0.13,0.432-0.241,0.653-0.353c0.078-0.031,0.336-0.145,0.455-0.185c0.283-0.094,0.571-0.174,0.862-0.242
					c0.132-0.031,0.264-0.055,0.396-0.084c0.295,0.003,0.596-0.016,0.891-0.012c0.158,0.055,0.364,0.07,0.519,0.111
					c0.173,0.045,0.704,0.241,0.855,0.287c0.061,0.029,0.116,0.056,0.143,0.07c0.219,0.118,0.439,0.233,0.653,0.36
					c0.323,0.193,0.623,0.416,0.937,0.622c0.032,0.025,0.064,0.05,0.094,0.077c0.178,0.156,0.36,0.308,0.535,0.468
					c0.646,0.59,1.218,1.239,1.78,1.905c-0.039-0.031,0.461,0.607,0.588,0.792c0.295,0.431,0.575,0.873,0.84,1.324
					c0.248,0.423,0.483,0.854,0.704,1.291c0.102,0.203,0.202,0.407,0.298,0.613c0.046,0.099,0.191,0.432,0.259,0.585
					c0.049,0.126,0.113,0.291,0.132,0.34c0.08,0.212,0.156,0.425,0.229,0.639c0.169,0.496,0.321,0.998,0.453,1.505
					c0.121,0.464,0.226,0.933,0.313,1.404c0.039,0.215,0.071,0.431,0.107,0.647c-0.118-0.708-0.016-0.088,0.011,0.24
					c0.065,0.799-0.008,1.581-0.021,2.371c0.003-0.012,0.005,0.059-0.002,0.169c0,0.058-0.003,0.116-0.002,0.175
					c-0.001-0.052,0-0.087,0-0.127c-0.007,0.087-0.019,0.19-0.04,0.295c-0.045,0.229-0.097,0.456-0.157,0.681
					c-0.059,0.223-0.125,0.444-0.199,0.663c-0.036,0.107-0.081,0.213-0.121,0.299c-0.209,0.384-0.42,0.762-0.64,1.142
					c-0.019,0.032-0.024,0.045-0.037,0.069c-0.003,0.003-0.003,0.003-0.007,0.006c-0.187,0.189-0.353,0.401-0.543,0.588
					c-0.158,0.156-0.33,0.294-0.491,0.445c-0.054,0.039-0.106,0.079-0.162,0.114c-0.456,0.292-0.921,0.547-1.408,0.783
					c-0.139,0.052-0.278,0.105-0.419,0.153c-0.28,0.095-0.564,0.18-0.85,0.256c-0.345,0.092-0.693,0.17-1.044,0.236
					c-0.137,0.026-0.275,0.048-0.412,0.072c-0.033,0.006-0.041,0.008-0.06,0.012c-0.038,0.004-0.06,0.006-0.111,0.012
					c-1.679,0.192-3.13,1.301-3.13,3.13c0,1.543,1.439,3.324,3.13,3.13c5.63-0.645,10.683-3.358,12.431-9.065
					C196.22,192.867,194.933,187.578,192.806,183.212z M178.723,178.768c0.017-0.004,0.034-0.007,0.051-0.011
					C179.246,178.649,178.994,178.747,178.723,178.768z M188.482,196.622C188.424,196.744,188.4,196.781,188.482,196.622
					L188.482,196.622z"/>
				<path style="fill:#FDED6D;" d="M189.03,194.41c-0.003,0.009-0.005,0.078-0.005,0.217c0.001-0.018,0.002-0.032,0.003-0.048
					C189.028,194.523,189.029,194.466,189.03,194.41z"/>
			</g>
			<g>
				<path style="fill:#FDED6D;" d="M224.624,189.722c0.01,0.031,0-0.082-0.044-0.301c0.005,0.048,0.01,0.09,0.015,0.126
					C224.604,189.606,224.616,189.664,224.624,189.722z"/>
				<path style="fill:#FDED6D;" d="M243.839,183.212c-2.069-4.247-5.461-8.244-9.936-10.01c-5.198-2.052-11.431,0.68-13.912,5.586
					c-1.84,3.639-2.159,8.029-1.495,12.048h6.238c0.006-0.275-0.007-0.553-0.063-0.832c-0.019-0.093-0.033-0.187-0.046-0.281
					c-0.005-0.016-0.015-0.073-0.029-0.175c-0.013-0.084-0.023-0.169-0.041-0.251c0.01,0.046,0.018,0.085,0.026,0.125
					c-0.005-0.043-0.01-0.083-0.015-0.136c-0.036-0.364-0.064-0.729-0.083-1.095c-0.044-0.872-0.041-1.746,0.023-2.617
					c0.016-0.214,0.043-0.427,0.058-0.64c0.001-0.012,0-0.014,0.001-0.025c0.001-0.007,0.002-0.007,0.003-0.014
					c0.104-0.518,0.191-1.034,0.331-1.544c0.06-0.221,0.126-0.441,0.198-0.658c0.019-0.056,0.132-0.351,0.189-0.505
					c0.06-0.125,0.14-0.295,0.165-0.344c0.144-0.277,0.314-0.535,0.469-0.805c0.043-0.075,0.096-0.145,0.146-0.215
					c0.13-0.15,0.258-0.302,0.397-0.444c0.145-0.148,0.301-0.284,0.456-0.421c0.039-0.021,0.322-0.241,0.46-0.325
					c0.212-0.13,0.432-0.241,0.653-0.353c0.077-0.031,0.335-0.145,0.455-0.185c0.283-0.094,0.571-0.174,0.862-0.242
					c0.131-0.031,0.264-0.055,0.396-0.084c0.295,0.003,0.596-0.016,0.891-0.012c0.158,0.055,0.364,0.07,0.519,0.111
					c0.173,0.045,0.704,0.241,0.855,0.287c0.061,0.029,0.116,0.056,0.143,0.07c0.219,0.118,0.439,0.233,0.653,0.36
					c0.323,0.193,0.623,0.416,0.937,0.622c0.032,0.025,0.064,0.05,0.094,0.077c0.178,0.156,0.36,0.308,0.535,0.468
					c0.646,0.59,1.218,1.239,1.78,1.905c-0.039-0.031,0.461,0.607,0.588,0.792c0.295,0.431,0.575,0.873,0.84,1.324
					c0.248,0.423,0.483,0.854,0.704,1.291c0.102,0.203,0.202,0.407,0.298,0.613c0.046,0.099,0.191,0.432,0.259,0.585
					c0.049,0.126,0.113,0.291,0.132,0.34c0.08,0.212,0.156,0.425,0.229,0.639c0.169,0.496,0.321,0.998,0.454,1.505
					c0.121,0.464,0.226,0.933,0.313,1.404c0.039,0.215,0.071,0.431,0.107,0.647c-0.118-0.708-0.016-0.088,0.011,0.24
					c0.065,0.799-0.008,1.581-0.021,2.371c0.003-0.012,0.005,0.059-0.002,0.169c0,0.058-0.003,0.116-0.003,0.175
					c-0.001-0.052-0.001-0.087-0.001-0.127c-0.007,0.087-0.019,0.19-0.04,0.295c-0.045,0.229-0.097,0.456-0.157,0.681
					c-0.059,0.223-0.125,0.444-0.199,0.663c-0.036,0.107-0.081,0.213-0.121,0.299c-0.209,0.384-0.42,0.762-0.64,1.142
					c-0.019,0.032-0.024,0.045-0.037,0.069c-0.003,0.003-0.003,0.003-0.007,0.006c-0.187,0.189-0.353,0.401-0.543,0.588
					c-0.158,0.156-0.33,0.294-0.491,0.445c-0.053,0.039-0.106,0.079-0.162,0.114c-0.456,0.292-0.921,0.547-1.408,0.783
					c-0.139,0.052-0.278,0.105-0.419,0.153c-0.28,0.095-0.564,0.18-0.85,0.256c-0.345,0.092-0.693,0.17-1.044,0.236
					c-0.137,0.026-0.275,0.048-0.412,0.072c-0.033,0.006-0.041,0.008-0.06,0.012c-0.038,0.004-0.06,0.006-0.111,0.012
					c-1.679,0.192-3.13,1.301-3.13,3.13c0,1.543,1.439,3.324,3.13,3.13c5.63-0.645,10.683-3.358,12.43-9.065
					C247.253,192.867,245.966,187.578,243.839,183.212z M229.756,178.768c0.017-0.004,0.034-0.007,0.051-0.011
					C230.279,178.649,230.028,178.747,229.756,178.768z M239.515,196.622C239.457,196.744,239.433,196.781,239.515,196.622
					L239.515,196.622z"/>
				<path style="fill:#FDED6D;" d="M240.064,194.41c-0.003,0.009-0.005,0.078-0.005,0.217c0.002-0.018,0.002-0.032,0.003-0.048
					C240.061,194.523,240.063,194.466,240.064,194.41z"/>
			</g>
			<g>
				<path style="fill:#FDED6D;" d="M275.658,189.722c0.01,0.031,0-0.082-0.044-0.301c0.005,0.048,0.01,0.09,0.015,0.126
					C275.638,189.606,275.65,189.664,275.658,189.722z"/>
				<path style="fill:#FDED6D;" d="M294.873,183.212c-2.069-4.247-5.461-8.244-9.936-10.01c-5.198-2.052-11.431,0.68-13.912,5.586
					c-1.84,3.639-2.159,8.029-1.495,12.048h6.237c0.006-0.275-0.006-0.553-0.063-0.832c-0.019-0.093-0.033-0.187-0.046-0.281
					c-0.005-0.016-0.015-0.073-0.029-0.175c-0.013-0.084-0.023-0.169-0.041-0.251c0.01,0.046,0.018,0.085,0.026,0.125
					c-0.005-0.043-0.01-0.083-0.015-0.136c-0.036-0.364-0.064-0.729-0.083-1.095c-0.045-0.872-0.041-1.746,0.022-2.617
					c0.016-0.214,0.043-0.427,0.058-0.64c0.001-0.012,0-0.014,0.001-0.025c0.001-0.007,0.002-0.007,0.003-0.014
					c0.104-0.518,0.191-1.034,0.331-1.544c0.06-0.221,0.126-0.441,0.198-0.658c0.019-0.056,0.132-0.351,0.189-0.505
					c0.06-0.125,0.14-0.295,0.165-0.344c0.144-0.277,0.314-0.535,0.469-0.805c0.043-0.075,0.096-0.145,0.146-0.215
					c0.13-0.15,0.258-0.302,0.398-0.444c0.145-0.148,0.301-0.284,0.456-0.421c0.039-0.021,0.322-0.241,0.46-0.325
					c0.212-0.13,0.432-0.241,0.653-0.353c0.078-0.031,0.335-0.145,0.455-0.185c0.283-0.094,0.571-0.174,0.862-0.242
					c0.131-0.031,0.264-0.055,0.396-0.084c0.295,0.003,0.596-0.016,0.891-0.012c0.158,0.055,0.364,0.07,0.519,0.111
					c0.173,0.045,0.704,0.241,0.855,0.287c0.061,0.029,0.116,0.056,0.143,0.07c0.219,0.118,0.439,0.233,0.653,0.36
					c0.323,0.193,0.623,0.416,0.937,0.622c0.032,0.025,0.064,0.05,0.095,0.077c0.178,0.156,0.36,0.308,0.535,0.468
					c0.646,0.59,1.218,1.239,1.78,1.905c-0.039-0.031,0.461,0.607,0.588,0.792c0.295,0.431,0.575,0.873,0.84,1.324
					c0.248,0.423,0.483,0.854,0.704,1.291c0.103,0.203,0.202,0.407,0.298,0.613c0.046,0.099,0.191,0.432,0.259,0.585
					c0.049,0.126,0.113,0.291,0.132,0.34c0.08,0.212,0.156,0.425,0.229,0.639c0.169,0.496,0.321,0.998,0.453,1.505
					c0.121,0.464,0.226,0.933,0.313,1.404c0.039,0.215,0.071,0.431,0.107,0.647c-0.118-0.708-0.016-0.088,0.011,0.24
					c0.065,0.799-0.008,1.581-0.021,2.371c0.003-0.012,0.005,0.059-0.002,0.169c0,0.058-0.003,0.116-0.002,0.175
					c-0.001-0.052-0.001-0.087-0.001-0.127c-0.007,0.087-0.019,0.19-0.04,0.295c-0.045,0.229-0.097,0.456-0.157,0.681
					c-0.059,0.223-0.125,0.444-0.198,0.663c-0.036,0.107-0.081,0.213-0.121,0.299c-0.209,0.384-0.42,0.762-0.64,1.142
					c-0.019,0.032-0.024,0.045-0.037,0.069c-0.003,0.003-0.003,0.003-0.007,0.006c-0.187,0.189-0.353,0.401-0.543,0.588
					c-0.158,0.156-0.331,0.294-0.491,0.445c-0.053,0.039-0.106,0.079-0.162,0.114c-0.456,0.292-0.921,0.547-1.408,0.783
					c-0.139,0.052-0.278,0.105-0.419,0.153c-0.28,0.095-0.564,0.18-0.849,0.256c-0.345,0.092-0.693,0.17-1.044,0.236
					c-0.137,0.026-0.275,0.048-0.412,0.072c-0.033,0.006-0.041,0.008-0.06,0.012c-0.038,0.004-0.06,0.006-0.111,0.012
					c-1.679,0.192-3.13,1.301-3.13,3.13c0,1.543,1.44,3.324,3.13,3.13c5.63-0.645,10.683-3.358,12.431-9.065
					C298.286,192.867,297,187.578,294.873,183.212z M280.789,178.768c0.017-0.004,0.034-0.007,0.051-0.011
					C281.312,178.649,281.061,178.747,280.789,178.768z M290.548,196.622C290.491,196.744,290.466,196.781,290.548,196.622
					L290.548,196.622z"/>
				<path style="fill:#FDED6D;" d="M291.097,194.41c-0.003,0.009-0.005,0.078-0.005,0.217c0.001-0.018,0.002-0.032,0.003-0.048
					C291.095,194.523,291.096,194.466,291.097,194.41z"/>
			</g>
			<g>
				<path style="fill:#FFFFFF;" d="M137.785,264.043h-16.47c-3.202,0-6.779-2.596-7.988-5.798l-5.387-14.262
					c-1.21-3.202,0.406-5.798,3.608-5.798h16.47c3.202,0,6.779,2.596,7.988,5.798l5.387,14.262
					C142.603,261.447,140.988,264.043,137.785,264.043z"/>
				<path style="fill:#FFFFFF;" d="M170.251,264.043h-16.47c-3.202,0-6.779-2.596-7.988-5.798l-5.387-14.262
					c-1.21-3.202,0.406-5.798,3.608-5.798h16.47c3.202,0,6.779,2.596,7.988,5.798l5.387,14.262
					C175.069,261.447,173.454,264.043,170.251,264.043z"/>
				<path style="fill:#FFFFFF;" d="M202.718,264.043h-16.47c-3.202,0-6.779-2.596-7.989-5.798l-5.387-14.262
					c-1.209-3.202,0.406-5.798,3.608-5.798h16.47c3.202,0,6.779,2.596,7.988,5.798l5.387,14.262
					C207.536,261.447,205.92,264.043,202.718,264.043z"/>
				<path style="fill:#FFFFFF;" d="M235.184,264.043h-16.47c-3.202,0-6.779-2.596-7.988-5.798l-5.387-14.262
					c-1.21-3.202,0.406-5.798,3.609-5.798h16.47c3.202,0,6.779,2.596,7.989,5.798l5.387,14.262
					C240.002,261.447,238.386,264.043,235.184,264.043z"/>
				<path style="fill:#FFFFFF;" d="M267.65,264.043h-16.47c-3.202,0-6.779-2.596-7.988-5.798l-5.387-14.262
					c-1.209-3.202,0.406-5.798,3.609-5.798h16.47c3.202,0,6.779,2.596,7.988,5.798l5.387,14.262
					C272.468,261.447,270.853,264.043,267.65,264.043z"/>
				<path style="fill:#FFFFFF;" d="M300.117,264.043h-16.47c-3.202,0-6.779-2.596-7.988-5.798l-5.387-14.262
					c-1.21-3.202,0.406-5.798,3.608-5.798h16.47c3.202,0,6.779,2.596,7.988,5.798l5.387,14.262
					C304.935,261.447,303.319,264.043,300.117,264.043z"/>
				<path style="fill:#FFFFFF;" d="M332.583,264.043h-16.47c-3.202,0-6.779-2.596-7.988-5.798l-5.387-14.262
					c-1.21-3.202,0.406-5.798,3.609-5.798h16.47c3.202,0,6.779,2.596,7.988,5.798l5.387,14.262
					C337.401,261.447,335.785,264.043,332.583,264.043z"/>
				<path style="fill:#FFFFFF;" d="M149.383,294.751h-16.47c-3.202,0-6.779-2.596-7.989-5.798l-5.387-14.262
					c-1.21-3.202,0.406-5.798,3.608-5.798h16.47c3.202,0,6.779,2.596,7.988,5.798l5.387,14.262
					C154.201,292.155,152.585,294.751,149.383,294.751z"/>
				<path style="fill:#FFFFFF;" d="M181.849,294.751h-16.47c-3.202,0-6.779-2.596-7.988-5.798l-5.387-14.262
					c-1.21-3.202,0.406-5.798,3.609-5.798h16.47c3.202,0,6.779,2.596,7.989,5.798l5.387,14.262
					C186.667,292.155,185.052,294.751,181.849,294.751z"/>
				<path style="fill:#9460FB;" d="M214.315,294.751h-16.47c-3.202,0-6.779-2.596-7.988-5.798l-5.387-14.262
					c-1.209-3.202,0.406-5.798,3.609-5.798h16.47c3.202,0,6.779,2.596,7.988,5.798l5.387,14.262
					C219.133,292.155,217.518,294.751,214.315,294.751z"/>
				<path style="fill:#FFFFFF;" d="M246.782,294.751h-16.47c-3.202,0-6.779-2.596-7.988-5.798l-5.387-14.262
					c-1.21-3.202,0.406-5.798,3.609-5.798h16.47c3.202,0,6.779,2.596,7.988,5.798l5.387,14.262
					C251.6,292.155,249.984,294.751,246.782,294.751z"/>
				<path style="fill:#FFFFFF;" d="M279.248,294.751h-16.47c-3.202,0-6.779-2.596-7.988-5.798l-5.387-14.262
					c-1.21-3.202,0.406-5.798,3.608-5.798h16.47c3.202,0,6.779,2.596,7.988,5.798l5.387,14.262
					C284.066,292.155,282.45,294.751,279.248,294.751z"/>
				<path style="fill:#FFFFFF;" d="M311.714,294.751h-16.47c-3.202,0-6.779-2.596-7.988-5.798l-5.387-14.262
					c-1.21-3.202,0.406-5.798,3.608-5.798h16.47c3.203,0,6.779,2.596,7.989,5.798l5.387,14.262
					C316.532,292.155,314.917,294.751,311.714,294.751z"/>
				<path style="fill:#FFFFFF;" d="M344.18,294.751h-16.47c-3.203,0-6.779-2.596-7.988-5.798l-5.387-14.262
					c-1.209-3.202,0.406-5.798,3.609-5.798h16.47c3.202,0,6.779,2.596,7.988,5.798l5.387,14.262
					C348.998,292.155,347.383,294.751,344.18,294.751z"/>
				<path style="fill:#FFFFFF;" d="M160.98,325.458h-16.47c-3.202,0-6.779-2.596-7.988-5.798l-5.387-14.263
					c-1.209-3.202,0.406-5.798,3.609-5.798h16.47c3.202,0,6.779,2.596,7.988,5.798l5.387,14.263
					C165.798,322.862,164.183,325.458,160.98,325.458z"/>
				<path style="fill:#FFFFFF;" d="M193.447,325.458h-16.47c-3.202,0-6.779-2.596-7.989-5.798l-5.387-14.263
					c-1.209-3.202,0.406-5.798,3.609-5.798h16.47c3.202,0,6.779,2.596,7.988,5.798l5.387,14.263
					C198.265,322.862,196.649,325.458,193.447,325.458z"/>
				<path style="fill:#FFFFFF;" d="M225.913,325.458h-16.47c-3.202,0-6.779-2.596-7.988-5.798l-5.387-14.263
					c-1.21-3.202,0.406-5.798,3.608-5.798h16.47c3.202,0,6.779,2.596,7.988,5.798l5.387,14.263
					C230.731,322.862,229.115,325.458,225.913,325.458z"/>
				<path style="fill:#FFFFFF;" d="M258.379,325.458h-16.47c-3.202,0-6.779-2.596-7.988-5.798l-5.387-14.263
					c-1.21-3.202,0.406-5.798,3.609-5.798h16.47c3.202,0,6.779,2.596,7.988,5.798l5.387,14.263
					C263.197,322.862,261.582,325.458,258.379,325.458z"/>
				<path style="fill:#FFFFFF;" d="M290.846,325.458h-16.47c-3.202,0-6.779-2.596-7.988-5.798l-5.387-14.263
					c-1.209-3.202,0.406-5.798,3.609-5.798h16.47c3.202,0,6.779,2.596,7.988,5.798l5.387,14.263
					C295.664,322.862,294.048,325.458,290.846,325.458z"/>
				<path style="fill:#FFFFFF;" d="M323.312,325.458h-16.47c-3.202,0-6.779-2.596-7.988-5.798l-5.387-14.263
					c-1.21-3.202,0.406-5.798,3.608-5.798h16.47c3.202,0,6.779,2.596,7.988,5.798l5.387,14.263
					C328.13,322.862,326.514,325.458,323.312,325.458z"/>
				<path style="fill:#FFFFFF;" d="M355.778,325.458h-16.47c-3.202,0-6.779-2.596-7.988-5.798l-5.387-14.263
					c-1.21-3.202,0.406-5.798,3.608-5.798h16.47c3.202,0,6.779,2.596,7.988,5.798l5.387,14.263
					C360.596,322.862,358.98,325.458,355.778,325.458z"/>
				<path style="fill:#FFFFFF;" d="M172.578,356.165h-16.47c-3.202,0-6.779-2.596-7.988-5.798l-5.387-14.262
					c-1.21-3.202,0.406-5.798,3.608-5.798h16.47c3.202,0,6.779,2.596,7.989,5.798l5.387,14.262
					C177.396,353.569,175.781,356.165,172.578,356.165z"/>
				<path style="fill:#FFFFFF;" d="M205.044,356.165h-16.47c-3.202,0-6.779-2.596-7.988-5.798l-5.387-14.262
					c-1.209-3.202,0.406-5.798,3.609-5.798h16.47c3.202,0,6.779,2.596,7.988,5.798l5.387,14.262
					C209.862,353.569,208.247,356.165,205.044,356.165z"/>
				<path style="fill:#FFFFFF;" d="M237.511,356.165h-16.47c-3.202,0-6.779-2.596-7.988-5.798l-5.387-14.262
					c-1.21-3.202,0.406-5.798,3.609-5.798h16.47c3.202,0,6.779,2.596,7.988,5.798l5.387,14.262
					C242.329,353.569,240.713,356.165,237.511,356.165z"/>
				<path style="fill:#FFFFFF;" d="M269.977,356.165h-16.47c-3.202,0-6.779-2.596-7.988-5.798l-5.387-14.262
					c-1.21-3.202,0.406-5.798,3.608-5.798h16.47c3.202,0,6.779,2.596,7.988,5.798l5.387,14.262
					C274.795,353.569,273.179,356.165,269.977,356.165z"/>
				<path style="fill:#FFFFFF;" d="M302.443,356.165h-16.47c-3.202,0-6.779-2.596-7.988-5.798l-5.387-14.262
					c-1.21-3.202,0.406-5.798,3.608-5.798h16.47c3.203,0,6.779,2.596,7.989,5.798l5.387,14.262
					C307.261,353.569,305.646,356.165,302.443,356.165z"/>
				<path style="fill:#FFFFFF;" d="M334.909,356.165h-16.47c-3.203,0-6.779-2.596-7.988-5.798l-5.387-14.262
					c-1.209-3.202,0.406-5.798,3.609-5.798h16.47c3.202,0,6.779,2.596,7.988,5.798l5.387,14.262
					C339.727,353.569,338.112,356.165,334.909,356.165z"/>
				<path style="fill:#FFFFFF;" d="M367.376,356.165h-16.47c-3.202,0-6.779-2.596-7.988-5.798l-5.387-14.262
					c-1.21-3.202,0.406-5.798,3.608-5.798h16.47c3.202,0,6.779,2.596,7.988,5.798l5.387,14.262
					C372.194,353.569,370.578,356.165,367.376,356.165z"/>
				
					<text transform="matrix(0.9174 0 0.3981 0.9174 197.4742 285.3699)" style="fill:#FFFFFF; font-family:'Baloo'; font-size:13.0811px;">10</text>
				
					<text transform="matrix(0.9174 0 0.3981 0.9174 230.9221 285.3699)" style="fill:#C3E3F4; font-family:'Baloo'; font-size:13.0811px;">11</text>
				
					<text transform="matrix(0.9174 0 0.3981 0.9174 262.4071 285.3699)" style="fill:#C3E3F4; font-family:'Baloo'; font-size:13.0811px;">12</text>
				
					<text transform="matrix(0.9174 0 0.3981 0.9174 294.8729 285.3699)" style="fill:#C3E3F4; font-family:'Baloo'; font-size:13.0811px;">13</text>
				
					<text transform="matrix(0.9174 0 0.3981 0.9174 327.235 285.3699)" style="fill:#C3E3F4; font-family:'Baloo'; font-size:13.0811px;">14</text>
				
					<text transform="matrix(0.9174 0 0.3981 0.9174 166.8265 285.3696)" style="fill:#C3E3F4; font-family:'Baloo'; font-size:13.0811px;">9</text>
				
					<text transform="matrix(0.9174 0 0.3981 0.9174 134.736 285.3702)" style="fill:#C3E3F4; font-family:'Baloo'; font-size:13.0811px;">8</text>
				
					<text transform="matrix(0.9174 0 0.3981 0.9174 143.5422 315.4972)" style="fill:#C3E3F4; font-family:'Baloo'; font-size:13.0811px;">15</text>
				
					<text transform="matrix(0.9174 0 0.3981 0.9174 175.7422 315.4972)" style="fill:#C3E3F4; font-family:'Baloo'; font-size:13.0811px;">16</text>
				
					<text transform="matrix(0.9174 0 0.3981 0.9174 209.072 315.4972)" style="fill:#C3E3F4; font-family:'Baloo'; font-size:13.0811px;">17</text>
				
					<text transform="matrix(0.9174 0 0.3981 0.9174 240.8909 315.4972)" style="fill:#C3E3F4; font-family:'Baloo'; font-size:13.0811px;">18</text>
				
					<text transform="matrix(0.9174 0 0.3981 0.9174 273.4737 315.4972)" style="fill:#C3E3F4; font-family:'Baloo'; font-size:13.0811px;">19 </text>
				
					<text transform="matrix(0.9174 0 0.3981 0.9174 305.0285 315.4972)" style="fill:#C3E3F4; font-family:'Baloo'; font-size:13.0811px;">20 </text>
				
					<text transform="matrix(0.9174 0 0.3981 0.9174 338.042 315.4972)" style="fill:#C3E3F4; font-family:'Baloo'; font-size:13.0811px;">21</text>
				
					<text transform="matrix(0.9174 0 0.3981 0.9174 155.0371 346.6628)" style="fill:#C3E3F4; font-family:'Baloo'; font-size:13.0811px;">22</text>
				
					<text transform="matrix(0.9174 0 0.3981 0.9174 188.0507 346.6628)" style="fill:#C3E3F4; font-family:'Baloo'; font-size:13.0811px;">23</text>
				
					<text transform="matrix(0.9174 0 0.3981 0.9174 220.6298 346.6628)" style="fill:#C3E3F4; font-family:'Baloo'; font-size:13.0811px;">24</text>
				
					<text transform="matrix(0.9174 0 0.3981 0.9174 251.7428 346.6628)" style="fill:#C3E3F4; font-family:'Baloo'; font-size:13.0811px;">25</text>
				
					<text transform="matrix(0.9174 0 0.3981 0.9174 284.1334 346.6628)" style="fill:#C3E3F4; font-family:'Baloo'; font-size:13.0811px;">26</text>
				
					<text transform="matrix(0.9174 0 0.3981 0.9174 317.3641 346.6628)" style="fill:#C3E3F4; font-family:'Baloo'; font-size:13.0811px;">27</text>
				
					<text transform="matrix(0.9174 0 0.3981 0.9174 349.1667 346.6628)" style="fill:#C3E3F4; font-family:'Baloo'; font-size:13.0811px;">28</text>
				
					<text transform="matrix(0.9174 0 0.3981 0.9174 318.2651 254.5286)" style="fill:#C3E3F4; font-family:'Baloo'; font-size:13.0811px;">7</text>
				
					<text transform="matrix(0.9174 0 0.3981 0.9174 285.495 254.5284)" style="fill:#C3E3F4; font-family:'Baloo'; font-size:13.0811px;">6</text>
				
					<text transform="matrix(0.9174 0 0.3981 0.9174 253.5675 254.5286)" style="fill:#C3E3F4; font-family:'Baloo'; font-size:13.0811px;">5</text>
				
					<text transform="matrix(0.9174 0 0.3981 0.9174 219.6528 254.5286)" style="fill:#C3E3F4; font-family:'Baloo'; font-size:13.0811px;">4</text>
				
					<text transform="matrix(0.9174 0 0.3981 0.9174 188.8109 254.5283)" style="fill:#C3E3F4; font-family:'Baloo'; font-size:13.0811px;">3</text>
				
					<text transform="matrix(0.9174 0 0.3981 0.9174 155.5802 254.5287)" style="fill:#C3E3F4; font-family:'Baloo'; font-size:13.0811px;">2</text>
				
					<text transform="matrix(0.9174 0 0.3981 0.9174 123.9785 254.5287)" style="fill:#C3E3F4; font-family:'Baloo'; font-size:13.0811px;">1</text>
			</g>
		</g>
		<g>
			<path style="fill:#53378C;" d="M396.906,185.327c0,0-9.129,1.863-13.042,17.327s-21.053,20.034-24.22,34.237
				c0,0,0.932-1.86,4.285-4.262c0,0-16.373,24.354,8.768,40.786c25.141,16.432,52.901-1.827,60.726-10.211
				c0,0-1.677,5.03-3.913,6.521c0,0,8.57-2.795,13.414-16.395c4.844-13.601-10.433-20.146-9.315-28.424
				c1.118-8.278,1.764-30.942-5.776-37.902C420.567,180.297,409.016,178.434,396.906,185.327z"/>
			<path style="fill:#F5C5C6;" d="M348.279,232.463c0,0-4.751-3.912-8.104-8.198c-3.354-4.285-12.203-12.483-14.066-13.973
				c-1.863-1.491-6.428-2.515-7.639-2.702c-1.211-0.186-1.304,0.745-1.304,0.745s-2.702-0.093-3.26,0.279
				c-0.559,0.373-0.093,1.584,1.677,2.422c0,0-2.795,0.093-2.888,1.77c-0.093,1.677,3.819,1.677,3.819,1.677s1.863,0.559,3.26,1.211
				c0,0-4.378-0.186-6.428,0.279c-2.049,0.466-1.677,2.702,0.652,2.795c2.329,0.093,6.521,0.186,6.521,0.186
				s2.049,3.167,4.658,5.775c2.608,2.608,6.893,6.241,9.315,6.055l6.055,11.458L348.279,232.463z"/>
			<path style="fill:#3B276D;" d="M394.298,217.465c0,0-15.251,3.604-21.601,17.42c-6.349,13.816-6.346,30.414,21.601,35.887
				c27.946,5.473,36.517-20.215,34.654-26.654c-1.863-6.439-5.973-16.313-10.998-25.815
				C412.929,208.802,394.298,217.465,394.298,217.465z"/>
			<path style="fill:#F5C5C6;" d="M333.934,267.117c0,0-6.614,3.167-10.433,2.702c-3.819-0.466-8.198,0.838-10.992,2.236
				c-2.795,1.397-6.614,5.869-7.359,7.546c-0.745,1.677,1.77,1.304,1.77,1.304s-0.605,2.236,0.326,2.655
				c0.932,0.419,1.723,0,1.723,0s0.233,1.025,1.164,1.211c0.931,0.186,2.049-0.466,2.049-0.466s-0.28,1.444,0.931,1.351
				c1.211-0.093,4.285-3.167,5.962-4.285c1.677-1.118,4.611-1.025,8.617-2.562c4.006-1.537,7.825-3.121,7.825-3.121L333.934,267.117
				z"/>
			<path style="fill:#F5C5C6;" d="M290.244,333.256l-8.943,18.91l-2.049,4.658c0,0,3.913,3.26,8.198,3.167
				c4.285-0.093,3.819-0.838,3.819-0.838l13.228-17.234C304.497,341.92,297.417,339.777,290.244,333.256z"/>
			<path style="fill:#F5C5C6;" d="M308.642,354.635l0.978,31.579c0,0,5.17,2.934,13.414-0.978c0,0,1.118-9.362,3.633-19.423
				c2.515-10.061,3.214-13.414,3.214-13.414S320.1,355.474,308.642,354.635z"/>
			<path style="fill:#9460FB;" d="M340.548,242.244l-2.701,4.378c0,0,9.362,11.179,15.091,15.091l-19.004,5.403l2.934,13.88
				l17.466-4.609c0,0-5.869,4.469-9.222,5.587c0,0,3.913,4.891,6.847,5.17c2.934,0.28,10.48-4.052,13.554-8.524
				s3.633-8.104,3.633-8.104l13.414-2.236c0,0-3.913,14.139-3.354,18.877c0,0-0.419,1.943,7.546,6.275
				c7.965,4.332,14.113,4.332,24.593,2.934c10.48-1.397,11.458-0.279,11.458-0.279s0.419-4.891-2.795-13.694
				c-3.214-8.803-5.589-17.886-5.03-24.034c0.559-6.148,3.773-12.855,2.655-18.025c-1.118-5.17-4.192-6.847-4.192-6.847
				s1.677-5.17,0.978-5.869c-0.699-0.699-1.802-1.139-1.802-1.139l-25.071,1.837l-2.61,6.288l-14.113,18.025
				c0,0-16.669-14.577-22.543-20.168L340.548,242.244z"/>
			<path style="fill:#FFD849;" d="M388.429,234.466c0.496-0.165,2.058-0.919,3.834-1.837c-0.013,0.005-12.779,4.494-17.388,7.566
				c-4.611,3.074-5.891,10.824-5.891,10.824l1.839,1.612l0.699,0.699l21.798-9.921l7.546-9.781c0,0-6.288,2.795-10.2,3.214
				C386.752,237.261,387.171,234.885,388.429,234.466z"/>
			<path style="fill:#29B6DB;" d="M386.752,293.433c-7.965-4.332-7.546-6.275-7.546-6.275c-0.193-1.638,0.148-4.398,0.677-7.31
				c-4.923-1.595-9.768-2.723-13.027-3.398c-0.384,0.692-0.826,1.419-1.343,2.172c-3.074,4.471-10.62,8.803-13.554,8.524
				c-0.986-0.094-2.08-0.712-3.101-1.486l0,0c0,0-33.462,10.336-40.216,14.062s-18.398,33.536-18.398,33.536
				s5.31,5.589,14.253,8.663l4.145-5.496v18.212c0,0,9.176,1.258,21.239-2.236c0,0,1.071-5.729,1.444-16.349
				c0,0,2.236,0.186,2.608-1.677c0,0,24.965-2.981,41.174-12.11c15.002-8.449,21.063-14.349,22.917-25.225
				C394.214,296.664,390.707,295.583,386.752,293.433z"/>
			<path style="fill:#FFD849;" d="M382.56,268.281l-13.414,2.236c0,0-0.559,3.633-3.633,8.104c-0.696,1.013-1.629,2.015-2.678,2.962
				l-0.001,0.008c0,0,0.398,3.248,6.15,4.855c4.456,1.245,8.551,0.395,10.175-0.052C379.023,281.069,382.56,268.281,382.56,268.281z
				"/>
			<path style="fill:#23B6DB;" d="M283.453,359.222c0,0,0.736-3.329-1.686-5.192s-4.937-1.304-5.589-0.373
				c-0.652,0.932-1.304,3.54-3.819,6.987c-2.515,3.447-12.296,8.384-15.929,10.061c-3.633,1.677-4.006,4.471-3.912,7.918
				c0.093,3.447,0.093,3.447,0.093,3.447s5.589,3.167,14.439-0.745c8.85-3.912,16.395-5.962,20.96-6.055
				c4.565-0.093,3.26-16.116,3.26-16.116S289.332,360.501,283.453,359.222z"/>
			<path style="fill:#23B6DB;" d="M308.642,385.889c0,0-0.792-3.633,3.307-3.54c4.099,0.093,3.354,4.721,4.844,4.922
				c1.49,0.201,6.241-2.035,6.241-2.035s3.447,4.006,4.658,9.222c1.211,5.217,1.211,5.217,1.211,5.217s-9.315,8.198-17.14,13.042
				c-7.825,4.844-11.737,7.266-14.346,7.266s-6.521-0.838-7.359-2.608c-0.838-1.77-2.329-5.776,3.074-8.85
				c5.403-3.074,6.893-5.31,9.502-8.384C305.242,397.067,308.689,390.453,308.642,385.889z"/>
			<path style="fill:#13475F;" d="M308.642,336.424c0,0-0.559-14.625,1.816-18.817c2.376-4.192,46.81-23.195,46.81-23.195
				s-42.758,22.636-44.714,27.108C310.598,325.99,308.642,336.424,308.642,336.424z"/>
			<path style="fill:#13475F;" d="M299.28,339.544c1.274-2.693,2.768-5.249,4.317-7.772c1.571-2.509,3.197-4.983,5.045-7.32
				c-1.272,2.694-2.767,5.25-4.317,7.771C302.753,334.733,301.127,337.207,299.28,339.544z"/>
			<path style="fill:#13475F;" d="M288.153,337.678c0,0,8.985,5.359,16.344,4.241c0,0-8.058-2.375-14.253-8.663L288.153,337.678z"/>
			<path style="fill:#13475F;" d="M309.059,349.745c0,0,8.945,2.795,20.822,2.655c0,0-11.737,3.354-21.239,2.236L309.059,349.745z"
				/>
			<path style="fill:#13475F;" d="M386.752,293.433c-0.628,2.923-2.208,5.56-4.046,7.897c-1.855,2.349-4.115,4.356-6.546,6.095
				c-2.414,1.781-5.095,3.143-7.791,4.431c-1.382,0.561-2.764,1.161-4.155,1.676l-4.165,1.582
				c-5.546,2.129-11.049,4.369-16.553,6.608c-5.5,2.246-10.965,4.583-16.413,6.948l0.194-0.26c-0.595,4.006-1.32,7.979-2.147,11.936
				c-0.855,3.949-1.804,7.879-2.957,11.75c0.477-1.962,0.945-3.924,1.365-5.898c0.423-1.972,0.817-3.951,1.175-5.935
				c0.744-3.962,1.393-7.948,1.904-11.939l0.024-0.183l0.17-0.078c5.413-2.476,10.887-4.799,16.372-7.1
				c5.482-2.31,11.027-4.467,16.59-6.576l4.181-1.557c1.402-0.506,2.747-1.092,4.128-1.626c2.683-1.219,5.357-2.511,7.77-4.22
				c2.431-1.669,4.688-3.607,6.606-5.857C384.35,298.875,385.986,296.315,386.752,293.433z"/>
			<path style="fill:#13475F;" d="M324.572,325.851c0.264,0.585,0.645,1.045,1.042,1.482c0.407,0.428,0.839,0.831,1.314,1.194
				c0.455,0.385,0.955,0.723,1.444,1.091c0.501,0.354,1.011,0.704,1.51,1.123c-0.641-0.091-1.254-0.284-1.842-0.542
				c-0.584-0.266-1.142-0.597-1.651-1.006c-0.505-0.409-0.967-0.892-1.309-1.462C324.741,327.174,324.482,326.508,324.572,325.851z"
				/>
			<path style="fill:#13475F;" d="M327.925,324.453c0.658,0.749,1.118,1.547,1.583,2.334l0.676,1.174
				c0.237,0.387,0.452,0.761,0.815,1.103c-0.519-0.013-0.986-0.342-1.335-0.682c-0.363-0.346-0.65-0.751-0.899-1.167
				C328.298,326.368,327.956,325.456,327.925,324.453z"/>
			<path style="fill:#13475F;" d="M354.335,276.388c0,0,3.633-0.98,7.173-7.035c0,0-4.471-2.422-8.57-7.639l-1.674,0.476
				C351.263,262.19,356.384,268.332,354.335,276.388z"/>
			<path style="fill:#13475F;" d="M382.56,268.281c0,0,20.773-9.735,29.064-14.951l-30.371,20.085L382.56,268.281z"/>
			<path style="fill:#13475F;" d="M361.507,269.352c0.589,0.343,1.204,0.516,1.821,0.663c0.62,0.134,1.246,0.233,1.884,0.276
				c0.635,0.073,1.28,0.079,1.933,0.119c0.654,0.019,1.314,0.031,2,0.106c-0.628,0.278-1.287,0.454-1.96,0.562
				c-0.675,0.098-1.362,0.129-2.051,0.066c-0.686-0.064-1.376-0.212-2.018-0.498C362.485,270.368,361.855,269.963,361.507,269.352z"
				/>
			<polygon style="fill:#13475F;" points="332.136,277.061 333.934,267.117 335.757,275.742 			"/>
			<path style="fill:#13475F;" d="M320.612,272.089c-1.524,0.592-3.091,1.067-4.688,1.426c-0.794,0.213-1.65,0.262-2.263,0.576
				c-0.65,0.298-0.96,0.867-0.616,1.359c0.151,0.242,0.414,0.434,0.715,0.52c0.155,0.052,0.297,0.055,0.486,0.066l0.615,0.008
				c0.817,0.028,1.629,0.051,2.441,0.101c1.623,0.077,3.241,0.199,4.871,0.306c-1.619,0.227-3.253,0.328-4.88,0.364l-2.435,0.042
				l-0.604,0.008c-0.217-0.006-0.485-0.013-0.719-0.087c-0.479-0.13-0.929-0.426-1.215-0.872c-0.293-0.436-0.353-1.077-0.096-1.567
				c0.248-0.489,0.677-0.804,1.099-0.981c0.423-0.182,0.868-0.267,1.281-0.329l1.199-0.167L320.612,272.089z"/>
			<path style="fill:#13475F;" d="M306.919,280.904c0.507-0.895,1.186-1.592,1.906-2.243c0.738-0.631,1.518-1.214,2.472-1.599
				c-0.505,0.896-1.185,1.594-1.906,2.243C308.651,279.934,307.872,280.517,306.919,280.904z"/>
			<path style="fill:#13475F;" d="M308.968,283.559c0.664-1.019,1.499-1.839,2.375-2.613c0.893-0.753,1.828-1.458,2.935-1.963
				c-0.663,1.02-1.498,1.84-2.375,2.613C311.008,282.347,310.074,283.052,308.968,283.559z"/>
			<path style="fill:#13475F;" d="M312.182,284.304c0.503-0.954,1.188-1.718,1.915-2.438c0.746-0.701,1.536-1.356,2.51-1.82
				c-0.502,0.955-1.186,1.719-1.915,2.438C313.944,283.183,313.154,283.838,312.182,284.304z"/>
			<path style="fill:#13475F;" d="M315.582,211.038c1.332-0.151,2.643,0.054,3.911,0.397c1.252,0.375,2.51,0.917,3.471,1.862
				c-1.287-0.344-2.478-0.692-3.708-1.038C318.035,211.9,316.811,211.556,315.582,211.038z"/>
			<path style="fill:#13475F;" d="M317.166,208.336c0.768-0.095,1.545-0.018,2.298,0.142c0.757,0.157,1.489,0.43,2.187,0.776
				c0.695,0.352,1.34,0.815,1.896,1.362c0.569,0.536,1.003,1.208,1.303,1.912c-0.594-0.5-1.126-0.993-1.734-1.399
				c-0.601-0.406-1.204-0.798-1.857-1.112C319.973,209.35,318.609,208.848,317.166,208.336z"/>
			<polygon style="fill:#13475F;" points="338.907,239.14 348.279,232.463 340.548,242.244 			"/>
			<path style="fill:#13475F;" d="M393.32,243.409c1.347-0.875,2.787-1.505,4.249-2.077c1.472-0.547,2.966-1.035,4.554-1.276
				c-1.346,0.877-2.786,1.507-4.249,2.077C396.401,242.678,394.907,243.166,393.32,243.409z"/>
			<path style="fill:#13475F;" d="M396.813,277.688c0.355,3.969,0.684,7.946,1.153,11.889c0.067,0.49,0.135,0.98,0.226,1.458
				c0.083,0.504,0.237,0.798,0.609,1.081c0.721,0.551,1.669,0.881,2.598,1.146c1.875,0.527,3.85,0.806,5.792,0.793
				c1.937,0.079,3.701-0.827,5.146-2.093c0.724-0.628,1.365-1.363,1.871-2.15c0.237-0.401,0.466-0.799,0.458-1.18
				c0.011-0.424-0.048-0.936-0.101-1.417c-0.51-3.919-1.324-7.834-2.057-11.741l0.372,0.261l-7.954,0.996L396.813,277.688z
				 M396.813,277.688l7.907-1.326l8.069-1.285l0.305-0.048l0.068,0.31c0.85,3.902,1.645,7.799,2.221,11.777
				c0.058,0.509,0.128,0.988,0.12,1.56c-0.009,0.629-0.314,1.136-0.569,1.583c-0.556,0.9-1.265,1.659-2.046,2.335
				c-0.784,0.671-1.656,1.251-2.62,1.664c-0.949,0.433-2.061,0.593-3.067,0.576c-2.041-0.012-4.052-0.307-6.003-0.888
				c-0.967-0.313-1.94-0.662-2.794-1.348c-0.11-0.077-0.208-0.182-0.301-0.294c-0.097-0.105-0.19-0.215-0.252-0.366
				c-0.168-0.29-0.166-0.538-0.23-0.798c-0.081-0.504-0.136-1.003-0.189-1.501C397.057,285.656,396.922,281.674,396.813,277.688z"/>
			<path style="fill:#13475F;" d="M280.835,373.965c-6.614,0.838-11.551,4.565-18.631,6.055c-3.892,0.819-7.327,0.737-9.637,0.497
				c0.042,1.546,0.042,1.552,0.042,1.552s5.589,3.167,14.439-0.745c8.85-3.912,16.395-5.962,20.96-6.055
				c1.087-0.022,1.839-0.954,2.357-2.353C288.055,373.135,284.581,373.49,280.835,373.965z"/>
			<path style="fill:#13475F;" d="M299.932,416.63c-3.793,1.308-6.697,1.775-8.726,1.906c1.578,0.978,4.259,1.448,6.211,1.448
				c2.608,0,6.521-2.422,14.346-7.266c7.825-4.844,17.14-13.042,17.14-13.042s-0.001-0.004-0.636-2.74
				C323.667,400.708,306.893,414.23,299.932,416.63z"/>
			<path style="fill:#13475F;" d="M258.251,369.836c1.071-0.174,2.213,0.134,3.163,0.727c0.966,0.592,1.697,1.509,2.207,2.492
				c0.275,0.489,0.435,1.019,0.62,1.539c0.137,0.531,0.255,1.066,0.335,1.604c0.046,0.541,0.099,1.081,0.101,1.619
				c-0.026,0.54-0.051,1.077-0.114,1.609c-0.127-0.527-0.215-1.05-0.305-1.569c-0.1-0.517-0.241-1.023-0.339-1.533
				c-0.287-0.996-0.568-1.99-1.058-2.873C261.984,371.644,260.379,370.216,258.251,369.836z"/>
			<path style="fill:#13475F;" d="M284.121,373.569c-0.037-1.056,0.129-2.11,0.409-3.134c0.279-1.026,0.704-2.025,1.316-2.927
				c0.617-0.892,1.424-1.695,2.421-2.19c1.014-0.474,2.147-0.549,3.173-0.342c-1.05,0.153-2.014,0.413-2.85,0.929
				c-0.81,0.549-1.483,1.266-2.035,2.085c-0.57,0.809-1.003,1.725-1.395,2.663C284.776,371.594,284.436,372.566,284.121,373.569z"/>
			<path style="fill:#13475F;" d="M296.441,406.414c0.997-0.314,2.13-0.119,3.098,0.336c0.979,0.464,1.792,1.218,2.427,2.064
				c0.342,0.412,0.577,0.886,0.854,1.334c0.219,0.476,0.449,0.947,0.623,1.437c0.156,0.496,0.318,0.989,0.432,1.492
				c0.092,0.51,0.185,1.017,0.24,1.529c-0.239-0.463-0.438-0.931-0.639-1.395c-0.205-0.462-0.447-0.906-0.648-1.362
				c-0.469-0.88-0.937-1.754-1.544-2.515c-0.571-0.787-1.262-1.475-2.069-2C298.402,406.829,297.471,406.461,296.441,406.414z"/>
			<path style="fill:#13475F;" d="M323.673,400.638c-0.59-0.764-0.966-1.69-1.163-2.654c-0.198-0.967-0.164-1.996,0.101-2.967
				c0.285-0.959,0.75-1.888,1.452-2.591c0.304-0.393,0.729-0.662,1.096-0.974c0.402-0.272,0.834-0.498,1.26-0.71
				c-0.319,0.369-0.672,0.678-0.981,1.025c-0.284,0.371-0.622,0.684-0.854,1.079c-0.543,0.727-0.905,1.552-1.146,2.398
				C322.945,396.952,323.146,398.809,323.673,400.638z"/>
			<path style="fill:#13475F;" d="M304.875,396.935c-0.872-0.5-1.791-0.892-2.741-1.164c-0.943-0.287-1.914-0.468-2.887-0.503
				c-0.973-0.027-1.942,0.042-2.885,0.249c-0.468,0.115-0.948,0.212-1.37,0.394c-0.41,0.147-0.847,0.46-0.846,0.607
				c-0.068,0.083,0.274,0.456,0.676,0.628c0.401,0.202,0.86,0.34,1.323,0.453c0.932,0.234,1.913,0.295,2.891,0.323
				c0.981,0.008,1.967-0.08,2.941-0.256C302.958,397.52,303.919,397.251,304.875,396.935z M304.875,396.935
				c-0.879,0.494-1.832,0.85-2.806,1.142c-0.982,0.264-1.992,0.432-3.015,0.505c-1.024,0.07-2.059,0.012-3.086-0.19
				c-0.513-0.107-1.022-0.257-1.521-0.496c-0.249-0.116-0.496-0.272-0.731-0.483c-0.221-0.196-0.49-0.572-0.417-1.04
				c0.093-0.456,0.389-0.676,0.624-0.853c0.25-0.174,0.503-0.292,0.756-0.387c0.506-0.203,1.013-0.308,1.522-0.41
				c1.023-0.173,2.07-0.238,3.097-0.11C301.35,394.852,303.32,395.648,304.875,396.935z"/>
			<path style="fill:#13475F;" d="M305.111,396.935c0.693-0.727,1.293-1.527,1.783-2.385c0.503-0.847,0.91-1.747,1.176-2.685
				c0.258-0.938,0.421-1.896,0.445-2.862c0-0.482,0.02-0.971-0.056-1.425c-0.046-0.433-0.245-0.932-0.388-0.966
				c-0.064-0.086-0.508,0.158-0.771,0.507c-0.292,0.341-0.535,0.754-0.756,1.177c-0.449,0.85-0.742,1.788-1.002,2.731
				c-0.242,0.951-0.391,1.929-0.452,2.917C305,394.935,305.033,395.932,305.111,396.935z M305.111,396.935
				c-0.27-0.971-0.39-1.982-0.441-2.997c-0.023-1.016,0.055-2.038,0.227-3.048c0.176-1.011,0.479-2.003,0.919-2.952
				c0.226-0.473,0.493-0.931,0.844-1.359c0.172-0.215,0.383-0.417,0.643-0.595c0.243-0.168,0.672-0.339,1.109-0.157
				c0.421,0.199,0.564,0.539,0.68,0.809c0.11,0.284,0.164,0.559,0.196,0.827c0.077,0.54,0.058,1.057,0.036,1.576
				c-0.076,1.035-0.262,2.067-0.631,3.034C307.974,394.009,306.732,395.732,305.111,396.935z"/>
			<path style="fill:#13475F;" d="M271.554,361.998c-0.872-0.5-1.791-0.892-2.741-1.164c-0.943-0.287-1.914-0.468-2.887-0.503
				c-0.973-0.027-1.942,0.042-2.885,0.249c-0.468,0.115-0.948,0.212-1.37,0.394c-0.41,0.147-0.847,0.46-0.846,0.607
				c-0.069,0.083,0.274,0.456,0.676,0.628c0.401,0.203,0.86,0.34,1.323,0.454c0.932,0.234,1.913,0.295,2.891,0.323
				c0.981,0.008,1.967-0.08,2.941-0.256C269.637,362.582,270.599,362.313,271.554,361.998z M271.554,361.998
				c-0.879,0.494-1.832,0.85-2.806,1.142c-0.982,0.264-1.992,0.432-3.015,0.505c-1.024,0.07-2.059,0.012-3.086-0.19
				c-0.513-0.107-1.022-0.257-1.521-0.496c-0.25-0.116-0.496-0.272-0.731-0.483c-0.221-0.196-0.49-0.572-0.416-1.04
				c0.093-0.456,0.389-0.676,0.624-0.853c0.25-0.174,0.503-0.292,0.756-0.387c0.506-0.203,1.013-0.308,1.522-0.41
				c1.023-0.173,2.07-0.238,3.097-0.11C268.03,359.914,270,360.71,271.554,361.998z"/>
			<path style="fill:#13475F;" d="M271.791,361.998c0.693-0.727,1.293-1.527,1.783-2.385c0.503-0.847,0.91-1.748,1.176-2.685
				c0.258-0.938,0.421-1.896,0.445-2.862c0-0.482,0.02-0.971-0.056-1.425c-0.046-0.433-0.245-0.932-0.388-0.966
				c-0.064-0.086-0.508,0.158-0.771,0.507c-0.292,0.341-0.535,0.754-0.756,1.177c-0.449,0.85-0.742,1.788-1.002,2.731
				c-0.241,0.951-0.391,1.929-0.452,2.917C271.68,359.997,271.712,360.995,271.791,361.998z M271.791,361.998
				c-0.27-0.971-0.39-1.982-0.441-2.997c-0.023-1.016,0.055-2.038,0.228-3.048c0.176-1.011,0.479-2.003,0.919-2.952
				c0.226-0.473,0.493-0.932,0.844-1.359c0.172-0.215,0.383-0.417,0.643-0.595c0.243-0.168,0.672-0.34,1.109-0.157
				c0.42,0.199,0.564,0.539,0.68,0.809c0.11,0.284,0.164,0.559,0.196,0.827c0.077,0.54,0.058,1.057,0.036,1.576
				c-0.076,1.035-0.262,2.067-0.631,3.034C274.654,359.071,273.411,360.794,271.791,361.998z"/>
			<g>
				<path style="fill:#13475F;" d="M272.711,360.935c-0.266,0.266-0.222,0.641,0,0.91c0.383,0.466,0.785,0.952,1.15,1.464
					c-0.805-0.506-1.695-0.887-2.609-1.135c-0.708-0.192-1.119,0.796-0.496,1.176c0.522,0.318,0.85,0.831,1.086,1.383
					c-0.625-0.723-1.334-1.376-2.131-1.936c-0.284-0.2-0.715-0.051-0.88,0.231c-0.188,0.322-0.054,0.68,0.231,0.88
					c1.603,1.128,2.878,2.74,3.597,4.566c0.263,0.667,1.213,0.583,1.264-0.171c0.08-1.19-0.304-2.451-0.703-3.563
					c-0.052-0.146-0.117-0.285-0.177-0.427c0.89,0.533,1.659,1.246,2.169,2.183c0.287,0.527,1.281,0.326,1.199-0.325
					c-0.262-2.062-1.506-3.677-2.789-5.236C273.4,360.667,272.94,360.706,272.711,360.935z"/>
				<path style="fill:#13475F;" d="M310.991,399.765c-0.203-0.984-0.788-1.86-1.367-2.663c-0.613-0.849-1.296-1.642-2.051-2.367
					c-0.598-0.573-1.509,0.335-0.91,0.91c0.223,0.215,0.432,0.444,0.644,0.67c-0.362-0.199-0.74-0.375-1.146-0.505
					c-0.598-0.191-1.111,0.652-0.626,1.075c0.533,0.465,0.937,1.019,1.266,1.618c-0.622-0.395-1.288-0.738-1.916-1.09
					c-0.723-0.406-1.372,0.705-0.649,1.111c0.494,0.277,0.986,0.558,1.475,0.844c0.419,0.244,0.86,0.479,1.215,0.815
					c0.678,0.641,0.686,1.668,1.321,2.358c0.451,0.49,1.222-0.027,1.075-0.626c-0.269-1.097-0.568-2.234-1.026-3.285
					c0.581,0.553,1.111,1.168,1.62,1.762C310.366,400.915,311.111,400.343,310.991,399.765z"/>
			</g>
			<path style="fill:#F5C5C6;" d="M397.512,190.311c0,0-8.384,15.231-6.987,26.829c1.397,11.598,10.34,8.244,10.34,8.244
				s-0.838,2.236-1.956,3.354c-1.118,1.118-9.222,5.31-10.48,5.729c-1.258,0.419-1.677,2.795,2.236,2.375
				c3.912-0.419,10.201-3.214,10.201-3.214l1.956-3.493c0,0,4.891,0.28,9.222-2.236l2.655-6.567c0,0,6.428-1.348,6.987-7.73
				c0.559-6.382-5.449-4.566-6.428-1.492l0.978-8.244c0,0-5.729-2.096-9.362-11.039c0,0-0.14,4.471,2.236,7.546
				C409.109,200.371,402.542,197.158,397.512,190.311z"/>
			<path style="fill:#13475F;" d="M400.865,225.383c0,0,3.647,0.403,9.828-2.236c0,0-3.163,6.209-11.784,5.589
				C398.909,228.737,399.47,228.06,400.865,225.383z"/>
			<path style="fill:#13475F;" d="M419.915,213.601c-0.161-0.767-0.634-1.37-1.254-1.365c-0.14-0.01-0.339-0.003-0.448,0.031
				c-0.05,0.028-0.102,0.023-0.152,0.059c-0.049,0.043-0.097,0.081-0.148,0.115c-0.19,0.208-0.384,0.473-0.514,0.801
				c-0.302,0.626-0.51,1.339-0.731,2.048c-0.21,0.715-0.415,1.441-0.666,2.176c-0.105-0.772-0.083-1.545,0.01-2.313
				c0.096-0.769,0.272-1.532,0.611-2.279c0.17-0.367,0.412-0.738,0.767-1.052c0.107-0.069,0.217-0.135,0.326-0.196
				c0.113-0.057,0.26-0.073,0.388-0.101c0.259-0.033,0.448-0.001,0.678,0.056c0.446,0.094,0.855,0.424,1.033,0.824
				C419.99,212.804,420.014,213.222,419.915,213.601z"/>
			<path style="fill:#FC94C2;" d="M412.814,213.422c-0.141,1.253-1.769,2.097-3.635,1.887s-3.264-1.397-3.123-2.649
				c0.141-1.253,1.769-2.097,3.635-1.887C411.557,210.983,412.955,212.169,412.814,213.422z"/>
			<path style="fill:#FC94C2;" d="M393.064,209.834c0.108-0.962-0.695-1.881-1.918-2.352c-0.289,1.403-0.514,2.823-0.645,4.234
				C391.879,211.568,392.951,210.837,393.064,209.834z"/>
			<path style="fill:#13475F;" d="M385.943,235.003c-0.241,0.59-0.4,1.245-0.267,1.844c0.111,0.616,0.661,0.992,1.25,1.116
				c1.206,0.219,2.518,0.083,3.78-0.045c2.551-0.245,5.086-0.683,7.641-1.027c-1.242,0.351-2.502,0.628-3.768,0.875
				c-1.267,0.245-2.545,0.43-3.83,0.579c-0.645,0.058-1.291,0.101-1.942,0.113c-0.649,0.002-1.31,0.009-1.966-0.178
				c-0.642-0.164-1.3-0.682-1.37-1.395C385.399,236.204,385.618,235.556,385.943,235.003z"/>
		</g>
		<g>
			<path style="fill:#925FF5;" d="M89.086,380.761c0,0-28.487-2.475-44.836-19.304c-16.348-16.829-3.458-20.74-3.458-20.74
				s-13.945-21.346-11.25-31.374c2.695-10.028,14.05-5.316,14.05-5.316s0.085-35.35,9.762-38.618
				c9.677-3.268,19.202,41.97,19.202,41.97s5.26-12.033,16.909-9.516c11.649,2.516,6.564,39.366,6.564,39.366
				s13.431-10.57,21.257,0.713S89.086,380.761,89.086,380.761z"/>
			<g>
				<path style="fill:none;stroke:#55388F;stroke-miterlimit:10;" d="M89.086,380.761c0,0-28.574-40.549-35.733-115.351"/>
				<path style="fill:none;stroke:#55388F;stroke-miterlimit:10;" d="M29.542,309.343c0,0,18.695,20.905,38.176,25.174"/>
				<path style="fill:none;stroke:#55388F;stroke-miterlimit:10;" d="M35.98,346.719c0,0,24.284,18.679,44.037,17.977"/>
				<path style="fill:none;stroke:#55388F;stroke-miterlimit:10;" d="M70.246,341.731c0,0,8.351-10.375,19.219-43.866"/>
				<path style="fill:none;stroke:#55388F;stroke-miterlimit:10;" d="M84.918,373.978c0,0,16.743-17.552,28.9-39.513"/>
			</g>
			<g>
				<defs>
					<path id="SVGID_00000023243083982017606710000002098334525814967942_" d="M89.086,380.761c0,0-28.487-2.475-44.836-19.304
						c-16.348-16.829-3.458-20.74-3.458-20.74s-13.945-21.346-11.25-31.374c2.695-10.028,14.05-5.316,14.05-5.316
						s0.085-35.35,9.762-38.618c9.677-3.268,19.202,41.97,19.202,41.97s5.26-12.033,16.909-9.516
						c11.649,2.516,6.564,39.366,6.564,39.366s13.431-10.57,21.257,0.713S89.086,380.761,89.086,380.761z"/>
				</defs>
				<clipPath id="SVGID_00000152258518904802076140000008281745571761872295_">
					<use xlink:href="#SVGID_00000023243083982017606710000002098334525814967942_"  style="overflow:visible;"/>
				</clipPath>
				<g style="clip-path:url(#SVGID_00000152258518904802076140000008281745571761872295_);">
					<g>
						<path style="fill:#FFFFFF;" d="M79.344,288.667c-1.214,7.219,1.505,14.729,4.16,21.346c1.236,3.081,2.828,6.107,5.288,8.39
							c2.29,2.125,5.158,3.338,8.194,3.948c3.575,0.719,7.259,0.586,10.881,0.436c1.443-0.06,1.06-2.279-0.37-2.219
							c-3.739,0.155-7.628,0.283-11.279-0.686c-3.762-0.999-6.708-3.289-8.677-6.642c-2.001-3.408-3.242-7.311-4.428-11.061
							c-1.36-4.298-2.288-8.775-1.531-13.278C81.823,287.469,79.583,287.245,79.344,288.667L79.344,288.667z"/>
					</g>
					<g>
						<path style="fill:#FFFFFF;" d="M73.151,298.415c0.671,4.149,1.372,8.362,3.099,12.227c1.368,3.059,3.396,5.804,5.82,8.108
							c4.913,4.671,11.207,7.64,17.678,9.471c1.386,0.392,2.194-1.709,0.801-2.103c-6.08-1.72-12.104-4.429-16.749-8.807
							c-2.299-2.167-4.214-4.727-5.508-7.615c-1.649-3.679-2.283-7.699-2.922-11.65C75.14,296.615,72.92,296.983,73.151,298.415
							L73.151,298.415z"/>
					</g>
					<g>
						<path style="fill:#FFFFFF;" d="M42.507,270.649c2.598,3.901,5.617,7.931,10.532,8.791c5.488,0.96,10.493-2.129,14.901-4.961
							c1.215-0.78-0.233-2.505-1.44-1.729c-3.893,2.501-8.379,5.323-13.228,4.452c-4.233-0.76-6.822-4.669-9.036-7.992
							C43.435,268.006,41.71,269.453,42.507,270.649L42.507,270.649z"/>
					</g>
					<g>
						<path style="fill:#FFFFFF;" d="M35.443,277.563c5.26,5.511,12.052,9.348,19.505,10.949c8.376,1.8,17.297,0.499,24.898-3.408
							c1.283-0.659,0.346-2.706-0.947-2.042c-13.841,7.114-30.966,4.333-41.726-6.94C36.178,275.082,34.439,276.512,35.443,277.563
							L35.443,277.563z"/>
					</g>
					<g>
						<path style="fill:#FFFFFF;" d="M18.654,305.662c21.753,14.243,43.571,31.582,52.036,57.194
							c2.329,7.046,3.431,14.499,3.001,21.915c-0.084,1.443,2.155,1.68,2.238,0.233c0.778-13.405-3.282-26.626-10.094-38.083
							c-6.889-11.586-16.473-21.255-26.964-29.614c-6.057-4.826-12.433-9.235-18.91-13.476
							C18.751,303.039,17.439,304.866,18.654,305.662L18.654,305.662z"/>
					</g>
					<g>
						<path style="fill:#FFFFFF;" d="M30.783,327.02c10.879,13.922,26.36,24.421,33.88,40.835c2.058,4.493,3.345,9.264,3.582,14.21
							c0.069,1.443,2.288,1.061,2.219-0.37c-0.89-18.607-15.377-32.119-27.563-44.529c-3.637-3.704-7.19-7.492-10.389-11.585
							C31.621,324.439,29.89,325.878,30.783,327.02L30.783,327.02z"/>
					</g>
				</g>
			</g>
		</g>
		<path style="fill:#D4F7FF;" d="M207.264,125.64c0,0,15.302,2.172,32.799-8.253c17.498-10.425,13.748-20.851,5.197-21.719
			c-8.55-0.869-23.369,9.122-32.466,8.688C203.697,103.921,189.112,117.387,207.264,125.64z"/>
		<g>
			<path style="fill:#925FF5;" d="M189.458,110.742c-0.061,7.017-4.531,13.632-11.105,15.969
				c-6.973,2.479-14.375,0.403-19.149-5.266c-4.47-5.309-4.962-13.438-1.335-19.477c0.932-1.552,1.817-2.624,3.258-3.931
				c1.205-1.093,2.595-2.004,4.288-2.805c1.155-0.546,3.558-1.229,4.771-1.375c0.981-0.117,1.976-0.148,2.963-0.115
				c0.463,0.016,0.926,0.048,1.387,0.096c0.376,0.039,0.454,0.054,1.063,0.175C183.691,95.633,189.388,102.635,189.458,110.742
				c0.033,3.859,6.033,3.868,6,0c-0.083-9.686-6.147-18.251-15.197-21.64c-8.829-3.307-19.421-0.46-25.405,6.821
				c-6.159,7.494-7.212,18.226-2.169,26.623c5.014,8.348,14.824,12.565,24.339,10.745c10.663-2.04,18.339-11.825,18.432-22.548
				C195.491,106.88,189.491,106.877,189.458,110.742z"/>
		</g>
		<g>
			<path style="fill:#925FF5;" d="M90.184,145.906c-0.033,6.755-2.023,13.096-5.996,18.733c-3.543,5.028-9.135,9.324-14.918,11.436
				c-12.989,4.743-27.4,0.807-36.235-9.83c-3.998-4.814-6.663-11.45-7.125-17.713c-0.509-6.905,1.018-13.451,4.55-19.295
				c3.375-5.583,8.283-9.927,14.37-12.725c1.227-0.564,2.856-1.15,4.45-1.597c0.815-0.228,1.638-0.426,2.467-0.595
				c0.855-0.174,1.671-0.309,2.247-0.374c3.491-0.396,7.13-0.262,10.257,0.374c13.248,2.694,23.395,13.282,25.58,26.676
				C90.035,142.254,90.176,144.27,90.184,145.906c0.019,3.86,6.019,3.868,6,0c-0.078-15.984-10.193-30.349-25.163-35.896
				c-14.821-5.492-32.3-0.76-42.334,11.441c-10.21,12.415-11.778,30.313-3.408,44.152c8.324,13.763,24.659,20.836,40.399,17.708
				c15.23-3.026,27.637-15.866,29.991-31.239c0.313-2.046,0.504-4.096,0.515-6.166C96.203,142.045,90.203,142.04,90.184,145.906z"/>
		</g>
		<g>
			<path style="fill:#925FF5;" d="M440.233,105.809c-0.033,6.755-2.023,13.095-5.996,18.733c-3.544,5.028-9.135,9.324-14.918,11.435
				c-12.989,4.743-27.4,0.808-36.235-9.83c-3.998-4.814-6.663-11.45-7.125-17.713c-0.509-6.905,1.018-13.451,4.55-19.295
				c3.375-5.584,8.283-9.927,14.37-12.725c1.227-0.564,2.856-1.15,4.45-1.597c0.815-0.228,1.638-0.427,2.467-0.595
				c0.855-0.174,1.671-0.309,2.247-0.374c3.491-0.396,7.13-0.262,10.257,0.374c13.249,2.694,23.395,13.282,25.58,26.676
				C440.084,102.157,440.225,104.172,440.233,105.809c0.019,3.86,6.019,3.868,6,0c-0.079-15.984-10.193-30.349-25.163-35.896
				c-14.821-5.492-32.3-0.76-42.334,11.441c-10.21,12.416-11.778,30.313-3.408,44.152c8.324,13.763,24.659,20.836,40.399,17.708
				c15.23-3.026,27.637-15.866,29.991-31.239c0.313-2.046,0.504-4.096,0.515-6.166C446.252,101.947,440.252,101.943,440.233,105.809
				z"/>
		</g>
	</g>
</g>
</svg>
